<?xml version="1.0" standalone="no"?>
<!DOCTYPE svg PUBLIC "-//W3C//DTD SVG 20010904//EN"
 "http://www.w3.org/TR/2001/REC-SVG-20010904/DTD/svg10.dtd">
<svg version="1.0" xmlns="http://www.w3.org/2000/svg"
 width="487.000000pt" height="600.000000pt" viewBox="0 0 487.000000 600.000000"
 preserveAspectRatio="xMidYMid meet">
<metadata>
Created by potrace 1.12, written by Peter Selinger 2001-2015
</metadata>
<g transform="translate(0.000000,600.000000) scale(0.100000,-0.100000)"
fill="#000000" stroke="none">
<path d="M744 5990 c-195 -26 -345 -101 -489 -245 -142 -142 -220 -301 -244
-495 -15 -116 -15 -3263 -1 -3378 46 -360 322 -657 678 -728 109 -21 3383 -21
3494 0 316 61 568 299 661 626 l22 75 3 1660 c2 1151 0 1685 -8 1743 -47 361
-288 630 -651 729 -59 16 -183 17 -1734 19 -919 1 -1698 -2 -1731 -6z m3476
-127 c150 -49 248 -110 343 -212 99 -108 165 -244 187 -388 7 -46 10 -615 8
-1748 l-3 -1680 -27 -80 c-72 -211 -229 -384 -419 -461 -155 -63 -28 -59
-1869 -59 -1814 0 -1720 -3 -1866 55 -186 74 -335 222 -409 407 -57 142 -55
68 -55 1860 0 1085 4 1670 10 1712 26 157 95 288 214 406 112 110 245 180 391
204 28 5 811 8 1740 7 l1690 -1 65 -22z"/>
<path d="M2805 5410 c-528 -59 -1197 -134 -1487 -167 -290 -32 -524 -61 -520
-64 4 -3 40 -12 80 -18 l73 -13 -6 -332 -7 -331 119 -247 118 -247 138 -146
c93 -99 137 -153 136 -168 0 -12 -10 -96 -23 -186 l-22 -163 50 5 c28 3 296
45 596 92 300 47 817 128 1150 181 333 52 673 105 755 119 83 13 229 36 325
50 96 15 179 30 183 35 5 4 19 76 33 160 l25 154 -49 50 c-26 28 -88 92 -137
143 -85 89 -91 99 -172 270 -46 98 -100 210 -118 248 l-35 70 -2 290 -3 290
-23 3 c-19 3 -23 0 -18 -15 14 -44 29 -41 -599 -108 -132 -14 -278 -30 -325
-35 -47 -5 -193 -21 -325 -35 -132 -14 -278 -30 -325 -35 -47 -5 -276 -30
-510 -55 -234 -25 -504 -54 -601 -65 -202 -23 -231 -24 -246 -9 -19 19 -3 48
31 54 17 3 263 30 546 60 1579 169 1868 201 2090 225 96 11 193 20 215 21 38
1 37 2 -20 15 -33 7 -76 13 -95 13 -19 -1 -467 -50 -995 -109z m1085 -520 c23
-23 26 -49 7 -74 -16 -21 51 -12 -1512 -211 -545 -69 -1054 -134 -1133 -145
-183 -26 -197 -25 -216 2 -20 29 -20 41 1 67 20 23 -90 8 1388 196 325 42 775
99 1000 129 226 29 418 54 428 55 9 0 26 -8 37 -19z m248 -462 c17 -17 15 -63
-2 -81 -8 -8 -41 -18 -73 -22 -32 -3 -233 -29 -448 -56 -486 -62 -1159 -148
-1807 -231 -378 -48 -502 -60 -515 -52 -11 6 -19 26 -21 47 -3 31 1 39 20 47
13 6 111 21 218 35 177 22 505 64 1015 130 105 13 388 50 630 80 242 31 537
69 655 85 243 31 311 35 328 18z m236 -294 c19 -19 21 -68 4 -82 -18 -14 -46
-18 -273 -47 -110 -14 -339 -43 -510 -65 -170 -22 -593 -76 -940 -120 -346
-45 -737 -95 -868 -111 -227 -29 -239 -30 -258 -13 -22 20 -25 66 -6 83 18 14
53 19 1252 171 1295 165 1408 179 1475 189 85 13 107 12 124 -5z"/>
<path d="M632 5098 c-16 -24 -86 -127 -155 -230 l-127 -187 0 -219 0 -220 100
-73 99 -74 1 -106 0 -106 138 -110 c391 -311 614 -484 618 -480 1 1 12 82 25
179 l23 176 -34 39 c-18 21 -80 89 -138 150 -58 62 -115 134 -127 160 -13 27
-51 107 -85 178 -35 72 -76 159 -94 195 l-31 65 0 335 0 334 -50 12 c-131 29
-131 29 -163 -18z m67 -365 c86 -104 89 -370 5 -480 -26 -34 -81 -66 -96 -57
-17 11 -7 99 15 143 19 39 22 62 22 156 0 97 -3 114 -22 146 -22 35 -33 126
-17 142 12 12 65 -16 93 -50z m-129 -83 c0 -17 -8 -43 -17 -57 -25 -37 -25
-168 0 -206 9 -14 17 -42 17 -61 0 -29 -3 -34 -17 -29 -58 20 -89 94 -87 208
1 93 42 175 86 175 13 0 18 -8 18 -30z"/>
<path d="M3622 3505 c-29 -7 -97 -39 -150 -71 -223 -132 -514 -317 -538 -342
-55 -57 -54 -49 -54 -622 0 -573 -1 -557 54 -609 l26 -24 0 289 0 289 86 98
c73 82 90 97 116 97 61 0 443 -41 451 -49 4 -4 6 -185 5 -403 l-3 -395 65 4
c146 10 287 61 353 130 21 21 92 119 159 218 l123 180 3 545 c3 622 7 587 -84
630 -88 41 -492 64 -612 35z m638 -157 c0 -19 -173 -287 -237 -366 -38 -47
-87 -81 -145 -102 l-38 -14 -2 -515 -3 -516 -25 0 -25 0 -3 505 -2 505 -101
-3 c-106 -4 -498 21 -609 39 -100 16 -147 54 -106 88 10 8 24 6 57 -8 67 -30
601 -69 713 -53 83 12 176 49 214 85 21 19 85 111 224 319 20 31 43 58 50 61
21 7 38 -4 38 -25z"/>
<path d="M3112 2491 c-29 -33 -52 -62 -52 -65 0 -3 11 -6 25 -6 13 0 88 -9
167 -20 79 -11 159 -22 178 -24 34 -5 36 -4 72 64 l37 69 -32 6 c-18 2 -86 9
-152 15 -66 6 -136 13 -156 16 -33 5 -38 1 -87 -55z"/>
<path d="M3532 2362 c-22 -46 -23 -52 -20 -341 l3 -293 23 40 c22 40 22 45 20
340 l-3 300 -23 -46z"/>
<path d="M3022 2033 l3 -338 190 -27 c105 -15 200 -27 213 -27 l22 -1 0 335
c0 184 -3 335 -7 335 -14 0 -378 50 -401 55 l-22 5 2 -337z"/>
</g>
</svg>
