<?xml version="1.0" standalone="no"?>
<!DOCTYPE svg PUBLIC "-//W3C//DTD SVG 20010904//EN"
 "http://www.w3.org/TR/2001/REC-SVG-20010904/DTD/svg10.dtd">
<svg version="1.0" xmlns="http://www.w3.org/2000/svg"
 width="486.000000pt" height="600.000000pt" viewBox="0 0 486.000000 600.000000"
 preserveAspectRatio="xMidYMid meet">
<metadata>
Created by potrace 1.12, written by Peter Selinger 2001-2015
</metadata>
<g transform="translate(0.000000,600.000000) scale(0.100000,-0.100000)"
fill="#000000" stroke="none">
<path d="M775 5994 c-209 -26 -363 -96 -504 -228 -146 -138 -234 -312 -261
-516 -8 -60 -10 -575 -8 -1740 l3 -1655 28 -89 c96 -307 315 -520 612 -596 78
-20 103 -20 1775 -20 1113 0 1715 3 1751 10 274 52 520 254 622 511 67 167 62
27 62 1899 0 1637 -1 1698 -19 1770 -82 321 -306 547 -632 637 -54 15 -213 17
-1729 19 -919 0 -1683 0 -1700 -2z m3383 -120 c303 -62 532 -301 581 -604 7
-43 11 -609 11 -1708 0 -1789 2 -1713 -55 -1855 -55 -134 -176 -274 -305 -350
-36 -22 -105 -53 -155 -70 l-90 -32 -1705 0 c-1355 0 -1715 3 -1755 13 -132
34 -246 95 -342 185 -99 93 -153 179 -207 332 -21 60 -21 60 -24 1735 -2 1139
1 1697 8 1744 37 240 193 451 410 554 58 27 141 53 210 65 14 2 771 5 1683 6
1480 1 1666 -1 1735 -15z"/>
<path d="M2321 5424 c-186 -40 -367 -182 -458 -360 l-37 -71 -95 -12 c-243
-30 -404 -132 -489 -310 -33 -69 -36 -83 -40 -187 l-4 -112 -35 -7 c-170 -32
-335 -134 -413 -255 -99 -154 -116 -382 -45 -591 65 -193 220 -351 426 -432
34 -14 37 -19 52 -86 35 -155 116 -304 205 -380 55 -48 147 -93 222 -111 59
-14 238 -17 308 -5 l42 7 0 -396 0 -396 495 0 495 0 0 374 0 373 123 6 c141 7
210 23 325 78 190 92 315 272 334 483 3 25 9 30 58 45 325 101 511 415 456
770 -39 251 -214 431 -481 495 l-70 17 3 101 c7 193 -60 329 -211 422 -103 64
-181 88 -305 94 l-103 5 -31 66 c-71 156 -173 271 -294 331 -115 56 -293 75
-433 44z m239 -155 c100 -16 173 -53 231 -117 56 -63 114 -171 154 -285 21
-60 32 -77 43 -72 8 3 46 11 83 17 136 24 303 -25 388 -112 61 -63 84 -135 78
-240 -3 -47 -14 -114 -25 -150 -34 -109 -39 -101 58 -105 258 -9 442 -125 501
-314 22 -72 26 -208 8 -293 -46 -218 -213 -357 -472 -393 l-49 -7 7 -76 c19
-227 -99 -390 -335 -464 -96 -29 -254 -32 -345 -5 -33 10 -68 20 -77 23 -17 5
-18 -18 -18 -390 l0 -396 -335 0 -335 0 0 411 c0 386 -1 410 -17 405 -96 -27
-203 -41 -328 -41 -153 0 -192 10 -270 72 -79 62 -148 204 -175 363 -6 36 -13
75 -16 87 -3 17 -15 24 -59 33 -83 17 -189 75 -260 141 -71 67 -124 158 -150
259 -24 91 -25 240 -1 311 55 169 227 275 464 287 83 4 102 7 98 19 -48 125
-56 284 -17 370 29 66 95 127 174 163 80 36 136 47 275 56 l112 7 16 55 c56
192 207 336 397 377 78 17 115 18 197 4z"/>"/>-->
</g>
</svg>
