<?xml version="1.0" standalone="no"?>
<!DOCTYPE svg PUBLIC "-//W3C//DTD SVG 20010904//EN"
 "http://www.w3.org/TR/2001/REC-SVG-20010904/DTD/svg10.dtd">
<svg version="1.0" xmlns="http://www.w3.org/2000/svg"
 width="422.000000pt" height="600.000000pt" viewBox="0 0 422.000000 600.000000"
 preserveAspectRatio="xMidYMid meet">
<metadata>
Created by potrace 1.12, written by Peter Selinger 2001-2015
</metadata>
<g transform="translate(0.000000,600.000000) scale(0.100000,-0.100000)"
fill="#000000" stroke="none">
<path d="M655 5990 c-84 -12 -166 -40 -250 -83 -115 -59 -234 -180 -297 -302
-90 -176 -83 -34 -83 -1705 0 -1654 -6 -1522 74 -1685 94 -191 265 -332 465
-384 79 -21 95 -21 1555 -21 l1476 0 87 24 c247 68 437 258 510 511 l23 80 0
1475 c0 1665 7 1520 -81 1699 -39 79 -61 108 -134 181 -97 96 -190 152 -320
192 l-75 23 -1450 1 c-797 1 -1473 -2 -1500 -6z m2990 -103 c239 -71 398 -232
462 -467 17 -61 18 -157 18 -1520 0 -1356 -1 -1459 -18 -1520 -56 -209 -213
-379 -417 -452 l-65 -23 -1505 0 -1505 0 -65 23 c-199 72 -348 228 -412 432
l-23 75 0 1465 0 1465 23 75 c40 125 78 188 166 275 109 109 221 166 361 185
33 4 704 7 1490 6 1340 -1 1434 -2 1490 -19z"/>
<path d="M3408 5360 c-115 -82 -129 -89 -151 -79 -31 14 -32 14 -229 -127 -88
-63 -165 -114 -171 -114 -7 1 -52 57 -101 125 -60 85 -96 127 -112 131 -29 8
-44 -2 -366 -233 -128 -91 -318 -227 -423 -301 -104 -74 -283 -202 -397 -283
-114 -82 -211 -149 -216 -149 -5 0 -15 7 -22 15 -38 46 -149 -14 -137 -74 4
-16 54 -98 113 -181 l106 -153 -28 -23 c-16 -13 -32 -23 -36 -24 -3 0 -23 23
-43 51 -28 37 -43 49 -59 47 -33 -5 -32 -43 3 -90 17 -23 31 -45 31 -49 0 -9
-84 -72 -305 -229 -88 -62 -186 -133 -217 -157 -31 -24 -61 -43 -66 -43 -5 0
-31 32 -58 70 -62 89 -102 104 -151 57 -29 -26 -29 -55 0 -98 147 -215 245
-350 265 -366 24 -19 69 -16 92 7 35 35 26 79 -30 153 l-50 67 58 42 c33 24
101 74 153 111 52 37 159 115 238 172 80 58 147 105 150 104 3 0 23 -23 44
-50 29 -37 44 -49 60 -47 35 5 32 39 -9 92 l-37 48 29 24 c16 13 33 22 38 21
4 -2 56 -70 115 -152 116 -164 142 -185 193 -164 39 16 60 50 56 90 -3 32 1
36 212 186 118 84 242 172 275 196 33 24 164 117 290 207 127 90 253 180 280
200 28 20 97 70 155 110 132 93 160 118 160 147 0 14 -36 73 -82 139 -46 64
-87 122 -93 129 -5 8 -7 16 -5 18 3 2 83 59 178 126 158 112 196 148 186 176
-2 6 16 24 40 40 211 144 250 176 214 175 -7 0 -70 -41 -140 -90z m-755 -262
c42 -62 79 -115 211 -298 l96 -135 -22 -17 c-32 -25 -339 -245 -402 -288 -52
-35 -82 -49 -72 -31 10 16 -148 226 -170 226 -37 0 -24 -33 56 -143 44 -61 80
-115 80 -121 0 -11 -110 -91 -125 -91 -5 0 -17 11 -25 25 -53 85 -147 205
-163 205 -39 0 -27 -32 53 -145 45 -63 80 -119 78 -125 -5 -15 -101 -79 -110
-74 -5 3 -43 54 -84 112 -76 108 -96 128 -114 117 -21 -13 -7 -45 70 -152 44
-61 80 -114 80 -116 0 -3 -28 -26 -62 -52 -44 -33 -64 -43 -72 -35 -6 6 -45
59 -86 118 -74 105 -104 130 -116 97 -5 -11 21 -57 75 -135 44 -65 81 -121 81
-123 0 -8 -239 -177 -250 -177 -5 0 -36 39 -69 88 -33 48 -78 112 -100 142
-91 124 -171 242 -171 251 0 4 135 103 301 220 165 118 335 239 377 270 133
96 434 311 517 368 44 30 82 59 83 63 7 17 20 6 55 -44z"/>
<path d="M3633 4490 c-19 -8 -296 -209 -413 -300 -19 -15 -244 -184 -500 -376
-1091 -821 -1048 -787 -1061 -839 -11 -42 -16 -47 -113 -104 -225 -133 -468
-319 -674 -515 -51 -49 -102 -103 -114 -119 l-21 -29 34 7 c83 17 250 67 336
100 153 60 184 87 257 226 28 53 64 87 201 190 181 136 186 139 255 139 l62 0
216 147 c119 80 271 183 337 228 66 45 206 139 310 210 105 71 273 185 375
255 102 70 299 204 438 300 140 95 268 187 284 204 48 48 69 106 70 191 0 41
-3 79 -7 84 -8 13 -240 14 -272 1z m-2074 -1674 c6 -7 9 -20 6 -27 -5 -12
-391 -309 -432 -333 -19 -10 -48 16 -40 36 3 8 88 77 188 153 101 76 197 149
212 162 33 26 50 29 66 9z"/>
</g>
</svg>
