<?xml version="1.0" standalone="no"?>
<!DOCTYPE svg PUBLIC "-//W3C//DTD SVG 20010904//EN"
 "http://www.w3.org/TR/2001/REC-SVG-20010904/DTD/svg10.dtd">
<svg version="1.0" xmlns="http://www.w3.org/2000/svg"
 width="508.000000pt" height="600.000000pt" viewBox="0 0 508.000000 600.000000"
 preserveAspectRatio="xMidYMid meet">
<metadata>
Created by potrace 1.12, written by Peter Selinger 2001-2015
</metadata>
<g transform="translate(0.000000,600.000000) scale(0.100000,-0.100000)"
fill="#000000" stroke="none">
<path d="M925 5809 c-327 -48 -582 -279 -672 -611 -16 -58 -18 -191 -21 -1623
-2 -1139 0 -1585 8 -1655 40 -326 265 -590 585 -686 57 -17 151 -19 1685 -22
1474 -2 1632 -1 1700 14 279 61 502 262 596 536 45 132 45 165 42 1813 l-3
1560 -22 76 c-92 326 -350 554 -676 598 -96 13 -3132 13 -3222 0z m3220 -103
c281 -42 491 -227 577 -508 l22 -73 4 -1476 c2 -860 -1 -1542 -6 -1635 -9
-139 -14 -170 -41 -244 -62 -170 -186 -308 -346 -385 -164 -80 -51 -75 -1822
-75 -1546 0 -1580 1 -1662 20 -251 60 -453 262 -517 515 -16 65 -17 174 -16
1676 l2 1606 23 80 c76 263 312 468 579 502 34 5 749 9 1588 10 1235 1 1542
-2 1615 -13z"/>
<path d="M2940 5452 c-40 -19 -70 -71 -70 -119 0 -18 45 -168 100 -334 55
-165 97 -306 93 -312 -6 -11 -45 -54 -184 -201 l-57 -60 -63 41 c-140 88 -199
123 -211 123 -6 0 -74 -29 -150 -65 -76 -36 -140 -65 -143 -65 -2 0 -20 51
-40 113 -21 61 -57 155 -80 208 -73 160 -73 183 -1 167 58 -12 86 1 86 42 0
37 -28 57 -95 65 -59 7 -112 -15 -133 -55 -24 -46 -9 -135 41 -245 87 -194
142 -385 207 -724 59 -311 66 -377 53 -501 l-6 -62 -96 6 c-53 4 -123 9 -156
12 l-60 6 -75 127 c-41 69 -118 200 -172 290 -53 90 -104 186 -112 215 -8 28
-37 139 -65 246 -27 107 -66 254 -84 326 -24 91 -33 145 -30 175 5 42 1 49
-60 130 -87 115 -145 152 -242 157 -59 3 -74 1 -95 -16 l-25 -20 26 -29 c14
-15 49 -53 78 -84 67 -72 97 -113 126 -170 28 -54 24 -79 -16 -103 l-29 -17
-39 83 c-100 217 -112 237 -149 266 -58 46 -100 64 -163 69 -114 11 -215 -51
-271 -164 -27 -55 -33 -80 -36 -152 -5 -101 -11 -79 113 -436 53 -154 107
-311 120 -350 13 -38 55 -161 94 -273 l70 -203 -136 7 c-118 6 -138 5 -148 -9
-14 -20 -2 -167 16 -178 7 -4 64 -10 128 -14 200 -12 236 -22 80 -24 -75 0
-170 -4 -212 -7 -75 -7 -85 -12 -88 -49 0 -5 -6 -17 -14 -25 -7 -8 -54 -98
-105 -200 l-93 -185 22 -130 c12 -71 26 -150 31 -175 5 -25 14 -75 20 -112
l12 -67 173 -116 c95 -63 177 -115 182 -115 5 0 25 -60 43 -132 49 -195 106
-368 135 -410 l26 -38 317 0 c174 0 395 3 491 7 153 5 175 8 191 26 29 30 69
170 115 404 24 118 46 218 50 221 18 18 93 38 115 30 61 -22 151 32 170 103
14 53 -3 115 -43 156 l-31 33 25 0 c13 0 143 -15 289 -34 213 -27 276 -38 320
-58 57 -26 120 -44 178 -52 19 -3 35 -6 36 -8 3 -3 127 -306 256 -623 32 -77
60 -152 63 -166 16 -63 120 -129 206 -129 68 0 102 17 172 89 65 66 69 73 69
115 0 88 -93 156 -212 156 -76 0 -122 -24 -150 -79 l-17 -34 -10 24 c-5 13
-21 55 -36 92 -16 38 -24 72 -19 76 5 4 43 34 84 67 41 32 95 76 119 96 l44
38 131 0 132 0 128 130 c70 71 132 130 136 130 8 0 50 -100 50 -118 0 -25 -44
-87 -68 -98 -17 -7 -36 -27 -47 -50 -16 -33 -16 -45 -6 -84 25 -96 110 -178
195 -187 56 -7 91 13 112 63 8 19 21 34 30 34 9 0 29 13 45 29 24 25 29 37 29
81 0 85 -67 183 -143 211 -38 14 -17 -33 -209 454 -43 110 -115 273 -161 362
l-82 163 -130 0 -130 0 -170 120 c-93 65 -180 119 -192 120 -26 0 -56 -40 -47
-63 6 -17 65 -62 255 -196 115 -79 118 -81 176 -81 33 0 87 -3 120 -6 l60 -6
57 -115 57 -115 -53 7 c-84 11 -256 53 -335 81 -53 19 -89 41 -138 84 -64 56
-182 125 -255 149 -62 20 -110 120 -110 231 0 31 10 90 21 131 17 59 22 109
25 244 2 94 4 175 4 180 1 6 14 -30 30 -80 23 -69 30 -109 30 -170 0 -87 15
-125 51 -125 10 0 27 8 38 19 16 16 18 30 13 122 -5 102 -8 113 -174 619 -93
283 -197 594 -230 690 -40 116 -61 192 -62 225 l-1 50 45 1 c25 0 53 4 63 8
25 12 22 61 -5 80 -30 21 -105 20 -148 -2z m-1701 -390 c47 -38 141 -159 141
-182 0 -11 -11 -31 -24 -47 l-24 -27 -25 50 c-35 69 -105 156 -119 148 -7 -5
-8 -2 -3 5 4 8 -7 28 -31 53 l-39 41 44 -6 c27 -3 57 -16 80 -35z m-324 -6
c83 -39 125 -103 125 -189 0 -103 -81 -179 -189 -179 -86 1 -143 65 -126 142
7 33 63 86 113 107 33 14 36 13 62 -12 16 -15 30 -36 33 -46 7 -26 -33 -52
-74 -47 -45 4 -63 -26 -31 -52 58 -48 186 34 167 108 -9 37 -60 97 -94 112
-82 34 -241 -90 -241 -189 0 -40 24 -98 53 -129 37 -39 78 -55 142 -55 99 0
181 48 220 128 9 19 18 35 20 35 3 0 16 -26 31 -57 l26 -57 -34 -28 c-18 -16
-53 -40 -76 -55 l-44 -26 -106 11 c-59 7 -126 12 -149 12 -63 0 -88 16 -114
73 -20 41 -24 67 -24 137 0 75 4 93 30 145 61 120 169 163 280 111z m481 -336
l10 -50 -32 -10 c-18 -6 -38 -18 -46 -27 -12 -15 -9 -16 22 -11 19 4 42 9 51
13 13 5 19 -6 33 -57 9 -35 36 -139 60 -231 l44 -168 -25 -10 c-13 -5 -27 -9
-31 -9 -4 0 -18 -9 -32 -20 -23 -18 -24 -20 -5 -20 12 0 37 9 58 19 41 21 42
21 52 -29 4 -19 26 -69 50 -112 l43 -76 -44 -17 c-24 -9 -44 -21 -44 -26 0
-13 6 -12 52 11 23 11 43 18 45 17 3 -4 103 -169 103 -172 0 -1 31 -53 69
-116 38 -63 64 -117 59 -120 -20 -12 -59 5 -76 33 -10 17 -40 40 -72 56 -50
25 -65 27 -175 27 -97 0 -126 -3 -150 -18 -113 -67 -95 -63 -260 -52 l-150 10
-26 75 c-14 41 -60 174 -101 295 -42 121 -79 227 -83 236 -5 13 2 20 27 28 44
15 90 50 66 51 -10 0 -36 -7 -58 -16 -24 -10 -45 -13 -49 -8 -4 5 -31 78 -59
162 l-51 152 67 -1 c37 0 85 -4 107 -8 l40 -7 -50 -23 c-28 -13 -44 -25 -37
-28 19 -7 99 17 113 33 7 8 30 14 56 14 58 0 105 24 205 104 104 83 201 155
209 156 3 0 10 -22 15 -50z m1738 -250 c48 -231 67 -380 73 -565 5 -172 4
-185 -22 -290 -37 -147 -32 -236 17 -334 18 -36 34 -69 36 -73 4 -8 -141 -93
-310 -182 -123 -65 -128 -67 -156 -52 -15 8 -33 21 -39 28 -6 7 -52 141 -103
298 -51 157 -139 429 -197 605 -153 470 -155 476 -152 479 11 9 256 119 264
119 6 0 48 -24 95 -54 47 -30 110 -70 141 -88 41 -24 65 -48 89 -87 20 -34 39
-54 51 -54 32 0 30 18 -6 75 -20 31 -35 62 -33 69 2 8 46 60 98 116 52 56 99
109 104 117 14 25 23 3 50 -127z m-2250 -970 c517 -36 1480 -100 1514 -100 34
0 39 -11 23 -52 -10 -28 89 -31 -971 37 -489 32 -727 51 -732 58 -4 7 -8 24
-8 40 0 32 -13 30 174 17z m1692 -368 c50 -156 73 -214 86 -218 10 -3 18 -9
18 -13 0 -10 -108 -62 -113 -53 -20 33 -109 423 -102 444 21 59 27 70 34 62 5
-5 39 -105 77 -222z m-201 128 c8 0 15 -19 20 -47 3 -27 29 -135 56 -241 27
-107 49 -200 49 -208 0 -8 -8 -17 -17 -21 -10 -3 -55 -22 -101 -41 -45 -19
-85 -32 -88 -30 -5 6 22 476 32 556 4 34 9 42 21 38 8 -3 21 -6 28 -6z m-130
-37 c-3 -21 -8 -53 -11 -70 l-5 -33 -99 0 -100 0 0 64 c0 75 -6 72 138 75 l83
1 -6 -37z m-505 -43 l0 -70 -115 0 -115 0 0 64 c0 76 -5 73 133 75 l97 1 0
-70z m258 3 l-3 -68 -112 -3 -113 -3 0 70 0 71 115 0 116 0 -3 -67z m-778 -13
l0 -70 -69 0 -70 0 -6 55 c-11 81 -7 85 75 85 l70 0 0 -70z m260 1 l0 -69
-116 1 -117 2 -4 54 c-7 83 -9 81 122 81 l115 0 0 -69z m1976 -76 c25 -15 71
-50 101 -77 31 -28 83 -63 117 -79 60 -28 240 -79 277 -79 28 0 22 -13 -14
-31 -18 -8 -110 -61 -205 -118 -96 -56 -175 -101 -177 -99 -1 1 -15 45 -31 96
-24 79 -31 93 -52 99 -32 8 -39 -2 -109 -149 -31 -65 -59 -118 -63 -118 -4 0
-24 42 -45 93 -21 50 -43 97 -49 103 -11 11 -45 30 -221 124 -44 23 -84 46
-88 50 -5 4 45 36 110 70 65 34 161 89 213 120 l95 58 47 -18 c27 -10 69 -30
94 -45z m-1464 -70 c-2 -33 -5 -75 -9 -92 l-5 -33 -112 0 -111 0 3 89 3 90 42
4 c23 2 76 3 116 3 l75 -1 -2 -60z m233 43 c-5 -26 -25 -149 -25 -160 0 -5
-43 -8 -96 -8 l-97 0 6 68 c4 37 7 79 7 95 l0 27 105 0 c104 0 105 0 100 -22z
m-745 -82 l0 -96 -115 0 -115 0 0 93 0 92 115 3 115 4 0 -96z m253 12 c-3 -46
-6 -89 -8 -95 -3 -10 -35 -13 -116 -13 -97 0 -110 2 -105 16 3 9 6 51 6 95 l0
79 113 0 114 0 -4 -82z m-513 -13 c0 -47 0 -88 0 -92 0 -5 -30 -8 -67 -8 l-68
0 -3 93 -4 92 71 0 71 0 0 -85z m971 -110 c5 -4 -17 -175 -23 -180 -2 -2 -42
-6 -89 -10 l-86 -7 4 73 c7 123 3 118 81 122 37 2 76 4 88 5 11 1 23 0 25 -3z
m-470 -100 c-1 -49 -3 -90 -4 -91 -1 -1 -49 -4 -107 -6 l-105 -3 -3 92 -3 92
73 4 c40 2 91 3 112 3 l39 -1 -2 -90z m253 13 c-3 -46 -7 -89 -10 -96 -3 -9
-30 -12 -111 -10 -96 3 -108 5 -107 21 1 9 2 51 3 92 l1 75 115 0 115 0 -6
-82z m-746 -25 l3 -93 -69 0 -68 0 -3 93 -2 93 68 0 68 -1 3 -92z m250 5 l-3
-93 -106 -3 -106 -3 -7 86 c-4 47 -4 90 -1 95 4 6 54 10 116 10 l111 0 -4 -92z
m1489 -15 l163 -88 25 -63 c14 -34 25 -67 25 -73 0 -15 -105 -2 -145 18 -99
49 -403 228 -399 235 13 20 121 68 144 64 14 -3 98 -44 187 -93z m1069 -28
c193 -72 204 -77 204 -93 0 -10 -20 -38 -43 -63 -23 -25 -65 -72 -94 -105 -49
-57 -57 -62 -140 -86 -83 -25 -94 -26 -198 -18 -60 5 -110 8 -110 7 -13 -27
-149 -237 -154 -237 -3 0 -23 107 -43 238 -32 212 -34 240 -22 265 8 15 17 27
19 27 2 0 14 -31 26 -70 14 -48 27 -71 40 -75 14 -5 57 15 142 66 67 39 158
93 202 119 44 27 85 48 91 49 7 1 43 -10 80 -24z m-1353 -69 c62 -36 121 -72
132 -81 19 -15 18 -15 -15 -11 -19 3 -129 17 -245 31 -115 14 -214 27 -220 29
-11 3 204 95 223 96 7 0 63 -29 125 -64z m-728 -91 c-4 -49 -9 -92 -11 -94 -2
-2 -49 -6 -104 -9 l-100 -5 0 96 0 96 93 3 c50 2 100 3 111 3 17 1 18 -6 11
-90z m205 78 c0 -10 -5 -53 -12 -95 l-11 -78 -80 0 -80 0 7 86 c3 48 9 90 12
95 3 5 41 9 85 9 69 0 79 -2 79 -17z m-690 -90 l0 -98 -105 -2 -105 -3 0 95 0
94 78 4 c42 1 89 4 105 5 l27 2 0 -97z m246 51 c-3 -26 -6 -69 -6 -95 l0 -49
-105 0 -105 0 0 95 0 95 111 0 112 0 -7 -46z m-484 -55 c2 -50 1 -93 -1 -95
-2 -2 -44 -4 -93 -4 -73 0 -88 3 -88 15 0 14 25 127 36 163 2 8 26 12 73 12
l70 0 3 -91z m474 -193 c-3 -39 -5 -81 -6 -92 0 -20 -5 -22 -100 -23 l-100 -2
0 95 0 95 98 3 c53 2 101 1 106 -1 4 -2 6 -36 2 -75z m231 -7 c-3 -50 -7 -93
-9 -94 -2 -2 -46 -5 -98 -6 l-95 -2 -3 64 c-2 35 -1 78 3 95 l5 32 102 1 101
2 -6 -92z m193 84 c0 -5 -7 -47 -16 -95 l-16 -88 -70 0 -71 0 6 68 c4 37 7 79
7 95 l0 27 80 0 c44 0 80 -3 80 -7z m-892 -100 l3 -90 -62 -7 c-105 -11 -107
-10 -113 27 -3 17 -8 60 -11 94 l-6 62 78 3 c43 2 85 3 93 2 12 -1 16 -19 18
-91z m232 2 l0 -95 -99 0 -98 0 -6 87 c-3 47 -4 90 -1 95 3 4 50 8 105 8 l99
0 0 -95z m620 -127 c-1 -28 -25 -157 -31 -162 -2 -3 -31 -7 -63 -10 l-59 -5 7
61 c3 33 6 76 6 94 l0 33 58 4 c31 2 63 4 70 5 6 1 12 -8 12 -20z m-624 -174
c-3 -8 -32 -12 -98 -11 l-93 2 -3 92 -3 92 98 3 98 3 3 -84 c2 -47 1 -90 -2
-97z m234 92 l0 -96 -95 0 c-52 0 -98 0 -102 0 -7 0 -7 19 -5 125 l2 60 100 3
100 4 0 -96z m224 47 c-2 -27 -6 -68 -7 -93 l-4 -45 -98 -3 -98 -3 7 32 c3 17
6 60 6 95 l0 64 99 0 99 0 -4 -47z m2592 28 c65 -39 108 -127 84 -170 -17 -32
-33 -25 -62 29 -24 43 -86 101 -120 112 -8 3 -7 11 1 26 15 28 55 29 97 3z
m-3462 -85 c5 -48 7 -88 5 -90 -2 -2 -32 -6 -67 -9 -70 -6 -72 -4 -88 78 l-7
38 36 -7 c36 -7 37 -7 47 36 10 38 14 43 38 42 26 -1 27 -2 36 -88z m186 37
c0 -32 3 -75 6 -95 l7 -38 -81 0 -80 0 -7 68 c-3 37 -8 76 -10 88 -3 12 -2 24
2 28 3 3 42 6 85 6 l78 0 0 -57z m661 -228 c-2 -43 -4 -86 -5 -93 -2 -11 -23
-15 -87 -16 l-84 -1 -3 92 -3 92 73 4 c124 6 114 13 109 -78z m149 68 c-1 -10
-9 -52 -18 -93 l-18 -75 -47 -3 -48 -3 6 63 c13 136 9 128 70 128 46 0 55 -3
55 -17z m-580 -88 l0 -95 -95 0 -95 0 -1 63 c0 34 -3 74 -5 89 -5 31 5 34 124
37 l72 1 0 -95z m224 3 l-4 -93 -100 -3 -100 -3 0 89 c0 49 3 92 7 95 3 4 50
7 103 7 l97 0 -3 -92z m-620 30 c4 -29 9 -72 12 -95 l6 -43 -55 0 -55 0 -24
88 c-14 48 -23 90 -21 95 2 4 33 7 67 7 l63 0 7 -52z m176 -43 l0 -95 -65 0
-64 0 -5 33 c-3 17 -9 60 -14 95 l-9 62 79 0 78 0 0 -95z m448 -177 l3 -68
-106 0 -105 0 0 64 0 65 53 3 c28 2 75 3 102 3 l50 0 3 -67z m191 30 c-2 -88
-6 -93 -86 -96 l-71 -3 -7 60 c-4 33 -4 65 0 70 3 6 41 11 86 11 l79 0 -1 -42z
m-637 -28 c1 -33 2 -64 1 -68 -2 -4 -29 -6 -61 -4 l-58 4 -3 46 c-1 25 -5 50
-8 55 -10 16 20 27 74 27 l51 0 4 -60z m209 56 c2 -2 2 -32 1 -65 l-4 -61 -89
0 -89 0 0 65 0 65 88 0 c49 0 91 -2 93 -4z"/>
</g>
</svg>
