<?xml version="1.0" standalone="no"?>
<!DOCTYPE svg PUBLIC "-//W3C//DTD SVG 20010904//EN"
 "http://www.w3.org/TR/2001/REC-SVG-20010904/DTD/svg10.dtd">
<svg version="1.0" xmlns="http://www.w3.org/2000/svg"
 width="491.000000pt" height="600.000000pt" viewBox="0 0 491.000000 600.000000"
 preserveAspectRatio="xMidYMid meet">
<metadata>
Created by potrace 1.12, written by Peter Selinger 2001-2015
</metadata>
<g transform="translate(0.000000,600.000000) scale(0.100000,-0.100000)"
fill="#000000" stroke="none">
<path d="M750 5990 c-193 -26 -357 -108 -496 -247 -108 -108 -180 -232 -226
-390 l-22 -78 -3 -1677 c-4 -1845 -5 -1795 57 -1955 62 -162 176 -306 313
-397 103 -68 174 -100 286 -129 l86 -22 1700 0 c1782 0 1747 -1 1875 42 128
43 240 113 341 214 106 106 178 233 221 391 l23 83 0 1720 0 1720 -22 84 c-74
275 -265 490 -527 592 -156 60 -112 59 -1911 58 -902 -1 -1665 -5 -1695 -9z
m3494 -123 c251 -77 433 -250 517 -494 l34 -98 3 -1685 c2 -1163 -1 -1707 -8
-1755 -49 -319 -289 -563 -610 -621 -110 -20 -3339 -20 -3450 0 -157 28 -294
100 -404 213 -108 110 -166 219 -197 368 -18 86 -19 167 -19 1745 0 1061 4
1677 10 1717 41 253 204 465 434 567 46 21 109 38 211 60 11 2 785 3 1720 2
1603 -1 1703 -3 1759 -19z"/>
<path d="M910 5516 c0 -6 -90 -436 -96 -463 -6 -22 -3 -23 45 -23 49 0 51 -1
51 -28 0 -22 -37 -65 -205 -232 l-205 -205 0 -289 0 -289 55 -55 55 -55 0
-167 0 -166 -55 -54 -55 -54 0 -759 0 -758 127 -129 127 -130 451 0 451 0 127
128 127 129 0 761 0 762 -54 54 -54 54 -1 166 -2 166 55 51 55 51 1 291 0 292
-205 205 c-168 168 -205 210 -205 232 0 27 2 28 50 28 28 0 50 2 50 4 0 5 -62
303 -86 414 l-15 72 -295 0 c-162 0 -294 -2 -294 -4z m472 -241 l15 -75 -28 0
-29 0 0 -148 0 -147 200 -200 200 -200 0 -227 0 -227 -57 -55 -56 -56 -423 0
-422 0 -56 58 -56 57 0 225 0 225 200 200 200 200 0 147 0 148 -25 0 c-29 0
-30 8 -13 92 l12 58 162 0 161 0 15 -75z m258 -1460 l0 -75 -435 0 -435 0 0
75 0 75 435 0 435 0 0 -75z m0 -200 l0 -75 -425 -2 c-234 -2 -430 -1 -435 0
-6 2 -10 37 -10 78 l0 74 435 0 435 0 0 -75z m43 -183 l57 -56 0 -696 0 -695
-79 -82 -79 -83 -376 0 -377 0 -79 83 -80 82 0 695 0 694 57 59 58 58 420 -1
420 -1 58 -57z"/>
<path d="M2267 5111 c-122 -163 -121 -313 4 -580 67 -141 92 -229 87 -295 -5
-57 -35 -125 -74 -166 l-24 -26 60 -59 59 -58 21 24 c101 118 138 230 119 367
-7 57 -26 114 -71 217 -85 194 -107 262 -108 320 0 54 24 115 64 168 l25 33
-58 58 -58 58 -46 -61z"/>
<path d="M2707 5111 c-66 -89 -90 -158 -89 -256 0 -96 21 -166 97 -335 65
-143 85 -208 85 -269 0 -50 -26 -116 -66 -168 -13 -17 -24 -35 -24 -40 0 -4
25 -32 54 -61 l53 -54 37 44 c85 98 125 227 106 344 -13 78 -35 143 -98 279
-88 194 -101 270 -58 361 13 28 29 55 35 58 6 4 15 15 20 25 8 14 -1 29 -49
76 l-58 58 -45 -62z"/>
<path d="M3174 5148 c-81 -90 -117 -178 -116 -288 0 -95 20 -171 79 -299 19
-42 49 -110 65 -151 55 -134 42 -256 -38 -340 l-24 -26 60 -59 59 -59 23 29
c143 177 157 333 51 570 -121 272 -134 333 -90 426 14 30 34 66 43 81 l18 27
-55 56 -55 56 -20 -23z"/>
<path d="M2040 3560 l0 -80 811 0 812 0 -7 -142 c-30 -618 -137 -1080 -318
-1367 -53 -84 -108 -152 -122 -150 -6 1 -278 1 -604 0 l-593 -1 -81 -80 -82
-80 720 0 720 0 50 53 c265 275 424 780 469 1489 l7 106 57 10 c31 5 143 23
249 38 l192 29 0 127 0 128 -1140 0 -1140 0 0 -80z"/>
</g>
</svg>
