<?xml version="1.0" standalone="no"?>
<!DOCTYPE svg PUBLIC "-//W3C//DTD SVG 20010904//EN"
 "http://www.w3.org/TR/2001/REC-SVG-20010904/DTD/svg10.dtd">
<svg version="1.0" xmlns="http://www.w3.org/2000/svg"
 width="476.000000pt" height="600.000000pt" viewBox="0 0 476.000000 600.000000"
 preserveAspectRatio="xMidYMid meet">
<metadata>
Created by potrace 1.12, written by Peter Selinger 2001-2015
</metadata>
<g transform="translate(0.000000,600.000000) scale(0.100000,-0.100000)"
fill="#000000" stroke="none">
<path d="M720 5988 c-154 -22 -318 -103 -442 -217 -106 -98 -184 -225 -230
-373 l-23 -73 -3 -1673 c-2 -1641 -2 -1675 18 -1757 73 -309 310 -546 614
-615 90 -21 103 -21 1766 -18 l1675 3 70 24 c149 50 246 110 355 220 130 131
205 287 230 476 8 54 10 603 8 1700 -4 1613 -4 1620 -25 1692 -85 291 -289
499 -578 590 l-90 28 -1640 1 c-973 1 -1666 -2 -1705 -8z m3435 -131 c115 -40
210 -100 290 -181 82 -84 135 -170 173 -281 l27 -80 0 -1690 0 -1690 -27 -77
c-64 -180 -202 -340 -361 -418 -167 -82 -4 -75 -1827 -78 -1102 -2 -1647 1
-1694 8 -294 45 -521 255 -597 551 -12 45 -14 327 -14 1709 0 1560 1 1659 18
1720 71 259 266 454 521 520 68 18 143 18 1741 17 l1670 -2 80 -28z"/>
<path d="M970 4883 l0 -240 -42 -12 c-49 -15 -260 -93 -300 -112 l-28 -12 0
-1199 c0 -659 2 -1198 5 -1198 3 0 69 25 147 56 381 149 676 200 1011 176 233
-17 256 -23 439 -112 90 -44 168 -80 175 -80 6 0 85 36 175 79 152 74 170 80
273 95 428 61 799 7 1253 -180 45 -19 84 -34 87 -34 3 0 4 541 3 1202 l-3
1202 -125 48 c-69 26 -149 56 -177 65 l-53 17 0 239 0 239 -147 -6 c-510 -24
-873 -139 -1188 -377 -43 -32 -83 -59 -88 -59 -5 0 -34 19 -65 43 -106 79
-206 140 -327 198 -261 124 -500 177 -882 194 l-143 7 0 -239z m485 42 c297
-51 580 -173 787 -340 l63 -51 3 -957 c1 -526 0 -957 -3 -957 -2 0 -41 25 -87
55 -285 190 -640 299 -1038 317 -30 2 -54 6 -52 11 1 4 2 445 2 980 l0 972
117 -7 c65 -4 158 -15 208 -23z m2195 -954 l0 -978 -113 -6 c-212 -11 -441
-57 -609 -122 -152 -59 -252 -112 -435 -233 l-23 -14 0 960 0 960 78 59 c200
153 444 263 687 312 132 26 383 53 408 43 4 -2 7 -443 7 -981z m-2547 -1135
c491 -25 760 -108 1086 -334 52 -36 90 -67 83 -70 -6 -2 -55 6 -109 17 -191
39 -341 54 -548 54 -273 0 -474 -33 -725 -118 -58 -20 -109 -37 -115 -38 -7
-1 -10 346 -10 1027 l0 1029 100 38 100 38 3 -818 2 -818 133 -7z m2897 1569
c6 -4 10 -384 10 -1034 l0 -1027 -117 39 c-269 89 -463 120 -738 120 -196 0
-359 -16 -544 -54 -51 -10 -98 -19 -105 -19 -16 1 37 44 139 112 284 190 575
273 1028 294 l137 6 0 818 0 818 90 -34 c50 -18 95 -36 100 -39z"/>
<path d="M1339 4708 c-25 -21 -29 -45 -11 -67 13 -15 42 -24 117 -36 118 -18
294 -64 384 -99 34 -14 114 -52 177 -86 63 -33 120 -60 127 -60 25 0 50 37 43
64 -7 27 -50 55 -187 122 -213 105 -602 202 -650 162z"/>
<path d="M1344 4482 c-21 -13 -32 -47 -23 -69 9 -24 21 -29 99 -38 202 -25
476 -117 641 -217 53 -32 86 -35 105 -10 23 29 16 51 -26 81 -59 43 -232 124
-350 166 -142 49 -422 104 -446 87z"/>
<path d="M1332 4238 c-19 -19 -15 -66 6 -77 10 -6 63 -17 118 -26 114 -18 251
-54 349 -90 63 -24 258 -118 303 -146 16 -10 25 -10 46 4 61 40 23 83 -148
167 -146 72 -293 121 -459 155 -137 28 -197 31 -215 13z"/>
<path d="M1338 4009 c-22 -12 -24 -62 -3 -79 8 -7 57 -19 108 -26 201 -30 433
-108 589 -199 90 -52 123 -57 140 -20 19 41 -4 66 -112 123 -184 98 -379 163
-590 198 -101 16 -110 16 -132 3z"/>
<path d="M1340 3773 c-29 -20 -27 -71 3 -83 12 -5 76 -18 142 -29 170 -29 350
-89 511 -171 145 -75 167 -78 180 -24 10 38 -15 57 -170 134 -156 76 -275 118
-422 149 -160 34 -221 40 -244 24z"/>
<path d="M1338 3540 c-21 -13 -24 -63 -5 -78 7 -6 47 -16 88 -23 235 -35 476
-118 640 -219 58 -35 79 -37 104 -10 33 36 11 66 -85 119 -161 88 -336 154
-510 190 -128 26 -211 34 -232 21z"/>
<path d="M1342 3304 c-30 -21 -30 -67 1 -81 12 -6 58 -17 102 -23 217 -31 422
-102 615 -214 53 -30 87 -33 106 -8 34 45 9 71 -142 146 -205 103 -350 147
-629 191 -19 3 -39 -1 -53 -11z"/>
<path d="M3275 4704 c-190 -34 -380 -99 -545 -186 -106 -56 -126 -70 -133 -99
-6 -23 24 -59 48 -59 9 0 34 12 58 27 77 49 248 123 360 157 106 32 151 42
312 69 62 11 71 15 79 39 8 22 6 32 -9 48 -21 24 -55 25 -170 4z"/>
<path d="M3285 4471 c-111 -20 -275 -62 -329 -85 l-36 -15 0 -170 c0 -94 1
-171 3 -171 1 0 41 13 89 30 125 42 193 58 326 78 l117 18 3 167 2 167 -37 -1
c-21 0 -83 -9 -138 -18z"/>
<path d="M2706 4272 c-106 -57 -126 -80 -102 -117 10 -15 26 -25 40 -25 20 0
98 39 194 97 39 24 20 93 -26 93 -9 0 -57 -22 -106 -48z"/>
<path d="M2725 4049 c-125 -64 -161 -117 -100 -149 20 -11 33 -7 111 35 108
58 124 71 124 101 0 19 -32 54 -50 54 -3 0 -41 -19 -85 -41z"/>
<path d="M3275 4000 c-224 -40 -422 -110 -597 -212 -81 -46 -96 -69 -73 -104
17 -27 50 -31 80 -10 36 25 203 106 271 132 112 42 233 74 359 94 119 20 145
32 145 67 0 21 -38 53 -62 52 -13 0 -68 -9 -123 -19z"/>
<path d="M3365 3783 c-173 -23 -414 -93 -558 -162 -183 -87 -231 -127 -207
-170 17 -32 47 -31 113 5 197 107 344 161 552 200 156 29 189 41 193 69 6 41
-34 66 -93 58z"/>
<path d="M3305 3539 c-227 -33 -634 -188 -694 -265 -24 -30 -17 -62 16 -77 20
-9 31 -8 57 7 210 123 410 194 649 232 102 16 126 29 127 65 0 25 -33 49 -66
48 -16 -1 -56 -5 -89 -10z"/>
<path d="M3285 3300 c-245 -44 -492 -135 -646 -237 -46 -30 -54 -49 -34 -79
20 -31 55 -31 103 0 157 99 454 200 651 221 91 10 126 50 81 95 -24 24 -26 24
-155 0z"/>
</g>
</svg>
