<?xml version="1.0" standalone="no"?>
<!DOCTYPE svg PUBLIC "-//W3C//DTD SVG 20010904//EN"
 "http://www.w3.org/TR/2001/REC-SVG-20010904/DTD/svg10.dtd">
<svg version="1.0" xmlns="http://www.w3.org/2000/svg"
 width="418.000000pt" height="600.000000pt" viewBox="0 0 418.000000 600.000000"
 preserveAspectRatio="xMidYMid meet">
<metadata>
Created by potrace 1.12, written by Peter Selinger 2001-2015
</metadata>
<g transform="translate(0.000000,600.000000) scale(0.100000,-0.100000)"
fill="#000000" stroke="none">
<path d="M660 5994 c-97 -15 -153 -29 -205 -52 -212 -91 -377 -281 -432 -498
-17 -65 -18 -161 -18 -1534 0 -1647 -6 -1518 76 -1685 74 -152 184 -260 344
-336 152 -72 70 -69 1665 -69 1597 0 1509 -4 1668 70 198 93 340 265 398 485
18 67 19 136 19 1535 0 1635 5 1520 -70 1671 -112 226 -314 374 -559 408 -72
10 -2820 14 -2886 5z m2960 -111 c88 -28 116 -41 180 -84 119 -79 224 -223
266 -364 16 -55 18 -130 21 -909 4 -813 3 -848 -14 -843 -10 3 -98 38 -195 78
l-178 72 0 167 c0 194 8 178 -120 238 -47 22 -251 117 -455 212 -203 95 -385
179 -403 187 -30 12 -40 12 -102 -8 l-68 -22 -244 91 c-134 51 -364 138 -512
195 l-270 104 -105 -67 c-58 -37 -188 -119 -288 -182 -99 -64 -239 -148 -310
-188 -70 -40 -177 -101 -238 -135 -60 -34 -161 -90 -223 -125 -62 -35 -117
-71 -122 -81 -13 -23 -13 -215 -1 -238 6 -10 28 -30 50 -46 23 -15 41 -31 41
-35 0 -5 -20 -21 -45 -37 -55 -34 -58 -45 -53 -226 3 -119 5 -138 22 -150 16
-12 820 -380 1611 -737 154 -70 305 -139 335 -153 264 -122 500 -227 513 -227
13 0 99 64 153 115 6 5 36 30 65 55 30 25 74 63 99 85 150 135 168 148 206
141 19 -4 41 -9 49 -12 9 -4 45 41 103 125 77 113 105 144 206 231 297 256
347 299 408 353 36 31 70 57 77 57 15 0 16 -946 0 -1056 -29 -213 -154 -389
-342 -483 -152 -76 -66 -72 -1687 -69 l-1445 3 -65 23 c-246 83 -411 287 -440
544 -8 63 -10 539 -8 1493 4 1566 -2 1439 76 1590 49 95 172 218 267 267 61
31 149 58 235 72 14 2 669 3 1455 2 1426 -1 1430 -1 1495 -23z m-1819 -1127
c123 -46 296 -110 384 -141 88 -32 164 -62 168 -65 5 -4 -51 -13 -123 -20
-112 -11 -130 -15 -126 -29 10 -35 18 -91 12 -91 -6 0 -84 36 -330 154 -87 42
-164 76 -171 76 -6 0 -94 -39 -196 -86 -101 -47 -231 -108 -289 -134 -58 -26
-150 -69 -205 -95 -55 -26 -120 -56 -145 -67 -25 -11 -107 -49 -183 -85 l-137
-64 -45 27 c-25 14 -45 27 -45 29 0 2 69 41 153 88 210 117 444 248 767 431
151 85 278 155 281 156 3 0 107 -38 230 -84z m-262 -198 c-24 -17 -144 -105
-266 -196 l-223 -164 0 -72 0 -72 281 -20 280 -19 77 63 c42 35 81 67 85 71 4
4 4 33 -1 64 l-9 57 124 0 123 0 0 75 0 75 74 -37 c62 -32 83 -50 130 -110 31
-39 56 -74 56 -78 0 -3 -34 -67 -75 -142 -41 -74 -75 -139 -75 -143 0 -4 -73
-35 -162 -70 -90 -35 -215 -83 -278 -108 -63 -25 -151 -56 -194 -68 l-79 -24
-56 26 c-31 15 -130 63 -221 107 -91 43 -201 96 -245 117 -252 118 -404 195
-398 200 5 4 82 41 173 83 91 41 273 126 405 187 132 61 271 126 310 143 38
18 94 44 125 59 75 36 93 35 39 -4z m271 -50 c169 -71 171 -73 168 -101 l-3
-29 -137 -1 c-76 0 -138 -3 -138 -7 0 -4 7 -24 16 -45 l15 -38 -68 -63 -68
-64 -80 5 c-44 3 -120 10 -170 15 -49 5 -123 12 -162 16 -40 3 -73 9 -73 13 0
3 17 17 37 30 20 13 104 74 187 135 254 188 279 206 292 206 7 0 90 -33 184
-72z m685 -8 l58 -20 66 21 66 21 380 -177 c209 -98 410 -191 448 -208 l67
-31 0 -56 0 -57 -145 -103 c-79 -56 -142 -107 -138 -113 3 -6 1 -7 -4 -4 -6 4
-134 -82 -284 -190 -151 -108 -320 -229 -377 -270 l-103 -73 -257 119 c-141
65 -340 158 -442 206 -102 48 -193 89 -202 92 -10 3 -18 9 -18 13 0 6 348 144
470 185 44 15 47 18 133 176 49 88 86 166 84 173 -3 8 -35 52 -72 100 -64 83
-85 126 -85 173 0 21 5 23 53 24 28 0 75 4 102 9 87 13 140 11 200 -10z m-750
-292 c8 -46 14 -39 -100 -127 l-50 -39 -250 18 c-137 11 -253 19 -257 20 -5 0
-8 23 -8 51 l0 51 33 -5 c17 -4 135 -16 261 -28 l229 -21 61 61 c33 34 64 61
68 61 3 0 9 -19 13 -42z m-1105 -231 c41 -19 152 -72 245 -117 94 -45 203 -98
244 -117 40 -19 148 -71 240 -115 91 -44 245 -117 341 -163 96 -45 258 -123
360 -172 102 -49 278 -134 393 -188 l207 -98 0 -63 0 -63 -82 38 c-46 21 -335
161 -643 311 -308 150 -627 305 -710 345 -82 40 -280 136 -439 214 -159 77
-291 141 -293 141 -2 0 -20 12 -39 26 -31 24 -34 30 -28 63 4 20 9 39 11 43 2
4 30 -5 61 -21 31 -16 91 -45 132 -64z m2940 -66 c0 -35 -5 -43 -42 -69 -24
-16 -198 -141 -388 -278 -489 -354 -588 -424 -594 -424 -3 0 -6 19 -6 43 l1
42 172 122 c95 68 323 231 507 363 184 132 338 240 343 240 4 0 7 -18 7 -39z
m-2910 -91 c55 -28 100 -52 100 -54 0 -2 -31 -28 -70 -57 -38 -30 -70 -58 -70
-62 0 -14 -39 -1 -150 51 l-104 50 48 33 c27 19 65 46 85 61 20 15 42 27 49
27 7 1 57 -22 112 -49z m2979 -95 c75 -30 178 -72 229 -94 l93 -38 -43 -36
c-41 -35 -43 -35 -46 -14 -3 18 -40 39 -203 116 -109 52 -199 98 -199 101 0
10 12 20 24 20 5 0 71 -25 145 -55z m-2524 -126 c160 -78 407 -199 550 -268
143 -70 269 -133 280 -140 l20 -12 -20 4 c-11 2 -141 41 -290 87 -148 45 -324
98 -390 117 -103 30 -574 229 -598 252 -14 13 115 112 138 107 12 -3 151 -69
310 -147z m-588 45 c533 -241 1318 -594 1408 -634 28 -12 97 -44 155 -70 123
-55 478 -211 533 -234 l37 -15 0 -85 c0 -48 -2 -86 -4 -86 -9 0 -288 126
-1216 550 -195 89 -418 191 -495 225 -77 35 -243 111 -370 168 l-230 105 -3
76 c-2 43 1 76 7 76 5 0 85 -34 178 -76z m2941 48 l52 -27 -87 -67 c-49 -37
-234 -176 -413 -309 -179 -133 -330 -246 -337 -251 -7 -6 -34 2 -78 25 l-67
33 76 55 c42 30 123 88 180 129 155 113 155 113 391 282 121 87 222 158 225
158 3 -1 29 -13 58 -28z m-1626 -168 c161 -75 358 -167 438 -204 241 -111 230
-104 230 -150 0 -22 -2 -40 -5 -40 -5 0 -376 172 -790 367 -99 47 -200 94
-225 106 l-45 20 50 18 c28 10 51 18 52 18 0 1 133 -60 295 -135z m1763 100
c30 -15 52 -31 49 -36 -3 -5 -40 -33 -82 -63 -81 -57 -250 -180 -515 -374 -87
-64 -168 -123 -180 -131 -12 -8 -53 -37 -92 -65 -38 -28 -76 -54 -82 -59 -10
-5 -13 7 -13 53 l0 60 328 245 c180 134 372 278 427 319 55 42 101 76 103 76
2 1 28 -11 57 -25z m182 -51 c34 -16 63 -30 63 -33 0 -10 -128 -100 -142 -99
-7 0 -40 13 -72 28 l-59 27 69 52 c38 28 71 52 74 52 3 0 33 -12 67 -27z
m-155 -130 c48 -20 67 -32 65 -43 -2 -8 -40 -67 -84 -130 -43 -63 -132 -194
-197 -290 -66 -96 -124 -180 -130 -187 -11 -12 -12 -12 -383 100 -57 16 -103
34 -103 38 0 5 10 13 21 20 12 6 90 61 173 122 83 60 174 126 201 145 55 39
162 118 270 199 39 28 76 52 84 53 8 0 46 -12 83 -27z m-1932 -215 l465 -140
240 -116 c132 -63 245 -119 252 -124 8 -7 27 1 58 23 45 32 46 33 98 20 28 -8
58 -17 65 -20 8 -5 -26 -34 -94 -80 -81 -55 -111 -71 -129 -67 -20 5 -368 157
-535 233 -30 14 -93 42 -140 63 -47 21 -170 76 -275 123 -104 47 -257 115
-340 152 -82 37 -154 72 -160 77 -7 8 -4 9 10 4 11 -4 229 -71 485 -148z
m1303 -394 c26 -9 47 -19 46 -22 0 -6 -157 -143 -320 -280 l-39 -34 0 99 1 98
112 77 c62 43 121 78 133 78 11 0 41 -7 67 -16z"/>




</g>
</svg>
