<?xml version="1.0" standalone="no"?>
<!DOCTYPE svg PUBLIC "-//W3C//DTD SVG 20010904//EN"
 "http://www.w3.org/TR/2001/REC-SVG-20010904/DTD/svg10.dtd">
<svg version="1.0" xmlns="http://www.w3.org/2000/svg"
 width="420.000000pt" height="600.000000pt" viewBox="0 0 420.000000 600.000000"
 preserveAspectRatio="xMidYMid meet">
<metadata>
Created by potrace 1.12, written by Peter Selinger 2001-2015
</metadata>
<g transform="translate(0.000000,600.000000) scale(0.100000,-0.100000)"
fill="#000000" stroke="none">
<path d="M625 5989 c-229 -34 -439 -187 -541 -394 -86 -175 -79 -33 -79 -1695
l0 -1475 23 -78 c70 -243 236 -419 477 -504 l80 -28 1510 0 c1437 0 1513 1
1568 18 160 51 292 142 383 263 65 86 98 151 126 251 l23 78 0 1475 c0 1666 7
1519 -82 1700 -38 79 -61 110 -132 181 -71 71 -102 94 -181 132 -181 89 -30
82 -1665 83 -797 1 -1477 -2 -1510 -7z m3012 -106 c215 -62 386 -236 450 -458
16 -55 18 -165 21 -1460 2 -966 0 -1429 -8 -1495 -30 -261 -192 -459 -450
-546 -53 -18 -115 -19 -1550 -19 l-1495 0 -77 27 c-136 48 -247 133 -323 247
-61 94 -93 183 -106 299 -6 64 -9 575 -7 1492 4 1559 -2 1434 75 1590 28 55
59 96 118 155 108 108 214 162 360 184 33 5 702 8 1490 7 1424 -1 1430 -1
1502 -23z"/>
<path d="M1960 5363 c0 -4 12 -64 26 -133 55 -270 41 -501 -46 -773 l-41 -129
-49 73 c-90 135 -222 269 -363 367 l-62 43 -3 -77 -3 -78 67 -67 c37 -37 71
-67 75 -66 4 1 47 -43 95 -98 133 -151 297 -316 305 -308 13 13 98 240 130
346 45 151 69 309 69 455 l1 127 70 -75 c117 -124 202 -281 264 -484 l27 -88
58 57 57 57 -22 66 c-74 218 -167 373 -310 517 -88 88 -345 288 -345 268z"/>
<path d="M723 5218 l-32 -33 307 -312 c169 -172 470 -476 670 -677 199 -200
362 -368 362 -372 -1 -5 -288 -299 -640 -654 l-639 -645 27 -27 c14 -16 31
-28 37 -28 7 0 114 105 240 233 335 341 1039 1047 1045 1047 3 1 293 -290 645
-645 l640 -646 32 33 32 33 -637 644 c-350 354 -638 647 -640 652 -2 5 2 15
10 22 7 8 309 312 671 677 l659 662 -32 33 -33 34 -526 -530 c-289 -292 -591
-598 -671 -680 l-145 -150 -465 468 c-256 257 -560 564 -675 681 l-210 213
-32 -33z"/>
<path d="M2977 4569 c-65 -66 -118 -131 -133 -162 -47 -94 -117 -217 -125
-217 -4 0 -10 21 -14 47 l-7 46 -60 -60 -61 -61 17 -94 c9 -51 21 -117 27
-147 l11 -53 45 43 c112 109 248 320 319 494 l32 80 26 -59 c48 -108 126 -367
152 -505 24 -122 26 -158 26 -351 -1 -238 -18 -396 -58 -559 l-26 -104 55 -55
55 -55 26 84 c54 173 78 338 92 619 12 250 -27 503 -120 784 -53 158 -152 396
-166 396 -3 0 -55 -50 -113 -111z"/>
<path d="M1386 4379 c-65 -216 -132 -350 -338 -682 -175 -280 -227 -402 -236
-548 -6 -103 14 -195 65 -308 l34 -74 54 53 54 53 -20 39 c-35 69 -52 156 -45
235 10 122 61 235 223 490 144 229 260 450 309 591 l19 52 -57 57 c-39 39 -58
52 -62 42z"/>
<path d="M1186 2760 l-68 -70 976 0 c1109 0 1006 -10 902 88 l-55 52 -843 0
-843 0 -69 -70z"/>
<path d="M1020 2420 l0 -70 1030 0 1030 0 0 70 0 70 -1030 0 -1030 0 0 -70z"/>
</g>
</svg>
