<?xml version="1.0" standalone="no"?>
<!DOCTYPE svg PUBLIC "-//W3C//DTD SVG 20010904//EN"
 "http://www.w3.org/TR/2001/REC-SVG-20010904/DTD/svg10.dtd">
<svg version="1.0" xmlns="http://www.w3.org/2000/svg"
 width="488.000000pt" height="600.000000pt" viewBox="0 0 488.000000 600.000000"
 preserveAspectRatio="xMidYMid meet">
<metadata>
Created by potrace 1.12, written by Peter Selinger 2001-2015
</metadata>
<g transform="translate(0.000000,600.000000) scale(0.100000,-0.100000)"
fill="#000000" stroke="none">
<path d="M741 5989 c-383 -50 -682 -354 -731 -741 -14 -113 -14 -3263 0 -3376
26 -206 112 -376 265 -521 119 -113 266 -188 425 -217 111 -20 3369 -20 3480
0 154 28 296 99 413 206 163 150 252 324 278 544 7 61 9 635 7 1741 l-3 1650
-23 80 c-87 311 -306 530 -617 617 l-80 23 -1675 1 c-921 1 -1704 -2 -1739 -7z
m3509 -133 c124 -41 213 -97 305 -190 87 -88 143 -181 187 -311 l23 -70 3
-1680 c2 -1138 -1 -1702 -8 -1748 -23 -153 -100 -304 -207 -409 -98 -97 -177
-145 -308 -189 l-70 -24 -1695 -3 c-1201 -2 -1714 0 -1759 8 -306 53 -553 305
-601 615 -7 48 -10 589 -8 1750 4 1890 -4 1706 84 1884 98 199 307 353 529
390 28 5 813 8 1745 7 l1695 -1 85 -29z"/>
<path d="M900 4026 l0 -1045 -86 -47 c-47 -25 -92 -47 -101 -48 -11 -1 -15 11
-17 46 -1 34 -8 54 -26 73 l-23 25 -194 0 c-193 0 -194 0 -218 -25 l-25 -24 0
-506 0 -506 25 -24 c24 -25 25 -25 218 -25 l194 0 24 26 c22 23 24 36 27 130
2 57 6 104 8 104 2 0 97 -15 211 -34 115 -18 430 -69 701 -112 l492 -79 0
-172 c0 -167 1 -173 24 -200 l24 -28 236 -3 c262 -3 275 -1 295 61 6 18 10
125 10 239 0 114 2 211 5 216 3 5 88 67 188 137 101 71 210 148 243 172 33 24
123 87 200 141 241 170 696 492 788 559 48 35 92 64 97 66 6 1 11 -37 13 -91
2 -89 3 -95 30 -118 27 -23 33 -24 197 -24 167 0 169 0 200 26 l31 26 -3 582
-3 581 -28 57 c-16 33 -49 76 -78 102 -72 65 -132 84 -286 91 -245 11 -999 35
-1163 38 l-165 2 -67 -33 c-80 -39 -139 -102 -168 -178 -16 -43 -20 -79 -20
-164 l0 -109 -87 -45 c-47 -25 -91 -43 -95 -40 -5 4 -9 18 -8 32 1 15 2 289 1
610 l-1 582 -810 0 -810 0 0 -1044z m1458 632 l-3 -243 -645 0 -645 0 -3 243
-2 242 650 0 650 0 -2 -242z m1112 -418 c140 -5 406 -14 590 -21 291 -10 340
-14 372 -30 126 -64 124 -235 -3 -300 -39 -19 -48 -20 -362 -9 -177 6 -430 15
-562 20 -132 6 -286 10 -342 10 -137 0 -199 14 -239 54 -81 81 -62 215 36 267
41 23 123 24 510 9z m-1110 -242 l0 -238 -650 0 -650 0 0 233 c0 129 2 236 4
238 2 2 295 4 650 4 l646 0 0 -237z m529 -208 c21 -10 58 -24 82 -29 24 -6
276 -18 559 -26 283 -9 547 -20 587 -23 l72 -7 -72 -51 c-40 -28 -144 -102
-232 -164 -153 -108 -520 -365 -745 -519 -332 -229 -429 -293 -437 -290 -4 2
-7 14 -5 27 5 36 -27 91 -57 99 -14 4 -129 8 -254 8 l-229 0 -24 -28 c-23 -27
-24 -35 -24 -158 0 -101 -3 -129 -13 -129 -12 0 -547 82 -712 110 -82 13 -356
55 -490 75 -60 9 -118 20 -128 24 -17 6 -17 8 5 19 47 24 356 186 443 232 110
58 411 217 560 295 218 114 420 221 540 285 39 21 142 75 230 120 87 46 186
98 220 116 71 39 74 40 124 14z m1641 -373 c0 -184 -2 -336 -4 -338 -2 -2 -32
-2 -65 -1 l-61 4 0 288 0 288 56 46 c31 25 60 46 65 46 5 0 9 -147 9 -333z
m-2480 175 c0 -5 -47 -33 -104 -62 l-104 -54 -32 27 c-38 33 -69 41 -120 34
-77 -10 -125 -70 -123 -153 l1 -52 -126 -67 c-70 -37 -174 -92 -232 -123 -58
-30 -109 -59 -115 -63 -5 -5 -15 -9 -22 -9 -10 0 -13 54 -13 265 l0 265 495 0
c272 0 495 -4 495 -8z m2181 -95 c-1 -4 -1 -38 -1 -76 l0 -69 -137 -98 c-76
-54 -190 -134 -253 -179 -63 -45 -169 -119 -235 -166 -66 -47 -187 -132 -269
-189 -81 -58 -177 -125 -211 -150 -219 -157 -411 -289 -419 -287 -9 2 -14 184
-5 191 2 1 74 50 159 108 85 57 184 125 220 150 36 25 101 70 145 100 44 30
141 97 215 148 74 52 243 166 375 255 132 89 276 187 320 217 74 52 98 63 96
45z m-3701 -1022 l0 -395 -80 0 -80 0 0 395 0 395 80 0 80 0 0 -395z m2000
-289 l0 -465 -126 -3 c-69 -2 -128 -1 -130 1 -2 2 -4 213 -4 468 l0 463 130 0
130 0 0 -464z m-1473 309 c191 -30 494 -78 673 -105 179 -28 337 -53 353 -56
l27 -6 0 -105 c0 -104 0 -105 -23 -99 -12 3 -81 15 -152 26 -72 11 -184 29
-250 40 -255 41 -941 149 -965 152 -24 3 -24 4 -22 103 2 117 1 105 6 105 2 0
161 -25 353 -55z"/>
<path d="M1655 4786 c-94 -42 -117 -155 -49 -235 65 -78 198 -52 240 46 19 44
18 69 -7 119 -15 31 -32 48 -63 63 -49 24 -79 26 -121 7z"/>
<path d="M1633 4129 c-92 -59 -85 -207 11 -253 121 -57 247 51 205 176 -28 86
-140 126 -216 77z"/>
<path d="M855 718 c-2 -7 -16 -92 -30 -188 -14 -96 -37 -248 -51 -338 -13 -90
-22 -168 -18 -173 6 -10 42 -8 60 4 7 4 15 38 19 77 l7 70 58 0 59 0 6 -47
c14 -102 18 -108 56 -105 19 2 35 5 36 6 1 1 -20 152 -47 336 -27 184 -50 343
-50 353 0 14 -9 17 -50 17 -32 0 -52 -5 -55 -12z"/>
<path d="M1107 723 c-10 -9 -9 -703 1 -704 4 0 17 -2 29 -5 12 -2 25 1 28 7 4
5 7 113 7 240 0 127 3 241 7 255 4 16 19 -73 39 -233 19 -142 37 -262 42 -267
4 -4 21 -5 37 -2 l30 7 33 259 c19 143 37 260 41 260 3 0 7 -111 7 -247 0
-137 1 -255 1 -264 1 -14 25 -18 64 -11 4 1 6 161 5 355 l-3 352 -56 3 c-50 3
-57 1 -62 -17 -3 -11 -18 -120 -33 -241 -15 -121 -31 -217 -34 -213 -4 5 -19
109 -34 233 -15 123 -30 228 -32 232 -6 10 -108 11 -117 1z"/>
<path d="M1557 723 c-4 -3 -7 -163 -7 -354 0 -268 3 -348 13 -352 6 -2 54 -5
105 -6 l92 -2 0 55 0 55 -67 3 -68 3 -1 102 -1 103 58 0 c64 0 62 -3 62 75 0
8 -1 19 -2 25 0 5 -27 10 -58 12 l-58 3 -1 88 -1 87 67 0 68 0 -5 43 c-8 69
-4 67 -101 67 -49 0 -92 -3 -95 -7z"/>
<path d="M1820 728 c-6 -122 2 -597 9 -625 26 -96 136 -132 194 -64 43 52 48
95 45 401 l-3 285 -32 3 -33 3 0 -268 c0 -154 -5 -284 -10 -305 -11 -38 -35
-59 -58 -51 -32 12 -37 48 -42 333 l-5 285 -32 3 c-18 2 -33 2 -33 0z"/>
<path d="M2146 723 c-3 -4 -6 -163 -6 -354 1 -314 3 -348 18 -354 31 -12 171
7 196 26 29 23 46 87 46 171 0 82 -15 134 -45 154 -23 15 -24 15 -4 35 31 31
41 68 40 156 0 97 -17 138 -66 159 -35 14 -166 20 -179 7z m158 -125 c10 -13
16 -43 16 -73 0 -66 -20 -95 -66 -95 l-34 0 0 95 0 95 34 0 c25 0 39 -7 50
-22z m-2 -285 c22 -25 31 -94 19 -141 -12 -42 -25 -52 -72 -52 l-29 0 0 105 0
105 33 0 c20 0 40 -7 49 -17z"/>
<path d="M2475 718 c-3 -7 -4 -168 -3 -358 l3 -345 65 -3 c36 -2 80 0 98 3 32
6 32 7 32 61 l0 56 -60 -4 -60 -3 -2 300 -3 300 -33 3 c-20 2 -34 -2 -37 -10z"/>
<path d="M2712 373 l3 -358 100 0 100 0 3 53 3 52 -70 0 -71 0 0 105 0 105 60
0 60 0 0 55 0 55 -60 0 -60 0 0 90 0 90 65 0 65 0 0 55 0 55 -100 0 -100 0 2
-357z"/>
<path d="M2976 722 c-3 -3 -6 -162 -6 -353 0 -339 1 -348 20 -354 11 -3 29 -3
40 0 19 6 20 15 20 267 0 144 2 259 4 257 2 -2 19 -122 37 -267 l33 -262 25 0
c14 0 31 4 37 8 6 4 26 117 43 252 18 135 36 254 41 265 5 12 9 -92 9 -253 l1
-273 28 5 c15 2 30 5 35 5 4 1 6 160 5 354 l-3 352 -53 3 c-47 3 -53 1 -61
-20 -4 -13 -21 -121 -36 -240 -16 -120 -31 -216 -33 -213 -3 2 -17 106 -33
230 -16 125 -31 230 -34 235 -6 10 -110 12 -119 2z"/>
<path d="M3427 724 c-4 -4 -7 -164 -7 -355 0 -307 2 -348 16 -353 20 -8 158
-8 178 0 12 4 16 20 16 55 l0 49 -65 0 -65 0 0 108 0 107 57 0 58 0 3 53 3 52
-60 0 -61 0 0 90 0 90 66 0 65 0 -3 53 -3 52 -95 3 c-53 1 -99 0 -103 -4z"/>
<path d="M3697 723 c-4 -3 -7 -164 -7 -358 l0 -351 33 0 32 1 5 260 5 260 50
-249 c27 -137 56 -255 63 -262 11 -12 32 -13 85 -5 4 0 6 160 5 354 l-3 352
-30 0 -30 0 -5 -245 -5 -245 -43 210 c-64 310 -55 285 -106 285 -23 0 -46 -3
-49 -7z"/>
<path d="M4017 724 c-9 -9 -9 -77 -1 -98 4 -11 19 -16 48 -16 l41 0 -3 -294
-3 -294 36 -4 c20 -2 38 -2 40 1 3 2 5 136 5 298 l0 293 45 0 46 0 -3 58 -3
57 -121 3 c-66 1 -123 -1 -127 -4z"/>
</g>
</svg>
