<?xml version="1.0" standalone="no"?>
<!DOCTYPE svg PUBLIC "-//W3C//DTD SVG 20010904//EN"
 "http://www.w3.org/TR/2001/REC-SVG-20010904/DTD/svg10.dtd">
<svg version="1.0" xmlns="http://www.w3.org/2000/svg"
 width="485.000000pt" height="600.000000pt" viewBox="0 0 485.000000 600.000000"
 preserveAspectRatio="xMidYMid meet">
<metadata>
Created by potrace 1.12, written by Peter Selinger 2001-2015
</metadata>
<g transform="translate(0.000000,600.000000) scale(0.100000,-0.100000)"
fill="#000000" stroke="none">
<path d="M730 5989 c-155 -20 -324 -100 -444 -210 -139 -129 -200 -229 -259
-424 -21 -70 -21 -76 -25 -1715 -3 -1683 -2 -1758 35 -1884 73 -250 281 -468
533 -557 143 -51 136 -51 1915 -47 l1660 3 88 28 c330 103 551 354 602 684 14
86 15 304 13 1753 l-3 1655 -23 82 c-92 345 -370 590 -717 632 -108 13 -3274
13 -3375 0z m3495 -132 c240 -85 398 -242 481 -479 l29 -83 3 -1675 c2 -1135
-1 -1697 -8 -1743 -40 -261 -233 -489 -491 -579 l-94 -33 -1695 -3 c-1667 -2
-1696 -2 -1775 18 -267 67 -470 264 -542 530 -17 61 -18 167 -18 1770 0 1639
1 1707 19 1765 88 283 286 469 561 529 61 13 287 14 1760 13 l1690 -2 80 -28z"/>
<path d="M1130 4705 l0 -165 -225 0 -225 0 0 -1115 0 -1115 1745 0 1745 0 0
1115 0 1115 -222 2 -223 3 -3 163 -2 162 -410 0 -410 0 -2 -162 -3 -163 -470
0 -470 0 -3 163 -2 162 -410 0 -410 0 0 -165z m658 -72 l-3 -78 -245 0 -245 0
-3 78 -3 77 251 0 251 0 -3 -77z m1770 0 l-3 -78 -245 0 -245 0 -3 78 -3 77
251 0 251 0 -3 -77z m450 -1205 l-3 -953 -1560 -3 c-858 -1 -1570 0 -1582 3
l-23 5 0 950 0 950 1585 0 1585 0 -2 -952z"/>
<path d="M1465 3700 c-4 -6 -5 -61 -4 -123 l3 -112 -122 -3 -122 -3 0 -74 0
-75 120 0 119 0 3 -122 3 -123 75 0 75 0 3 123 3 122 119 0 120 0 0 75 0 75
-120 0 -119 0 -3 123 -3 122 -72 3 c-43 2 -74 -1 -78 -8z"/>
<path d="M2990 3385 l0 -75 320 0 320 0 0 75 0 75 -320 0 -320 0 0 -75z"/>
<path d="M3420 724 c-8 -3 -26 -21 -40 -41 -20 -30 -26 -51 -29 -116 -5 -110
11 -157 82 -241 70 -84 81 -107 72 -163 -13 -89 -85 -70 -85 22 l0 45 -41 0
-42 0 6 -69 c7 -83 26 -125 68 -147 40 -20 99 -11 128 20 30 32 41 78 41 171
0 99 -17 139 -93 223 -60 68 -77 116 -58 165 23 59 66 42 77 -29 6 -43 8 -45
38 -42 26 3 32 8 34 33 7 53 -17 133 -45 155 -24 19 -73 25 -113 14z"/>
<path d="M1232 368 l3 -353 86 0 c70 0 91 4 107 18 37 34 52 81 52 164 0 93
-13 147 -41 167 -20 14 -20 14 4 49 42 62 47 198 9 257 -27 44 -43 49 -135 50
l-87 0 2 -352z m152 230 c18 -26 22 -119 6 -149 -8 -14 -21 -19 -50 -19 l-40
0 0 88 c0 49 3 92 7 95 15 16 62 6 77 -15z m-3 -287 c21 -17 24 -28 24 -89 0
-83 -12 -102 -66 -102 l-39 0 0 98 c0 54 3 102 7 105 13 13 51 7 74 -12z"/>
<path d="M1626 693 c-5 -24 -91 -596 -98 -658 -3 -17 3 -20 34 -20 l36 -1 8
71 c4 38 7 73 6 78 -1 4 27 7 63 7 l65 0 1 -37 c0 -21 3 -56 7 -78 7 -38 9
-40 45 -40 24 -1 37 4 37 12 0 13 -84 598 -95 661 -6 31 -7 32 -55 32 -45 0
-49 -2 -54 -27z"/>
<path d="M1810 666 l0 -55 46 -3 45 -3 -1 -292 -1 -293 41 0 40 0 0 295 0 295
45 0 45 0 0 55 0 55 -130 0 -130 0 0 -54z"/>
<path d="M2080 665 l0 -55 45 0 45 0 0 -294 c0 -316 -2 -306 51 -306 18 0 19
13 21 298 l3 297 43 3 42 3 0 55 0 54 -125 0 -125 0 0 -55z"/>
<path d="M2380 365 l0 -356 97 3 98 3 6 40 c10 60 5 65 -67 65 l-64 0 0 105 0
105 60 0 60 0 0 55 0 55 -60 0 -60 0 0 90 0 90 65 0 65 0 0 50 0 50 -100 0
-100 0 0 -355z"/>
<path d="M2640 365 l0 -355 38 3 37 2 3 148 c2 133 4 147 20 147 10 0 27 -6
38 -14 17 -13 19 -29 22 -145 2 -72 7 -132 10 -132 4 -1 21 -2 39 -4 l31 -2
-5 136 c-6 140 -20 201 -47 201 -21 0 -20 14 1 31 29 25 43 76 43 158 0 88
-20 155 -51 171 -10 6 -54 10 -98 10 l-81 0 0 -355z"/>
<path d="M2942 368 l3 -353 30 0 30 0 3 353 2 352 -35 0 -35 0 2 -352z"/>
<path d="M3088 388 c-2 -183 -1 -343 1 -356 3 -22 6 -23 100 -20 l96 3 3 53 3
52 -65 0 -66 0 0 105 0 105 60 0 60 0 0 55 0 55 -60 0 -60 0 0 90 0 90 65 0
65 0 0 50 0 50 -100 0 -99 0 -3 -332z"/>
</g>
</svg>
