<?xml version="1.0" standalone="no"?>
<!DOCTYPE svg PUBLIC "-//W3C//DTD SVG 20010904//EN"
 "http://www.w3.org/TR/2001/REC-SVG-20010904/DTD/svg10.dtd">
<svg version="1.0" xmlns="http://www.w3.org/2000/svg"
 width="489.000000pt" height="600.000000pt" viewBox="0 0 489.000000 600.000000"
 preserveAspectRatio="xMidYMid meet">
<metadata>
Created by potrace 1.12, written by Peter Selinger 2001-2015
</metadata>
<g transform="translate(0.000000,600.000000) scale(0.100000,-0.100000)"
fill="#000000" stroke="none">
<path d="M743 5989 c-341 -44 -618 -289 -715 -634 l-23 -80 -3 -1655 c-2
-1204 0 -1681 8 -1749 13 -104 45 -212 89 -299 38 -74 137 -199 192 -242 24
-19 46 -37 49 -40 17 -21 111 -75 178 -104 164 -70 34 -66 1930 -66 1647 0
1711 1 1783 19 317 81 542 302 632 620 l21 76 4 1655 c2 1121 0 1685 -8 1747
-22 196 -101 362 -235 497 -44 45 -100 95 -125 112 -104 73 -242 126 -373 144
-94 12 -3308 12 -3404 -1z m3497 -127 c225 -70 400 -229 487 -442 55 -138 54
-73 50 -1900 -3 -1890 4 -1719 -77 -1885 -72 -145 -185 -258 -332 -332 -168
-84 3 -77 -1863 -81 -1692 -3 -1765 -2 -1874 34 -246 82 -426 271 -498 524
-17 62 -18 145 -18 1780 l0 1715 23 75 c64 202 194 361 371 453 78 41 154 67
225 77 28 4 812 7 1741 6 l1690 -1 75 -23z"/>
<path d="M2014 4923 c-138 -92 -555 -370 -927 -617 l-677 -449 0 -541 0 -541
296 -107 297 -108 31 22 c17 12 110 81 206 152 348 258 487 361 598 444 l112
84 88 -30 87 -29 3 -485 2 -486 28 -10 c15 -5 146 -53 291 -106 145 -53 268
-96 273 -96 11 0 50 32 128 104 25 23 104 93 175 156 72 63 184 162 250 220
66 58 134 117 150 131 17 14 98 86 180 160 83 74 220 195 305 269 85 74 201
178 260 230 58 52 149 133 203 179 l97 84 0 241 c0 133 3 366 7 519 6 273 6
277 -14 277 -17 0 -187 38 -428 95 -33 8 -109 26 -170 39 -60 14 -434 100
-830 191 -396 92 -731 168 -745 171 -20 4 -77 -30 -276 -163z m987 -168 c371
-86 794 -183 940 -217 167 -39 265 -66 262 -72 -9 -21 -241 -206 -258 -206 -9
0 -235 56 -503 124 -268 68 -687 174 -932 236 -245 62 -449 116 -453 120 -11
9 223 168 249 169 12 1 324 -69 695 -154z m-961 -184 c85 -22 254 -65 375 -96
121 -31 423 -107 670 -170 248 -63 507 -129 578 -147 70 -18 127 -35 127 -38
0 -3 -58 -53 -128 -112 l-129 -107 -69 18 c-38 10 -177 49 -309 86 -132 37
-253 71 -270 75 -16 4 -113 31 -215 60 -102 28 -239 67 -305 85 -66 18 -228
63 -360 100 -132 37 -262 73 -290 81 -96 26 -105 29 -107 37 -5 12 246 176
262 172 8 -3 85 -22 170 -44z m2270 -585 l0 -355 -117 -103 c-65 -57 -120
-105 -123 -109 -3 -3 -106 -95 -230 -204 -292 -257 -322 -284 -530 -466 -96
-84 -180 -158 -186 -164 -91 -85 -321 -285 -328 -285 -3 0 -6 172 -6 383 l1
382 157 132 c148 124 758 636 860 722 26 21 103 86 172 144 69 57 170 143 225
190 55 47 101 86 103 86 1 1 2 -158 2 -353z m-2776 300 c143 -41 1452 -405
1679 -467 86 -24 157 -46 157 -50 0 -6 -199 -176 -243 -208 -17 -12 -32 -10
-121 17 -225 69 -439 134 -532 161 -55 16 -355 106 -669 201 -314 95 -586 177
-605 182 -19 5 -38 13 -42 16 -5 5 233 177 251 181 2 1 58 -15 125 -33z m-394
-316 c91 -28 185 -57 210 -65 84 -26 854 -257 955 -287 55 -16 156 -46 225
-68 148 -45 271 -82 357 -107 35 -10 63 -21 63 -25 0 -13 -249 -218 -265 -218
-10 0 -108 30 -219 66 -110 36 -282 92 -381 124 -99 32 -270 88 -380 123 -110
36 -378 122 -595 192 -217 70 -399 130 -403 132 -8 5 250 183 263 183 3 0 80
-23 170 -50z m-388 -322 l158 -51 0 -414 c0 -227 -1 -413 -3 -413 -2 0 -75 27
-162 59 l-160 59 -3 406 c-1 223 1 406 5 406 4 0 79 -23 165 -52z m504 -163
c93 -30 242 -78 332 -107 89 -28 161 -55 160 -59 -2 -4 -100 -79 -218 -167
-118 -88 -267 -198 -330 -245 -63 -47 -118 -83 -122 -81 -11 7 -10 714 0 714
5 0 85 -25 178 -55z m1314 -425 l55 -18 3 -406 c1 -223 -2 -406 -6 -406 -5 0
-81 26 -168 59 l-159 59 -2 392 c-2 216 -1 396 2 400 3 4 53 -8 112 -27 60
-20 133 -44 163 -53z"/>
</g>
</svg>
