<?xml version="1.0" standalone="no"?>
<!DOCTYPE svg PUBLIC "-//W3C//DTD SVG 20010904//EN"
 "http://www.w3.org/TR/2001/REC-SVG-20010904/DTD/svg10.dtd">
<svg version="1.0" xmlns="http://www.w3.org/2000/svg"
 width="492.000000pt" height="600.000000pt" viewBox="0 0 492.000000 600.000000"
 preserveAspectRatio="xMidYMid meet">
<metadata>
Created by potrace 1.12, written by Peter Selinger 2001-2015
</metadata>
<g transform="translate(0.000000,600.000000) scale(0.100000,-0.100000)"
fill="#000000" stroke="none">
<path d="M750 5990 c-350 -48 -630 -298 -721 -645 l-24 -90 0 -1710 c0 -1401
2 -1721 14 -1770 74 -331 285 -561 608 -662 l88 -28 1740 0 c1624 0 1744 1
1803 17 167 47 293 119 407 233 117 117 195 256 232 415 17 70 18 185 18 1795
l0 1720 -23 83 c-86 312 -305 534 -617 623 l-80 23 -1695 2 c-932 1 -1720 -2
-1750 -6z m3443 -114 c313 -60 544 -292 603 -605 12 -65 14 -326 11 -1771 -3
-1901 4 -1727 -77 -1895 -93 -191 -246 -319 -460 -387 l-75 -23 -1735 0 -1735
0 -75 23 c-253 79 -440 271 -513 527 -19 66 -21 105 -24 637 -2 313 -2 568 0
568 2 0 80 -37 173 -81 188 -91 319 -153 439 -209 44 -21 151 -72 239 -114 87
-42 159 -76 161 -76 1 0 83 -39 181 -86 99 -47 211 -101 249 -119 39 -18 129
-61 200 -95 72 -34 175 -84 230 -110 55 -26 152 -72 215 -103 63 -30 291 -138
505 -240 215 -101 423 -201 463 -220 l73 -36 83 62 c128 95 342 251 431 316
44 32 86 65 93 73 9 12 12 72 10 252 l-3 236 -415 191 c-704 323 -863 396
-930 427 -36 16 -117 53 -180 82 -63 29 -254 116 -425 195 -170 78 -355 163
-410 188 -55 25 -134 61 -175 80 -41 19 -160 74 -265 122 -343 157 -409 187
-459 211 -28 13 -57 24 -65 24 -9 0 -103 -59 -210 -130 -107 -72 -198 -130
-203 -130 -4 0 -8 297 -8 660 0 363 3 660 8 660 4 0 878 -435 1942 -966 1064
-531 1958 -975 1985 -985 79 -31 198 -36 267 -11 181 64 363 291 418 521 18
78 8 178 -24 245 -45 91 -98 129 -348 246 -122 57 -293 138 -378 178 -85 41
-182 87 -215 102 -33 15 -118 56 -190 90 -71 34 -166 79 -210 100 -44 21 -147
70 -230 110 -82 40 -177 85 -210 100 -33 15 -94 44 -136 63 -72 34 -80 35
-137 27 -63 -9 -75 -13 -104 -37 -60 -52 138 -222 442 -381 273 -143 619 -285
871 -357 66 -19 196 -47 289 -62 94 -15 170 -30 170 -33 0 -3 -17 -12 -37 -20
-32 -13 -50 -14 -118 -4 -44 7 -120 17 -170 24 -318 43 -740 166 -1035 302
-306 141 -463 234 -700 414 -122 93 -152 110 -310 179 -181 80 -228 99 -220
92 24 -21 208 -170 300 -243 538 -423 1059 -684 1627 -814 140 -32 366 -70
421 -70 37 0 40 -9 12 -35 -23 -21 -69 -18 -259 16 -62 11 -115 18 -117 16 -3
-2 50 -23 116 -46 189 -66 192 -68 178 -91 -7 -11 -16 -20 -20 -20 -4 0 -114
39 -245 86 -624 226 -1091 382 -1333 446 -242 63 -614 190 -918 314 -74 30
-137 54 -140 53 -10 -1 30 -18 363 -162 160 -69 427 -184 595 -257 168 -72
415 -179 550 -237 135 -58 259 -111 275 -119 90 -40 733 -317 748 -321 16 -5
24 -43 11 -56 -3 -3 -25 3 -47 13 -23 10 -289 125 -592 255 -302 131 -570 246
-595 257 -25 11 -85 37 -135 58 -49 21 -259 111 -465 200 -206 89 -438 189
-515 222 -77 33 -158 68 -180 78 -22 10 -95 41 -162 70 -116 50 -123 54 -123
81 0 26 2 28 25 19 14 -5 25 -7 25 -5 0 3 -11 10 -25 15 -18 7 -25 17 -25 35
0 14 4 25 8 25 4 0 66 -25 138 -56 409 -178 825 -327 1222 -439 135 -38 291
-85 397 -120 11 -3 -29 19 -90 50 -321 165 -596 357 -1045 730 -160 133 -271
214 -338 249 -37 19 -35 32 8 41 26 6 57 -8 208 -92 150 -84 280 -149 342
-171 8 -3 -79 66 -194 153 -207 156 -224 174 -160 175 18 0 279 -192 529 -388
117 -92 341 -258 395 -294 82 -53 293 -170 395 -218 167 -78 501 -208 510
-198 3 2 -46 26 -108 53 -247 107 -456 221 -647 352 -59 40 -149 142 -161 181
-21 71 6 107 101 137 l34 10 -64 29 c-57 26 -237 111 -688 327 -67 33 -124 59
-126 59 -2 0 -80 36 -172 81 -172 82 -441 211 -659 314 -284 134 -335 159
-335 165 0 8 95 37 160 49 25 5 795 9 1712 10 1403 1 1678 -1 1741 -13z
m-3579 -211 c97 -47 229 -110 294 -140 366 -173 520 -249 517 -256 -3 -3 -30
-17 -61 -30 l-57 -23 -41 23 c-215 121 -598 303 -845 401 l-83 33 38 38 c22
21 44 38 50 39 6 0 90 -38 188 -85z m-38 -156 c148 -72 361 -176 473 -230
l203 -99 -43 -40 c-24 -21 -47 -39 -50 -40 -3 0 -55 27 -115 61 -172 96 -281
153 -544 286 -141 72 -244 129 -242 136 3 10 42 57 47 57 1 0 123 -59 271
-131z m244 -270 c96 -51 274 -151 299 -168 11 -7 9 -14 -10 -40 -12 -17 -28
-31 -33 -31 -6 0 -38 17 -71 37 -33 20 -232 123 -441 228 -416 209 -388 188
-348 253 l15 22 247 -125 c136 -68 290 -148 342 -176z m-326 17 c322 -159 551
-281 561 -296 6 -10 -15 -60 -26 -60 -42 0 -857 312 -897 343 -14 11 -11 41
15 120 8 26 20 47 26 47 6 0 151 -69 321 -154z m-23 -234 c195 -98 394 -195
442 -217 87 -38 88 -39 85 -72 -2 -18 -7 -33 -13 -32 -5 0 -205 97 -442 214
l-433 214 0 35 c0 20 2 36 4 36 2 0 162 -80 357 -178z m836 -7 c29 -19 54 -35
57 -35 5 0 117 -77 216 -149 69 -49 151 -132 166 -167 30 -71 -13 -100 -134
-91 -116 10 -345 73 -479 132 -44 20 -51 27 -46 45 4 14 11 20 22 17 9 -3 68
-24 131 -46 215 -76 437 -120 455 -91 18 29 -87 122 -285 254 -69 45 -142 93
-162 105 -36 21 -46 39 -31 54 13 14 40 6 90 -28z m3213 -1217 c33 -17 51 -35
68 -68 40 -80 26 -173 -48 -320 -53 -105 -177 -236 -253 -265 -60 -23 -156
-17 -194 11 -56 42 -68 69 -67 152 0 136 60 258 190 388 118 119 210 149 304
102z m-3916 -49 c36 -17 66 -37 66 -44 0 -22 87 -189 126 -240 21 -28 66 -82
100 -120 l63 -71 -45 -42 -45 -43 -47 40 c-68 57 -201 196 -255 268 -51 66
-132 211 -124 219 3 4 82 57 93 63 1 1 32 -13 68 -30z m303 -138 c66 -29 85
-42 94 -66 7 -16 30 -56 51 -88 21 -32 38 -62 38 -67 0 -10 -95 -90 -106 -89
-14 1 -155 164 -192 221 -35 56 -82 152 -82 168 0 5 26 -2 58 -16 31 -15 94
-43 139 -63z m-453 4 c22 -41 43 -75 46 -75 4 0 12 -11 18 -24 21 -46 152
-190 270 -297 53 -48 71 -70 66 -82 -3 -10 -12 -17 -20 -17 -26 0 -724 349
-724 362 0 11 284 208 300 208 3 0 23 -34 44 -75z m953 -234 c99 -45 110 -53
129 -91 70 -142 244 -254 584 -378 134 -49 378 -145 633 -250 43 -18 45 -24
14 -41 -20 -11 -48 -2 -237 74 -118 48 -361 143 -540 211 -436 168 -613 258
-763 393 l-50 45 49 43 c27 23 54 43 61 43 7 0 61 -22 120 -49z m-1041 -132
c227 -110 617 -300 1089 -529 99 -48 266 -129 370 -180 105 -51 267 -130 360
-175 94 -46 258 -125 365 -178 107 -52 293 -142 414 -201 l218 -106 -6 -31
c-3 -17 -6 -69 -6 -115 0 -46 -4 -84 -9 -84 -9 0 -106 44 -291 132 -58 28
-145 70 -195 93 -49 23 -191 91 -315 150 -124 59 -267 127 -317 151 -177 84
-279 132 -447 213 -93 44 -170 81 -171 81 -2 0 -83 39 -181 86 -163 78 -326
156 -704 336 -74 35 -201 95 -282 133 l-148 70 0 137 c0 76 2 138 4 138 2 0
116 -54 252 -121z m830 40 c106 -112 357 -248 689 -375 127 -48 257 -97 290
-110 128 -49 216 -83 378 -149 l168 -69 -25 -25 -25 -25 -93 32 c-910 308
-1175 418 -1434 599 -96 67 -97 69 -44 114 25 22 50 39 56 39 5 0 23 -14 40
-31z m432 -10 c26 -12 70 -32 97 -44 113 -52 438 -201 545 -250 63 -29 144
-66 180 -83 157 -72 310 -142 365 -167 l60 -26 -25 -19 c-14 -11 -29 -20 -33
-20 -4 0 -49 18 -100 39 -149 63 -338 138 -552 217 -317 118 -494 217 -566
317 -45 63 -41 68 29 36z m-438 -177 c104 -70 322 -179 470 -237 52 -20 109
-43 125 -50 36 -16 274 -102 330 -121 98 -31 510 -175 514 -180 6 -6 -90 -93
-103 -94 -5 0 -93 25 -195 56 -322 96 -653 228 -911 362 -227 117 -469 273
-470 301 0 7 17 28 37 47 l37 34 35 -28 c20 -15 78 -56 131 -90z m1852 -471
c45 -21 169 -78 273 -126 316 -145 325 -149 325 -154 0 -3 -18 -16 -41 -29
l-40 -23 -73 45 c-66 41 -284 150 -501 250 l-80 37 25 19 c14 11 26 20 27 20
0 0 39 -17 85 -39z m-10 -92 c271 -124 488 -239 488 -260 0 -5 -11 -14 -24
-21 -22 -9 -33 -5 -93 32 -57 36 -354 190 -367 190 -2 0 -47 20 -101 45 -83
39 -95 48 -85 60 20 24 41 18 182 -46z m-945 -18 c26 -10 129 -42 228 -71 99
-30 184 -57 188 -61 9 -7 -19 -69 -31 -68 -11 0 -448 217 -440 218 4 1 29 -7
55 -18z m829 -20 c235 -102 524 -252 524 -272 0 -5 -11 -16 -24 -24 -23 -15
-26 -14 -87 32 -35 27 -104 69 -154 95 -79 40 -324 142 -394 163 l-25 8 23 18
c13 11 29 19 35 19 7 0 53 -17 102 -39z m-48 -69 c227 -87 375 -163 472 -241
l25 -20 -26 -26 -26 -26 -46 31 c-25 17 -75 44 -109 59 -76 35 -356 131 -453
156 -38 10 -72 20 -75 22 -6 5 91 92 103 93 4 0 65 -22 135 -48z m-101 -117
c239 -72 421 -144 493 -195 l30 -21 -40 -48 c-22 -26 -40 -52 -40 -59 0 -26
-27 -19 -152 41 -73 36 -214 104 -313 152 -99 48 -182 89 -184 91 -8 8 32 84
45 84 7 0 79 -20 161 -45z m963 -116 c0 -36 -6 -47 -53 -92 -29 -29 -104 -81
-165 -116 -62 -35 -133 -82 -159 -105 l-46 -41 6 44 c7 54 57 115 153 189 67
51 241 161 257 162 4 0 7 -18 7 -41z m-27 -167 c-15 -13 -82 -60 -148 -105
-66 -45 -149 -108 -185 -141 -47 -42 -66 -54 -68 -43 -10 50 79 142 204 211
94 52 179 111 204 141 14 17 15 17 18 -11 3 -22 -3 -34 -25 -52z"/>
<path d="M1501 711 c-46 -47 -56 -109 -56 -341 0 -225 12 -295 58 -338 61 -58
149 -27 178 63 39 115 32 491 -10 578 -35 73 -118 91 -170 38z m106 -98 c16
-24 18 -53 18 -238 -1 -231 -7 -265 -49 -265 -46 0 -51 26 -51 265 0 232 6
265 45 265 11 0 28 -12 37 -27z"/>
<path d="M1976 719 c-36 -29 -60 -114 -54 -198 6 -78 23 -116 88 -191 61 -72
70 -90 70 -144 0 -62 -7 -76 -40 -76 -22 0 -30 6 -39 31 -6 18 -11 45 -11 61
0 28 -2 29 -37 26 l-38 -3 4 -60 c4 -78 24 -127 60 -148 36 -21 64 -21 105 -2
53 25 71 73 71 189 0 116 -8 135 -86 222 -56 61 -69 89 -69 140 0 45 16 74 40
74 25 0 40 -29 40 -74 0 -35 1 -36 40 -36 38 0 40 2 40 30 0 55 -21 129 -45
154 -31 34 -99 36 -139 5z"/>
<path d="M1120 369 l0 -362 90 5 c98 6 117 15 148 73 23 43 23 207 -1 252 -9
18 -25 36 -34 41 -15 9 -15 11 2 28 29 29 45 79 45 141 -1 83 -15 135 -45 161
-23 19 -37 22 -116 22 l-89 0 0 -361z m155 241 c13 -14 18 -37 19 -79 1 -73
-14 -93 -63 -89 l-36 3 -3 79 c-2 44 -1 85 2 93 8 20 60 16 81 -7z m9 -302
c19 -27 21 -122 3 -158 -10 -20 -20 -25 -52 -25 l-40 0 -3 89 c-2 49 -1 95 2
103 9 22 73 16 90 -9z"/>
<path d="M1780 376 c0 -375 -1 -367 47 -358 l23 4 0 354 0 354 -35 0 -35 0 0
-354z"/>
<path d="M2310 675 l0 -55 44 0 44 0 7 -55 c3 -31 6 -162 5 -293 -1 -130 -1
-243 -1 -249 1 -8 15 -13 36 -13 l35 0 0 305 0 305 45 0 45 0 0 55 0 55 -130
0 -130 0 0 -55z"/>
<path d="M2610 375 c1 -195 4 -355 8 -356 4 0 15 -2 26 -4 44 -8 46 0 46 154
l0 148 29 -5 c40 -6 49 -34 53 -169 2 -61 5 -114 8 -117 3 -2 19 -6 35 -8 l30
-3 3 105 c4 141 -3 187 -37 220 l-27 28 23 26 c12 14 27 45 34 69 13 49 6 174
-11 209 -29 54 -38 58 -132 58 l-88 0 0 -355z m144 233 c19 -26 21 -110 5
-157 -9 -25 -16 -31 -40 -31 l-29 0 0 105 c0 105 0 105 24 105 14 0 32 -10 40
-22z"/>
<path d="M2990 727 c0 -8 -32 -231 -65 -445 -19 -129 -35 -241 -35 -251 0 -13
8 -18 35 -18 33 0 34 2 41 46 17 121 13 116 74 116 l55 0 8 -50 c4 -27 10 -64
13 -81 4 -29 7 -32 45 -32 39 -1 41 0 36 26 -3 15 -27 177 -53 360 l-49 332
-52 0 c-29 0 -53 -1 -53 -3z"/>
<path d="M3242 373 l3 -358 30 1 c17 1 33 2 38 3 4 1 7 161 7 356 l0 355 -40
0 -40 0 2 -357z"/>
<path d="M3360 675 l0 -55 45 0 45 0 0 -300 c0 -193 4 -300 10 -301 6 -1 19
-1 30 -1 11 0 25 0 30 1 6 1 10 108 10 301 l0 300 45 0 45 0 0 55 0 55 -130 0
-130 0 0 -55z"/>
<path d="M3660 375 l0 -355 24 -6 c13 -3 59 -4 102 -2 l79 3 3 53 3 52 -65 0
-66 0 0 110 0 110 60 0 60 0 0 50 0 50 -60 0 -60 0 0 95 0 95 65 0 65 0 0 50
0 50 -105 0 -105 0 0 -355z"/>
</g>
</svg>
