<?xml version="1.0" standalone="no"?>
<!DOCTYPE svg PUBLIC "-//W3C//DTD SVG 20010904//EN"
 "http://www.w3.org/TR/2001/REC-SVG-20010904/DTD/svg10.dtd">
<svg version="1.0" xmlns="http://www.w3.org/2000/svg"
 width="488.000000pt" height="600.000000pt" viewBox="0 0 488.000000 600.000000"
 preserveAspectRatio="xMidYMid meet">
<metadata>
Created by potrace 1.12, written by Peter Selinger 2001-2015
</metadata>
<g transform="translate(0.000000,600.000000) scale(0.100000,-0.100000)"
fill="#000000" stroke="none">
<path d="M741 5989 c-343 -45 -622 -295 -713 -639 l-23 -85 0 -1715 0 -1715
28 -90 c54 -173 121 -281 251 -402 109 -101 213 -158 367 -200 60 -17 172 -18
1789 -18 1617 0 1729 1 1789 18 154 42 258 99 366 199 163 152 248 315 275
529 14 116 14 3263 -1 3379 -43 348 -286 624 -634 722 l-80 23 -1675 1 c-921
1 -1704 -2 -1739 -7z m3509 -133 c123 -41 213 -97 305 -191 87 -87 143 -181
187 -310 l23 -70 3 -1680 c2 -1142 -1 -1702 -8 -1749 -38 -244 -193 -452 -415
-556 -158 -75 -31 -70 -1908 -70 -1649 0 -1685 0 -1763 20 -95 24 -222 85
-285 137 -146 122 -241 288 -269 469 -7 47 -10 606 -8 1749 4 1890 -4 1706 84
1884 99 200 314 358 533 390 31 5 817 8 1746 7 l1690 -1 85 -29z"/>
<path d="M1275 5330 c-60 -13 -126 -38 -163 -63 l-32 -22 1 -225 1 -225 -84
-21 c-234 -60 -400 -169 -469 -309 l-24 -50 3 -1015 c2 -558 5 -1078 8 -1155
4 -135 5 -140 32 -175 37 -46 171 -113 280 -140 173 -43 277 -54 527 -54 268
0 391 13 578 64 158 44 248 95 282 161 21 40 44 2246 24 2316 -34 124 -198
260 -389 323 -36 12 -66 23 -67 24 -1 1 5 24 13 51 23 75 21 181 -3 236 -22
49 -68 90 -118 106 -26 8 -30 15 -33 51 -3 41 -5 43 -64 73 -98 50 -210 68
-303 49z m220 -114 l40 -18 -35 -16 c-59 -26 -310 -20 -310 8 0 5 24 18 53 29
66 26 191 25 252 -3z m50 -332 l-7 -213 38 -6 c93 -14 205 -38 209 -45 11 -17
-205 -66 -366 -82 -99 -10 -134 -9 -230 4 -117 17 -256 56 -242 68 12 10 82
28 138 35 93 12 85 -11 85 236 0 120 3 219 8 219 4 0 23 -5 42 -10 50 -15 206
-13 265 3 28 7 54 11 59 9 5 -3 5 -99 1 -218z m147 167 c32 -28 33 -32 33
-108 0 -43 -6 -96 -13 -119 -11 -37 -14 -40 -42 -36 l-30 4 0 144 c0 88 4 144
10 144 5 0 24 -13 42 -29z m-767 -496 c132 -59 195 -70 395 -70 199 1 284 13
473 71 86 27 90 27 121 10 59 -32 130 -91 161 -134 l30 -44 3 -914 2 -913 -48
-25 c-26 -13 -75 -32 -107 -41 -114 -31 -133 -45 -120 -84 11 -37 39 -41 121
-20 42 11 90 27 106 35 17 9 32 13 35 10 3 -3 7 -62 9 -131 2 -125 2 -126 -24
-151 -87 -81 -308 -130 -627 -140 -346 -12 -672 48 -785 142 l-30 26 0 129 c0
71 2 129 5 129 2 0 28 -9 56 -20 29 -12 78 -27 110 -34 49 -12 60 -12 78 1 23
16 28 55 9 70 -7 5 -58 24 -113 41 -55 18 -110 40 -122 49 l-21 18 -4 905 c-3
1016 -10 926 74 1007 40 38 133 103 149 103 3 0 32 -11 64 -25z"/>
<path d="M1075 3490 l-269 -270 274 -275 275 -275 272 273 272 272 -272 273
c-149 149 -274 272 -277 272 -3 0 -126 -122 -275 -270z m632 -408 l-139 -139
-49 -2 c-27 -1 -49 2 -49 6 0 5 16 21 35 36 46 36 61 69 67 140 4 53 -2 71
-17 47 -3 -5 -13 -10 -22 -10 -14 0 -14 3 1 25 20 30 20 84 1 109 -14 19 -15
18 -15 -12 0 -35 -18 -82 -32 -82 -5 0 -6 33 -3 73 5 60 3 78 -13 106 -27 50
-37 48 -35 -6 l2 -48 -14 40 c-7 22 -25 62 -39 89 -14 27 -26 58 -26 68 0 22
-16 24 -24 3 -5 -14 15 -129 29 -166 13 -35 -15 -28 -34 8 -27 49 -46 73 -59
73 -7 0 -6 -12 4 -35 14 -36 19 -87 8 -98 -4 -3 -18 3 -32 13 -13 11 -34 20
-45 20 -19 0 -19 -1 -3 -19 10 -11 20 -39 23 -62 6 -40 5 -42 -15 -36 -72 22
-69 22 -49 -1 14 -15 21 -45 26 -109 8 -89 17 -119 45 -143 28 -22 17 -32 -29
-28 -25 2 -45 0 -45 -4 0 -10 -15 -9 203 -8 97 0 177 -3 177 -7 0 -5 -42 -50
-93 -101 l-92 -92 -240 240 c-132 133 -242 243 -245 246 -2 3 106 115 240 249
l245 245 245 -245 245 -245 -138 -138z m-287 51 l1 -48 20 24 c24 29 33 23 20
-12 -8 -21 -7 -25 4 -20 8 3 15 0 15 -7 0 -19 -39 -78 -63 -95 -25 -18 -80
-20 -109 -4 -24 13 -48 67 -48 108 0 41 15 47 30 11 12 -29 37 -56 44 -49 3 2
1 23 -3 46 -5 23 -4 48 0 55 7 10 9 9 9 -3 0 -9 6 -22 14 -28 12 -10 17 -5 27
28 17 58 39 54 39 -6z"/>
<path d="M1132 2418 c-20 -20 -14 -56 12 -73 19 -13 58 -15 242 -13 l218 3 15
27 c14 24 14 28 -3 47 -18 20 -29 21 -246 21 -162 0 -229 -3 -238 -12z"/>
<path d="M2809 4056 c-87 -23 -142 -92 -141 -176 1 -70 57 -132 139 -156 l53
-15 0 -115 0 -114 -32 0 c-82 -1 -172 -77 -184 -157 -5 -33 -1 -52 15 -83 26
-50 26 -53 0 -38 -18 12 -23 10 -45 -17 -13 -16 -38 -66 -56 -110 -39 -101
-49 -250 -24 -358 33 -142 124 -277 239 -354 34 -24 37 -29 37 -74 0 -60 -14
-63 -83 -19 -32 20 -53 43 -69 77 -25 53 -49 64 -79 37 -16 -15 -19 -31 -19
-121 0 -122 10 -153 68 -205 81 -73 235 -132 447 -169 151 -27 522 -37 701
-20 274 27 509 99 597 182 63 60 67 73 67 205 0 123 -6 144 -40 144 -21 0 -50
-31 -50 -52 0 -37 -132 -122 -222 -144 -28 -6 -28 -6 -28 42 l1 49 61 35 c129
73 239 215 284 365 29 96 25 240 -10 340 -27 79 -64 153 -94 187 -12 15 -18
16 -30 5 -13 -10 -14 -9 -7 13 17 51 11 115 -15 153 -29 43 -108 87 -157 87
l-34 0 3 117 3 118 36 6 c126 20 193 156 127 257 -44 66 -99 86 -250 90 l-128
4 0 -159 0 -160 -92 -121 c-51 -66 -96 -121 -100 -121 -5 -1 -8 8 -8 19 0 17
-7 20 -40 20 -37 0 -39 2 -46 38 -9 56 -47 108 -88 122 -67 22 -138 -35 -152
-122 -6 -34 -9 -38 -38 -38 -35 0 -51 -8 -58 -29 -3 -10 -12 -4 -31 20 -15 19
-58 74 -97 124 l-70 90 0 157 0 158 -107 -1 c-60 0 -129 -6 -154 -13z m702
-448 c6 -12 12 -50 12 -85 l1 -63 83 0 c76 0 83 2 83 20 0 11 3 20 8 20 4 0
70 -50 147 -110 259 -203 323 -250 336 -250 8 0 29 9 47 20 18 11 34 20 37 20
2 0 20 -28 39 -62 41 -75 76 -194 76 -261 0 -64 -28 -182 -48 -206 -34 -39
-299 -108 -522 -136 -143 -17 -448 -20 -601 -5 -222 22 -533 86 -551 112 -47
72 -60 319 -22 413 11 28 33 69 47 93 l27 42 31 -16 c17 -9 39 -14 48 -11 10
2 99 69 200 148 101 79 204 159 229 176 44 30 47 31 50 13 3 -18 12 -20 87
-20 l83 0 4 69 c5 92 40 133 69 79z m775 -1050 c-36 -52 -121 -128 -174 -156
-125 -66 -130 -67 -627 -67 -446 0 -451 0 -515 23 -36 13 -84 35 -107 48 -50
29 -165 133 -158 143 2 4 50 -3 107 -16 197 -44 363 -64 593 -70 309 -8 515
14 754 82 146 41 146 41 127 13z m-1121 -305 c99 -2 190 -6 203 -8 20 -5 22
-11 22 -62 l0 -56 -107 6 c-115 7 -256 28 -338 52 l-50 14 2 43 c1 24 2 44 2
45 1 1 20 -5 44 -14 31 -12 87 -17 222 -20z m845 -37 c0 -40 -3 -45 -27 -50
-71 -15 -251 -35 -370 -42 l-133 -7 0 61 c0 43 4 61 14 65 8 3 117 6 242 6
124 0 229 3 232 6 3 3 14 5 24 5 15 0 18 -8 18 -44z"/>
<path d="M3347 3052 c-92 -92 -167 -170 -167 -174 0 -11 326 -338 337 -338 11
0 333 323 333 335 0 6 -75 86 -168 178 l-167 167 -168 -168z m392 -264 c-72
-72 -94 -88 -119 -88 -16 0 -30 2 -30 4 0 3 14 18 30 34 20 20 30 40 30 60 0
17 3 39 6 49 6 15 4 16 -7 6 -22 -21 -28 -15 -16 16 6 16 7 36 2 47 -7 17 -9
15 -14 -10 -10 -51 -29 -42 -24 11 3 34 0 54 -11 68 -15 19 -15 19 -17 -10 -1
-29 -1 -30 -9 -5 -4 14 -18 45 -30 70 l-21 45 6 -67 c3 -38 4 -68 1 -68 -2 0
-14 16 -25 36 -26 43 -34 41 -21 -6 13 -44 5 -53 -28 -32 -25 16 -26 16 -18
-3 5 -11 11 -31 14 -44 4 -22 3 -23 -23 -17 -23 6 -26 5 -18 -6 6 -7 13 -39
15 -70 3 -34 11 -65 21 -76 23 -26 22 -30 -14 -34 -26 -3 -41 7 -107 73 -42
41 -83 83 -91 93 -13 16 0 32 140 172 l154 154 157 -157 156 -156 -89 -89z
m-109 -104 c0 -4 -25 -31 -56 -61 -48 -45 -59 -51 -72 -41 -20 16 -102 100
-102 105 0 2 52 3 115 3 63 0 115 -3 115 -6z"/>
</g>
</svg>
