<?xml version="1.0" standalone="no"?>
<!DOCTYPE svg PUBLIC "-//W3C//DTD SVG 20010904//EN"
 "http://www.w3.org/TR/2001/REC-SVG-20010904/DTD/svg10.dtd">
<svg version="1.0" xmlns="http://www.w3.org/2000/svg"
 width="418.000000pt" height="600.000000pt" viewBox="0 0 418.000000 600.000000"
 preserveAspectRatio="xMidYMid meet">
<metadata>
Created by potrace 1.12, written by Peter Selinger 2001-2015
</metadata>
<g transform="translate(0.000000,600.000000) scale(0.100000,-0.100000)"
fill="#000000" stroke="none">
<path d="M660 5994 c-97 -15 -153 -29 -205 -52 -160 -69 -300 -199 -373 -347
-82 -166 -76 -36 -80 -1635 -3 -1480 -2 -1512 38 -1644 74 -236 305 -438 555
-486 43 -8 464 -10 1530 -8 l1470 3 70 24 c241 81 417 265 487 506 l23 80 0
1470 c0 1641 5 1525 -70 1676 -112 226 -314 374 -559 408 -72 10 -2820 14
-2886 5z m2960 -111 c88 -28 116 -41 180 -84 122 -81 226 -225 267 -369 17
-62 18 -139 18 -1520 0 -1357 -1 -1459 -18 -1520 -58 -217 -215 -381 -437
-456 -53 -18 -115 -19 -1535 -19 l-1480 0 -72 23 c-239 75 -407 275 -442 526
-8 52 -11 522 -11 1450 0 1547 -3 1483 72 1636 32 67 58 102 122 165 112 112
214 162 386 189 14 2 669 3 1455 2 1426 -1 1430 -1 1495 -23z"/>
<path d="M903 5665 c-62 -26 -68 -49 -68 -240 0 -169 0 -170 23 -173 15 -2 22
-10 22 -27 0 -23 -17 -35 -51 -35 -37 0 -116 -49 -163 -101 -61 -68 -88 -115
-123 -214 l-28 -80 -3 -1166 -3 -1166 87 -79 c47 -43 90 -80 95 -82 5 -2 50
20 100 49 70 40 96 50 108 42 9 -5 52 -31 97 -57 l80 -47 97 57 96 56 50 -27
49 -27 12 -79 c9 -57 19 -86 36 -104 l23 -25 704 0 c805 0 732 -9 762 97 9 32
18 63 20 70 3 9 84 13 319 15 l314 3 39 31 c21 17 47 46 58 65 19 33 20 55 23
633 1 330 -1 602 -6 605 -15 11 -82 104 -82 114 0 5 20 35 45 65 l45 54 0 341
0 340 -84 161 c-251 484 -256 494 -256 530 0 23 5 39 15 42 12 5 15 34 15 170
l0 164 -220 0 -220 0 0 -164 c0 -136 3 -165 15 -170 44 -16 14 -85 -261 -601
l-59 -110 -5 -280 -5 -280 -38 60 c-176 277 -293 526 -315 669 -7 44 -6 56 4
56 23 0 54 43 54 74 0 62 -69 388 -86 407 -16 18 -35 19 -254 19 -228 0 -238
-1 -256 -21 -14 -16 -27 -71 -51 -217 -34 -209 -33 -234 10 -248 18 -6 19 -12
13 -73 -6 -65 -39 -207 -50 -219 -3 -3 -6 44 -6 105 0 273 -132 503 -310 538
-49 10 -55 14 -58 38 -3 23 0 27 22 27 l26 0 0 176 0 176 -34 34 -34 34 -145
0 c-80 0 -151 2 -159 5 -7 2 -27 -2 -45 -10z m275 -204 l3 -72 -103 3 -103 3
-3 59 c-2 32 -1 64 2 71 3 9 32 12 103 10 l98 -2 3 -72z m2015 -160 c4 -1 7
-24 7 -53 0 -46 12 -75 122 -287 66 -130 134 -260 150 -289 15 -29 28 -55 28
-57 0 -3 -157 -5 -350 -5 -192 0 -350 2 -350 5 0 3 68 137 150 298 133 257
151 297 150 337 -1 25 -1 48 -1 51 1 5 44 5 94 0z m-2043 -96 c0 -37 6 -51 36
-84 28 -32 44 -41 82 -46 71 -10 75 -12 121 -58 90 -88 131 -213 131 -400 l0
-117 -442 2 -443 3 -3 90 c-5 170 34 314 110 400 47 53 76 70 138 80 81 14
120 57 120 135 l0 40 75 0 75 0 0 -45z m965 -402 c10 -90 25 -151 61 -245 40
-105 147 -319 204 -405 22 -34 40 -64 40 -67 0 -6 56 -94 159 -251 89 -136
153 -268 200 -411 62 -191 76 -285 75 -534 0 -222 -15 -349 -62 -535 l-18 -70
-626 -3 -626 -2 -6 27 c-50 237 -76 510 -76 803 0 402 31 549 228 1075 135
362 172 494 172 621 l0 54 134 0 135 0 6 -57z m1423 -380 l3 -93 -391 0 -390
0 0 95 0 95 388 -2 387 -3 3 -92z m-2020 -110 c-3 -143 -5 -151 -41 -248 -130
-341 -168 -528 -176 -865 -3 -129 -9 -234 -13 -232 -5 1 -154 2 -333 2 l-325
0 0 745 0 745 446 0 445 0 -3 -147z m2022 -69 l0 -34 -390 0 -390 0 0 35 0 35
383 2 c210 2 385 2 390 0 4 -2 7 -19 7 -38z m0 -114 l0 -40 -390 0 -390 0 0
40 0 40 390 0 390 0 0 -40z m0 -136 c0 -52 -3 -59 -47 -110 l-47 -54 -302 0
-302 0 -15 23 c-8 12 -26 36 -41 52 -22 25 -26 40 -26 88 l0 57 390 0 390 0 0
-56z m-92 -223 l-3 -26 -298 -3 c-262 -3 -298 -2 -303 12 -17 45 -12 46 306
44 l301 -2 -3 -25z m46 -115 c25 -29 46 -63 46 -75 l0 -21 -329 0 -328 0 -27
61 c-15 33 -25 67 -22 75 4 12 54 14 310 14 l304 0 46 -54z m44 -178 l3 -38
-308 0 -309 0 -12 33 c-7 18 -12 37 -12 40 0 4 143 6 318 5 l317 -3 3 -37z m2
-118 l0 -40 -295 0 c-162 0 -295 4 -295 9 0 5 -3 23 -6 40 l-6 31 301 0 301 0
0 -40z m-2 -117 l-3 -38 -280 0 -280 0 -3 38 -3 37 286 0 286 0 -3 -37z m0
-118 c-2 -20 -6 -35 -10 -35 -5 0 -127 0 -272 0 l-264 0 -4 35 -4 35 279 0
278 0 -3 -35z m2 -120 l0 -35 -270 0 -270 0 0 35 0 35 270 0 270 0 0 -35z m-2
-117 l3 -38 -270 0 -271 0 0 33 c0 19 3 36 6 40 3 3 124 5 267 4 l262 -2 3
-37z m-2234 -29 c10 -104 7 -163 -14 -224 -24 -71 -25 -71 -1 -78 15 -3 21 2
27 22 6 24 8 22 15 -18 5 -25 6 -47 3 -50 -2 -3 -18 3 -35 13 l-30 18 -97 -57
c-71 -42 -101 -54 -112 -48 -8 6 -52 31 -97 57 l-82 48 -86 -51 -86 -50 -39
36 -40 35 0 204 0 204 334 0 333 0 7 -61z m2236 -89 l0 -40 -268 0 c-148 0
-271 2 -273 5 -3 2 -3 20 -1 40 l4 35 269 0 269 0 0 -40z m-2 -117 l-3 -38
-269 -3 c-148 -1 -273 1 -277 5 -4 5 -5 23 -2 41 l5 32 275 0 274 0 -3 -37z
m2 -121 c0 -73 -2 -74 -306 -72 -148 0 -269 2 -271 3 -1 2 0 27 4 55 l6 52
283 0 284 0 0 -38z"/>
<path d="M2105 4073 c-65 -17 -101 -87 -92 -181 3 -35 38 -147 90 -292 47
-129 108 -299 136 -377 28 -79 57 -156 65 -172 34 -64 137 -121 221 -121 51 0
136 49 170 98 28 41 30 49 30 140 0 118 -25 200 -120 399 -169 354 -355 542
-500 506z m145 -205 c63 -66 155 -209 225 -353 115 -236 144 -383 83 -428 -28
-21 -78 -19 -112 6 -20 14 -296 778 -296 820 0 27 0 27 29 13 16 -9 48 -35 71
-58z"/>
<path d="M1255 1454 c-38 -41 -47 -109 -44 -320 4 -188 4 -191 31 -231 50 -76
131 -63 165 27 15 37 18 78 18 230 0 210 -5 247 -41 290 -35 41 -93 43 -129 4z
m95 -90 c6 -14 10 -103 10 -199 0 -185 -7 -225 -39 -225 -39 0 -46 34 -46 225
0 191 7 225 46 225 12 0 23 -10 29 -26z"/>
<path d="M3085 1450 c-26 -28 -30 -39 -33 -107 -6 -100 7 -139 73 -219 50 -60
55 -71 55 -114 0 -51 -18 -77 -45 -66 -17 6 -21 14 -30 69 -5 33 -9 37 -37 37
l-31 0 6 -65 c10 -110 64 -156 140 -120 41 19 57 51 64 126 9 88 -11 151 -67
212 -58 64 -70 86 -70 129 0 44 12 60 41 56 20 -2 24 -9 27 -45 3 -40 5 -43
32 -43 39 0 43 10 31 77 -19 101 -95 136 -156 73z"/>
<path d="M920 1165 l0 -305 68 0 c37 0 78 6 92 13 41 20 60 71 60 164 0 73 -3
85 -26 112 l-26 31 21 26 c27 34 36 103 22 171 -16 79 -35 93 -133 93 l-78 0
0 -305z"/>
<path d="M1494 1218 c5 -290 12 -324 72 -353 54 -26 102 -2 133 65 13 29 16
82 18 288 l3 252 -35 0 -35 0 0 -240 c0 -255 -5 -290 -45 -290 -40 0 -45 35
-45 290 l0 240 -35 0 -35 0 4 -252z"/>
<path d="M1760 1426 c0 -44 1 -45 36 -48 l35 -3 2 -255 2 -255 33 -3 32 -3 0
261 0 262 28 -2 c52 -4 53 -2 50 43 l-3 42 -107 3 -108 3 0 -45z"/>
<path d="M2020 1165 l0 -305 90 0 90 0 0 45 0 45 -60 0 -61 0 3 93 3 92 53 3
52 3 0 45 0 44 -55 0 -55 0 0 75 0 74 58 3 57 3 0 40 0 40 -87 3 -88 3 0 -306z"/>
<path d="M2260 1165 l0 -305 30 0 30 0 0 305 0 305 -30 0 -30 0 0 -305z"/>
<path d="M2390 1165 l0 -305 85 0 85 0 0 50 0 50 -50 0 -50 0 0 255 0 255 -35
0 -35 0 0 -305z"/>
<path d="M2600 1165 l0 -305 85 0 85 0 0 50 0 50 -50 0 -50 0 0 255 0 255 -35
0 -35 0 0 -305z"/>
<path d="M2810 1165 l0 -305 90 0 90 0 0 45 0 45 -55 0 -55 0 0 95 0 95 50 0
50 0 0 45 0 45 -50 0 -50 0 0 75 0 75 55 0 55 0 0 45 0 45 -90 0 -90 0 0 -305z"/>
<path d="M1687 610 c-69 -55 -58 -258 18 -320 39 -32 75 -93 75 -127 0 -44
-16 -73 -40 -73 -25 0 -40 29 -40 74 0 33 -2 36 -30 36 -32 0 -34 -3 -31 -70
3 -67 30 -113 73 -124 80 -20 128 41 128 162 0 89 -16 130 -74 192 -50 53 -72
113 -57 153 21 54 57 41 67 -24 6 -35 10 -39 35 -39 27 0 29 3 29 40 0 49 -26
117 -51 130 -29 16 -75 11 -102 -10z"/>
<path d="M2325 606 c-37 -37 -48 -97 -49 -266 -1 -195 8 -261 41 -300 24 -29
27 -30 114 -30 l89 0 0 45 c0 37 -3 45 -18 45 -10 0 -24 -6 -31 -12 -12 -11
-13 -9 -6 7 25 66 29 105 29 245 0 169 -11 228 -49 266 -33 33 -87 33 -120 0z
m96 -102 c9 -39 9 -343 0 -373 -10 -37 -37 -50 -58 -28 -16 16 -18 39 -18 210
0 211 7 243 48 228 13 -5 25 -20 28 -37z"/>
<path d="M3144 619 c-39 -20 -58 -67 -58 -149 0 -90 15 -126 85 -205 44 -50
49 -61 49 -104 0 -49 -12 -71 -41 -71 -18 0 -39 46 -39 86 0 20 -5 24 -30 24
-29 0 -30 -2 -30 -42 0 -104 44 -165 110 -154 55 9 87 51 95 129 10 94 -12
161 -76 231 -51 57 -68 100 -55 149 14 58 66 35 66 -30 0 -30 3 -33 30 -33 30
0 30 1 30 54 0 72 -31 120 -80 123 -19 1 -44 -3 -56 -8z"/>
<path d="M881 315 l0 -305 34 0 35 0 0 128 0 127 41 1 c33 0 46 6 64 28 13 16
26 42 29 59 10 49 7 162 -5 198 -21 62 -34 69 -120 69 l-78 0 0 -305z"/>
<path d="M1150 315 l0 -305 80 0 80 0 0 50 0 50 -50 0 -50 0 0 255 0 255 -30
0 -30 0 0 -305z"/>
<path d="M1411 543 c-7 -43 -25 -168 -41 -278 -17 -110 -33 -213 -36 -228 -6
-27 -4 -28 28 -25 33 3 33 3 42 70 l8 68 48 0 c53 0 52 1 65 -92 7 -47 8 -48
42 -48 32 0 34 2 29 27 -3 16 -20 122 -36 238 -16 116 -35 240 -41 278 l-11
67 -43 0 -43 0 -11 -77z"/>
<path d="M1882 573 c3 -48 3 -48 41 -51 l37 -3 0 -255 0 -254 30 0 30 0 0 254
0 255 38 3 c37 3 37 3 40 51 l3 47 -111 0 -111 0 3 -47z"/>
<path d="M2140 315 l0 -305 35 0 35 0 0 305 0 305 -35 0 -35 0 0 -305z"/>
<path d="M2560 388 c0 -128 5 -253 11 -277 28 -125 133 -148 187 -41 21 42 22
55 22 297 l0 253 -29 0 -30 0 -3 -248 c-3 -262 -7 -282 -49 -282 -12 0 -23 11
-29 26 -6 14 -10 133 -10 265 l0 239 -35 0 -35 0 0 -232z"/>
<path d="M2850 315 l0 -305 90 0 90 0 0 45 0 45 -55 0 c-45 0 -55 3 -56 18 0
9 -1 51 -2 92 l-1 75 53 3 52 3 -3 42 -3 42 -47 1 c-27 0 -48 4 -48 7 0 4 0
39 0 77 l0 70 55 0 55 0 0 45 0 45 -90 0 -90 0 0 -305z"/>
</g>
</svg>
