<?xml version="1.0" standalone="no"?>
<!DOCTYPE svg PUBLIC "-//W3C//DTD SVG 20010904//EN"
 "http://www.w3.org/TR/2001/REC-SVG-20010904/DTD/svg10.dtd">
<svg version="1.0" xmlns="http://www.w3.org/2000/svg"
 width="484.000000pt" height="600.000000pt" viewBox="0 0 484.000000 600.000000"
 preserveAspectRatio="xMidYMid meet">
<metadata>
Created by potrace 1.12, written by Peter Selinger 2001-2015
</metadata>
<g transform="translate(0.000000,600.000000) scale(0.100000,-0.100000)"
fill="#000000" stroke="none">
<path d="M732 5989 c-218 -28 -404 -138 -565 -334 -37 -45 -93 -152 -117 -225
-50 -148 -50 -134 -50 -1845 0 -1049 4 -1629 10 -1683 23 -178 99 -338 223
-468 103 -109 194 -171 321 -218 143 -53 63 -51 1871 -51 l1680 0 89 23 c300
76 531 303 618 607 l23 80 3 1640 c2 1140 0 1669 -8 1735 -22 197 -106 365
-250 504 -141 136 -298 213 -482 236 -99 12 -3269 12 -3366 -1z m3473 -127
c251 -85 418 -254 497 -502 l23 -75 0 -1710 0 -1710 -27 -80 c-92 -270 -317
-462 -588 -504 -55 -9 -508 -11 -1735 -9 l-1660 3 -73 23 c-256 79 -439 266
-509 522 -17 61 -18 162 -18 1765 l0 1700 23 75 c87 275 295 464 573 519 24 5
797 8 1734 8 l1690 -2 70 -23z"/>
<path d="M2686 5648 c-7 -13 -80 -142 -161 -288 -81 -146 -179 -322 -218 -392
l-71 -126 -91 -27 c-49 -14 -191 -54 -315 -89 l-225 -64 -90 48 c-49 26 -133
70 -185 98 -148 77 -437 230 -525 277 -44 23 -159 84 -255 135 -96 51 -204
108 -238 127 -52 28 -63 31 -58 16 3 -10 35 -146 71 -303 36 -157 89 -382 116
-500 28 -118 63 -269 78 -335 l28 -120 -8 -525 c-4 -289 -10 -636 -13 -772
l-6 -247 73 -44 c69 -42 197 -115 302 -172 28 -15 55 -31 60 -35 6 -4 51 -30
100 -58 50 -27 157 -89 238 -136 82 -47 151 -86 153 -86 2 0 22 -11 44 -25 22
-14 64 -38 92 -54 29 -15 134 -74 233 -131 276 -158 302 -173 415 -237 58 -33
125 -72 150 -85 l45 -26 105 39 c58 21 222 79 365 130 143 50 377 133 520 184
143 51 361 129 485 172 l225 80 -3 294 c-2 162 -7 539 -12 839 l-8 545 48 85
c26 47 76 135 110 195 35 61 80 139 100 175 20 36 91 161 158 277 68 117 125
219 128 228 7 16 -13 26 -841 425 -428 206 -576 277 -889 429 -115 56 -210
101 -212 101 -2 0 -10 -10 -18 -22z m277 -282 c50 -24 178 -85 282 -136 209
-101 387 -187 540 -260 55 -26 213 -103 350 -170 138 -67 260 -126 273 -131
13 -5 21 -12 19 -16 -2 -5 -29 -51 -59 -103 -31 -52 -67 -116 -81 -142 -14
-25 -60 -106 -103 -180 -42 -73 -85 -146 -94 -163 -10 -16 -36 -61 -58 -100
-22 -38 -44 -69 -49 -68 -4 1 -219 120 -478 264 -258 144 -553 308 -655 364
-333 185 -445 247 -452 254 -6 5 292 553 358 659 l15 22 50 -25 c27 -14 91
-45 142 -69z m-2323 -377 c74 -39 176 -92 225 -119 50 -26 169 -89 265 -140
96 -51 211 -112 255 -135 44 -23 134 -71 200 -105 66 -34 143 -75 170 -90 28
-15 104 -56 170 -91 66 -34 164 -86 219 -116 54 -29 107 -55 117 -58 11 -4 19
-14 19 -23 1 -9 13 -186 29 -392 15 -206 26 -379 24 -383 -3 -4 -73 28 -156
71 -164 86 -371 192 -672 347 -104 54 -253 130 -330 170 -77 40 -212 110 -300
155 -88 45 -164 86 -169 90 -8 8 -46 163 -157 644 -28 120 -53 225 -56 232 -3
8 -1 14 4 14 5 0 70 -32 143 -71z m1560 -479 c0 -100 -4 -150 -11 -150 -10 0
-246 120 -328 168 l-44 26 179 52 c98 28 185 52 192 53 9 1 12 -35 12 -149z
m220 70 c28 -17 79 -45 113 -64 34 -18 114 -62 177 -98 63 -36 140 -79 170
-95 30 -17 111 -62 180 -100 69 -38 249 -138 400 -222 384 -214 365 -202 349
-211 -8 -5 -129 -51 -269 -103 -140 -52 -376 -140 -525 -195 -410 -153 -492
-182 -502 -182 -12 0 -13 16 -50 524 l-28 388 -37 22 -38 21 0 173 c0 94 2
172 5 172 2 0 27 -14 55 -30z m-1065 -930 c204 -106 551 -284 780 -401 l210
-108 3 -715 c1 -458 -1 -716 -8 -716 -5 0 -116 62 -247 137 -131 75 -274 156
-318 181 -44 24 -84 48 -90 52 -5 4 -35 21 -65 37 -30 16 -116 65 -190 108
-74 43 -169 97 -210 120 -41 23 -99 56 -128 74 -29 17 -55 31 -57 31 -2 0 -37
20 -77 43 -40 24 -117 68 -171 98 l-99 54 6 535 c4 294 9 595 12 668 l6 132
257 -131 c141 -73 315 -162 386 -199z m2589 -212 c3 -123 9 -453 12 -734 6
-492 5 -511 -12 -518 -11 -5 -125 -45 -254 -91 -129 -46 -377 -134 -550 -195
-377 -134 -621 -220 -626 -220 -2 0 -4 326 -4 725 l0 725 23 10 c12 5 66 25
119 44 53 20 107 40 120 45 13 6 133 50 268 100 135 50 389 145 565 210 176
66 323 120 326 121 4 0 9 -100 13 -222z"/>
</g>
</svg>
