<?xml version="1.0" standalone="no"?>
<!DOCTYPE svg PUBLIC "-//W3C//DTD SVG 20010904//EN"
 "http://www.w3.org/TR/2001/REC-SVG-20010904/DTD/svg10.dtd">
<svg version="1.0" xmlns="http://www.w3.org/2000/svg"
 width="484.000000pt" height="600.000000pt" viewBox="0 0 484.000000 600.000000"
 preserveAspectRatio="xMidYMid meet">
<metadata>
Created by potrace 1.12, written by Peter Selinger 2001-2015
</metadata>
<g transform="translate(0.000000,600.000000) scale(0.100000,-0.100000)"
fill="#000000" stroke="none">
<path d="M732 5989 c-218 -28 -404 -138 -565 -334 -37 -45 -93 -152 -117 -225
-50 -148 -50 -134 -50 -1845 0 -1049 4 -1629 10 -1683 23 -178 99 -338 223
-468 103 -109 194 -171 321 -218 143 -53 63 -51 1871 -51 l1680 0 89 23 c300
76 531 303 618 607 l23 80 3 1640 c2 1140 0 1669 -8 1735 -22 197 -106 365
-250 504 -141 136 -298 213 -482 236 -99 12 -3269 12 -3366 -1z m3473 -127
c251 -85 418 -254 497 -502 l23 -75 0 -1710 0 -1710 -27 -80 c-92 -270 -317
-462 -588 -504 -55 -9 -508 -11 -1735 -9 l-1660 3 -73 23 c-256 79 -439 266
-509 522 -17 61 -18 162 -18 1765 l0 1700 23 75 c87 275 295 464 573 519 24 5
797 8 1734 8 l1690 -2 70 -23z"/>
<path d="M2686 5648 c-7 -13 -80 -142 -161 -288 -81 -146 -179 -322 -218 -392
l-71 -126 -91 -27 c-49 -14 -191 -54 -315 -89 l-225 -64 -90 48 c-49 26 -133
70 -185 98 -148 77 -437 230 -525 277 -44 23 -159 84 -255 135 -96 51 -204
108 -238 127 -52 28 -63 31 -58 16 3 -10 35 -146 71 -303 36 -157 89 -382 116
-500 28 -118 63 -269 78 -335 l28 -120 -8 -525 c-4 -289 -10 -636 -13 -772
l-6 -247 73 -44 c69 -42 197 -115 302 -172 28 -15 55 -31 60 -35 6 -4 51 -30
100 -58 50 -27 157 -89 238 -136 82 -47 151 -86 153 -86 2 0 22 -11 44 -25 22
-14 64 -38 92 -54 29 -15 134 -74 233 -131 276 -158 302 -173 415 -237 58 -33
125 -72 150 -85 l45 -26 105 39 c58 21 222 79 365 130 143 50 377 133 520 184
143 51 361 129 485 172 l225 80 -3 294 c-2 162 -7 539 -12 839 l-8 545 48 85
c26 47 76 135 110 195 35 61 80 139 100 175 20 36 91 161 158 277 68 117 125
219 128 228 7 16 -13 26 -841 425 -428 206 -576 277 -889 429 -115 56 -210
101 -212 101 -2 0 -10 -10 -18 -22z m277 -282 c50 -24 178 -85 282 -136 209
-101 387 -187 540 -260 55 -26 213 -103 350 -170 138 -67 260 -126 273 -131
13 -5 21 -12 19 -16 -2 -5 -29 -51 -59 -103 -31 -52 -67 -116 -81 -142 -14
-25 -60 -106 -103 -180 -42 -73 -85 -146 -94 -163 -10 -16 -36 -61 -58 -100
-22 -38 -44 -69 -49 -68 -4 1 -219 120 -478 264 -258 144 -553 308 -655 364
-333 185 -445 247 -452 254 -6 5 292 553 358 659 l15 22 50 -25 c27 -14 91
-45 142 -69z m-2323 -377 c74 -39 176 -92 225 -119 50 -26 169 -89 265 -140
96 -51 211 -112 255 -135 44 -23 134 -71 200 -105 66 -34 143 -75 170 -90 28
-15 104 -56 170 -91 66 -34 164 -86 219 -116 54 -29 107 -55 117 -58 11 -4 19
-14 19 -23 1 -9 13 -186 29 -392 15 -206 26 -379 24 -383 -3 -4 -73 28 -156
71 -164 86 -371 192 -672 347 -104 54 -253 130 -330 170 -77 40 -212 110 -300
155 -88 45 -164 86 -169 90 -8 8 -46 163 -157 644 -28 120 -53 225 -56 232 -3
8 -1 14 4 14 5 0 70 -32 143 -71z m1560 -479 c0 -100 -4 -150 -11 -150 -10 0
-246 120 -328 168 l-44 26 179 52 c98 28 185 52 192 53 9 1 12 -35 12 -149z
m220 70 c28 -17 79 -45 113 -64 34 -18 114 -62 177 -98 63 -36 140 -79 170
-95 30 -17 111 -62 180 -100 69 -38 249 -138 400 -222 384 -214 365 -202 349
-211 -8 -5 -129 -51 -269 -103 -140 -52 -376 -140 -525 -195 -410 -153 -492
-182 -502 -182 -12 0 -13 16 -50 524 l-28 388 -37 22 -38 21 0 173 c0 94 2
172 5 172 2 0 27 -14 55 -30z m-1065 -930 c204 -106 551 -284 780 -401 l210
-108 3 -715 c1 -458 -1 -716 -8 -716 -5 0 -116 62 -247 137 -131 75 -274 156
-318 181 -44 24 -84 48 -90 52 -5 4 -35 21 -65 37 -30 16 -116 65 -190 108
-74 43 -169 97 -210 120 -41 23 -99 56 -128 74 -29 17 -55 31 -57 31 -2 0 -37
20 -77 43 -40 24 -117 68 -171 98 l-99 54 6 535 c4 294 9 595 12 668 l6 132
257 -131 c141 -73 315 -162 386 -199z m2589 -212 c3 -123 9 -453 12 -734 6
-492 5 -511 -12 -518 -11 -5 -125 -45 -254 -91 -129 -46 -377 -134 -550 -195
-377 -134 -621 -220 -626 -220 -2 0 -4 326 -4 725 l0 725 23 10 c12 5 66 25
119 44 53 20 107 40 120 45 13 6 133 50 268 100 135 50 389 145 565 210 176
66 323 120 326 121 4 0 9 -100 13 -222z"/>
<path d="M1405 697 c-47 -47 -58 -123 -53 -372 3 -179 6 -205 25 -247 21 -45
62 -78 98 -78 62 0 100 62 111 180 l7 70 -36 0 -36 0 -7 -60 c-7 -68 -23 -96
-48 -87 -33 13 -40 56 -40 262 0 204 7 249 40 262 24 9 35 -10 42 -68 7 -54 7
-54 45 -57 l38 -3 -6 53 c-15 131 -44 178 -112 178 -26 0 -43 -8 -68 -33z"/>
<path d="M2620 702 c-42 -43 -52 -89 -57 -287 -8 -265 12 -366 78 -401 63 -32
130 6 161 93 18 53 18 460 0 522 -30 98 -121 134 -182 73z m107 -112 c15 -45
17 -407 2 -447 -20 -54 -54 -57 -75 -7 -21 51 -17 452 5 478 23 27 54 16 68
-24z"/>
<path d="M3317 710 c-45 -35 -59 -74 -60 -164 -1 -98 19 -148 86 -224 65 -73
71 -88 68 -164 -1 -26 -24 -58 -41 -58 -20 0 -39 33 -45 80 -7 49 -8 50 -41
50 l-34 0 0 -54 c0 -129 63 -196 155 -166 22 7 42 25 57 48 20 32 23 50 23
137 0 118 -10 144 -84 225 -59 64 -79 114 -65 168 17 69 74 51 74 -24 l0 -44
41 0 42 0 -7 61 c-12 105 -35 139 -98 146 -34 4 -49 0 -71 -17z"/>
<path d="M1730 713 c0 -4 -11 -79 -25 -167 -64 -420 -76 -509 -71 -521 3 -8
16 -13 33 -11 29 3 35 16 48 108 l6 48 59 0 58 0 7 -70 c7 -74 15 -85 58 -88
21 -1 27 3 27 18 0 20 -87 629 -95 668 -5 19 -12 22 -55 22 -28 0 -50 -3 -50
-7z"/>
<path d="M1982 368 l3 -352 38 -2 37 -3 0 150 0 149 24 0 c42 0 51 -24 56
-156 3 -68 8 -126 11 -128 3 -3 20 -9 37 -12 l32 -6 0 104 c0 132 -13 205 -42
229 l-21 19 21 23 c49 52 53 232 8 299 -22 33 -22 33 -114 36 l-93 3 3 -353z
m146 225 c16 -22 15 -121 -1 -153 -8 -16 -23 -26 -40 -28 l-27 -3 0 106 0 107
28 -6 c15 -4 33 -14 40 -23z"/>
<path d="M2260 665 l0 -55 45 0 45 0 0 -294 c0 -316 -2 -306 51 -306 18 0 19
13 21 298 l3 297 43 3 42 3 0 55 0 54 -125 0 -125 0 0 -55z"/>
<path d="M2900 365 l0 -355 33 3 32 2 5 254 5 254 49 -246 c27 -136 54 -251
60 -256 6 -4 29 -8 51 -7 l40 2 3 352 2 352 -35 0 -35 0 -1 -242 c0 -151 -4
-235 -9 -223 -5 11 -28 112 -50 225 -23 113 -44 213 -46 223 -4 13 -16 17 -55
17 l-49 0 0 -355z"/>
</g>
</svg>
