<?xml version="1.0" standalone="no"?>
<!DOCTYPE svg PUBLIC "-//W3C//DTD SVG 20010904//EN"
 "http://www.w3.org/TR/2001/REC-SVG-20010904/DTD/svg10.dtd">
<svg version="1.0" xmlns="http://www.w3.org/2000/svg"
 width="481.000000pt" height="600.000000pt" viewBox="0 0 481.000000 600.000000"
 preserveAspectRatio="xMidYMid meet">
<metadata>
Created by potrace 1.12, written by Peter Selinger 2001-2015
</metadata>
<g transform="translate(0.000000,600.000000) scale(0.100000,-0.100000)"
fill="#000000" stroke="none">
<path d="M705 5985 c-44 -7 -106 -22 -138 -33 -67 -24 -186 -86 -213 -110 -11
-10 -39 -33 -63 -51 -95 -75 -198 -231 -247 -373 -45 -132 -45 -162 -42 -1883
l3 -1630 22 -76 c91 -318 325 -545 635 -613 66 -15 240 -16 1778 -14 l1705 3
98 37 c274 102 463 307 540 583 l22 80 3 1625 c2 1142 0 1654 -8 1722 -33 291
-202 530 -465 657 -190 93 -20 85 -1895 87 -1328 2 -1671 0 -1735 -11z m3470
-121 c213 -75 361 -200 450 -379 76 -155 70 5 73 -1863 2 -1637 2 -1676 -17
-1757 -67 -281 -294 -497 -580 -551 -65 -12 -324 -14 -1731 -12 -1552 3 -1659
4 -1715 21 -218 64 -383 204 -475 399 -74 160 -70 46 -70 1880 0 1586 1 1646
19 1723 23 95 48 156 94 227 104 162 274 282 460 323 51 11 357 13 1747 11
1684 -1 1685 -1 1745 -22z"/>
<path d="M2709 5173 c-96 -159 -210 -322 -222 -318 -7 3 -43 21 -80 39 l-66
34 -48 -25 c-90 -48 -488 -260 -523 -280 -34 -19 -36 -24 -118 -289 -46 -148
-86 -271 -88 -274 -6 -5 -42 32 -120 123 l-42 47 -74 -77 c-41 -43 -182 -190
-314 -328 -279 -290 -344 -360 -344 -367 0 -3 9 -16 21 -29 11 -13 100 -116
197 -228 97 -111 178 -206 180 -210 1 -4 -79 -36 -178 -71 l-181 -65 -168
-330 c-152 -298 -171 -330 -195 -333 -26 -3 -26 -4 -26 -88 l0 -84 2083 2
2082 3 0 80 c0 76 -1 79 -25 85 -24 6 -65 68 -336 510 -39 63 -93 150 -119
193 l-49 78 142 142 c78 78 142 146 142 151 0 8 -78 99 -185 216 -27 30 -77
87 -110 125 -33 38 -96 110 -139 160 -44 49 -82 93 -86 97 -3 4 -42 -24 -87
-62 -46 -39 -85 -70 -88 -70 -15 0 -211 165 -218 183 -5 12 -46 150 -93 307
-118 398 -117 394 -127 402 -6 3 -34 9 -64 13 -29 3 -53 9 -53 11 0 7 90 174
107 199 7 11 13 23 13 26 0 4 -62 61 -137 127 -132 114 -154 134 -214 189
l-27 24 -23 -38z m136 -276 l66 -59 -19 -31 c-21 -34 -41 -71 -128 -230 -30
-54 -60 -108 -68 -120 -7 -12 -32 -56 -54 -98 l-41 -76 41 -22 c22 -11 53 -29
69 -38 16 -9 30 -15 33 -12 2 2 38 65 78 139 l74 135 42 -1 c23 0 44 -3 47 -6
3 -2 30 -90 61 -194 31 -104 76 -254 100 -334 49 -161 40 -149 191 -263 45
-34 82 -65 83 -68 0 -3 -36 -36 -80 -73 l-80 -67 51 -60 c57 -65 49 -65 120
-4 19 16 62 53 94 80 32 28 84 71 114 98 30 26 57 47 60 46 3 0 33 -32 66 -70
84 -97 108 -124 178 -203 34 -38 66 -76 70 -85 8 -16 -10 -37 -201 -233 l-55
-57 65 -108 c36 -59 143 -234 238 -388 95 -154 175 -286 177 -293 4 -9 -41
-12 -206 -12 l-211 0 0 235 0 235 -175 0 -175 0 0 235 0 235 -580 0 -580 0 0
-235 0 -235 -325 0 -326 0 3 -235 3 -235 -552 0 c-304 0 -553 4 -553 8 0 8
190 383 241 477 l27 50 169 62 c92 34 175 62 183 62 8 1 37 -24 65 -54 l50
-55 59 53 59 53 -74 84 c-41 47 -78 90 -84 96 -5 6 -35 39 -65 74 -30 35 -62
71 -70 80 -8 8 -50 56 -92 105 -42 50 -90 106 -107 125 -17 19 -30 40 -29 47
2 6 84 96 183 199 99 104 212 222 251 263 l71 74 44 -49 c24 -26 67 -73 95
-104 28 -30 113 -124 188 -207 76 -84 140 -153 143 -153 3 0 32 23 65 51 l59
52 -63 66 c-87 92 -222 241 -230 255 -4 7 25 113 63 236 38 124 79 255 90 291
15 51 26 69 47 80 15 7 117 62 228 121 110 60 207 108 217 108 27 0 68 -23 63
-35 -2 -6 -34 -58 -71 -114 -36 -57 -65 -104 -63 -105 2 -2 32 -21 67 -44 l65
-41 76 117 c41 64 123 190 180 280 58 89 108 161 112 160 3 -2 36 -29 73 -61z
m463 -2079 l-3 -153 -417 -3 -418 -2 0 155 0 155 421 0 420 0 -3 -152z m-648
-473 l0 -155 -415 -2 -414 -3 -3 153 c-2 85 -1 156 1 158 2 2 190 4 418 4
l413 0 0 -155z m1000 0 l0 -155 -420 0 -420 0 0 155 0 155 420 0 420 0 0 -155z"/>
<path d="M2193 4122 c-23 -15 -41 -32 -39 -37 2 -6 38 -63 80 -128 l76 -117
40 26 c22 15 40 30 40 35 0 4 -35 62 -78 128 l-77 120 -42 -27z"/>
<path d="M2845 3745 l-60 -54 37 -38 37 -37 53 50 c29 27 53 54 53 60 0 9 -50
74 -57 74 -2 0 -30 -25 -63 -55z"/>
<path d="M1822 3124 c-7 -26 -11 -48 -10 -49 12 -12 182 -55 188 -48 11 11 33
83 28 89 -6 5 -169 54 -183 54 -6 0 -16 -21 -23 -46z"/>
<path d="M1080 2558 c-20 -41 -20 -43 -3 -56 19 -15 129 -72 138 -72 9 0 46
81 40 90 -6 10 -135 80 -147 80 -4 0 -17 -19 -28 -42z"/>
</g>
</svg>
