<?xml version="1.0" standalone="no"?>
<!DOCTYPE svg PUBLIC "-//W3C//DTD SVG 20010904//EN"
 "http://www.w3.org/TR/2001/REC-SVG-20010904/DTD/svg10.dtd">
<svg version="1.0" xmlns="http://www.w3.org/2000/svg"
 width="249.000000pt" height="339.000000pt" viewBox="0 0 249.000000 339.000000"
 preserveAspectRatio="xMidYMid meet">
<metadata>
Created by potrace 1.12, written by Peter Selinger 2001-2015
</metadata>
<g transform="translate(0.000000,339.000000) scale(0.100000,-0.100000)"
fill="#000000" stroke="none">
<path d="M430 3256 c-116 -25 -220 -106 -268 -209 -41 -87 -43 -137 -40 -942
l3 -770 23 -58 c45 -111 140 -201 246 -232 74 -22 1628 -22 1702 0 106 31 201
121 246 232 l23 58 0 805 c0 755 -1 808 -18 861 -35 105 -134 207 -241 245
-48 18 -98 19 -836 21 -587 1 -799 -1 -840 -11z m1690 -68 c71 -35 133 -97
168 -167 l27 -56 0 -820 0 -820 -29 -58 c-36 -70 -99 -130 -174 -165 l-57 -27
-810 0 -810 0 -57 27 c-75 35 -138 95 -174 165 l-29 58 -3 799 c-3 884 -5 857
61 949 42 59 104 106 171 129 47 16 108 17 856 15 l805 -2 55 -27z"/>
<path d="M1791 3003 l2 -88 -60 -125 c-129 -264 -133 -290 -133 -842 l0 -440
33 -33 c51 -51 126 -70 277 -70 141 0 218 17 269 61 l31 26 0 451 c0 411 -2
459 -19 532 -24 98 -65 212 -125 343 -43 93 -46 104 -46 186 l0 86 -116 0
-116 0 3 -87z m223 -248 c49 -109 103 -257 88 -240 -5 6 -23 50 -41 100 -37
103 -53 125 -92 125 -51 0 -59 -27 -59 -192 0 -80 4 -158 10 -172 5 -14 24
-35 42 -46 l33 -20 -162 0 -163 0 0 35 c0 94 57 279 130 425 45 90 45 90 110
90 l57 0 47 -105z m16 -219 c24 -67 39 -124 35 -136 -12 -39 -79 -37 -94 3
-10 28 -14 231 -5 259 9 28 14 19 64 -126z m108 -698 l-3 -322 -50 -19 c-105
-41 -318 -30 -392 19 l-23 14 0 315 0 315 235 0 235 0 -2 -322z"/>
<path d="M1790 1905 l-105 -105 108 -108 107 -107 107 107 108 108 -105 105
c-58 58 -107 105 -110 105 -3 0 -52 -47 -110 -105z m205 -15 l90 -90 -95 -95
-95 -95 -92 92 -93 93 92 92 c51 51 95 93 98 93 3 0 46 -41 95 -90z"/>
<path d="M420 2715 c0 -60 3 -75 15 -75 29 0 14 -29 -40 -81 -30 -28 -65 -73
-79 -100 -21 -42 -23 -54 -14 -91 5 -24 6 -69 2 -103 -4 -33 -8 -257 -8 -498
l-1 -439 24 -19 c21 -17 41 -19 205 -19 180 0 183 0 205 24 l23 24 -3 544 -2
543 -23 40 c-12 22 -45 62 -73 90 -47 45 -66 85 -41 85 6 0 10 32 10 75 l0 75
-100 0 -100 0 0 -75z m290 -310 l0 -25 -190 0 c-178 0 -190 1 -190 18 0 10 3
22 7 25 3 4 89 7 190 7 l183 0 0 -25z m-90 -850 c-47 -46 -90 -85 -95 -85 -6
0 -48 38 -95 85 l-85 85 90 90 90 90 89 -90 90 -89 -84 -86z"/>
<path d="M1025 2460 c-89 -15 -152 -39 -175 -67 -19 -25 -20 -40 -20 -395 l0
-370 28 -28 c42 -42 153 -64 322 -65 150 0 247 15 306 49 l39 22 3 391 2 391
-29 21 c-16 11 -55 28 -87 36 -71 19 -304 28 -389 15z m379 -90 c21 -6 34 -15
30 -20 -46 -44 -372 -51 -479 -10 -35 13 -29 19 37 36 65 16 353 12 412 -6z
m-405 -120 c102 -19 361 -10 442 15 17 6 19 1 19 -54 l0 -60 -67 -75 -68 -74
-140 -1 -141 -1 -52 53 c-46 46 -53 60 -62 112 -6 33 -13 70 -16 83 -4 19 -1
23 13 18 10 -3 42 -10 72 -16z m-76 -116 c4 -25 22 -53 57 -89 32 -35 50 -63
50 -78 0 -14 7 -28 16 -31 20 -8 248 -8 268 0 9 3 16 17 16 30 0 17 22 48 65
94 l65 69 0 -238 0 -239 -27 -11 c-110 -44 -415 -41 -505 5 l-28 15 0 260 c0
238 8 309 23 213z"/>
<path d="M420 675 l0 -165 29 0 c16 0 39 9 52 19 22 17 24 28 27 128 3 82 0
118 -11 146 -15 34 -19 37 -56 37 l-41 0 0 -165z"/>
<path d="M570 675 l0 -165 45 0 c41 0 45 2 45 25 0 21 -5 25 -30 25 -29 0 -30
1 -30 50 0 47 2 50 25 50 20 0 25 5 25 25 0 20 -5 25 -25 25 -22 0 -25 4 -25
40 0 38 2 40 30 40 25 0 30 4 30 25 0 23 -4 25 -45 25 l-45 0 0 -165z"/>
<path d="M702 815 c-7 -15 -12 -76 -12 -143 0 -129 11 -162 54 -162 31 0 42
16 51 68 6 38 5 42 -14 42 -17 0 -21 -6 -21 -29 0 -37 -15 -48 -29 -22 -12 21
-15 171 -5 209 8 30 28 23 32 -11 2 -15 10 -27 18 -27 18 0 20 70 2 88 -22 22
-64 14 -76 -13z"/>
<path d="M830 675 c0 -140 2 -165 15 -165 12 0 15 15 15 75 0 73 1 75 25 75
24 0 25 -2 25 -75 0 -60 3 -75 15 -75 13 0 15 25 15 165 0 140 -2 165 -15 165
-12 0 -15 -14 -15 -65 0 -63 -1 -65 -25 -65 -24 0 -25 2 -25 65 0 51 -3 65
-15 65 -13 0 -15 -25 -15 -165z"/>
<path d="M980 675 l0 -165 45 0 c41 0 45 2 45 25 0 21 -5 25 -30 25 -29 0 -30
1 -30 50 0 47 2 50 25 50 20 0 25 5 25 25 0 20 -5 25 -25 25 -22 0 -25 4 -25
40 0 38 2 40 30 40 25 0 30 4 30 25 0 23 -4 25 -45 25 l-45 0 0 -165z"/>
<path d="M1230 814 c-22 -57 -10 -114 35 -164 29 -33 34 -50 24 -79 -8 -19
-12 -21 -24 -11 -8 7 -15 21 -15 31 0 11 -7 19 -15 19 -19 0 -20 -59 -2 -84
19 -26 68 -18 85 14 20 39 10 116 -20 148 -36 38 -50 69 -43 93 8 25 29 20 33
-9 2 -14 11 -22 23 -22 22 0 24 14 8 59 -9 27 -16 31 -45 31 -28 0 -36 -5 -44
-26z"/>
<path d="M1420 675 l0 -165 29 0 c16 0 39 9 52 19 22 17 24 28 27 128 3 82 0
118 -11 146 -15 34 -19 37 -56 37 l-41 0 0 -165z"/>
<path d="M1630 675 c0 -158 1 -165 20 -165 18 0 20 7 20 75 0 73 1 75 25 75
18 0 25 5 25 20 0 15 -7 20 -25 20 -23 0 -25 4 -25 45 0 41 2 45 25 45 20 0
25 5 25 25 0 23 -4 25 -45 25 l-45 0 0 -165z"/>
<path d="M1740 675 c0 -138 2 -165 15 -165 11 0 15 17 17 73 3 70 4 72 31 75
19 2 27 9 27 22 0 13 -8 20 -27 22 -25 3 -28 7 -31 46 -3 41 -2 42 27 42 26 0
31 4 31 25 0 23 -4 25 -45 25 l-45 0 0 -165z"/>
<path d="M1850 710 c0 -159 12 -200 60 -200 48 0 60 41 60 200 0 106 -3 130
-14 130 -12 0 -15 -27 -18 -135 -2 -107 -6 -138 -18 -145 -28 -17 -35 10 -38
145 -3 108 -7 135 -18 135 -11 0 -14 -25 -14 -130z"/>
<path d="M2012 815 c-23 -51 -7 -132 32 -165 27 -21 38 -58 25 -81 -8 -16 -13
-18 -25 -8 -8 6 -14 20 -14 30 0 11 -7 19 -15 19 -19 0 -20 -59 -2 -84 19 -26
68 -18 85 14 20 39 10 116 -20 148 -35 38 -48 65 -41 90 7 29 31 28 35 0 2
-13 11 -24 22 -26 17 -4 18 0 11 34 -9 52 -11 54 -49 54 -25 0 -35 -6 -44 -25z"/>
<path d="M303 383 c-7 -2 -17 -22 -23 -44 -14 -51 -2 -96 40 -147 20 -26 30
-48 28 -63 -4 -34 -34 -36 -42 -5 -4 15 -14 26 -22 26 -13 0 -15 -7 -11 -36 8
-45 23 -64 53 -64 34 0 54 36 54 96 0 45 -5 58 -35 94 -22 27 -35 52 -35 71 0
36 27 40 36 4 9 -34 34 -32 34 3 0 52 -36 82 -77 65z"/>
<path d="M694 369 c-17 -18 -19 -37 -19 -149 0 -112 2 -131 19 -149 25 -27 51
-27 70 1 20 29 21 88 2 88 -9 0 -16 -12 -18 -27 -2 -17 -9 -28 -18 -28 -20 0
-32 95 -22 173 5 41 11 57 22 57 9 0 16 -11 18 -27 2 -16 9 -28 18 -28 19 0
18 59 -2 88 -19 28 -45 28 -70 1z"/>
<path d="M1076 368 c-13 -18 -16 -49 -16 -150 0 -116 2 -130 21 -149 11 -11
27 -18 36 -15 8 3 28 6 44 6 22 0 29 5 29 20 0 11 -6 20 -12 20 -10 0 -12 29
-10 117 3 133 -7 166 -50 171 -18 2 -31 -4 -42 -20z"/>
<path d="M1507 372 c-12 -13 -17 -36 -17 -74 0 -50 4 -61 36 -99 38 -46 44
-91 12 -97 -13 -3 -18 3 -18 22 0 20 -5 26 -21 26 -19 0 -21 -4 -14 -38 8 -46
21 -62 50 -62 37 0 55 30 55 92 0 50 -4 61 -36 99 -24 29 -34 50 -32 68 4 32
32 35 36 4 5 -38 32 -28 32 11 0 59 -49 86 -83 48z"/>
<path d="M2094 376 c-15 -11 -19 -27 -19 -73 0 -50 4 -64 31 -98 37 -46 47
-74 35 -94 -12 -19 -41 -6 -41 19 0 11 -7 20 -15 20 -10 0 -15 -10 -15 -33 0
-44 29 -72 65 -63 55 14 59 120 8 184 -42 53 -45 60 -38 82 9 29 35 25 35 -5
0 -19 5 -25 21 -25 19 0 21 4 16 36 -10 61 -41 80 -83 50z"/>
<path d="M410 220 c0 -153 1 -160 20 -160 18 0 20 7 20 65 0 58 2 65 19 65 36
0 51 27 51 91 0 84 -10 99 -65 99 l-45 0 0 -160z"/>
<path d="M550 220 l0 -160 45 0 c38 0 45 3 45 19 0 14 -8 21 -27 23 -26 3 -28
7 -31 51 -3 46 -3 47 27 47 26 0 31 4 31 24 0 19 -6 25 -27 28 -25 3 -28 7
-28 43 0 36 3 40 28 43 19 2 27 9 27 23 0 16 -7 19 -45 19 l-45 0 0 -160z"/>
<path d="M1210 235 c0 -132 2 -147 20 -165 25 -25 45 -25 70 0 18 18 20 33 20
165 0 122 -2 145 -15 145 -13 0 -15 -20 -15 -124 0 -131 -4 -156 -25 -156 -21
0 -25 25 -25 156 0 104 -2 124 -15 124 -13 0 -15 -23 -15 -145z"/>
<path d="M1360 220 l0 -160 45 0 c38 0 45 3 45 19 0 14 -8 21 -27 23 -26 3
-28 7 -31 51 -3 46 -3 47 27 47 26 0 31 4 31 25 0 21 -5 25 -31 25 -29 0 -30
1 -27 43 3 38 6 42 31 45 19 2 27 9 27 23 0 16 -7 19 -45 19 l-45 0 0 -160z"/>
<path d="M1770 220 l0 -160 45 0 c62 0 70 17 70 160 0 143 -8 160 -70 160
l-45 0 0 -160z"/>
<path d="M1920 219 l0 -160 48 3 c45 3 48 5 60 43 16 48 12 218 -7 253 -9 18
-20 22 -56 22 l-45 0 0 -161z"/>
</g>
</svg>
