<?xml version="1.0" standalone="no"?>
<!DOCTYPE svg PUBLIC "-//W3C//DTD SVG 20010904//EN"
 "http://www.w3.org/TR/2001/REC-SVG-20010904/DTD/svg10.dtd">
<svg version="1.0" xmlns="http://www.w3.org/2000/svg"
 width="486.000000pt" height="600.000000pt" viewBox="0 0 486.000000 600.000000"
 preserveAspectRatio="xMidYMid meet">
<metadata>
Created by potrace 1.12, written by Peter Selinger 2001-2015
</metadata>
<g transform="translate(0.000000,600.000000) scale(0.100000,-0.100000)"
fill="#000000" stroke="none">
<path d="M775 5994 c-209 -26 -363 -96 -504 -228 -146 -138 -234 -312 -261
-516 -8 -60 -10 -575 -8 -1740 l3 -1655 28 -89 c96 -307 315 -520 612 -596 78
-20 103 -20 1775 -20 1113 0 1715 3 1751 10 274 52 520 254 622 511 67 167 62
27 62 1899 0 1637 -1 1698 -19 1770 -82 321 -306 547 -632 637 -54 15 -213 17
-1729 19 -919 0 -1683 0 -1700 -2z m3383 -120 c303 -62 532 -301 581 -604 7
-43 11 -609 11 -1708 0 -1789 2 -1713 -55 -1855 -55 -134 -176 -274 -305 -350
-36 -22 -105 -53 -155 -70 l-90 -32 -1705 0 c-1355 0 -1715 3 -1755 13 -132
34 -246 95 -342 185 -99 93 -153 179 -207 332 -21 60 -21 60 -24 1735 -2 1139
1 1697 8 1744 37 240 193 451 410 554 58 27 141 53 210 65 14 2 771 5 1683 6
1480 1 1666 -1 1735 -15z"/>
<path d="M2321 5424 c-186 -40 -367 -182 -458 -360 l-37 -71 -95 -12 c-243
-30 -404 -132 -489 -310 -33 -69 -36 -83 -40 -187 l-4 -112 -35 -7 c-170 -32
-335 -134 -413 -255 -99 -154 -116 -382 -45 -591 65 -193 220 -351 426 -432
34 -14 37 -19 52 -86 35 -155 116 -304 205 -380 55 -48 147 -93 222 -111 59
-14 238 -17 308 -5 l42 7 0 -396 0 -396 495 0 495 0 0 374 0 373 123 6 c141 7
210 23 325 78 190 92 315 272 334 483 3 25 9 30 58 45 325 101 511 415 456
770 -39 251 -214 431 -481 495 l-70 17 3 101 c7 193 -60 329 -211 422 -103 64
-181 88 -305 94 l-103 5 -31 66 c-71 156 -173 271 -294 331 -115 56 -293 75
-433 44z m239 -155 c100 -16 173 -53 231 -117 56 -63 114 -171 154 -285 21
-60 32 -77 43 -72 8 3 46 11 83 17 136 24 303 -25 388 -112 61 -63 84 -135 78
-240 -3 -47 -14 -114 -25 -150 -34 -109 -39 -101 58 -105 258 -9 442 -125 501
-314 22 -72 26 -208 8 -293 -46 -218 -213 -357 -472 -393 l-49 -7 7 -76 c19
-227 -99 -390 -335 -464 -96 -29 -254 -32 -345 -5 -33 10 -68 20 -77 23 -17 5
-18 -18 -18 -390 l0 -396 -335 0 -335 0 0 411 c0 386 -1 410 -17 405 -96 -27
-203 -41 -328 -41 -153 0 -192 10 -270 72 -79 62 -148 204 -175 363 -6 36 -13
75 -16 87 -3 17 -15 24 -59 33 -83 17 -189 75 -260 141 -71 67 -124 158 -150
259 -24 91 -25 240 -1 311 55 169 227 275 464 287 83 4 102 7 98 19 -48 125
-56 284 -17 370 29 66 95 127 174 163 80 36 136 47 275 56 l112 7 16 55 c56
192 207 336 397 377 78 17 115 18 197 4z"/>
<path d="M1335 703 c-44 -47 -50 -90 -50 -333 0 -242 8 -293 50 -336 33 -33
70 -40 111 -21 45 22 64 63 71 157 l6 80 -35 0 -36 0 -7 -64 c-7 -67 -21 -91
-48 -80 -32 12 -41 73 -41 269 1 202 9 246 48 253 26 5 36 -15 36 -75 l0 -53
41 0 42 0 -7 71 c-10 114 -42 159 -111 159 -35 0 -49 -6 -70 -27z"/>
<path d="M2498 720 c-9 -6 -27 -27 -40 -48 -20 -32 -23 -50 -23 -127 0 -104
17 -145 93 -230 52 -58 62 -81 62 -140 0 -39 -18 -75 -38 -75 -27 1 -52 50
-52 101 0 27 -3 29 -35 29 l-35 0 0 -52 c0 -117 39 -174 118 -172 38 1 50 6
73 32 78 87 62 273 -32 374 -59 63 -79 98 -79 141 0 50 15 77 44 77 25 0 36
-21 36 -72 0 -21 5 -28 19 -28 11 0 26 -3 34 -6 21 -8 25 13 17 84 -10 83 -44
122 -104 122 -23 0 -49 -5 -58 -10z"/>
<path d="M4032 714 c-34 -24 -53 -69 -59 -143 -8 -95 16 -167 77 -235 71 -79
80 -95 80 -152 0 -39 -5 -55 -21 -70 -36 -32 -66 4 -68 84 -1 30 -3 32 -36 32
l-35 0 0 -60 c0 -115 53 -181 134 -166 63 12 96 68 103 175 6 97 -17 165 -85
241 -63 70 -72 89 -72 142 0 47 13 68 41 68 23 0 32 -15 39 -65 5 -37 8 -40
34 -38 36 3 39 6 38 44 -3 109 -36 159 -105 159 -23 0 -53 -7 -65 -16z"/>
<path d="M690 370 l0 -350 25 -6 c37 -9 133 2 159 19 56 37 83 182 72 392 -8
163 -22 228 -57 266 -26 28 -31 29 -113 29 l-86 0 0 -350z m157 223 c16 -24
18 -52 18 -223 0 -171 -2 -199 -18 -223 -12 -19 -26 -27 -47 -27 l-30 0 0 250
0 250 30 0 c21 0 35 -8 47 -27z"/>
<path d="M1020 365 l0 -355 93 0 c50 0 97 4 103 8 6 4 11 27 10 52 l-1 45 -67
3 -68 3 0 104 0 105 60 0 60 0 0 55 0 55 -60 0 -60 0 0 90 0 90 65 0 65 0 0
50 0 50 -100 0 -100 0 0 -355z"/>
<path d="M1582 368 l3 -352 28 1 c15 1 32 1 37 2 7 1 10 53 8 156 l-3 155 50
0 50 0 0 -157 0 -158 25 -1 c52 -1 50 -15 50 357 l0 349 -41 0 -40 0 3 -140 3
-140 -50 0 -50 0 3 140 3 140 -41 0 -40 0 2 -352z"/>
<path d="M1900 371 c0 -309 2 -350 16 -355 20 -8 158 -8 178 0 12 4 16 20 16
55 l0 49 -64 0 -65 0 -3 105 -3 105 63 0 62 0 0 55 0 55 -60 0 -60 0 0 90 0
90 65 0 65 0 0 50 0 50 -105 0 -105 0 0 -349z"/>
<path d="M2140 665 l0 -55 45 0 45 0 2 -297 3 -297 33 -3 32 -4 0 300 0 301
45 0 45 0 0 55 0 55 -125 0 -125 0 0 -55z"/>
<path d="M2825 688 c8 -50 85 -639 85 -653 0 -16 42 -27 73 -20 21 6 24 20 70
343 26 185 48 343 47 350 0 7 -14 12 -34 12 -40 0 -33 25 -72 -283 -15 -119
-31 -214 -34 -210 -4 5 -17 100 -29 213 -33 306 -26 280 -73 280 -38 0 -39 0
-33 -32z"/>
<path d="M3150 370 l0 -350 23 -5 c12 -3 58 -5 102 -3 l80 3 3 52 3 53 -70 0
-71 0 0 105 0 105 60 0 60 0 0 55 0 55 -60 0 -60 0 0 90 0 90 65 0 65 0 0 50
0 50 -100 0 -100 0 0 -350z"/>
<path d="M3410 371 c0 -380 -2 -369 56 -355 24 6 24 6 24 150 0 132 1 144 18
144 10 0 27 -6 38 -14 17 -13 19 -29 22 -138 2 -68 8 -128 13 -134 8 -10 25
-11 62 -5 8 1 1 202 -9 269 -3 17 -17 43 -32 57 -15 14 -21 25 -15 25 7 0 22
18 33 41 25 48 31 182 11 242 -19 55 -42 67 -138 67 l-83 0 0 -349z"/>
<path d="M3680 665 l0 -55 45 0 45 0 0 -298 0 -298 35 -2 35 -3 0 301 0 300
45 0 45 0 0 55 0 55 -125 0 -125 0 0 -55z"/>
</g>
</svg>
