<?xml version="1.0" standalone="no"?>
<!DOCTYPE svg PUBLIC "-//W3C//DTD SVG 20010904//EN"
 "http://www.w3.org/TR/2001/REC-SVG-20010904/DTD/svg10.dtd">
<svg version="1.0" xmlns="http://www.w3.org/2000/svg"
 width="249.000000pt" height="339.000000pt" viewBox="0 0 249.000000 339.000000"
 preserveAspectRatio="xMidYMid meet">
<metadata>
Created by potrace 1.12, written by Peter Selinger 2001-2015
</metadata>
<g transform="translate(0.000000,339.000000) scale(0.100000,-0.100000)"
fill="#000000" stroke="none">
<path d="M430 3256 c-116 -25 -220 -106 -268 -209 -41 -87 -43 -137 -40 -942
l3 -770 23 -58 c45 -111 140 -201 246 -232 74 -22 1628 -22 1702 0 106 31 201
121 246 232 l23 58 0 805 c0 755 -1 808 -18 861 -35 105 -134 207 -241 245
-48 18 -98 19 -836 21 -587 1 -799 -1 -840 -11z m1690 -68 c71 -35 133 -97
168 -167 l27 -56 0 -820 0 -820 -29 -58 c-36 -70 -99 -130 -174 -165 l-57 -27
-810 0 -810 0 -57 27 c-75 35 -138 95 -174 165 l-29 58 -3 799 c-3 884 -5 857
61 949 42 59 104 106 171 129 47 16 108 17 856 15 l805 -2 55 -27z"/>
<path d="M1791 3003 l2 -88 -60 -125 c-129 -264 -133 -290 -133 -842 l0 -440
33 -33 c51 -51 126 -70 277 -70 141 0 218 17 269 61 l31 26 0 451 c0 411 -2
459 -19 532 -24 98 -65 212 -125 343 -43 93 -46 104 -46 186 l0 86 -116 0
-116 0 3 -87z m223 -248 c49 -109 103 -257 88 -240 -5 6 -23 50 -41 100 -37
103 -53 125 -92 125 -51 0 -59 -27 -59 -192 0 -80 4 -158 10 -172 5 -14 24
-35 42 -46 l33 -20 -162 0 -163 0 0 35 c0 94 57 279 130 425 45 90 45 90 110
90 l57 0 47 -105z m16 -219 c24 -67 39 -124 35 -136 -12 -39 -79 -37 -94 3
-10 28 -14 231 -5 259 9 28 14 19 64 -126z m108 -698 l-3 -322 -50 -19 c-105
-41 -318 -30 -392 19 l-23 14 0 315 0 315 235 0 235 0 -2 -322z"/>
<path d="M1790 1905 l-105 -105 108 -108 107 -107 107 107 108 108 -105 105
c-58 58 -107 105 -110 105 -3 0 -52 -47 -110 -105z m205 -15 l90 -90 -95 -95
-95 -95 -92 92 -93 93 92 92 c51 51 95 93 98 93 3 0 46 -41 95 -90z"/>
<path d="M420 2715 c0 -60 3 -75 15 -75 29 0 14 -29 -40 -81 -30 -28 -65 -73
-79 -100 -21 -42 -23 -54 -14 -91 5 -24 6 -69 2 -103 -4 -33 -8 -257 -8 -498
l-1 -439 24 -19 c21 -17 41 -19 205 -19 180 0 183 0 205 24 l23 24 -3 544 -2
543 -23 40 c-12 22 -45 62 -73 90 -47 45 -66 85 -41 85 6 0 10 32 10 75 l0 75
-100 0 -100 0 0 -75z m290 -310 l0 -25 -190 0 c-178 0 -190 1 -190 18 0 10 3
22 7 25 3 4 89 7 190 7 l183 0 0 -25z m-90 -850 c-47 -46 -90 -85 -95 -85 -6
0 -48 38 -95 85 l-85 85 90 90 90 90 89 -90 90 -89 -84 -86z"/>
<path d="M1025 2460 c-89 -15 -152 -39 -175 -67 -19 -25 -20 -40 -20 -395 l0
-370 28 -28 c42 -42 153 -64 322 -65 150 0 247 15 306 49 l39 22 3 391 2 391
-29 21 c-16 11 -55 28 -87 36 -71 19 -304 28 -389 15z m379 -90 c21 -6 34 -15
30 -20 -46 -44 -372 -51 -479 -10 -35 13 -29 19 37 36 65 16 353 12 412 -6z
m-405 -120 c102 -19 361 -10 442 15 17 6 19 1 19 -54 l0 -60 -67 -75 -68 -74
-140 -1 -141 -1 -52 53 c-46 46 -53 60 -62 112 -6 33 -13 70 -16 83 -4 19 -1
23 13 18 10 -3 42 -10 72 -16z m-76 -116 c4 -25 22 -53 57 -89 32 -35 50 -63
50 -78 0 -14 7 -28 16 -31 20 -8 248 -8 268 0 9 3 16 17 16 30 0 17 22 48 65
94 l65 69 0 -238 0 -239 -27 -11 c-110 -44 -415 -41 -505 5 l-28 15 0 260 c0
238 8 309 23 213z"/>
</g>
</svg>
