<?xml version="1.0" standalone="no"?>
<!DOCTYPE svg PUBLIC "-//W3C//DTD SVG 20010904//EN"
 "http://www.w3.org/TR/2001/REC-SVG-20010904/DTD/svg10.dtd">
<svg version="1.0" xmlns="http://www.w3.org/2000/svg"
 width="422.000000pt" height="600.000000pt" viewBox="0 0 422.000000 600.000000"
 preserveAspectRatio="xMidYMid meet">
<metadata>
Created by potrace 1.12, written by Peter Selinger 2001-2015
</metadata>
<g transform="translate(0.000000,600.000000) scale(0.100000,-0.100000)"
fill="#000000" stroke="none">
<path d="M655 5990 c-84 -12 -166 -40 -250 -83 -115 -59 -234 -180 -297 -302
-90 -176 -83 -34 -83 -1705 0 -1654 -6 -1522 74 -1685 94 -191 265 -332 465
-384 79 -21 95 -21 1555 -21 l1476 0 87 24 c247 68 437 258 510 511 l23 80 0
1475 c0 1665 7 1520 -81 1699 -39 79 -61 108 -134 181 -97 96 -190 152 -320
192 l-75 23 -1450 1 c-797 1 -1473 -2 -1500 -6z m2990 -103 c239 -71 398 -232
462 -467 17 -61 18 -157 18 -1520 0 -1356 -1 -1459 -18 -1520 -56 -209 -213
-379 -417 -452 l-65 -23 -1505 0 -1505 0 -65 23 c-199 72 -348 228 -412 432
l-23 75 0 1465 0 1465 23 75 c40 125 78 188 166 275 109 109 221 166 361 185
33 4 704 7 1490 6 1340 -1 1434 -2 1490 -19z"/>
<path d="M3408 5360 c-115 -82 -129 -89 -151 -79 -31 14 -32 14 -229 -127 -88
-63 -165 -114 -171 -114 -7 1 -52 57 -101 125 -60 85 -96 127 -112 131 -29 8
-44 -2 -366 -233 -128 -91 -318 -227 -423 -301 -104 -74 -283 -202 -397 -283
-114 -82 -211 -149 -216 -149 -5 0 -15 7 -22 15 -38 46 -149 -14 -137 -74 4
-16 54 -98 113 -181 l106 -153 -28 -23 c-16 -13 -32 -23 -36 -24 -3 0 -23 23
-43 51 -28 37 -43 49 -59 47 -33 -5 -32 -43 3 -90 17 -23 31 -45 31 -49 0 -9
-84 -72 -305 -229 -88 -62 -186 -133 -217 -157 -31 -24 -61 -43 -66 -43 -5 0
-31 32 -58 70 -62 89 -102 104 -151 57 -29 -26 -29 -55 0 -98 147 -215 245
-350 265 -366 24 -19 69 -16 92 7 35 35 26 79 -30 153 l-50 67 58 42 c33 24
101 74 153 111 52 37 159 115 238 172 80 58 147 105 150 104 3 0 23 -23 44
-50 29 -37 44 -49 60 -47 35 5 32 39 -9 92 l-37 48 29 24 c16 13 33 22 38 21
4 -2 56 -70 115 -152 116 -164 142 -185 193 -164 39 16 60 50 56 90 -3 32 1
36 212 186 118 84 242 172 275 196 33 24 164 117 290 207 127 90 253 180 280
200 28 20 97 70 155 110 132 93 160 118 160 147 0 14 -36 73 -82 139 -46 64
-87 122 -93 129 -5 8 -7 16 -5 18 3 2 83 59 178 126 158 112 196 148 186 176
-2 6 16 24 40 40 211 144 250 176 214 175 -7 0 -70 -41 -140 -90z m-755 -262
c42 -62 79 -115 211 -298 l96 -135 -22 -17 c-32 -25 -339 -245 -402 -288 -52
-35 -82 -49 -72 -31 10 16 -148 226 -170 226 -37 0 -24 -33 56 -143 44 -61 80
-115 80 -121 0 -11 -110 -91 -125 -91 -5 0 -17 11 -25 25 -53 85 -147 205
-163 205 -39 0 -27 -32 53 -145 45 -63 80 -119 78 -125 -5 -15 -101 -79 -110
-74 -5 3 -43 54 -84 112 -76 108 -96 128 -114 117 -21 -13 -7 -45 70 -152 44
-61 80 -114 80 -116 0 -3 -28 -26 -62 -52 -44 -33 -64 -43 -72 -35 -6 6 -45
59 -86 118 -74 105 -104 130 -116 97 -5 -11 21 -57 75 -135 44 -65 81 -121 81
-123 0 -8 -239 -177 -250 -177 -5 0 -36 39 -69 88 -33 48 -78 112 -100 142
-91 124 -171 242 -171 251 0 4 135 103 301 220 165 118 335 239 377 270 133
96 434 311 517 368 44 30 82 59 83 63 7 17 20 6 55 -44z"/>
<path d="M3633 4490 c-19 -8 -296 -209 -413 -300 -19 -15 -244 -184 -500 -376
-1091 -821 -1048 -787 -1061 -839 -11 -42 -16 -47 -113 -104 -225 -133 -468
-319 -674 -515 -51 -49 -102 -103 -114 -119 l-21 -29 34 7 c83 17 250 67 336
100 153 60 184 87 257 226 28 53 64 87 201 190 181 136 186 139 255 139 l62 0
216 147 c119 80 271 183 337 228 66 45 206 139 310 210 105 71 273 185 375
255 102 70 299 204 438 300 140 95 268 187 284 204 48 48 69 106 70 191 0 41
-3 79 -7 84 -8 13 -240 14 -272 1z m-2074 -1674 c6 -7 9 -20 6 -27 -5 -12
-391 -309 -432 -333 -19 -10 -48 16 -40 36 3 8 88 77 188 153 101 76 197 149
212 162 33 26 50 29 66 9z"/>
<path d="M583 1478 c-13 -6 -33 -32 -45 -57 -22 -43 -23 -58 -23 -246 0 -170
3 -207 18 -248 21 -53 40 -67 90 -67 58 0 96 67 97 173 0 34 -2 37 -29 37 -28
0 -30 -3 -36 -47 -7 -57 -17 -78 -36 -78 -32 0 -42 54 -41 229 0 180 9 226 41
226 23 0 31 -19 31 -71 0 -38 1 -39 36 -39 l35 0 -6 48 c-12 89 -16 101 -47
127 -32 27 -50 30 -85 13z"/>
<path d="M1569 1475 c-39 -22 -59 -72 -59 -153 0 -81 15 -122 65 -177 57 -62
78 -110 68 -153 -5 -19 -16 -40 -26 -46 -25 -15 -47 16 -47 66 0 37 -1 38 -35
38 -34 0 -35 -1 -35 -38 0 -95 39 -152 105 -152 71 0 105 54 105 166 0 81 -16
121 -80 191 -29 33 -52 70 -56 89 -8 45 8 88 34 92 21 3 26 -5 34 -63 2 -14
12 -21 36 -23 29 -3 32 -1 32 23 0 44 -21 113 -39 129 -25 23 -72 28 -102 11z"/>
<path d="M2610 1483 c-62 -25 -75 -80 -75 -313 0 -207 8 -253 48 -290 27 -26
87 -26 114 0 22 20 43 96 43 155 0 32 -3 35 -29 35 -28 0 -30 -3 -36 -53 -8
-64 -18 -82 -39 -74 -29 11 -36 56 -36 232 0 181 8 225 41 225 21 0 29 -20 29
-71 0 -38 1 -39 36 -39 l36 0 -6 48 c-12 88 -17 101 -48 127 -29 25 -49 29
-78 18z"/>
<path d="M4055 1479 c-41 -21 -58 -59 -63 -139 -5 -92 12 -137 81 -217 25 -29
48 -66 52 -83 10 -44 -3 -88 -27 -96 -29 -9 -48 19 -48 68 0 37 -1 38 -35 38
-32 0 -35 -3 -35 -27 1 -50 21 -118 42 -140 25 -26 91 -31 120 -9 30 22 48 81
48 153 0 82 -19 127 -83 201 -50 57 -64 101 -48 145 17 45 48 36 62 -18 10
-40 14 -45 40 -45 26 0 29 3 29 33 0 47 -17 102 -38 120 -24 22 -71 29 -97 16z"/>
<path d="M0 1175 l0 -305 74 0 c70 0 76 2 99 30 39 46 50 122 45 310 -6 235
-26 270 -155 270 l-63 0 0 -305z m137 188 c15 -23 18 -50 17 -188 -1 -185 -8
-215 -54 -215 l-30 0 0 215 0 215 25 0 c16 0 31 -10 42 -27z"/>
<path d="M287 1474 c-4 -4 -7 -142 -7 -306 l0 -298 90 0 90 0 0 45 c0 31 -4
45 -12 44 -7 -1 -32 -1 -55 0 l-43 1 0 90 0 90 50 0 50 0 0 45 0 45 -50 0 -50
0 0 80 0 80 56 0 55 0 -3 43 -3 42 -80 3 c-45 1 -84 0 -88 -4z"/>
<path d="M770 1176 l0 -306 35 0 35 0 0 135 0 135 40 0 40 0 0 -135 0 -135 30
0 29 0 3 295 c2 162 2 300 0 305 -2 6 -17 10 -33 10 l-29 0 0 -125 0 -125 -40
0 -39 0 -3 123 -3 122 -32 3 -33 3 0 -305z"/>
<path d="M1050 1175 l0 -305 90 0 90 0 0 45 c0 31 -4 45 -12 44 -7 -1 -35 -1
-61 0 l-48 1 3 88 3 87 53 3 52 3 0 44 0 44 -52 3 -53 3 0 75 0 75 58 3 57 3
0 44 0 45 -90 0 -90 0 0 -305z"/>
<path d="M1250 1430 l0 -50 40 0 40 0 0 -255 0 -255 35 0 35 0 0 255 0 255 35
0 35 0 0 50 0 50 -110 0 -110 0 0 -50z"/>
<path d="M1870 1175 l0 -305 71 0 c64 0 73 3 99 28 40 40 54 136 48 322 -8
220 -32 260 -158 260 l-60 0 0 -305z m135 185 c18 -35 22 -318 4 -369 -9 -27
-16 -31 -45 -31 l-34 0 0 208 c0 115 3 212 7 215 17 18 53 6 68 -23z"/>
<path d="M2315 1448 c-10 -60 -85 -558 -85 -568 0 -6 13 -10 30 -10 26 0 30 4
35 38 16 99 12 92 65 92 l49 0 6 -47 c3 -27 7 -55 8 -63 3 -21 67 -27 67 -6 0
22 -80 568 -85 584 -3 7 -21 12 -44 12 -37 0 -40 -2 -46 -32z"/>
<path d="M2764 1466 c-3 -8 -4 -29 -2 -48 3 -30 6 -33 41 -36 l37 -3 0 -255 0
-254 30 0 30 0 0 255 0 255 40 0 40 0 0 50 0 50 -105 0 c-82 0 -107 -3 -111
-14z"/>
<path d="M3020 1176 l0 -306 30 0 30 0 -2 303 -3 302 -27 3 -28 3 0 -305z"/>
<path d="M3125 1448 c7 -41 75 -558 75 -570 0 -4 18 -8 40 -8 36 0 39 2 45 33
5 33 73 516 78 552 2 16 -4 20 -28 20 l-30 0 -16 -115 c-9 -63 -22 -162 -29
-220 -16 -131 -21 -118 -51 143 l-22 197 -34 0 c-33 0 -34 -1 -28 -32z"/>
<path d="M3407 1474 c-3 -4 -6 -141 -7 -305 l0 -299 35 0 35 0 0 305 0 305
-28 0 c-16 0 -31 -3 -35 -6z"/>
<path d="M3509 1463 c-6 -79 -6 -78 34 -81 l37 -3 0 -255 0 -254 35 0 35 0 0
255 0 255 34 0 c29 0 34 4 37 28 10 71 8 72 -107 72 -92 0 -104 -2 -105 -17z"/>
<path d="M3760 1175 l0 -305 90 0 90 0 0 43 0 43 -52 3 c-29 1 -53 3 -55 4 -1
1 -3 40 -4 87 l-2 85 51 3 52 3 0 44 0 44 -52 3 -52 3 1 75 1 75 56 3 56 3 0
44 0 45 -90 0 -90 0 0 -305z"/>
<path d="M768 605 c-29 -29 -38 -63 -38 -147 0 -73 15 -109 70 -173 59 -68 73
-105 60 -155 -7 -28 -16 -40 -28 -40 -29 0 -42 21 -42 67 0 42 0 43 -35 43
-35 0 -35 0 -34 -42 2 -107 46 -165 115 -154 56 10 87 58 92 143 6 93 -12 146
-74 216 -57 63 -73 106 -57 154 11 31 41 43 54 21 5 -7 9 -30 9 -50 0 -37 1
-38 36 -38 l37 0 -7 56 c-10 90 -37 124 -95 124 -28 0 -45 -7 -63 -25z"/>
<path d="M1037 609 c-15 -11 -32 -39 -39 -62 -16 -56 -16 -397 0 -454 14 -47
62 -93 97 -93 35 0 83 46 97 93 16 56 16 397 0 454 -15 50 -53 83 -97 83 -18
0 -44 -9 -58 -21z m84 -76 c17 -19 26 -337 12 -392 -12 -46 -37 -62 -60 -38
-16 16 -18 40 -18 216 0 153 3 202 14 214 17 21 35 21 52 0z"/>
<path d="M1742 608 c-31 -34 -42 -72 -42 -141 0 -75 21 -123 83 -196 50 -58
65 -103 50 -148 -20 -60 -73 -32 -73 39 0 37 -1 38 -36 38 l-37 0 7 -62 c9
-75 26 -110 61 -126 36 -17 55 -15 92 8 38 23 53 67 53 158 0 77 -19 125 -70
177 -48 49 -73 107 -65 145 15 67 60 59 71 -11 6 -35 10 -39 35 -39 27 0 29 3
29 38 0 56 -18 110 -43 127 -33 23 -90 19 -115 -7z"/>
<path d="M2877 619 c-33 -19 -50 -70 -50 -149 0 -86 15 -121 88 -208 38 -45
45 -59 45 -97 0 -56 -8 -75 -30 -75 -25 0 -38 20 -46 68 -6 39 -9 42 -37 42
l-30 0 6 -66 c8 -108 64 -155 139 -120 43 21 59 52 66 133 7 87 -11 141 -67
205 -27 29 -53 63 -59 75 -17 31 -15 89 4 107 29 29 44 17 54 -44 5 -31 9 -35
35 -35 l30 0 -3 55 c-6 86 -31 119 -92 119 -19 0 -43 -4 -53 -10z"/>
<path d="M3127 600 c-38 -44 -51 -138 -45 -326 5 -165 18 -221 56 -250 11 -9
48 -13 105 -14 l87 0 0 46 c0 46 0 46 -30 41 -35 -8 -34 -9 -15 36 20 49 21
364 1 420 -22 59 -43 77 -92 77 -35 0 -47 -5 -67 -30z m95 -72 c14 -25 19
-352 6 -399 -10 -34 -37 -45 -57 -24 -22 22 -24 403 -2 428 19 23 38 21 53 -5z"/>
<path d="M3927 619 c-33 -19 -51 -70 -51 -149 -1 -88 12 -119 84 -203 45 -52
50 -64 50 -106 0 -49 -13 -71 -41 -71 -18 0 -39 46 -39 86 0 20 -5 24 -30 24
-29 0 -30 -1 -30 -50 0 -99 47 -158 114 -146 70 13 109 109 91 219 -10 56 -25
83 -82 147 -45 50 -48 57 -48 108 0 42 4 57 18 66 24 15 47 -15 47 -61 0 -30
3 -33 30 -33 30 0 30 0 30 59 0 49 -4 65 -26 90 -20 24 -34 31 -62 31 -21 0
-45 -5 -55 -11z"/>
<path d="M120 315 l0 -305 66 0 c59 0 68 3 94 28 44 45 54 97 54 282 -1 173
-10 229 -45 274 -19 24 -26 26 -95 26 l-74 0 0 -305z m132 197 c9 -10 14 -64
16 -177 4 -193 -6 -235 -57 -235 l-31 0 0 213 c0 118 2 216 5 219 10 9 54 -4
67 -20z"/>
<path d="M400 315 l0 -305 90 0 90 0 0 45 0 45 -60 0 -60 0 0 94 0 95 53 3 52
3 0 40 0 40 -53 3 -53 3 3 76 3 76 50 1 50 1 3 43 3 42 -85 0 -86 0 0 -305z"/>
<path d="M1270 315 l0 -305 30 0 30 0 0 305 0 305 -30 0 -30 0 0 -305z"/>
<path d="M1400 315 l0 -305 30 0 31 0 -2 133 c-1 72 0 170 1 217 l2 85 18 -80
c10 -44 30 -142 46 -218 l27 -137 44 0 43 0 0 305 0 305 -30 0 -30 0 -1 -207
c0 -115 -4 -199 -8 -188 -4 11 -25 104 -46 208 l-38 187 -44 0 -43 0 0 -305z"/>
<path d="M2125 608 c-5 -19 -85 -560 -85 -580 0 -13 8 -18 29 -18 28 0 29 3
36 53 11 87 11 87 65 87 l49 0 6 -58 c4 -31 8 -63 10 -69 5 -14 65 -18 65 -5
1 4 -19 141 -42 305 l-43 297 -43 0 c-25 0 -44 -5 -47 -12z"/>
<path d="M2442 318 l3 -303 30 0 30 0 3 128 c2 116 4 127 21 127 36 0 46 -29
51 -144 l5 -111 34 -3 c33 -3 34 -3 27 29 -3 17 -6 73 -6 125 0 84 -2 96 -24
121 l-25 28 22 23 c17 19 22 39 25 98 8 155 -11 184 -123 184 l-75 0 2 -302z"/>
<path d="M2700 315 l0 -305 30 0 30 0 0 305 0 305 -30 0 -30 0 0 -305z"/>
<path d="M3362 368 c4 -280 12 -318 67 -351 39 -23 63 -21 96 5 51 40 55 65
55 343 l0 255 -30 0 -30 0 0 -237 c0 -252 -6 -285 -46 -291 -38 -5 -44 33 -44
288 l0 240 -36 0 -36 0 4 -252z"/>
<path d="M3650 315 l0 -305 90 0 90 0 0 45 0 45 -60 0 -60 0 0 95 0 95 50 0
50 0 0 45 0 45 -50 0 -50 0 0 75 0 75 55 0 55 0 0 45 0 45 -85 0 -85 0 0 -305z"/>
</g>
</svg>
