<?xml version="1.0" standalone="no"?>
<!DOCTYPE svg PUBLIC "-//W3C//DTD SVG 20010904//EN"
 "http://www.w3.org/TR/2001/REC-SVG-20010904/DTD/svg10.dtd">
<svg version="1.0" xmlns="http://www.w3.org/2000/svg"
 width="488.000000pt" height="600.000000pt" viewBox="0 0 488.000000 600.000000"
 preserveAspectRatio="xMidYMid meet">
<metadata>
Created by potrace 1.12, written by Peter Selinger 2001-2015
</metadata>
<g transform="translate(0.000000,600.000000) scale(0.100000,-0.100000)"
fill="#000000" stroke="none">
<path d="M770 5993 c-97 -10 -252 -56 -310 -91 -274 -167 -414 -371 -450 -654
-14 -116 -14 -3279 1 -3385 14 -105 59 -236 111 -324 57 -96 192 -233 289
-293 95 -58 218 -101 329 -116 60 -8 579 -10 1755 -8 1521 3 1675 5 1730 20
162 45 282 115 400 233 145 145 222 304 245 505 8 66 10 603 8 1745 l-3 1650
-23 80 c-87 311 -306 530 -617 617 l-80 23 -1675 1 c-921 1 -1691 -1 -1710 -3z
m3476 -136 c131 -44 209 -92 306 -188 71 -72 94 -103 132 -180 88 -178 80 6
84 -1884 2 -1132 -1 -1702 -8 -1748 -39 -254 -221 -484 -456 -576 -136 -53
-71 -51 -1864 -51 -1479 0 -1669 2 -1738 16 -303 63 -535 306 -582 611 -7 46
-10 616 -8 1748 4 1890 -4 1706 84 1884 98 199 307 353 530 391 27 4 812 7
1744 6 l1695 -1 81 -28z"/>
<path d="M812 5690 l-22 -21 0 -1184 0 -1185 -156 0 -156 0 -29 -29 -29 -30 2
-841 3 -842 28 -24 c27 -23 35 -24 163 -24 127 0 134 -1 134 -20 0 -19 7 -20
110 -20 103 0 110 1 110 20 0 20 7 20 290 20 283 0 290 0 290 -20 0 -19 7 -20
110 -20 102 0 110 1 110 19 0 18 10 20 154 23 148 3 156 4 180 27 l26 24 0
449 0 448 85 0 85 0 0 -45 0 -45 60 0 60 0 2 -427 3 -428 112 -3 112 -3 3 -27
3 -27 128 -3 127 -3 0 31 0 30 485 0 485 0 0 -30 0 -30 130 0 130 0 0 30 0 30
110 0 110 0 0 1045 0 1045 25 0 c29 0 28 -4 11 78 -13 59 -13 62 5 62 15 0 19
7 19 35 0 32 -3 35 -28 35 -27 0 -28 1 -47 106 -21 124 -47 180 -94 211 -31
21 -46 23 -162 23 -100 0 -131 3 -143 15 -21 22 -201 22 -210 0 -3 -8 -16 -15
-28 -15 -38 0 -118 -28 -177 -61 -129 -73 -250 -191 -389 -376 l-76 -103 -168
0 -168 0 0 1030 0 1029 -22 21 c-22 20 -30 20 -948 20 -918 0 -926 0 -948 -20z
m1786 -481 l-3 -354 -835 0 -835 0 -3 357 -2 358 832 2 c458 2 836 0 841 -3 4
-3 6 -165 5 -360z m-3 -1044 l0 -550 -87 -3 -88 -3 0 -504 0 -505 -145 0 -145
0 0 316 c0 321 -2 343 -39 371 -12 9 -155 12 -593 13 l-578 0 0 703 c0 387 3
707 7 710 3 4 380 6 837 5 l831 -3 0 -550z m1628 -77 c32 -16 46 -52 77 -196
16 -78 30 -148 30 -155 0 -9 -123 -11 -548 -10 -301 2 -551 3 -555 3 -5 0 1
12 11 28 26 36 162 184 162 176 0 -3 21 13 48 37 59 52 194 119 264 129 67 10
487 0 511 -12z m120 -412 c3 -8 3 -17 0 -20 -4 -3 -269 -6 -590 -6 -479 0
-583 2 -583 13 0 8 3 17 7 20 3 4 266 7 584 7 486 0 578 -2 582 -14z m-151
-372 c2 -80 1 -148 -1 -150 -6 -5 -1596 -5 -1602 0 -2 2 -3 70 -1 150 l3 146
799 0 799 0 3 -146z m-2212 -754 l0 -600 -705 0 -705 0 0 593 c0 327 3 597 7
600 3 4 321 7 705 7 l698 0 0 -600z m2210 -180 l0 -690 -800 0 -800 0 0 690 0
690 800 0 800 0 0 -690z m-2212 -598 l3 -112 -703 2 -703 3 -3 99 c-1 55 0
106 2 113 5 11 130 13 703 11 l698 -3 3 -113z"/>
<path d="M2152 5038 l3 -83 143 -3 142 -3 0 86 0 85 -145 0 -146 0 3 -82z"/>
<path d="M2160 4070 l0 -430 145 0 145 0 0 430 0 430 -145 0 -145 0 0 -430z
m204 333 c5 -20 7 -664 1 -672 -2 -4 -28 -4 -59 -3 l-56 4 0 337 c0 186 3 341
7 344 3 4 28 7 54 7 37 0 49 -4 53 -17z"/>
<path d="M3791 4049 c-59 -11 -84 -30 -126 -91 -40 -60 -43 -78 -17 -101 16
-15 53 -17 311 -17 247 0 292 2 288 14 -3 8 -11 42 -18 76 -16 84 -41 111
-110 121 -72 10 -273 9 -328 -2z m363 -59 c8 -8 18 -34 22 -57 l7 -43 -247 0
c-274 0 -270 -1 -213 64 42 48 81 55 269 53 116 -2 151 -5 162 -17z"/>
<path d="M3683 3400 c-44 -27 -59 -81 -35 -130 9 -19 28 -41 42 -48 32 -16 96
-9 121 14 38 34 41 113 7 147 -40 41 -87 47 -135 17z"/>
<path d="M3964 3401 c-60 -36 -65 -112 -13 -163 33 -32 74 -36 119 -13 93 48
53 195 -53 195 -12 0 -36 -9 -53 -19z"/>
<path d="M753 2985 c-27 -16 -49 -40 -62 -68 -20 -42 -21 -59 -21 -416 0 -345
1 -374 19 -409 10 -20 28 -45 39 -55 48 -44 74 -46 547 -46 416 -1 453 1 490
18 55 25 90 63 104 114 9 30 11 147 9 402 -3 357 -3 360 -26 397 -13 21 -38
48 -55 60 l-32 23 -485 3 -485 2 -42 -25z m991 -49 c67 -28 66 -20 66 -429 0
-399 -1 -411 -55 -435 -19 -9 -151 -12 -489 -12 l-464 0 -30 28 c-17 16 -33
44 -37 63 -3 19 -5 190 -3 381 l3 346 25 27 c14 15 34 31 45 35 11 5 219 9
463 9 357 1 449 -2 476 -13z"/>
<path d="M3215 2844 c-160 -56 -278 -178 -336 -344 -16 -49 -22 -88 -22 -160
-1 -132 28 -220 106 -326 91 -124 228 -198 387 -211 295 -22 552 200 576 499
20 245 -155 489 -397 553 -88 24 -231 19 -314 -11z m304 -83 c122 -38 219
-123 274 -239 27 -57 32 -81 35 -164 6 -146 -25 -229 -125 -331 -214 -219
-572 -159 -710 120 -29 59 -36 85 -40 156 -10 146 29 252 127 348 118 115 287
157 439 110z"/>
<path d="M3282 2670 c-89 -29 -157 -88 -200 -173 -92 -182 -22 -387 163 -478
73 -35 189 -39 270 -8 75 28 155 102 192 178 24 49 28 68 28 147 0 84 -3 96
-35 160 -78 153 -255 227 -418 174z m230 -72 c147 -63 210 -254 132 -398 -75
-138 -247 -190 -390 -117 -119 60 -181 210 -140 335 58 173 231 252 398 180z"/>
<path d="M702 1840 c-64 -60 29 -159 96 -102 35 29 38 67 8 96 -31 32 -74 34
-104 6z"/>
<path d="M1582 1840 c-44 -41 -13 -120 46 -120 59 0 93 50 67 99 -23 46 -76
55 -113 21z"/>
<path d="M1782 1844 c-31 -21 -31 -87 0 -108 51 -36 118 -5 118 54 0 59 -67
90 -118 54z"/>
<path d="M3580 5576 c-6 -6 -10 -14 -10 -19 0 -5 -9 -20 -20 -34 -11 -15 -20
-41 -20 -61 0 -20 -8 -44 -17 -55 -14 -15 -18 -37 -18 -94 0 -65 3 -77 23 -93
21 -17 22 -25 22 -168 0 -121 3 -154 15 -166 37 -36 88 -27 105 20 6 14 10 76
10 139 0 107 8 142 27 113 4 -7 8 -69 8 -136 0 -118 1 -125 24 -143 31 -25 47
-24 76 6 24 23 25 28 25 169 0 141 1 146 25 170 21 22 25 34 25 89 0 49 -5 70
-20 90 -12 15 -20 41 -20 64 -1 27 -9 47 -28 69 -26 30 -32 32 -125 41 -63 6
-101 5 -107 -1z m228 -113 l3 -43 -125 0 -126 0 0 38 c0 21 3 42 7 46 4 3 59
5 122 4 l116 -3 3 -42z m36 -89 c3 -9 6 -38 6 -64 0 -39 -5 -54 -25 -72 -24
-22 -25 -28 -27 -177 -3 -136 -5 -155 -21 -165 -35 -22 -47 15 -47 151 0 120
-1 123 -25 139 -24 16 -27 16 -45 -1 -18 -16 -20 -31 -20 -140 0 -134 -12
-171 -47 -149 -16 10 -18 29 -21 165 -2 149 -3 155 -27 177 -20 18 -25 33 -25
72 0 84 -7 80 165 80 130 0 154 -2 159 -16z"/>
<path d="M2870 4556 c0 -18 -6 -26 -21 -28 -47 -7 -51 -68 -5 -68 13 0 26 -7
30 -15 4 -11 -2 -15 -25 -15 -51 0 -51 -61 0 -68 15 -2 21 -10 21 -28 l0 -24
860 0 860 0 0 25 c0 20 5 25 25 25 47 0 44 61 -4 68 -30 5 -26 16 10 29 39 15
38 54 -1 63 -18 4 -26 13 -28 33 l-3 27 -860 0 -859 0 0 -24z m130 -112 l0
-95 -41 3 -41 3 0 68 c1 129 -3 117 42 117 l40 0 0 -96z m1400 1 l0 -95 -665
0 -665 0 0 95 0 95 665 0 665 0 0 -95z m150 -1 l0 -95 -42 3 -41 3 1 90 c1 50
1 91 2 93 0 1 18 2 40 2 l40 0 0 -96z"/>

</g>
</svg>
