<?xml version="1.0" standalone="no"?>
<!DOCTYPE svg PUBLIC "-//W3C//DTD SVG 20010904//EN"
 "http://www.w3.org/TR/2001/REC-SVG-20010904/DTD/svg10.dtd">
<svg version="1.0" xmlns="http://www.w3.org/2000/svg"
 width="484.000000pt" height="600.000000pt" viewBox="0 0 484.000000 600.000000"
 preserveAspectRatio="xMidYMid meet">
<metadata>
Created by potrace 1.12, written by Peter Selinger 2001-2015
</metadata>
<g transform="translate(0.000000,600.000000) scale(0.100000,-0.100000)"
fill="#000000" stroke="none">
<path d="M732 5989 c-196 -25 -356 -111 -505 -269 -125 -133 -194 -281 -217
-470 -8 -70 -10 -534 -8 -1735 l3 -1640 23 -80 c88 -307 303 -520 610 -608
l77 -22 1664 -3 c1828 -3 1757 -5 1917 57 288 112 494 375 534 682 13 105 13
3248 -1 3359 -23 189 -108 358 -249 494 -141 136 -298 213 -482 236 -99 12
-3269 12 -3366 -1z m3473 -128 c228 -77 387 -223 472 -431 56 -139 54 -59 51
-1883 l-3 -1682 -24 -70 c-76 -227 -223 -388 -431 -472 -139 -56 -59 -54
-1883 -51 l-1682 3 -70 23 c-252 85 -418 253 -497 502 l-23 75 0 1705 0 1705
23 75 c87 276 295 464 573 519 24 5 797 8 1734 8 l1690 -2 70 -24z"/>
<path d="M490 3665 l0 -1845 335 0 335 0 0 -45 0 -45 270 0 270 0 0 45 0 45
680 0 680 0 0 -45 0 -45 270 0 270 0 0 45 0 45 375 0 375 0 0 1845 0 1845
-1930 0 -1930 0 0 -1845z m3700 345 l0 -1340 -1770 0 -1770 0 0 1340 0 1340
1770 0 1770 0 0 -1340z m-2 -1770 l2 -260 -1770 0 -1770 0 0 258 c0 142 2 261
4 263 2 2 798 3 1768 2 l1763 -3 3 -260z"/>
<path d="M1275 5176 c-144 -46 -255 -161 -294 -306 -17 -65 -11 -1769 7 -1820
20 -60 95 -163 148 -203 27 -20 74 -47 104 -60 l55 -22 1095 -3 c1073 -2 1096
-2 1161 18 90 27 179 94 230 172 72 113 69 64 69 1025 0 848 0 865 -21 925
-43 130 -138 225 -267 269 -53 18 -100 19 -1151 18 -856 0 -1105 -3 -1136 -13z
m2265 -170 c49 -26 98 -74 123 -121 l22 -40 0 -871 0 -871 -30 -48 c-40 -64
-101 -110 -165 -124 -35 -8 -375 -11 -1084 -11 -1139 0 -1092 -3 -1177 63 -24
18 -54 54 -68 82 l-26 50 -3 839 c-2 723 0 847 13 891 20 71 81 138 148 164
51 20 71 20 1132 18 1032 -2 1082 -3 1115 -21z"/>
<path d="M1079 2432 c-166 -106 -50 -373 140 -322 82 22 131 88 131 175 0 139
-152 222 -271 147z m165 -131 c18 -63 -53 -114 -109 -77 -31 20 -40 51 -25 86
25 61 116 54 134 -9z"/>
<path d="M3194 2441 c-110 -50 -138 -190 -56 -278 76 -83 181 -82 258 2 87 94
57 230 -63 281 -44 19 -90 17 -139 -5z m126 -111 c42 -42 12 -120 -48 -120
-45 0 -72 26 -72 67 0 20 7 45 17 55 22 24 77 24 103 -2z"/>
<path d="M3664 2441 c-23 -10 -54 -36 -70 -57 -25 -33 -29 -46 -29 -104 0 -57
4 -72 28 -103 50 -66 129 -91 202 -63 80 31 133 119 119 197 -22 113 -147 179
-250 130z m126 -111 c62 -62 -25 -155 -98 -104 -27 19 -30 78 -5 106 22 24 77
24 103 -2z"/>
</g>
</svg>
