<?xml version="1.0" standalone="no"?>
<!DOCTYPE svg PUBLIC "-//W3C//DTD SVG 20010904//EN"
 "http://www.w3.org/TR/2001/REC-SVG-20010904/DTD/svg10.dtd">
<svg version="1.0" xmlns="http://www.w3.org/2000/svg"
 width="440.000000pt" height="600.000000pt" viewBox="0 0 440.000000 600.000000"
 preserveAspectRatio="xMidYMid meet">
<metadata>
Created by potrace 1.12, written by Peter Selinger 2001-2015
</metadata>
<g transform="translate(0.000000,600.000000) scale(0.100000,-0.100000)"
fill="#000000" stroke="none">
<path d="M762 5675 c-45 -8 -109 -31 -169 -60 -177 -86 -312 -251 -370 -450
-16 -56 -18 -160 -21 -1420 -2 -942 1 -1386 8 -1443 21 -157 80 -280 190 -391
82 -84 108 -103 196 -146 154 -75 36 -70 1604 -70 1304 0 1410 1 1468 17 198
55 369 192 452 363 81 165 75 38 75 1615 0 1579 6 1451 -77 1620 -33 69 -58
101 -129 172 -73 72 -104 95 -183 133 -160 78 -79 74 -1611 74 -1079 -1 -1375
-4 -1433 -14z m2898 -96 c113 -31 186 -74 270 -159 53 -53 86 -97 113 -150 70
-140 67 -64 67 -1585 0 -1527 4 -1432 -70 -1575 -76 -145 -188 -241 -347 -297
l-78 -28 -1370 -3 c-971 -2 -1391 0 -1441 8 -138 21 -265 89 -355 188 -58 64
-131 207 -148 290 -8 37 -11 465 -11 1420 0 1517 -3 1443 67 1581 46 91 162
213 243 256 30 16 89 39 130 52 l75 22 1390 0 c1376 1 1391 1 1465 -20z"/>
<path d="M1173 4006 c-20 -9 -40 -31 -55 -58 -21 -40 -23 -57 -26 -265 -4
-240 5 -307 50 -358 28 -32 77 -41 116 -21 36 19 57 68 67 158 7 66 7 67 -19
74 -45 11 -56 0 -56 -59 0 -59 -18 -94 -44 -84 -33 13 -40 57 -40 262 0 219 6
255 48 255 26 0 36 -21 36 -82 0 -37 1 -38 35 -38 35 0 35 1 35 43 0 72 -11
114 -39 146 -32 37 -66 45 -108 27z"/>
<path d="M1471 4009 c-29 -11 -50 -39 -70 -89 -18 -46 -27 -371 -13 -462 18
-116 57 -168 128 -168 36 0 89 55 105 111 18 60 19 446 1 507 -24 80 -91 125
-151 101z m75 -117 c4 -10 10 -107 12 -217 4 -223 -5 -277 -46 -283 -42 -6
-52 44 -52 255 0 183 8 249 31 264 17 10 46 -1 55 -19z"/>
<path d="M3785 4013 c-38 -9 -74 -54 -84 -105 -25 -113 -1 -209 70 -288 64
-70 79 -100 79 -152 0 -50 -20 -81 -48 -76 -23 4 -42 46 -42 91 0 36 -1 37
-35 37 l-35 0 0 -62 c1 -117 52 -179 134 -164 47 9 82 53 96 122 23 110 -9
222 -85 294 -48 45 -65 80 -65 129 0 55 8 71 36 71 26 0 44 -31 44 -76 0 -21
5 -24 35 -24 l35 0 0 52 c0 70 -31 133 -72 147 -17 6 -34 10 -37 10 -3 -1 -15
-3 -26 -6z"/>
<path d="M480 3650 l0 -350 100 0 100 0 0 55 0 55 -65 0 -65 0 0 105 0 105 60
0 60 0 0 50 0 50 -60 0 -60 0 0 90 0 90 65 0 65 0 0 50 0 50 -100 0 -100 0 0
-350z"/>
<path d="M742 3653 l3 -348 30 0 30 0 5 255 5 255 48 -240 c27 -132 51 -248
53 -258 5 -15 14 -17 52 -15 l47 3 3 348 2 347 -35 0 -35 0 -2 -237 -3 -238
-17 70 c-9 39 -31 145 -50 237 l-33 168 -53 0 -52 0 2 -347z"/>
<path d="M1702 3653 l3 -348 35 0 35 0 4 265 3 265 34 -250 c18 -137 33 -258
34 -267 0 -14 8 -18 34 -18 24 0 36 5 40 18 2 9 19 130 38 267 l33 250 3 -267
2 -268 34 0 34 0 4 164 c1 90 2 247 0 350 l-4 186 -57 0 -56 0 -30 -230 c-16
-126 -32 -230 -35 -230 -3 0 -14 66 -24 148 -9 81 -22 184 -28 230 l-11 82
-63 0 -64 0 2 -347z"/>
<path d="M2149 3680 c-1 -176 -1 -327 -1 -335 0 -45 0 -45 75 -45 100 0 137
19 159 85 32 93 19 223 -26 262 -23 19 -24 23 -9 35 28 23 43 75 43 147 0 77
-11 115 -42 149 -19 20 -31 22 -110 22 l-88 0 -1 -320z m159 190 c14 -27 12
-125 -4 -140 -5 -4 -25 -10 -44 -12 l-35 -3 -3 93 -3 93 38 -3 c28 -2 41 -9
51 -28z m2 -279 c5 -11 10 -47 10 -81 0 -83 -11 -100 -60 -100 l-40 0 0 100 0
100 40 0 c29 0 42 -5 50 -19z"/>
<path d="M2465 3653 l0 -348 35 0 35 0 3 149 3 148 27 -7 c15 -3 32 -11 37
-16 6 -6 13 -69 16 -142 4 -73 7 -133 8 -134 0 -2 17 -3 36 -3 l35 0 0 53 c-1
28 -5 97 -9 151 -7 90 -11 102 -34 122 -23 20 -24 24 -11 35 33 28 46 72 47
158 0 87 -11 131 -40 163 -13 15 -33 18 -103 18 l-86 0 1 -347z"/>
<path d="M2786 3673 c-26 -181 -50 -338 -53 -351 -5 -22 -3 -23 33 -20 l39 3
9 78 8 77 58 0 58 0 6 -47 c17 -118 14 -113 58 -113 38 0 39 1 34 28 -8 36
-96 643 -96 660 0 8 -17 12 -53 12 l-52 0 -49 -327z"/>
<path d="M3080 3650 l0 -350 35 0 35 0 0 257 c0 141 2 254 5 251 3 -3 26 -108
50 -234 25 -126 50 -239 55 -251 8 -19 17 -23 55 -23 l45 0 0 350 0 350 -35 0
-35 0 -1 -237 -1 -238 -17 70 c-9 39 -32 145 -51 238 l-35 167 -52 0 -53 0 0
-350z"/>
<path d="M3400 3945 l0 -55 45 0 45 0 0 -296 0 -295 38 3 37 3 0 293 0 292 43
0 42 0 0 55 0 55 -125 0 -125 0 0 -55z"/>
<path d="M2070 1602 c-24 -8 -49 -42 -60 -81 -5 -20 -10 -124 -10 -231 1 -202
8 -249 46 -291 22 -24 66 -25 88 0 25 27 46 105 46 168 0 52 0 53 -30 53 -29
0 -30 -2 -30 -46 0 -50 -14 -84 -34 -84 -22 0 -26 34 -26 211 0 128 3 170 14
185 20 27 37 8 43 -50 5 -43 8 -46 34 -46 26 0 29 3 29 35 0 111 -53 196 -110
177z"/>
<path d="M2897 1599 c-35 -20 -51 -70 -51 -159 0 -90 15 -133 71 -209 42 -55
41 -154 -1 -138 -11 5 -16 19 -16 52 0 44 -1 45 -31 45 l-32 0 5 -68 c8 -114
54 -166 112 -128 35 22 51 79 50 176 -1 91 -6 106 -68 199 -39 57 -47 109 -21
131 12 10 16 8 25 -15 5 -14 10 -35 10 -46 0 -22 45 -28 53 -6 14 36 -28 167
-53 167 -5 0 -14 2 -22 5 -7 2 -21 0 -31 -6z"/>
<path d="M1580 1295 l0 -295 58 0 c69 0 97 20 109 77 4 21 8 126 8 233 0 253
-12 280 -124 280 l-51 0 0 -295z m110 2 c0 -174 -4 -197 -37 -197 -10 0 -13
40 -13 188 0 104 3 192 6 195 4 3 15 2 25 -4 17 -9 19 -24 19 -182z"/>
<path d="M1801 1303 c-1 -159 2 -292 7 -298 4 -5 37 -10 75 -11 l67 -1 0 59 0
58 -40 0 -40 0 0 70 0 70 40 0 40 0 0 54 0 55 -40 3 c-22 2 -40 6 -40 11 0 4
0 30 0 57 l0 50 39 0 39 0 4 51 c1 28 1 53 -1 55 -2 2 -37 4 -77 4 l-73 0 0
-287z"/>
<path d="M2230 1296 c0 -162 4 -297 8 -300 5 -3 18 -2 30 1 21 5 22 11 22 124
l0 119 30 0 30 0 0 -120 c0 -66 3 -120 8 -121 4 0 17 -2 30 -5 l22 -4 0 300 0
300 -30 0 -30 0 0 -116 0 -115 -27 3 -28 3 -3 113 -3 112 -29 0 -30 0 0 -294z"/>
<path d="M2460 1306 c0 -156 2 -290 5 -298 4 -9 24 -12 75 -10 l70 4 0 54 0
54 -40 0 -40 0 0 60 c0 33 0 63 0 68 0 4 18 8 40 10 l40 3 0 54 0 54 -42 3
-42 3 0 55 1 55 41 3 42 3 0 55 0 54 -75 0 -75 0 0 -284z"/>
<path d="M2640 1535 c0 -54 0 -55 30 -55 l30 0 0 -246 0 -245 28 3 27 3 3 242
2 242 28 3 c25 3 27 6 28 56 l0 52 -88 0 -88 0 0 -55z"/>
<path d="M1381 907 c-13 -6 -33 -24 -43 -38 -48 -64 -47 -434 1 -512 38 -61
110 -54 143 13 11 21 18 58 18 93 0 58 0 58 -27 55 -24 -3 -28 -8 -31 -38 -5
-63 -11 -80 -32 -80 -33 0 -40 40 -40 215 0 174 7 215 39 215 20 0 31 -25 31
-72 0 -25 4 -28 31 -28 l32 0 -6 60 c-8 74 -19 95 -57 115 -34 18 -29 18 -59
2z"/>
<path d="M1623 905 c-58 -24 -67 -59 -71 -256 -4 -202 6 -274 44 -310 27 -26
84 -30 110 -8 44 36 49 65 49 279 0 185 -2 209 -20 245 -26 50 -67 69 -112 50z
m58 -92 c11 -12 14 -59 14 -198 0 -191 -5 -215 -46 -215 -31 0 -41 68 -37 245
2 88 7 166 11 173 11 17 42 15 58 -5z"/>
<path d="M3541 907 c-39 -20 -62 -59 -68 -120 -8 -75 11 -137 56 -190 59 -67
71 -89 71 -128 0 -49 -8 -69 -29 -69 -27 0 -41 21 -41 62 0 36 -2 38 -31 38
l-31 0 4 -65 c5 -81 35 -119 93 -119 50 0 82 35 96 105 18 90 0 152 -67 233
-58 71 -75 117 -55 155 14 25 46 28 55 5 3 -9 6 -29 6 -45 0 -27 3 -30 28 -27
24 3 27 7 30 45 4 57 -21 109 -60 122 -17 6 -31 11 -32 11 -1 0 -12 -6 -25
-13z"/>
<path d="M800 615 l0 -295 85 0 85 0 0 45 0 45 -55 0 -55 0 0 90 0 90 44 0 44
0 4 40 4 40 -48 0 -48 0 0 75 0 75 50 0 50 0 0 45 0 45 -80 0 -80 0 0 -295z"/>
<path d="M1020 898 c-1 -179 -1 -477 -1 -520 1 -55 2 -58 26 -58 l25 0 0 213
c0 116 4 205 9 197 4 -8 25 -104 47 -212 l38 -198 43 0 43 0 -2 293 -3 292
-25 0 -25 0 -5 -200 c-3 -110 -7 -197 -8 -193 -3 10 -82 388 -82 394 0 2 -18
4 -40 4 -25 0 -40 -5 -40 -12z"/>
<path d="M1820 615 l0 -295 30 0 30 0 1 223 1 222 19 -140 c43 -329 37 -305
70 -305 16 0 29 3 29 8 0 29 59 435 64 439 3 4 6 -96 6 -220 l0 -227 25 0 c19
0 25 5 26 23 0 12 0 144 0 292 l-1 270 -39 3 c-30 2 -42 -1 -49 -15 -6 -10
-20 -98 -33 -196 -12 -97 -26 -174 -29 -170 -4 5 -15 73 -24 153 -9 80 -19
164 -22 188 l-6 42 -49 0 -49 0 0 -295z"/>
<path d="M2187 903 c-4 -3 -7 -136 -7 -295 l0 -288 65 0 c118 0 145 30 145
160 0 80 -10 117 -36 133 -11 6 -10 14 8 37 46 62 33 211 -22 243 -28 17 -139
24 -153 10z"/>
<path d="M2450 615 l0 -295 30 0 30 0 0 125 c0 117 1 125 19 125 37 0 51 -37
51 -135 0 -95 8 -115 45 -115 19 0 20 5 17 102 -3 124 -7 143 -32 168 -19 19
-19 20 5 56 44 65 30 225 -23 253 -12 6 -48 11 -81 11 l-61 0 0 -295z"/>
<path d="M2756 878 c-20 -119 -28 -172 -51 -333 -14 -99 -28 -190 -30 -202 -5
-20 -1 -23 24 -23 31 0 32 1 46 95 l6 40 47 -1 47 -1 9 -67 8 -66 35 0 c28 0
33 3 29 18 -3 9 -10 52 -15 94 -12 88 -58 396 -66 446 -6 30 -9 32 -45 32 -36
0 -39 -2 -44 -32z"/>
<path d="M2960 615 l0 -295 30 0 30 0 2 218 3 217 44 -217 44 -218 37 0 c22 0
40 5 42 13 2 6 4 138 3 292 l0 280 -27 3 -28 3 -1 -203 c0 -112 -4 -194 -8
-183 -4 11 -22 92 -40 180 -42 208 -41 205 -91 205 l-40 0 0 -295z"/>
<path d="M3230 860 l0 -50 40 0 40 0 0 -245 0 -245 30 0 31 0 -3 245 -3 245
38 0 37 0 0 50 0 50 -105 0 -105 0 0 -50z"/>
</g>
</svg>
