<?xml version="1.0" standalone="no"?>
<!DOCTYPE svg PUBLIC "-//W3C//DTD SVG 20010904//EN"
 "http://www.w3.org/TR/2001/REC-SVG-20010904/DTD/svg10.dtd">
<svg version="1.0" xmlns="http://www.w3.org/2000/svg"
 width="487.000000pt" height="600.000000pt" viewBox="0 0 487.000000 600.000000"
 preserveAspectRatio="xMidYMid meet">
<metadata>
Created by potrace 1.12, written by Peter Selinger 2001-2015
</metadata>
<g transform="translate(0.000000,600.000000) scale(0.100000,-0.100000)"
fill="#000000" stroke="none">
<path d="M744 5990 c-195 -26 -345 -101 -489 -245 -142 -142 -220 -301 -244
-495 -15 -116 -15 -3263 -1 -3378 47 -369 337 -672 701 -732 42 -6 634 -10
1732 -10 1476 0 1677 2 1744 16 317 65 564 300 656 622 l22 77 3 1660 c2 1151
0 1685 -8 1743 -25 193 -98 347 -229 486 -106 111 -246 194 -401 237 l-85 24
-1670 1 c-919 1 -1698 -2 -1731 -6z m3476 -126 c36 -12 93 -35 127 -52 214
-104 367 -312 403 -549 7 -46 10 -615 8 -1748 l-3 -1680 -27 -80 c-79 -230
-248 -402 -476 -483 l-77 -27 -1710 -3 c-1936 -3 -1781 -9 -1955 80 -181 92
-301 235 -371 443 l-24 70 -3 1680 c-2 1131 1 1702 8 1748 25 161 93 293 214
412 112 110 245 180 391 204 28 5 811 8 1740 7 l1690 -1 65 -21z"/>
<path d="M1880 5596 c-94 -26 -170 -85 -215 -167 -29 -52 -30 -58 -30 -184 0
-122 3 -136 35 -230 65 -188 234 -496 381 -690 33 -44 40 -60 37 -90 l-3 -37
-85 -25 c-157 -44 -233 -94 -271 -176 -18 -40 -19 -86 -19 -1149 0 -767 3
-1123 11 -1160 14 -68 50 -130 96 -165 33 -25 44 -28 117 -28 64 0 90 5 126
23 25 12 61 25 81 28 32 5 41 1 93 -45 73 -63 134 -85 224 -79 78 4 148 34
196 84 39 40 56 42 127 10 76 -35 136 -41 201 -22 101 29 164 108 187 231 8
40 11 285 11 735 0 524 3 714 15 850 18 212 75 931 75 954 0 11 -9 16 -32 16
-79 0 -78 -2 -79 139 0 69 -4 151 -8 181 -5 30 -7 56 -6 58 1 1 62 9 136 17
74 8 150 18 169 21 l35 6 -24 17 c-20 13 -53 16 -179 16 l-155 0 -23 78 c-52
174 -145 328 -279 462 -164 164 -346 263 -585 316 -99 22 -289 24 -360 5z
m375 -175 c103 -27 303 -127 382 -191 131 -105 263 -299 307 -451 l13 -46 -96
-7 c-53 -3 -132 -6 -176 -6 -80 0 -103 -6 -437 -113 l-37 -12 50 -103 49 -104
221 3 c212 3 222 4 230 24 5 11 24 63 42 115 l33 95 68 8 c38 4 71 6 72 4 19
-18 32 -331 15 -341 -5 -3 -12 -35 -16 -72 -5 -52 -10 -64 -22 -60 -8 3 -47
15 -88 27 -81 24 -85 30 -85 125 l0 44 -280 0 -280 0 -98 148 c-168 252 -255
422 -308 601 -52 180 -18 288 103 328 55 19 240 9 338 -16z m292 -1317 c68 -6
82 -10 86 -25 4 -15 15 -19 44 -19 85 0 264 -59 310 -102 l23 -21 0 -1099 c0
-1176 1 -1151 -48 -1177 -33 -18 -83 -13 -141 15 -107 49 -186 39 -256 -34
-34 -35 -91 -62 -130 -62 -33 0 -58 13 -115 61 -93 78 -173 88 -298 39 -42
-17 -85 -30 -96 -28 -52 7 -51 -21 -54 1148 -2 597 0 1100 3 1118 6 30 14 37
68 61 53 24 136 48 259 75 15 3 29 15 33 25 4 13 17 21 38 24 56 7 189 7 274
1z"/>
<path d="M2007 3048 l2 -323 436 -3 435 -2 0 325 0 325 -437 0 -438 0 2 -322z
m811 0 l2 -258 -375 0 -375 0 0 260 0 260 373 -2 372 -3 3 -257z"/>
<path d="M2008 2405 l-3 -265 438 0 437 0 0 265 0 265 -435 0 -434 0 -3 -265z
m807 -5 l0 -195 -372 -3 -373 -2 0 200 0 200 373 -2 372 -3 0 -195z"/>
<path d="M2310 722 c-66 -33 -75 -66 -78 -319 -4 -254 5 -321 48 -364 38 -39
75 -46 116 -24 41 22 62 71 70 165 l7 70 -42 0 -41 0 0 -58 c0 -64 -17 -99
-44 -89 -32 13 -39 58 -40 252 -1 206 5 260 32 274 29 16 44 -3 51 -65 l6 -59
35 0 35 0 -3 65 c-4 84 -32 145 -74 159 -39 14 -37 14 -78 -7z"/>
<path d="M3758 729 c-15 -6 -38 -27 -50 -47 -20 -32 -23 -50 -23 -137 0 -114
8 -136 85 -225 26 -30 52 -65 58 -77 14 -26 15 -73 3 -106 -24 -62 -81 -27
-81 48 l0 45 -41 0 -42 0 6 -62 c8 -83 30 -134 67 -153 39 -20 68 -19 108 5
47 29 65 78 65 180 0 104 -11 133 -87 223 -66 78 -80 114 -65 170 9 34 13 38
37 35 24 -3 28 -9 36 -50 9 -46 11 -48 43 -48 l33 0 0 52 c0 70 -31 133 -72
147 -36 13 -44 13 -80 0z"/>
<path d="M890 376 c0 -270 3 -346 13 -354 8 -7 50 -10 103 -9 l89 2 3 52 3 53
-65 0 -66 0 0 105 0 105 60 0 60 0 0 55 0 55 -60 0 -60 0 0 90 0 90 65 0 65 0
0 50 0 50 -105 0 -105 0 0 -344z"/>
<path d="M1140 717 c0 -2 20 -77 45 -167 l45 -164 -31 -116 c-17 -63 -40 -145
-50 -181 -11 -36 -19 -69 -19 -73 0 -4 17 -6 38 -4 42 4 46 12 77 160 10 43
20 76 24 74 4 -3 18 -50 31 -105 13 -55 27 -105 30 -112 10 -15 71 -18 76 -4
3 6 -16 87 -41 180 l-45 168 45 166 c25 92 45 170 45 174 0 4 -17 7 -38 7
l-39 0 -23 -110 c-13 -60 -27 -110 -32 -110 -4 0 -8 6 -8 13 0 6 -10 56 -22
110 l-23 97 -42 0 c-24 0 -43 -1 -43 -3z"/>
<path d="M1430 665 l0 -55 45 0 45 0 0 -300 0 -301 35 3 35 2 0 298 0 298 45
0 45 0 0 55 0 55 -125 0 -125 0 0 -55z"/>
<path d="M1729 678 c-2 -175 1 -650 5 -656 2 -4 17 -8 33 -7 l28 0 3 353 2
352 -35 0 c-34 0 -35 -1 -36 -42z"/>
<path d="M1870 371 c0 -376 -2 -361 51 -361 18 0 19 10 19 257 0 141 3 253 8
249 4 -4 30 -118 57 -254 l50 -247 50 0 50 0 3 353 2 352 -35 0 -35 0 0 -242
c0 -133 -4 -238 -8 -232 -5 5 -26 92 -46 194 -21 102 -42 206 -48 233 l-10 47
-54 0 -54 0 0 -349z"/>
<path d="M2500 665 l0 -55 44 0 45 0 1 -292 c0 -160 3 -294 6 -297 2 -3 18 -6
34 -7 l30 -2 0 299 0 299 45 0 45 0 0 55 0 55 -125 0 -125 0 0 -55z"/>
<path d="M2792 368 l3 -353 80 -3 c119 -4 125 -2 125 58 l0 50 -65 0 -65 0 0
105 0 105 60 0 60 0 0 55 0 55 -60 0 -60 0 0 90 0 90 65 0 65 0 0 50 0 50
-105 0 -105 0 2 -352z"/>
<path d="M3062 418 c3 -279 5 -306 23 -343 25 -49 78 -81 119 -71 39 10 82 55
96 102 8 25 14 140 17 327 l5 287 -41 0 -40 0 -3 -289 c-3 -262 -5 -291 -21
-309 -22 -24 -52 -19 -70 12 -8 15 -13 105 -15 304 l-3 282 -35 0 -35 0 3
-302z"/>
<path d="M3380 370 c0 -192 3 -350 8 -351 4 0 22 -2 40 -3 l32 -4 0 149 0 149
25 0 c41 0 52 -33 58 -163 2 -65 7 -120 10 -123 3 -3 19 -8 36 -10 l31 -5 0
116 c0 137 -13 198 -47 225 -22 17 -23 21 -9 26 64 24 74 258 14 321 -19 21
-31 23 -110 23 l-88 0 0 -350z m150 224 c13 -32 13 -115 1 -147 -10 -27 -33
-39 -56 -31 -12 5 -15 26 -15 105 l0 99 30 0 c24 0 33 -6 40 -26z"/>
</g>
</svg>
