<?xml version="1.0" standalone="no"?>
<!DOCTYPE svg PUBLIC "-//W3C//DTD SVG 20010904//EN"
 "http://www.w3.org/TR/2001/REC-SVG-20010904/DTD/svg10.dtd">
<svg version="1.0" xmlns="http://www.w3.org/2000/svg"
 width="419.000000pt" height="600.000000pt" viewBox="0 0 419.000000 600.000000"
 preserveAspectRatio="xMidYMid meet">
<metadata>
Created by potrace 1.12, written by Peter Selinger 2001-2015
</metadata>
<g transform="translate(0.000000,600.000000) scale(0.100000,-0.100000)"
fill="#000000" stroke="none">
<path d="M655 5993 c-247 -31 -458 -176 -568 -391 -89 -173 -82 -33 -82 -1702
l0 -1475 23 -75 c65 -205 198 -368 372 -453 181 -89 35 -82 1695 -82 l1470 0
79 23 c134 39 229 95 327 192 76 75 93 100 137 191 28 57 56 129 64 159 19 79
19 2958 0 3039 -71 303 -319 533 -616 571 -67 9 -2834 12 -2901 3z m2960 -106
c242 -70 418 -255 467 -488 19 -94 19 -2893 0 -2989 -46 -227 -238 -427 -467
-485 -52 -13 -248 -15 -1520 -15 -1281 0 -1468 2 -1520 15 -185 49 -334 170
-415 340 -69 143 -65 51 -65 1645 0 1349 1 1450 18 1514 49 192 205 368 386
437 127 48 103 48 1626 46 1328 -2 1434 -4 1490 -20z"/>
<path d="M2304 5160 c-95 -25 -188 -68 -287 -134 -82 -55 -256 -203 -312 -267
-16 -19 -60 -68 -96 -109 -89 -101 -223 -284 -318 -433 l-79 -122 -153 -5
-153 -5 -107 -255 c-120 -286 -389 -928 -396 -947 -4 -10 44 -13 221 -13 l227
0 21 48 c145 335 274 538 462 730 148 152 267 230 421 278 83 25 257 26 340 0
323 -98 623 -428 851 -936 l52 -115 201 0 201 0 76 174 75 175 -72 70 -71 71
152 3 152 3 -28 37 c-16 20 -52 65 -81 100 -29 34 -53 67 -53 72 0 6 24 10 54
10 114 0 100 -17 214 248 56 131 102 241 102 245 0 5 -86 7 -190 6 l-191 -3
-37 79 c-123 261 -233 441 -379 622 -126 157 -256 263 -406 333 -134 63 -275
76 -413 40z m277 -136 c264 -79 526 -371 764 -854 28 -58 62 -131 75 -162 l24
-58 127 0 c70 0 130 -3 133 -8 2 -4 -15 -52 -39 -107 -36 -82 -48 -101 -67
-103 -13 -1 -94 -8 -180 -15 l-157 -12 74 -90 c41 -49 75 -93 75 -97 0 -5 -80
-8 -177 -9 l-178 0 164 -159 164 -159 -38 -90 -38 -91 -109 0 -109 0 -20 48
c-68 158 -188 365 -292 504 -93 125 -273 301 -378 370 -151 101 -274 145 -434
154 -417 24 -829 -312 -1132 -923 l-76 -153 -73 0 c-41 0 -74 2 -74 3 0 2 56
138 125 303 69 164 156 371 192 459 37 88 68 162 70 165 3 3 70 7 150 10 l146
5 54 90 c323 531 684 892 975 976 80 22 188 24 259 3z"/>
<path d="M1694 3713 c-75 -109 -285 -412 -317 -458 -101 -143 -147 -217 -142
-225 3 -6 20 -17 37 -26 29 -15 31 -15 47 7 9 13 63 92 121 176 58 84 152 221
210 304 58 84 124 179 147 213 l41 60 -33 23 c-19 13 -36 23 -39 23 -3 0 -35
-44 -72 -97z"/>
<path d="M2063 3786 l-33 -23 52 -74 c28 -41 92 -133 142 -206 277 -403 341
-493 351 -493 5 1 23 11 39 24 l28 24 -157 228 c-87 126 -188 272 -225 324
-37 52 -86 123 -109 158 -23 34 -45 62 -49 62 -4 -1 -22 -11 -39 -24z"/>
<path d="M1890 3340 l0 -450 45 0 45 0 0 450 0 450 -45 0 -45 0 0 -450z"/>
<path d="M372 2703 l3 -68 1520 0 1520 0 0 65 0 65 -1523 3 -1523 2 3 -67z"/>
</g>
</svg>
