<?xml version="1.0" standalone="no"?>
<!DOCTYPE svg PUBLIC "-//W3C//DTD SVG 20010904//EN"
 "http://www.w3.org/TR/2001/REC-SVG-20010904/DTD/svg10.dtd">
<svg version="1.0" xmlns="http://www.w3.org/2000/svg"
 width="419.000000pt" height="600.000000pt" viewBox="0 0 419.000000 600.000000"
 preserveAspectRatio="xMidYMid meet">
<metadata>
Created by potrace 1.12, written by Peter Selinger 2001-2015
</metadata>
<g transform="translate(0.000000,600.000000) scale(0.100000,-0.100000)"
fill="#000000" stroke="none">
<path d="M655 5993 c-247 -31 -458 -176 -568 -391 -89 -173 -82 -33 -82 -1702
l0 -1475 23 -75 c65 -205 198 -368 372 -453 181 -89 35 -82 1695 -82 l1470 0
79 23 c134 39 229 95 327 192 76 75 93 100 137 191 28 57 56 129 64 159 19 79
19 2958 0 3039 -71 303 -319 533 -616 571 -67 9 -2834 12 -2901 3z m2960 -106
c242 -70 418 -255 467 -488 19 -94 19 -2893 0 -2989 -46 -227 -238 -427 -467
-485 -52 -13 -248 -15 -1520 -15 -1281 0 -1468 2 -1520 15 -185 49 -334 170
-415 340 -69 143 -65 51 -65 1645 0 1349 1 1450 18 1514 49 192 205 368 386
437 127 48 103 48 1626 46 1328 -2 1434 -4 1490 -20z"/>
<path d="M2304 5160 c-95 -25 -188 -68 -287 -134 -82 -55 -256 -203 -312 -267
-16 -19 -60 -68 -96 -109 -89 -101 -223 -284 -318 -433 l-79 -122 -153 -5
-153 -5 -107 -255 c-120 -286 -389 -928 -396 -947 -4 -10 44 -13 221 -13 l227
0 21 48 c145 335 274 538 462 730 148 152 267 230 421 278 83 25 257 26 340 0
323 -98 623 -428 851 -936 l52 -115 201 0 201 0 76 174 75 175 -72 70 -71 71
152 3 152 3 -28 37 c-16 20 -52 65 -81 100 -29 34 -53 67 -53 72 0 6 24 10 54
10 114 0 100 -17 214 248 56 131 102 241 102 245 0 5 -86 7 -190 6 l-191 -3
-37 79 c-123 261 -233 441 -379 622 -126 157 -256 263 -406 333 -134 63 -275
76 -413 40z m277 -136 c264 -79 526 -371 764 -854 28 -58 62 -131 75 -162 l24
-58 127 0 c70 0 130 -3 133 -8 2 -4 -15 -52 -39 -107 -36 -82 -48 -101 -67
-103 -13 -1 -94 -8 -180 -15 l-157 -12 74 -90 c41 -49 75 -93 75 -97 0 -5 -80
-8 -177 -9 l-178 0 164 -159 164 -159 -38 -90 -38 -91 -109 0 -109 0 -20 48
c-68 158 -188 365 -292 504 -93 125 -273 301 -378 370 -151 101 -274 145 -434
154 -417 24 -829 -312 -1132 -923 l-76 -153 -73 0 c-41 0 -74 2 -74 3 0 2 56
138 125 303 69 164 156 371 192 459 37 88 68 162 70 165 3 3 70 7 150 10 l146
5 54 90 c323 531 684 892 975 976 80 22 188 24 259 3z"/>
<path d="M1694 3713 c-75 -109 -285 -412 -317 -458 -101 -143 -147 -217 -142
-225 3 -6 20 -17 37 -26 29 -15 31 -15 47 7 9 13 63 92 121 176 58 84 152 221
210 304 58 84 124 179 147 213 l41 60 -33 23 c-19 13 -36 23 -39 23 -3 0 -35
-44 -72 -97z"/>
<path d="M2063 3786 l-33 -23 52 -74 c28 -41 92 -133 142 -206 277 -403 341
-493 351 -493 5 1 23 11 39 24 l28 24 -157 228 c-87 126 -188 272 -225 324
-37 52 -86 123 -109 158 -23 34 -45 62 -49 62 -4 -1 -22 -11 -39 -24z"/>
<path d="M1890 3340 l0 -450 45 0 45 0 0 450 0 450 -45 0 -45 0 0 -450z"/>
<path d="M372 2703 l3 -68 1520 0 1520 0 0 65 0 65 -1523 3 -1523 2 3 -67z"/>
<path d="M1361 1464 c-33 -24 -51 -74 -51 -146 0 -77 21 -126 83 -196 50 -56
65 -103 50 -149 -20 -60 -73 -32 -73 40 0 37 -1 38 -32 35 -33 -3 -33 -3 -30
-53 5 -80 19 -111 59 -130 31 -15 40 -15 70 -3 51 19 73 65 73 152 0 95 -15
136 -71 196 -54 57 -75 112 -60 153 21 53 57 41 67 -23 5 -33 10 -37 35 -38
27 -1 29 2 29 37 0 50 -18 102 -42 124 -25 21 -76 22 -107 1z"/>
<path d="M1997 1450 c-39 -46 -49 -120 -45 -319 3 -148 6 -182 22 -215 27 -54
70 -71 142 -55 l55 12 -3 151 -3 151 -50 0 -50 0 -3 -42 c-3 -38 -1 -43 18
-43 20 0 21 -5 18 -72 -3 -71 -4 -73 -30 -76 -46 -5 -53 22 -52 223 0 180 8
235 36 235 27 0 40 -19 45 -64 6 -46 7 -47 37 -44 31 3 31 4 28 52 -6 85 -44
136 -103 136 -29 0 -43 -7 -62 -30z"/>
<path d="M2656 1450 c-36 -43 -41 -80 -41 -290 0 -154 3 -193 18 -232 33 -85
125 -100 163 -26 8 16 18 61 21 99 5 63 4 69 -13 69 -30 0 -41 -12 -48 -55
-11 -65 -16 -75 -36 -75 -31 0 -40 53 -40 231 0 170 7 215 35 225 23 9 29 -1
35 -59 5 -48 7 -52 33 -55 36 -4 42 13 28 90 -13 77 -40 108 -92 108 -29 0
-43 -7 -63 -30z"/>
<path d="M2929 1467 c-9 -7 -24 -28 -35 -47 -16 -30 -19 -61 -22 -227 -5 -252
13 -318 87 -336 45 -11 87 16 107 69 16 42 19 77 19 234 0 210 -5 247 -41 290
-20 23 -34 30 -62 30 -21 0 -44 -6 -53 -13z m70 -76 c29 -19 37 -356 10 -428
-5 -13 -17 -23 -28 -23 -35 0 -45 37 -49 191 -6 209 15 293 67 260z"/>
<path d="M3617 1450 c-30 -35 -42 -99 -34 -170 7 -60 23 -90 81 -158 49 -57
64 -103 49 -149 -13 -39 -50 -43 -63 -8 -5 14 -10 40 -10 56 0 28 -2 30 -32
27 -33 -3 -33 -3 -30 -53 5 -80 19 -111 57 -129 28 -14 39 -14 72 -4 53 18 73
61 73 158 0 89 -17 132 -84 208 -25 30 -47 63 -48 75 -7 98 41 134 65 50 8
-27 19 -48 26 -47 46 4 44 2 38 61 -8 78 -31 107 -89 111 -40 3 -48 -1 -71
-28z"/>
<path d="M392 1168 l3 -303 33 -1 32 0 0 133 0 133 50 0 50 0 0 45 0 45 -50 0
-50 0 0 80 0 80 50 0 50 0 0 45 0 45 -85 0 -85 0 2 -302z"/>
<path d="M602 1168 l3 -303 28 -1 27 -1 0 303 0 304 -30 0 -30 0 2 -302z"/>
<path d="M732 1168 l3 -303 76 -3 77 -3 3 50 4 51 -52 0 -53 0 0 255 0 255
-30 0 -30 0 2 -302z"/>
<path d="M930 1170 c0 -192 4 -300 10 -301 48 -6 45 -20 50 231 3 129 7 228 8
220 2 -8 15 -112 30 -230 27 -215 27 -215 54 -224 15 -5 30 -8 32 -5 3 2 19
105 35 228 17 123 33 226 36 229 3 3 5 -96 5 -221 0 -235 1 -240 43 -229 16 4
17 27 17 303 l0 299 -49 0 c-39 0 -50 -4 -54 -19 -2 -10 -15 -100 -28 -199
-13 -100 -26 -178 -30 -174 -3 4 -17 94 -29 200 l-24 192 -53 0 -53 0 0 -300z"/>
<path d="M1730 1453 c0 -10 -19 -145 -42 -300 -23 -156 -39 -286 -35 -289 3
-4 17 -4 31 0 21 5 26 14 31 54 11 82 11 82 65 82 l48 0 8 -67 c9 -67 9 -67
42 -68 23 -1 32 4 31 15 0 8 -19 143 -42 300 l-42 285 -47 3 c-41 3 -48 0 -48
-15z"/>
<path d="M2230 1165 l0 -305 23 4 c12 3 25 5 29 5 4 1 9 56 10 124 3 115 4
122 24 125 37 5 47 -22 52 -142 l4 -113 27 2 c14 1 28 3 31 3 3 1 3 59 0 128
-6 120 -7 128 -32 149 -24 21 -24 22 -7 33 44 28 53 205 13 259 -19 26 -27 28
-98 31 l-76 3 0 -306z"/>
<path d="M2490 1171 c0 -313 0 -314 43 -303 16 4 17 27 17 303 l0 299 -30 0
-30 0 0 -299z"/>
<path d="M3150 1170 c0 -165 1 -300 3 -301 1 -1 39 -3 85 -5 l82 -4 0 50 0 49
-52 3 -53 3 -3 253 -2 252 -30 0 -30 0 0 -300z"/>
<path d="M3352 1168 l3 -303 85 0 85 0 3 43 3 42 -55 0 -56 0 0 95 0 95 50 0
50 0 0 45 0 45 -52 0 -53 0 3 77 3 78 55 -3 54 -4 0 46 0 46 -90 0 -90 0 2
-302z"/>
<path d="M1707 619 c-33 -19 -50 -70 -51 -149 0 -87 20 -134 86 -206 28 -30
41 -55 45 -83 8 -60 -3 -91 -31 -91 -25 0 -46 39 -46 86 0 20 -5 24 -30 24
-29 0 -30 -2 -30 -42 0 -104 44 -165 110 -154 73 11 114 104 95 218 -10 57
-24 84 -80 146 -47 53 -63 98 -51 145 14 58 66 35 66 -30 0 -30 3 -33 29 -33
35 0 40 14 29 84 -9 63 -39 96 -87 96 -20 0 -44 -5 -54 -11z"/>
<path d="M2241 600 c-40 -40 -46 -83 -46 -305 1 -162 3 -185 22 -226 27 -60
68 -77 143 -59 l50 12 0 154 0 154 -50 0 -50 0 0 -45 c0 -33 4 -45 15 -45 17
0 16 2 16 -75 0 -30 0 -60 0 -66 -1 -5 -15 -9 -33 -7 -26 2 -33 9 -40 33 -14
50 -10 362 4 392 25 51 59 36 67 -29 6 -40 8 -43 40 -46 l34 -3 -7 56 c-14
123 -95 174 -165 105z"/>
<path d="M2747 610 c-31 -25 -47 -75 -47 -150 0 -68 23 -118 83 -189 50 -58
66 -106 51 -150 -11 -32 -43 -40 -61 -15 -7 10 -13 35 -13 56 0 36 -2 38 -30
38 -32 0 -33 -2 -30 -65 2 -62 18 -99 49 -118 36 -21 54 -21 92 -1 41 21 59
68 59 156 0 87 -20 137 -79 199 -44 47 -62 90 -54 132 12 64 58 55 69 -14 6
-35 10 -39 35 -39 27 0 29 3 29 38 0 56 -18 110 -43 127 -30 21 -80 19 -110
-5z"/>
<path d="M1380 365 c0 -278 4 -303 55 -343 33 -26 57 -28 96 -5 55 33 63 71
67 351 l4 252 -36 0 -36 0 0 -244 c0 -222 -2 -246 -18 -267 -23 -27 -48 -21
-62 16 -6 15 -10 131 -10 261 l0 234 -30 0 -30 0 0 -255z"/>
<path d="M1976 593 c-6 -30 -86 -563 -86 -575 0 -5 13 -8 29 -8 31 0 32 1 46
97 l7 43 48 0 48 0 7 -52 c10 -83 13 -88 47 -88 l31 0 -7 63 c-4 34 -18 132
-31 217 -13 85 -29 194 -36 243 l-12 87 -43 0 c-38 0 -43 -3 -48 -27z"/>
<path d="M2475 608 c-3 -7 -4 -143 -3 -303 l3 -290 88 -3 87 -3 0 46 0 45 -55
0 -55 0 0 95 0 95 50 0 50 0 0 45 0 45 -50 0 -50 0 0 74 0 75 53 3 52 3 3 43
3 42 -86 0 c-59 0 -87 -4 -90 -12z"/>
</g>
</svg>
