<?xml version="1.0" standalone="no"?>
<!DOCTYPE svg PUBLIC "-//W3C//DTD SVG 20010904//EN"
 "http://www.w3.org/TR/2001/REC-SVG-20010904/DTD/svg10.dtd">
<svg version="1.0" xmlns="http://www.w3.org/2000/svg"
 width="522.000000pt" height="600.000000pt" viewBox="0 0 522.000000 600.000000"
 preserveAspectRatio="xMidYMid meet">
<metadata>
Created by potrace 1.12, written by Peter Selinger 2001-2015
</metadata>
<g transform="translate(0.000000,600.000000) scale(0.100000,-0.100000)"
fill="#000000" stroke="none">
<path d="M1105 5730 c-251 -37 -470 -199 -582 -431 -84 -174 -78 -25 -78
-1794 l0 -1570 28 -88 c33 -105 55 -151 114 -234 81 -113 201 -212 322 -263
163 -70 36 -65 1771 -65 1510 0 1568 1 1640 19 144 37 276 111 375 212 94 96
148 187 196 329 l24 70 3 1560 c3 1723 6 1635 -60 1793 -41 100 -130 216 -219
288 -93 76 -129 97 -215 130 -145 55 -96 53 -1744 52 -839 0 -1548 -4 -1575
-8z m3209 -110 c238 -61 426 -249 487 -488 18 -73 19 -126 19 -1621 0 -1351
-2 -1554 -16 -1611 -44 -190 -178 -357 -354 -443 -168 -82 -56 -77 -1770 -77
-1697 0 -1602 -4 -1755 70 -145 70 -273 203 -332 345 -55 131 -54 79 -51 1755
3 1716 -3 1566 68 1712 90 186 272 328 471 367 24 5 744 9 1600 10 1518 1
1558 1 1633 -19z"/>
<path d="M1232 3538 l3 -1573 147 -3 147 -3 3 -42 3 -42 179 -3 c99 -2 190 -1
202 2 18 5 23 14 26 46 2 22 6 40 11 40 4 0 342 0 752 0 l745 0 0 -44 0 -45
189 -1 c103 0 195 2 205 6 11 4 16 18 16 48 l0 41 138 0 137 0 0 1570 0 1570
-1453 3 -1452 2 2 -1572z m2753 1167 l0 -250 -1302 -3 -1303 -2 0 255 0 255
1303 -2 1302 -3 0 -250z m0 -1495 l0 -1095 -1302 -3 -1303 -2 -2 1096 c-2 603
-1 1098 1 1100 3 2 590 3 1305 2 l1301 -3 0 -1095z"/>
<path d="M3170 4859 c-38 -15 -88 -68 -101 -107 -19 -57 -3 -118 41 -162 46
-46 94 -58 160 -41 73 20 120 80 120 156 0 108 -121 193 -220 154z"/>
<path d="M3600 4855 c-70 -31 -115 -108 -103 -180 7 -42 57 -103 99 -121 122
-51 252 56 224 183 -22 97 -133 156 -220 118z"/>
<path d="M2510 4006 c-212 -48 -405 -176 -519 -346 -103 -154 -143 -287 -143
-475 0 -111 4 -143 27 -220 85 -289 312 -510 602 -585 191 -49 395 -26 578 65
216 108 369 294 437 530 33 116 33 327 -1 435 -54 175 -148 317 -279 422 -112
91 -212 140 -352 173 -78 18 -270 18 -350 1z m319 -147 c316 -72 541 -351 541
-669 0 -226 -120 -448 -307 -571 -397 -259 -924 -58 -1049 401 -24 87 -23 242
0 335 33 125 95 233 187 322 96 93 162 131 289 169 83 25 258 32 339 13z"/>
<path d="M2542 3714 c-86 -23 -162 -65 -228 -127 -119 -111 -175 -235 -176
-393 -1 -161 44 -269 161 -384 79 -79 164 -129 251 -149 69 -16 219 -13 281 5
260 77 429 333 391 597 -31 217 -190 396 -403 452 -68 19 -208 18 -277 -1z
m297 -106 c256 -95 368 -395 236 -633 -210 -377 -771 -273 -838 155 -34 223
120 444 346 495 77 18 180 11 256 -17z"/>
</g>
</svg>
