<?xml version="1.0" standalone="no"?>
<!DOCTYPE svg PUBLIC "-//W3C//DTD SVG 20010904//EN"
 "http://www.w3.org/TR/2001/REC-SVG-20010904/DTD/svg10.dtd">
<svg version="1.0" xmlns="http://www.w3.org/2000/svg"
 width="522.000000pt" height="600.000000pt" viewBox="0 0 522.000000 600.000000"
 preserveAspectRatio="xMidYMid meet">
<metadata>
Created by potrace 1.12, written by Peter Selinger 2001-2015
</metadata>
<g transform="translate(0.000000,600.000000) scale(0.100000,-0.100000)"
fill="#000000" stroke="none">
<path d="M1105 5730 c-251 -37 -470 -199 -582 -431 -84 -174 -78 -25 -78
-1794 l0 -1570 28 -88 c33 -105 55 -151 114 -234 81 -113 201 -212 322 -263
163 -70 36 -65 1771 -65 1510 0 1568 1 1640 19 144 37 276 111 375 212 94 96
148 187 196 329 l24 70 3 1560 c3 1723 6 1635 -60 1793 -41 100 -130 216 -219
288 -93 76 -129 97 -215 130 -145 55 -96 53 -1744 52 -839 0 -1548 -4 -1575
-8z m3209 -110 c238 -61 426 -249 487 -488 18 -73 19 -126 19 -1621 0 -1351
-2 -1554 -16 -1611 -44 -190 -178 -357 -354 -443 -168 -82 -56 -77 -1770 -77
-1697 0 -1602 -4 -1755 70 -145 70 -273 203 -332 345 -55 131 -54 79 -51 1755
3 1716 -3 1566 68 1712 90 186 272 328 471 367 24 5 744 9 1600 10 1518 1
1558 1 1633 -19z"/>
<path d="M1232 3538 l3 -1573 147 -3 147 -3 3 -42 3 -42 179 -3 c99 -2 190 -1
202 2 18 5 23 14 26 46 2 22 6 40 11 40 4 0 342 0 752 0 l745 0 0 -44 0 -45
189 -1 c103 0 195 2 205 6 11 4 16 18 16 48 l0 41 138 0 137 0 0 1570 0 1570
-1453 3 -1452 2 2 -1572z m2753 1167 l0 -250 -1302 -3 -1303 -2 0 255 0 255
1303 -2 1302 -3 0 -250z m0 -1495 l0 -1095 -1302 -3 -1303 -2 -2 1096 c-2 603
-1 1098 1 1100 3 2 590 3 1305 2 l1301 -3 0 -1095z"/>
<path d="M3170 4859 c-38 -15 -88 -68 -101 -107 -19 -57 -3 -118 41 -162 46
-46 94 -58 160 -41 73 20 120 80 120 156 0 108 -121 193 -220 154z"/>
<path d="M3600 4855 c-70 -31 -115 -108 -103 -180 7 -42 57 -103 99 -121 122
-51 252 56 224 183 -22 97 -133 156 -220 118z"/>
<path d="M2510 4006 c-212 -48 -405 -176 -519 -346 -103 -154 -143 -287 -143
-475 0 -111 4 -143 27 -220 85 -289 312 -510 602 -585 191 -49 395 -26 578 65
216 108 369 294 437 530 33 116 33 327 -1 435 -54 175 -148 317 -279 422 -112
91 -212 140 -352 173 -78 18 -270 18 -350 1z m319 -147 c316 -72 541 -351 541
-669 0 -226 -120 -448 -307 -571 -397 -259 -924 -58 -1049 401 -24 87 -23 242
0 335 33 125 95 233 187 322 96 93 162 131 289 169 83 25 258 32 339 13z"/>
<path d="M2542 3714 c-86 -23 -162 -65 -228 -127 -119 -111 -175 -235 -176
-393 -1 -161 44 -269 161 -384 79 -79 164 -129 251 -149 69 -16 219 -13 281 5
260 77 429 333 391 597 -31 217 -190 396 -403 452 -68 19 -208 18 -277 -1z
m297 -106 c256 -95 368 -395 236 -633 -210 -377 -771 -273 -838 155 -34 223
120 444 346 495 77 18 180 11 256 -17z"/>
<path d="M163 902 c-32 -5 -71 -49 -85 -96 -9 -27 -13 -110 -13 -246 0 -190 2
-209 22 -253 30 -64 74 -84 150 -68 62 14 59 6 55 204 l-3 137 -50 0 -49 0 0
-44 c0 -35 4 -45 20 -49 18 -5 20 -14 20 -76 0 -60 -3 -72 -20 -81 -29 -16
-59 -3 -67 28 -5 15 -8 113 -8 217 0 199 7 235 44 235 26 0 38 -18 46 -67 6
-40 9 -43 37 -43 l30 0 -4 63 c-6 95 -56 150 -125 139z"/>
<path d="M735 901 c-64 -19 -83 -61 -96 -213 -8 -84 -7 -160 0 -245 12 -143
27 -180 83 -201 51 -20 98 4 124 61 17 36 19 68 19 267 0 198 -2 231 -18 267
-23 50 -69 76 -112 64z m52 -121 c16 -32 18 -373 2 -419 -15 -42 -54 -44 -71
-3 -17 41 -16 378 1 420 17 40 49 41 68 2z"/>
<path d="M2123 902 c-35 -5 -70 -56 -83 -118 -18 -87 -9 -440 12 -479 22 -42
49 -64 86 -71 61 -12 112 69 112 179 l0 47 -35 0 c-34 0 -35 -1 -35 -42 0 -66
-9 -88 -35 -88 -37 0 -45 44 -44 239 1 190 5 218 32 235 26 16 47 -16 47 -71
0 -41 1 -43 30 -43 39 0 45 16 32 90 -17 95 -53 132 -119 122z"/>
<path d="M2904 895 c-41 -17 -51 -33 -70 -105 -13 -52 -15 -99 -11 -249 5
-198 14 -245 54 -283 30 -29 93 -31 122 -4 46 42 56 96 56 316 0 210 -6 249
-43 297 -24 32 -71 44 -108 28z m68 -107 c9 -17 13 -77 13 -218 0 -212 -6
-240 -50 -240 -36 0 -40 27 -40 245 0 200 7 235 45 235 11 0 25 -10 32 -22z"/>
<path d="M4481 897 c-39 -20 -61 -77 -72 -184 -11 -106 -4 -300 12 -374 18
-82 83 -115 177 -90 l42 12 0 164 0 165 -55 0 -55 0 0 -50 c0 -44 3 -50 20
-50 19 0 21 -5 18 -77 l-3 -78 -35 0 c-35 0 -35 1 -48 60 -13 62 -11 347 3
392 9 29 43 40 62 20 8 -8 17 -35 20 -59 5 -43 6 -45 40 -46 l35 -1 -7 56 c-9
74 -19 98 -51 128 -29 27 -66 32 -103 12z"/>
<path d="M977 872 c-52 -54 -56 -208 -8 -286 11 -17 32 -42 46 -56 51 -48 67
-85 63 -148 -2 -56 -3 -58 -28 -54 -40 7 -50 21 -50 68 0 44 0 44 -36 44 l-37
0 5 -62 c7 -78 21 -110 60 -132 54 -33 121 -2 147 67 17 43 13 161 -6 209 -9
24 -40 69 -68 100 -58 62 -72 105 -54 156 8 24 17 32 35 32 19 0 24 -7 29 -37
10 -61 13 -65 42 -61 23 2 29 8 31 35 4 45 -15 109 -40 133 -34 31 -97 27
-131 -8z"/>
<path d="M3780 576 l0 -326 30 0 30 0 0 237 c0 130 3 233 7 230 3 -4 27 -109
52 -235 l46 -227 48 -3 47 -3 0 326 0 326 -32 -3 -33 -3 -2 -215 c-1 -118 -2
-217 -3 -220 -1 -3 -23 94 -48 215 l-47 220 -47 3 -48 3 0 -325z"/>
<path d="M4175 878 c-3 -13 -23 -144 -45 -293 -22 -148 -42 -285 -45 -302 -6
-32 -5 -33 29 -33 l35 0 7 58 c4 31 8 64 9 72 1 10 16 14 56 15 l54 0 8 -72 9
-73 35 0 36 0 -7 63 c-4 34 -25 179 -47 321 -21 143 -39 261 -39 263 0 2 -20
3 -45 3 -38 0 -45 -3 -50 -22z"/>
<path d="M4710 575 l0 -325 95 0 95 0 0 45 0 44 -61 3 -60 3 -2 97 -2 97 55 3
55 3 3 47 3 47 -58 3 -58 3 -2 78 -2 77 59 0 60 0 0 50 0 50 -90 0 -90 0 0
-325z"/>
<path d="M4950 575 l0 -325 35 0 35 0 0 135 0 135 24 0 c42 0 51 -24 55 -152
l3 -118 36 0 35 0 -7 92 c-3 50 -6 111 -6 135 0 34 -6 50 -26 70 l-25 25 22
24 c56 60 43 260 -20 294 -11 5 -51 10 -90 10 l-71 0 0 -325z"/>
<path d="M362 568 l3 -323 32 -3 32 -3 3 138 3 138 25 -3 c13 -1 29 -7 35 -13
5 -5 12 -60 13 -122 2 -62 8 -118 14 -124 6 -7 21 -12 34 -11 24 2 24 4 24
108 0 121 -11 172 -44 197 l-23 18 22 17 c31 23 49 104 41 180 -11 109 -32
128 -137 128 l-79 0 2 -322z"/>
<path d="M1320 565 l0 -325 95 0 95 0 0 50 0 50 -60 0 -60 0 0 100 0 100 55 0
55 0 0 45 0 45 -55 0 -55 0 0 85 0 85 60 0 60 0 0 45 0 45 -95 0 -95 0 0 -325z"/>
<path d="M1570 565 l0 -325 90 0 90 0 0 55 0 55 -55 0 -55 0 0 270 0 270 -35
0 -35 0 0 -325z"/>
<path d="M1782 568 l3 -323 98 -3 97 -2 0 50 0 50 -65 0 -66 0 3 98 3 97 53 3
52 3 0 45 0 44 -55 0 -55 0 0 85 0 85 60 0 60 0 0 45 0 45 -95 0 -95 0 2 -322z"/>
<path d="M2280 840 l0 -50 40 0 40 0 0 -275 0 -274 35 1 35 1 0 274 0 273 40
0 40 0 0 50 0 50 -115 0 -115 0 0 -50z"/>
<path d="M2550 566 l0 -324 35 0 36 0 -2 137 c-1 127 0 136 18 139 39 6 52
-27 60 -153 l8 -120 31 -3 30 -3 -4 123 c-3 130 -13 173 -43 189 -18 9 -18 10
2 30 30 30 39 63 39 145 0 74 -18 140 -43 156 -7 4 -47 8 -89 8 l-78 0 0 -324z"/>
<path d="M3120 565 l0 -325 35 0 35 0 1 248 c0 136 2 243 4 237 4 -9 65 -464
65 -480 0 -3 15 -4 33 -2 l32 3 31 225 c17 123 34 233 36 244 3 11 6 -91 7
-227 l1 -247 35 1 35 1 0 324 0 324 -57 -3 -57 -3 -23 -170 c-12 -93 -25 -190
-29 -215 -7 -44 -7 -44 -15 -15 -4 17 -17 114 -30 218 l-22 187 -59 0 -58 0 0
-325z"/>
<path d="M3530 565 l0 -325 95 0 95 0 0 50 0 50 -60 0 -61 0 3 98 3 97 53 3
52 3 0 45 0 44 -55 0 -55 0 0 85 0 85 60 0 60 0 0 45 0 45 -95 0 -95 0 0 -325z"/>
</g>
</svg>
