<?xml version="1.0" standalone="no"?>
<!DOCTYPE svg PUBLIC "-//W3C//DTD SVG 20010904//EN"
 "http://www.w3.org/TR/2001/REC-SVG-20010904/DTD/svg10.dtd">
<svg version="1.0" xmlns="http://www.w3.org/2000/svg"
 width="484.000000pt" height="600.000000pt" viewBox="0 0 484.000000 600.000000"
 preserveAspectRatio="xMidYMid meet">
<metadata>
Created by potrace 1.12, written by Peter Selinger 2001-2015
</metadata>
<g transform="translate(0.000000,600.000000) scale(0.100000,-0.100000)"
fill="#000000" stroke="none">
<path d="M730 5989 c-167 -21 -328 -100 -457 -222 -159 -151 -237 -305 -263
-518 -8 -68 -10 -541 -8 -1734 l3 -1640 23 -80 c95 -338 363 -577 700 -625 54
-8 568 -10 1742 -8 1864 4 1706 -2 1875 77 264 124 444 367 484 655 15 106 15
3247 0 3366 -23 189 -108 358 -249 494 -141 136 -298 213 -482 236 -100 12
-3270 12 -3368 -1z m3475 -128 c228 -77 387 -223 472 -431 56 -139 54 -59 51
-1883 l-3 -1682 -23 -70 c-85 -251 -262 -427 -507 -502 -57 -17 -142 -18
-1775 -18 -1630 0 -1718 1 -1774 18 -250 77 -430 257 -508 507 l-23 75 0 1705
0 1705 23 75 c87 276 295 464 573 519 24 5 797 8 1734 8 l1690 -2 70 -24z"/>
<path d="M3665 4785 c-141 -31 -238 -85 -345 -195 -87 -88 -141 -184 -168
-297 l-17 -72 -313 -3 -312 -3 0 143 0 142 165 0 165 0 0 80 0 80 -415 0 -415
0 0 -80 0 -80 165 0 165 0 0 -140 0 -140 -543 0 -544 0 -94 40 c-52 23 -107
47 -124 55 -16 7 -64 27 -105 44 -41 16 -187 77 -325 135 -137 57 -251 104
-252 103 -1 -1 14 -74 32 -162 18 -88 38 -185 45 -216 10 -52 16 -60 68 -101
31 -25 156 -123 277 -218 121 -96 276 -217 345 -271 69 -53 132 -105 141 -115
9 -11 25 -72 37 -149 42 -251 162 -960 167 -983 l5 -22 962 2 961 3 27 100
c86 314 262 954 270 980 l10 30 102 0 c186 1 321 58 459 195 69 69 93 101 127
170 94 195 94 394 0 590 -57 119 -177 238 -298 297 -138 68 -288 88 -425 58z
m290 -177 c80 -27 133 -59 189 -116 125 -127 176 -289 142 -449 -49 -237 -221
-387 -467 -409 -62 -6 -69 -5 -69 11 0 10 34 141 75 291 41 150 75 275 75 278
0 3 -135 6 -300 6 -165 0 -300 1 -300 3 0 2 7 28 16 58 21 71 57 132 113 193
138 147 336 198 526 134z m-2986 -442 c113 -48 206 -87 207 -89 6 -6 54 -311
49 -315 -2 -3 -30 15 -61 39 -31 24 -92 71 -134 104 -342 264 -436 344 -447
379 -6 19 -9 37 -6 39 4 5 58 -16 392 -157z m2711 -130 c0 -7 -79 -301 -176
-652 -220 -804 -234 -853 -234 -859 0 -3 -375 -4 -832 -3 l-833 3 -86 515
c-111 658 -127 752 -150 880 -10 58 -19 112 -19 120 0 13 135 15 1165 12 979
-2 1165 -4 1165 -16z"/>
<path d="M1605 708 c-41 -32 -57 -80 -56 -171 1 -94 19 -141 87 -216 57 -63
77 -112 69 -162 -7 -42 -27 -59 -56 -52 -22 6 -28 24 -31 81 l-1 42 -40 0 -40
0 5 -69 c8 -114 58 -171 135 -156 75 14 108 85 101 220 -5 93 -20 127 -89 200
-67 71 -84 122 -57 180 12 27 39 33 56 12 6 -7 12 -30 14 -52 3 -38 5 -40 41
-43 36 -3 37 -3 37 33 0 57 -19 120 -46 148 -32 35 -89 37 -129 5z"/>
<path d="M4188 713 c-56 -35 -78 -134 -78 -348 1 -314 42 -388 197 -354 l53
12 0 179 0 178 -59 0 -59 0 1 -50 c2 -45 4 -50 25 -50 21 0 22 -4 22 -85 0
-83 0 -85 -27 -91 -32 -8 -55 5 -64 37 -12 43 -9 411 4 449 23 67 73 48 83
-31 6 -48 7 -49 40 -49 33 0 34 1 34 43 0 136 -84 214 -172 160z"/>
<path d="M260 364 l0 -355 33 3 32 3 3 158 3 157 49 0 49 0 3 -157 3 -158 33
-2 32 -3 0 355 0 355 -35 0 -35 0 0 -140 0 -140 -50 0 -50 0 0 140 0 140 -35
0 -35 0 0 -356z"/>
<path d="M582 408 c3 -309 3 -313 26 -346 47 -66 124 -78 171 -28 45 47 51 99
51 403 l0 283 -34 0 -35 0 -3 -282 c-2 -156 -7 -291 -12 -301 -15 -32 -42 -39
-68 -18 l-23 19 -3 291 -3 291 -35 0 -35 0 3 -312z"/>
<path d="M900 371 l0 -349 35 -4 c20 -2 38 -2 40 1 3 2 5 161 5 353 l0 348
-40 0 -40 0 0 -349z"/>
<path d="M1050 371 c0 -309 2 -350 16 -355 22 -8 157 -7 169 2 6 4 10 30 10
57 l0 50 -62 3 -63 3 0 294 0 295 -35 0 -35 0 0 -349z"/>
<path d="M1290 366 l0 -354 98 1 97 2 3 53 3 52 -65 0 -66 0 0 105 0 105 61 0
60 0 -3 53 -3 52 -57 3 -58 3 0 89 0 90 65 0 65 0 0 50 0 50 -100 0 -100 0 0
-354z"/>
<path d="M1960 371 c0 -288 2 -350 14 -354 7 -3 46 -5 86 -4 69 2 74 4 100 36
16 18 33 54 40 79 18 71 24 275 12 388 -20 175 -44 204 -177 204 l-75 0 0
-349z m149 230 c27 -27 33 -84 29 -267 -4 -186 -13 -214 -65 -214 l-33 0 0
250 0 250 25 0 c14 0 34 -9 44 -19z"/>
<path d="M2290 371 c0 -309 2 -350 16 -355 9 -3 51 -6 95 -6 87 0 88 1 92 65
l2 40 -67 3 -68 3 0 104 0 105 60 0 60 0 0 55 0 55 -60 0 -61 0 3 88 3 87 63
3 62 3 0 49 0 50 -100 0 -100 0 0 -349z"/>
<path d="M2644 683 c3 -21 24 -177 47 -347 22 -171 42 -313 45 -317 8 -13 77
-4 85 11 7 13 99 645 99 679 0 6 -15 11 -34 11 -41 0 -36 20 -72 -272 -15
-126 -31 -228 -35 -228 -3 0 -9 28 -12 63 -4 34 -16 146 -28 250 l-22 187 -40
0 -39 0 6 -37z"/>
<path d="M2970 365 l0 -355 35 0 35 0 0 355 0 355 -35 0 -35 0 0 -355z"/>
<path d="M3112 368 l3 -353 78 1 c89 2 116 15 141 68 26 55 39 196 33 346 -7
151 -25 227 -63 265 -23 23 -33 25 -110 25 l-84 0 2 -352z m142 239 c27 -19
36 -79 36 -237 0 -147 -11 -228 -33 -242 -7 -4 -24 -8 -39 -8 l-28 0 0 250 0
250 23 0 c13 0 31 -6 41 -13z"/>
<path d="M3510 708 c0 -7 -23 -161 -50 -343 -28 -181 -50 -335 -50 -341 0 -18
59 -15 69 4 5 9 12 45 16 80 l7 62 58 0 58 0 7 -66 c4 -36 14 -72 22 -80 14
-13 54 -19 65 -9 2 3 -10 105 -29 227 -18 123 -40 280 -50 351 l-17 127 -53 0
c-36 0 -53 -4 -53 -12z"/>
<path d="M3760 365 c0 -343 1 -355 19 -355 52 0 51 -6 51 263 0 138 2 248 5
245 3 -2 27 -113 54 -246 27 -132 51 -245 55 -250 3 -5 25 -9 48 -8 l43 1 3
353 2 352 -35 0 -35 0 -2 -242 -3 -243 -50 243 -50 242 -52 0 -53 0 0 -355z"/>
<path d="M4442 368 l3 -353 100 0 100 0 0 50 0 50 -67 3 -68 3 0 104 0 105 60
0 60 0 0 56 0 55 -57 -2 -58 -3 0 90 0 89 63 3 62 3 0 49 0 50 -100 0 -100 0
2 -352z"/>
</g>
</svg>
