<?xml version="1.0" standalone="no"?>
<!DOCTYPE svg PUBLIC "-//W3C//DTD SVG 20010904//EN"
 "http://www.w3.org/TR/2001/REC-SVG-20010904/DTD/svg10.dtd">
<svg version="1.0" xmlns="http://www.w3.org/2000/svg"
 width="491.000000pt" height="600.000000pt" viewBox="0 0 491.000000 600.000000"
 preserveAspectRatio="xMidYMid meet">
<metadata>
Created by potrace 1.12, written by Peter Selinger 2001-2015
</metadata>
<g transform="translate(0.000000,600.000000) scale(0.100000,-0.100000)"
fill="#000000" stroke="none">
<path d="M750 5990 c-193 -26 -357 -108 -496 -247 -108 -108 -180 -232 -226
-390 l-22 -78 -3 -1677 c-4 -1845 -5 -1795 57 -1955 62 -162 176 -306 313
-397 103 -68 174 -100 286 -129 l86 -22 1700 0 c1782 0 1747 -1 1875 42 128
43 240 113 341 214 106 106 178 233 221 391 l23 83 0 1720 0 1720 -22 84 c-74
275 -265 490 -527 592 -156 60 -112 59 -1911 58 -902 -1 -1665 -5 -1695 -9z
m3494 -123 c251 -77 433 -250 517 -494 l34 -98 3 -1685 c2 -1163 -1 -1707 -8
-1755 -49 -319 -289 -563 -610 -621 -110 -20 -3339 -20 -3450 0 -157 28 -294
100 -404 213 -108 110 -166 219 -197 368 -18 86 -19 167 -19 1745 0 1061 4
1677 10 1717 41 253 204 465 434 567 46 21 109 38 211 60 11 2 785 3 1720 2
1603 -1 1703 -3 1759 -19z"/>
<path d="M910 5516 c0 -6 -90 -436 -96 -463 -6 -22 -3 -23 45 -23 49 0 51 -1
51 -28 0 -22 -37 -65 -205 -232 l-205 -205 0 -289 0 -289 55 -55 55 -55 0
-167 0 -166 -55 -54 -55 -54 0 -759 0 -758 127 -129 127 -130 451 0 451 0 127
128 127 129 0 761 0 762 -54 54 -54 54 -1 166 -2 166 55 51 55 51 1 291 0 292
-205 205 c-168 168 -205 210 -205 232 0 27 2 28 50 28 28 0 50 2 50 4 0 5 -62
303 -86 414 l-15 72 -295 0 c-162 0 -294 -2 -294 -4z m472 -241 l15 -75 -28 0
-29 0 0 -148 0 -147 200 -200 200 -200 0 -227 0 -227 -57 -55 -56 -56 -423 0
-422 0 -56 58 -56 57 0 225 0 225 200 200 200 200 0 147 0 148 -25 0 c-29 0
-30 8 -13 92 l12 58 162 0 161 0 15 -75z m258 -1460 l0 -75 -435 0 -435 0 0
75 0 75 435 0 435 0 0 -75z m0 -200 l0 -75 -425 -2 c-234 -2 -430 -1 -435 0
-6 2 -10 37 -10 78 l0 74 435 0 435 0 0 -75z m43 -183 l57 -56 0 -696 0 -695
-79 -82 -79 -83 -376 0 -377 0 -79 83 -80 82 0 695 0 694 57 59 58 58 420 -1
420 -1 58 -57z"/>
<path d="M2267 5111 c-122 -163 -121 -313 4 -580 67 -141 92 -229 87 -295 -5
-57 -35 -125 -74 -166 l-24 -26 60 -59 59 -58 21 24 c101 118 138 230 119 367
-7 57 -26 114 -71 217 -85 194 -107 262 -108 320 0 54 24 115 64 168 l25 33
-58 58 -58 58 -46 -61z"/>
<path d="M2707 5111 c-66 -89 -90 -158 -89 -256 0 -96 21 -166 97 -335 65
-143 85 -208 85 -269 0 -50 -26 -116 -66 -168 -13 -17 -24 -35 -24 -40 0 -4
25 -32 54 -61 l53 -54 37 44 c85 98 125 227 106 344 -13 78 -35 143 -98 279
-88 194 -101 270 -58 361 13 28 29 55 35 58 6 4 15 15 20 25 8 14 -1 29 -49
76 l-58 58 -45 -62z"/>
<path d="M3174 5148 c-81 -90 -117 -178 -116 -288 0 -95 20 -171 79 -299 19
-42 49 -110 65 -151 55 -134 42 -256 -38 -340 l-24 -26 60 -59 59 -59 23 29
c143 177 157 333 51 570 -121 272 -134 333 -90 426 14 30 34 66 43 81 l18 27
-55 56 -55 56 -20 -23z"/>
<path d="M2040 3560 l0 -80 811 0 812 0 -7 -142 c-30 -618 -137 -1080 -318
-1367 -53 -84 -108 -152 -122 -150 -6 1 -278 1 -604 0 l-593 -1 -81 -80 -82
-80 720 0 720 0 50 53 c265 275 424 780 469 1489 l7 106 57 10 c31 5 143 23
249 38 l192 29 0 127 0 128 -1140 0 -1140 0 0 -80z"/>
<path d="M1551 715 c-42 -36 -54 -82 -49 -184 5 -98 17 -126 83 -201 54 -61
75 -99 75 -139 0 -51 -17 -81 -44 -81 -31 0 -46 26 -46 79 l0 41 -41 0 -42 0
7 -71 c8 -87 26 -125 72 -146 31 -15 39 -16 76 -3 53 19 75 50 89 124 21 117
-7 209 -94 304 -59 64 -77 115 -58 165 23 59 66 42 77 -29 6 -42 8 -44 40 -44
34 0 34 0 34 46 0 65 -19 122 -48 145 -36 28 -93 25 -131 -6z"/>
<path d="M4553 728 c-40 -19 -63 -84 -63 -179 0 -102 18 -146 90 -227 59 -66
78 -116 64 -170 -7 -28 -15 -38 -33 -40 -33 -5 -51 21 -51 75 l0 43 -41 0 -42
0 6 -69 c7 -86 27 -127 73 -148 31 -15 39 -16 76 -3 53 19 75 50 89 124 21
115 -6 205 -91 296 -56 61 -77 116 -63 163 19 69 67 57 79 -19 6 -42 8 -44 40
-44 33 0 34 1 34 44 0 68 -10 101 -40 135 -23 25 -37 31 -67 30 -21 0 -48 -5
-60 -11z"/>
<path d="M190 376 c0 -196 3 -357 8 -357 46 -7 62 -6 64 4 1 7 2 80 2 162 l1
150 48 3 47 3 0 -160 c0 -151 1 -160 20 -166 11 -3 29 -3 40 0 20 6 20 15 20
361 l0 354 -40 0 -40 0 0 -146 0 -145 -47 3 -48 3 -2 140 -2 140 -36 3 -35 3
0 -355z"/>
<path d="M512 428 c3 -292 4 -305 26 -350 23 -46 67 -78 107 -78 31 0 82 39
101 78 17 33 19 69 22 345 l3 307 -35 0 -34 0 -4 -287 c-2 -159 -8 -296 -12
-306 -11 -23 -40 -38 -60 -31 -30 12 -36 65 -36 345 l0 279 -41 0 -41 0 4
-302z"/>
<path d="M840 375 c0 -195 3 -355 8 -356 4 0 15 -2 26 -4 47 -9 46 -15 46 361
l0 354 -40 0 -40 0 0 -355z"/>
<path d="M990 376 l0 -354 28 -6 c15 -4 60 -5 100 -4 l72 2 0 58 0 58 -60 0
-60 0 0 300 0 300 -40 0 -40 0 0 -354z"/>
<path d="M1230 376 l0 -354 23 -6 c12 -3 59 -6 105 -6 l82 0 0 55 0 55 -65 0
-65 0 0 110 0 110 60 0 60 0 0 50 0 50 -60 0 -60 0 0 93 0 92 65 -3 65 -4 0
56 0 56 -105 0 -105 0 0 -354z"/>
<path d="M1920 369 l0 -362 79 5 c122 7 150 36 172 179 15 98 6 375 -16 446
-23 77 -49 93 -151 93 l-84 0 0 -361z m162 229 c9 -17 13 -79 13 -223 0 -176
-2 -204 -18 -228 -12 -19 -26 -27 -47 -27 l-30 0 0 250 0 250 35 0 c25 0 38
-6 47 -22z"/>
<path d="M2250 371 l0 -359 105 1 105 2 0 53 0 52 -70 0 -71 0 3 107 3 108 58
3 57 3 0 49 0 49 -57 3 -58 3 -3 88 -3 87 66 0 65 0 0 55 0 55 -100 0 -100 0
0 -359z"/>
<path d="M2634 717 c-3 -8 -4 -168 -2 -357 l3 -344 38 -1 37 -2 0 159 0 158
60 0 60 0 0 50 0 50 -60 0 -60 0 0 95 0 95 60 0 60 0 0 55 0 55 -95 0 c-71 0
-97 -3 -101 -13z"/>
<path d="M2875 718 c-2 -7 -3 -168 -2 -358 l2 -345 30 1 c17 1 33 2 38 3 4 1
7 66 7 146 l0 145 30 0 c18 0 33 -7 39 -19 9 -16 20 -155 21 -253 0 -24 3 -26
36 -25 l36 2 -1 125 c-2 148 -12 192 -46 210 l-25 13 24 22 c61 57 61 258 0
326 -14 16 -31 19 -101 19 -58 0 -85 -4 -88 -12z m143 -110 c14 -14 16 -126 2
-162 -7 -20 -16 -26 -40 -26 l-30 0 0 100 0 100 28 0 c15 0 33 -5 40 -12z"/>
<path d="M3180 370 l0 -360 33 3 32 3 3 357 2 357 -35 0 -35 0 0 -360z"/>
<path d="M3297 723 c-4 -3 -7 -28 -7 -55 l0 -48 45 0 45 0 0 -300 c0 -192 4
-300 10 -301 6 -1 22 -2 38 -3 l27 -1 3 303 2 304 33 -2 c57 -3 57 -3 57 55
l0 55 -123 0 c-68 0 -127 -3 -130 -7z"/>
<path d="M3592 428 c3 -292 4 -305 26 -350 48 -96 146 -101 199 -10 l28 47 3
308 3 308 -38 -3 -38 -3 -5 -295 c-3 -162 -9 -301 -13 -308 -5 -6 -21 -12 -37
-12 -45 0 -50 31 -50 341 l0 279 -41 0 -40 0 3 -302z"/>
<path d="M3920 369 l0 -360 38 3 37 3 3 148 3 148 27 -3 c41 -5 52 -38 52
-165 0 -101 2 -113 19 -123 11 -5 29 -10 40 -10 19 0 21 6 21 58 -1 31 -5 102
-9 156 -7 90 -11 102 -34 122 -23 20 -24 24 -11 35 34 28 47 73 47 159 1 47
-5 102 -12 122 -19 57 -42 68 -138 68 l-83 0 0 -361z"/>
<path d="M4220 376 c0 -313 2 -355 16 -360 20 -8 158 -8 178 0 12 4 16 20 16
55 l0 49 -65 0 -65 0 0 110 0 110 60 0 60 0 0 50 0 50 -60 0 -60 0 0 90 0 90
65 0 65 0 0 55 0 55 -105 0 -105 0 0 -354z"/>
</g>
</svg>
