<?xml version="1.0" standalone="no"?>
<!DOCTYPE svg PUBLIC "-//W3C//DTD SVG 20010904//EN"
 "http://www.w3.org/TR/2001/REC-SVG-20010904/DTD/svg10.dtd">
<svg version="1.0" xmlns="http://www.w3.org/2000/svg"
 width="476.000000pt" height="600.000000pt" viewBox="0 0 476.000000 600.000000"
 preserveAspectRatio="xMidYMid meet">
<metadata>
Created by potrace 1.12, written by Peter Selinger 2001-2015
</metadata>
<g transform="translate(0.000000,600.000000) scale(0.100000,-0.100000)"
fill="#000000" stroke="none">
<path d="M720 5988 c-154 -22 -318 -103 -442 -217 -106 -98 -184 -225 -230
-373 l-23 -73 -3 -1673 c-2 -1641 -2 -1675 18 -1757 73 -309 310 -546 614
-615 90 -21 103 -21 1766 -18 l1675 3 70 24 c149 50 246 110 355 220 130 131
205 287 230 476 8 54 10 603 8 1700 -4 1613 -4 1620 -25 1692 -85 291 -289
499 -578 590 l-90 28 -1640 1 c-973 1 -1666 -2 -1705 -8z m3435 -131 c115 -40
210 -100 290 -181 82 -84 135 -170 173 -281 l27 -80 0 -1690 0 -1690 -27 -77
c-64 -180 -202 -340 -361 -418 -167 -82 -4 -75 -1827 -78 -1102 -2 -1647 1
-1694 8 -294 45 -521 255 -597 551 -12 45 -14 327 -14 1709 0 1560 1 1659 18
1720 71 259 266 454 521 520 68 18 143 18 1741 17 l1670 -2 80 -28z"/>
<path d="M970 4883 l0 -240 -42 -12 c-49 -15 -260 -93 -300 -112 l-28 -12 0
-1199 c0 -659 2 -1198 5 -1198 3 0 69 25 147 56 381 149 676 200 1011 176 233
-17 256 -23 439 -112 90 -44 168 -80 175 -80 6 0 85 36 175 79 152 74 170 80
273 95 428 61 799 7 1253 -180 45 -19 84 -34 87 -34 3 0 4 541 3 1202 l-3
1202 -125 48 c-69 26 -149 56 -177 65 l-53 17 0 239 0 239 -147 -6 c-510 -24
-873 -139 -1188 -377 -43 -32 -83 -59 -88 -59 -5 0 -34 19 -65 43 -106 79
-206 140 -327 198 -261 124 -500 177 -882 194 l-143 7 0 -239z m485 42 c297
-51 580 -173 787 -340 l63 -51 3 -957 c1 -526 0 -957 -3 -957 -2 0 -41 25 -87
55 -285 190 -640 299 -1038 317 -30 2 -54 6 -52 11 1 4 2 445 2 980 l0 972
117 -7 c65 -4 158 -15 208 -23z m2195 -954 l0 -978 -113 -6 c-212 -11 -441
-57 -609 -122 -152 -59 -252 -112 -435 -233 l-23 -14 0 960 0 960 78 59 c200
153 444 263 687 312 132 26 383 53 408 43 4 -2 7 -443 7 -981z m-2547 -1135
c491 -25 760 -108 1086 -334 52 -36 90 -67 83 -70 -6 -2 -55 6 -109 17 -191
39 -341 54 -548 54 -273 0 -474 -33 -725 -118 -58 -20 -109 -37 -115 -38 -7
-1 -10 346 -10 1027 l0 1029 100 38 100 38 3 -818 2 -818 133 -7z m2897 1569
c6 -4 10 -384 10 -1034 l0 -1027 -117 39 c-269 89 -463 120 -738 120 -196 0
-359 -16 -544 -54 -51 -10 -98 -19 -105 -19 -16 1 37 44 139 112 284 190 575
273 1028 294 l137 6 0 818 0 818 90 -34 c50 -18 95 -36 100 -39z"/>
<path d="M1339 4708 c-25 -21 -29 -45 -11 -67 13 -15 42 -24 117 -36 118 -18
294 -64 384 -99 34 -14 114 -52 177 -86 63 -33 120 -60 127 -60 25 0 50 37 43
64 -7 27 -50 55 -187 122 -213 105 -602 202 -650 162z"/>
<path d="M1344 4482 c-21 -13 -32 -47 -23 -69 9 -24 21 -29 99 -38 202 -25
476 -117 641 -217 53 -32 86 -35 105 -10 23 29 16 51 -26 81 -59 43 -232 124
-350 166 -142 49 -422 104 -446 87z"/>
<path d="M1332 4238 c-19 -19 -15 -66 6 -77 10 -6 63 -17 118 -26 114 -18 251
-54 349 -90 63 -24 258 -118 303 -146 16 -10 25 -10 46 4 61 40 23 83 -148
167 -146 72 -293 121 -459 155 -137 28 -197 31 -215 13z"/>
<path d="M1338 4009 c-22 -12 -24 -62 -3 -79 8 -7 57 -19 108 -26 201 -30 433
-108 589 -199 90 -52 123 -57 140 -20 19 41 -4 66 -112 123 -184 98 -379 163
-590 198 -101 16 -110 16 -132 3z"/>
<path d="M1340 3773 c-29 -20 -27 -71 3 -83 12 -5 76 -18 142 -29 170 -29 350
-89 511 -171 145 -75 167 -78 180 -24 10 38 -15 57 -170 134 -156 76 -275 118
-422 149 -160 34 -221 40 -244 24z"/>
<path d="M1338 3540 c-21 -13 -24 -63 -5 -78 7 -6 47 -16 88 -23 235 -35 476
-118 640 -219 58 -35 79 -37 104 -10 33 36 11 66 -85 119 -161 88 -336 154
-510 190 -128 26 -211 34 -232 21z"/>
<path d="M1342 3304 c-30 -21 -30 -67 1 -81 12 -6 58 -17 102 -23 217 -31 422
-102 615 -214 53 -30 87 -33 106 -8 34 45 9 71 -142 146 -205 103 -350 147
-629 191 -19 3 -39 -1 -53 -11z"/>
<path d="M3275 4704 c-190 -34 -380 -99 -545 -186 -106 -56 -126 -70 -133 -99
-6 -23 24 -59 48 -59 9 0 34 12 58 27 77 49 248 123 360 157 106 32 151 42
312 69 62 11 71 15 79 39 8 22 6 32 -9 48 -21 24 -55 25 -170 4z"/>
<path d="M3285 4471 c-111 -20 -275 -62 -329 -85 l-36 -15 0 -170 c0 -94 1
-171 3 -171 1 0 41 13 89 30 125 42 193 58 326 78 l117 18 3 167 2 167 -37 -1
c-21 0 -83 -9 -138 -18z"/>
<path d="M2706 4272 c-106 -57 -126 -80 -102 -117 10 -15 26 -25 40 -25 20 0
98 39 194 97 39 24 20 93 -26 93 -9 0 -57 -22 -106 -48z"/>
<path d="M2725 4049 c-125 -64 -161 -117 -100 -149 20 -11 33 -7 111 35 108
58 124 71 124 101 0 19 -32 54 -50 54 -3 0 -41 -19 -85 -41z"/>
<path d="M3275 4000 c-224 -40 -422 -110 -597 -212 -81 -46 -96 -69 -73 -104
17 -27 50 -31 80 -10 36 25 203 106 271 132 112 42 233 74 359 94 119 20 145
32 145 67 0 21 -38 53 -62 52 -13 0 -68 -9 -123 -19z"/>
<path d="M3365 3783 c-173 -23 -414 -93 -558 -162 -183 -87 -231 -127 -207
-170 17 -32 47 -31 113 5 197 107 344 161 552 200 156 29 189 41 193 69 6 41
-34 66 -93 58z"/>
<path d="M3305 3539 c-227 -33 -634 -188 -694 -265 -24 -30 -17 -62 16 -77 20
-9 31 -8 57 7 210 123 410 194 649 232 102 16 126 29 127 65 0 25 -33 49 -66
48 -16 -1 -56 -5 -89 -10z"/>
<path d="M3285 3300 c-245 -44 -492 -135 -646 -237 -46 -30 -54 -49 -34 -79
20 -31 55 -31 103 0 157 99 454 200 651 221 91 10 126 50 81 95 -24 24 -26 24
-155 0z"/>
<path d="M374 790 c-63 -25 -90 -163 -81 -410 6 -173 16 -217 55 -261 58 -64
139 -38 176 56 17 44 20 76 20 265 0 197 -2 220 -22 270 -30 77 -84 106 -148
80z m84 -135 c15 -43 13 -415 -2 -447 -18 -39 -59 -31 -75 14 -17 50 -14 401
4 444 21 50 55 45 73 -11z"/>
<path d="M4490 793 c-54 -20 -82 -80 -82 -182 -1 -91 15 -132 77 -205 67 -80
75 -95 75 -150 0 -42 -18 -76 -40 -76 -20 0 -40 34 -46 80 -6 49 -7 50 -42 50
l-35 0 6 -76 c6 -83 22 -116 67 -139 105 -54 189 72 161 239 -12 74 -31 106
-104 183 -43 45 -58 104 -38 156 22 58 71 21 71 -54 0 -27 3 -29 35 -29 l35 0
0 50 c0 111 -64 181 -140 153z"/>
<path d="M150 513 c0 -153 -3 -288 -6 -300 -3 -12 -13 -24 -21 -27 -29 -11
-43 14 -43 75 l0 59 -41 0 -42 0 7 -81 c8 -99 24 -134 70 -149 62 -20 111 9
135 79 7 22 11 135 11 327 l0 294 -35 0 -35 0 0 -277z"/>
<path d="M622 493 c3 -274 5 -301 23 -338 27 -54 81 -81 130 -65 40 13 68 48
84 105 7 25 11 145 11 318 l0 277 -34 0 -35 0 -3 -282 c-2 -156 -7 -291 -12
-300 -11 -23 -44 -32 -61 -18 -28 24 -35 88 -35 343 l0 257 -36 0 -35 0 3
-297z"/>
<path d="M950 445 l0 -345 35 0 35 0 0 138 c0 76 2 141 5 144 13 12 54 -6 64
-28 6 -14 11 -69 11 -124 0 -121 3 -130 45 -130 l33 0 -5 127 c-5 137 -14 178
-45 194 -19 10 -19 12 8 40 26 27 28 37 32 123 7 165 -22 206 -144 206 l-74 0
0 -345z"/>
<path d="M1252 443 l3 -348 25 3 c14 2 27 5 29 7 2 2 3 108 3 236 -1 128 2
237 5 242 3 6 28 -100 55 -233 26 -134 54 -248 61 -252 6 -4 29 -8 50 -8 l37
0 0 351 0 350 -32 -3 -33 -3 -5 -235 -5 -234 -49 237 -49 237 -49 0 -48 0 2
-347z"/>
<path d="M1675 778 c-2 -7 -13 -78 -25 -158 -11 -80 -33 -229 -48 -332 -27
-178 -27 -187 -10 -191 45 -12 56 1 63 79 l7 74 58 0 57 0 7 -38 c3 -20 6 -49
6 -64 0 -34 25 -59 53 -54 12 3 25 5 28 5 3 1 -5 70 -18 153 -12 84 -35 239
-50 343 l-28 190 -48 3 c-32 2 -49 -1 -52 -10z"/>
<path d="M1930 503 c0 -159 5 -304 10 -324 25 -89 119 -123 180 -64 49 47 54
83 54 390 l1 280 -35 0 -35 0 -5 -287 c-4 -249 -7 -290 -21 -304 -23 -23 -55
-10 -68 28 -7 19 -11 132 -11 299 l0 269 -35 0 -35 0 0 -287z"/>
<path d="M2230 787 c0 -2 20 -76 45 -166 l45 -162 -46 -172 c-25 -94 -46 -176
-47 -181 -2 -13 66 -7 74 6 3 5 16 54 28 109 12 54 25 99 29 99 4 0 19 -48 32
-107 l25 -108 38 -6 c21 -3 40 -3 42 1 2 4 -16 79 -40 168 -25 89 -45 169 -45
176 0 8 20 88 45 177 25 90 45 164 45 166 0 2 -17 3 -38 3 l-39 0 -23 -110
c-13 -60 -26 -110 -30 -110 -4 0 -18 48 -31 108 l-25 107 -42 3 c-23 2 -42 1
-42 -1z"/>
<path d="M2746 768 c-2 -13 -9 -54 -15 -93 -11 -75 -26 -171 -65 -415 -43
-269 -43 -262 -15 -258 26 3 23 -12 113 583 15 99 29 186 31 193 3 7 -5 12
-20 12 -18 0 -26 -6 -29 -22z"/>
<path d="M2950 445 l0 -345 35 0 34 0 3 143 3 142 25 -3 c14 -2 30 -10 36 -18
6 -8 13 -67 16 -133 3 -65 8 -122 11 -128 3 -5 20 -8 37 -5 l30 4 0 102 c-1
126 -12 185 -39 207 -22 18 -28 39 -11 39 5 0 17 15 27 33 24 45 24 209 0 254
-24 45 -44 53 -131 53 l-76 0 0 -345z"/>
<path d="M3250 445 l0 -345 23 -5 c12 -3 56 -5 97 -3 l75 3 3 53 3 52 -66 0
-66 0 3 103 3 102 58 3 57 3 0 49 0 50 -60 0 -60 0 0 85 0 84 63 3 62 3 3 53
3 52 -100 0 -101 0 0 -345z"/>
<path d="M3494 738 c43 -346 86 -632 95 -637 13 -8 81 -2 81 8 0 3 20 149 45
324 25 176 45 327 45 338 0 14 -7 19 -30 19 -17 0 -33 -6 -35 -12 -2 -7 -18
-119 -35 -248 -17 -129 -33 -236 -35 -239 -3 -2 -5 0 -5 5 0 5 -7 65 -15 134
-8 69 -20 168 -25 220 -15 142 -15 140 -57 140 l-36 0 7 -52z"/>
<path d="M3814 777 c-3 -9 -4 -140 -2 -294 3 -258 5 -281 24 -324 24 -52 78
-85 121 -74 37 9 79 56 92 101 7 24 11 149 11 322 l0 283 -32 -3 -33 -3 -5
-280 c-3 -154 -9 -288 -14 -297 -12 -26 -45 -33 -65 -14 -14 14 -17 55 -21
304 l-5 287 -33 3 c-21 2 -34 -2 -38 -11z"/>
<path d="M4140 446 c0 -392 -10 -356 100 -356 95 0 100 3 100 61 l0 49 -65 0
-66 0 3 103 3 102 58 0 57 0 0 53 0 52 -60 0 -60 0 0 85 0 85 65 0 65 0 0 55
0 55 -100 0 -100 0 0 -344z"/>
</g>
</svg>
