<?xml version="1.0" standalone="no"?>
<!DOCTYPE svg PUBLIC "-//W3C//DTD SVG 20010904//EN"
 "http://www.w3.org/TR/2001/REC-SVG-20010904/DTD/svg10.dtd">
<svg version="1.0" xmlns="http://www.w3.org/2000/svg"
 width="425.000000pt" height="600.000000pt" viewBox="0 0 425.000000 600.000000"
 preserveAspectRatio="xMidYMid meet">
<metadata>
Created by potrace 1.12, written by Peter Selinger 2001-2015
</metadata>
<g transform="translate(0.000000,600.000000) scale(0.100000,-0.100000)"
fill="#000000" stroke="none">
<path d="M630 5990 c-85 -11 -138 -28 -230 -73 -70 -34 -102 -58 -180 -137
-78 -78 -103 -110 -137 -180 -85 -172 -78 -30 -78 -1685 0 -1392 1 -1473 18
-1535 72 -257 264 -451 522 -527 56 -17 157 -18 1505 -21 1230 -2 1456 0 1521
12 266 50 471 228 561 486 l33 95 0 1485 0 1485 -23 75 c-78 248 -257 427
-502 502 l-75 23 -1440 1 c-792 1 -1465 -2 -1495 -6z m2896 -91 c216 -30 396
-160 490 -356 67 -139 65 -74 62 -1668 -3 -1438 -3 -1440 -24 -1502 -36 -102
-92 -193 -168 -268 -76 -75 -149 -118 -261 -156 l-70 -24 -1470 0 -1470 0 -81
27 c-187 64 -343 215 -404 393 -40 115 -41 171 -38 1625 3 1321 5 1409 22
1465 37 123 75 185 170 281 111 110 189 153 331 179 92 17 2790 21 2911 4z"/>
<path d="M1989 5585 c-60 -19 -141 -95 -171 -160 l-23 -50 -3 -1052 -3 -1052
-49 -35 c-160 -115 -249 -349 -208 -547 55 -266 259 -444 523 -457 169 -8 305
41 420 153 222 216 234 563 27 786 -29 32 -69 68 -88 79 l-34 22 0 1038 c0
1169 4 1100 -76 1189 -57 63 -122 95 -204 98 -37 1 -85 -4 -111 -12z m232
-154 l29 -29 0 -1135 0 -1134 49 -32 c100 -64 152 -159 159 -286 7 -124 -28
-215 -114 -297 -185 -176 -492 -114 -602 120 -23 49 -27 70 -27 152 0 86 3
101 31 160 17 36 51 85 75 109 43 43 147 101 181 101 45 0 48 7 48 121 l0 109
-70 0 -70 0 0 75 0 75 70 0 70 0 0 95 0 95 -70 0 -70 0 0 75 0 75 70 0 70 0 0
90 0 90 -70 0 -70 0 0 75 0 75 70 0 70 0 0 90 0 89 -67 3 -68 3 0 75 0 75 68
3 67 3 0 89 0 90 -70 0 -70 0 0 75 0 75 70 0 70 0 0 90 0 89 -67 3 -68 3 -3
72 -3 72 68 3 68 3 6 90 c7 105 12 121 48 140 44 24 89 19 122 -14z"/>

</g>
</svg>
