<?xml version="1.0" standalone="no"?>
<!DOCTYPE svg PUBLIC "-//W3C//DTD SVG 20010904//EN"
 "http://www.w3.org/TR/2001/REC-SVG-20010904/DTD/svg10.dtd">
<svg version="1.0" xmlns="http://www.w3.org/2000/svg"
 width="486.000000pt" height="600.000000pt" viewBox="0 0 486.000000 600.000000"
 preserveAspectRatio="xMidYMid meet">
<metadata>
Created by potrace 1.12, written by Peter Selinger 2001-2015
</metadata>
<g transform="translate(0.000000,600.000000) scale(0.100000,-0.100000)"
fill="#000000" stroke="none">
<path d="M770 5994 c-225 -35 -358 -96 -499 -228 -146 -138 -234 -312 -261
-516 -8 -60 -10 -575 -8 -1740 l3 -1655 28 -89 c51 -162 109 -260 222 -372
116 -115 244 -187 398 -224 80 -19 125 -20 1769 -20 1828 0 1760 -2 1898 54
262 107 445 320 517 602 17 65 18 179 18 1764 0 1637 -1 1698 -19 1770 -52
205 -160 367 -332 498 -38 29 -144 85 -210 111 -120 47 -34 45 -1824 47 -921
1 -1686 0 -1700 -2z m3388 -120 c189 -39 357 -149 462 -304 49 -73 64 -103 97
-197 l28 -78 3 -1685 c2 -1517 1 -1693 -13 -1765 -61 -302 -306 -534 -615
-584 -44 -7 -600 -11 -1686 -11 -1760 0 -1719 -1 -1856 54 -185 75 -335 224
-415 411 -56 130 -54 65 -51 1890 3 1587 4 1683 22 1740 87 290 308 486 606
538 14 2 771 5 1683 6 1480 1 1666 -1 1735 -15z"/>
<path d="M2290 4873 c-19 -2 -79 -13 -134 -24 -254 -53 -472 -173 -664 -368
-171 -173 -288 -392 -343 -641 -30 -135 -33 -377 -6 -512 106 -531 507 -931
1047 -1044 127 -26 363 -24 497 5 535 113 938 527 1034 1061 23 124 18 365
-10 490 -79 361 -296 665 -608 852 -241 145 -534 210 -813 181z m346 -349
c337 -69 621 -331 727 -669 144 -459 -85 -966 -528 -1171 -135 -62 -220 -79
-405 -79 -141 0 -177 3 -249 23 -177 48 -324 135 -448 266 -185 193 -274 407
-276 666 -1 178 25 295 100 445 152 303 442 504 778 539 69 7 219 -3 301 -20z"/>
<path d="M2060 3570 l0 -580 120 0 120 0 0 240 0 240 133 0 c156 0 204 12 270
70 64 56 90 122 95 241 9 193 -46 300 -179 350 -43 17 -79 19 -304 19 l-255 0
0 -580z m423 396 c45 -18 68 -58 74 -127 7 -72 -15 -137 -58 -174 -27 -22 -39
-25 -115 -25 l-84 0 0 170 0 170 75 0 c42 0 90 -6 108 -14z"/>
<path d="M706 4423 c-196 -390 -250 -885 -142 -1312 33 -127 79 -257 128 -358
l40 -83 195 0 195 0 -18 28 c-341 513 -348 1203 -18 1720 l34 52 -195 0 -195
0 -24 -47z"/>
<path d="M3750 4464 c0 -4 15 -32 34 -63 228 -378 291 -814 181 -1241 -36
-141 -121 -329 -209 -462 l-18 -28 196 0 195 0 42 88 c83 177 146 400 170 602
16 144 6 434 -21 564 -36 180 -76 303 -155 474 l-34 72 -191 0 c-104 0 -190
-3 -190 -6z"/>
</g>
</svg>
