<?xml version="1.0" standalone="no"?>
<!DOCTYPE svg PUBLIC "-//W3C//DTD SVG 20010904//EN"
 "http://www.w3.org/TR/2001/REC-SVG-20010904/DTD/svg10.dtd">
<svg version="1.0" xmlns="http://www.w3.org/2000/svg"
 width="486.000000pt" height="600.000000pt" viewBox="0 0 486.000000 600.000000"
 preserveAspectRatio="xMidYMid meet">
<metadata>
Created by potrace 1.12, written by Peter Selinger 2001-2015
</metadata>
<g transform="translate(0.000000,600.000000) scale(0.100000,-0.100000)"
fill="#000000" stroke="none">
<path d="M770 5994 c-225 -35 -358 -96 -499 -228 -146 -138 -234 -312 -261
-516 -8 -60 -10 -575 -8 -1740 l3 -1655 28 -89 c51 -162 109 -260 222 -372
116 -115 244 -187 398 -224 80 -19 125 -20 1769 -20 1828 0 1760 -2 1898 54
262 107 445 320 517 602 17 65 18 179 18 1764 0 1637 -1 1698 -19 1770 -52
205 -160 367 -332 498 -38 29 -144 85 -210 111 -120 47 -34 45 -1824 47 -921
1 -1686 0 -1700 -2z m3388 -120 c189 -39 357 -149 462 -304 49 -73 64 -103 97
-197 l28 -78 3 -1685 c2 -1517 1 -1693 -13 -1765 -61 -302 -306 -534 -615
-584 -44 -7 -600 -11 -1686 -11 -1760 0 -1719 -1 -1856 54 -185 75 -335 224
-415 411 -56 130 -54 65 -51 1890 3 1587 4 1683 22 1740 87 290 308 486 606
538 14 2 771 5 1683 6 1480 1 1666 -1 1735 -15z"/>
<path d="M2290 4873 c-19 -2 -79 -13 -134 -24 -254 -53 -472 -173 -664 -368
-171 -173 -288 -392 -343 -641 -30 -135 -33 -377 -6 -512 106 -531 507 -931
1047 -1044 127 -26 363 -24 497 5 535 113 938 527 1034 1061 23 124 18 365
-10 490 -79 361 -296 665 -608 852 -241 145 -534 210 -813 181z m346 -349
c337 -69 621 -331 727 -669 144 -459 -85 -966 -528 -1171 -135 -62 -220 -79
-405 -79 -141 0 -177 3 -249 23 -177 48 -324 135 -448 266 -185 193 -274 407
-276 666 -1 178 25 295 100 445 152 303 442 504 778 539 69 7 219 -3 301 -20z"/>
<path d="M2060 3570 l0 -580 120 0 120 0 0 240 0 240 133 0 c156 0 204 12 270
70 64 56 90 122 95 241 9 193 -46 300 -179 350 -43 17 -79 19 -304 19 l-255 0
0 -580z m423 396 c45 -18 68 -58 74 -127 7 -72 -15 -137 -58 -174 -27 -22 -39
-25 -115 -25 l-84 0 0 170 0 170 75 0 c42 0 90 -6 108 -14z"/>
<path d="M706 4423 c-196 -390 -250 -885 -142 -1312 33 -127 79 -257 128 -358
l40 -83 195 0 195 0 -18 28 c-341 513 -348 1203 -18 1720 l34 52 -195 0 -195
0 -24 -47z"/>
<path d="M3750 4464 c0 -4 15 -32 34 -63 228 -378 291 -814 181 -1241 -36
-141 -121 -329 -209 -462 l-18 -28 196 0 195 0 42 88 c83 177 146 400 170 602
16 144 6 434 -21 564 -36 180 -76 303 -155 474 l-34 72 -191 0 c-104 0 -190
-3 -190 -6z"/>
<path d="M660 700 c-43 -46 -54 -116 -53 -330 1 -222 12 -292 56 -332 29 -28
32 -29 126 -26 l96 3 3 53 c3 46 1 52 -17 52 -11 0 -23 -4 -26 -10 -3 -5 -10
-10 -15 -10 -5 0 -1 17 8 38 14 31 17 72 17 262 0 214 -1 227 -23 267 -26 50
-47 63 -102 63 -34 0 -48 -6 -70 -30z m111 -102 c10 -24 14 -85 14 -228 0
-223 -9 -263 -54 -258 -42 5 -52 68 -48 283 4 197 12 235 51 235 17 0 27 -9
37 -32z"/>
<path d="M2052 714 c-36 -25 -54 -81 -55 -169 -1 -94 20 -149 80 -217 58 -65
64 -74 74 -115 15 -65 -15 -122 -56 -107 -17 7 -25 37 -34 117 -1 4 -17 7 -37
7 l-37 0 5 -76 c7 -110 56 -164 135 -149 75 14 108 85 101 220 -5 93 -20 127
-89 200 -52 55 -69 89 -69 136 0 43 17 69 45 69 24 0 28 -9 38 -90 1 -10 15
-16 40 -18 35 -3 37 -2 37 27 0 57 -22 134 -46 158 -28 28 -97 32 -132 7z"/>
<path d="M4472 705 c-33 -28 -52 -86 -52 -163 0 -79 27 -145 87 -214 61 -69
73 -94 73 -141 0 -49 -10 -75 -30 -80 -32 -8 -50 15 -57 70 -6 52 -6 53 -39
53 -37 0 -37 0 -34 -70 2 -73 19 -114 56 -139 26 -18 42 -22 70 -18 68 11 100
60 110 164 10 103 -12 168 -82 244 -60 65 -74 93 -74 145 0 46 16 74 41 74 21
0 39 -34 39 -76 0 -23 4 -26 35 -26 8 0 20 0 25 1 13 1 13 92 -1 128 -6 15
-20 38 -31 51 -31 32 -96 31 -136 -3z"/>
<path d="M220 370 l0 -350 23 -5 c12 -3 56 -5 97 -3 l75 3 3 57 3 58 -61 0
-60 0 0 295 0 295 -40 0 -40 0 0 -350z"/>
<path d="M462 368 l3 -353 28 -2 c29 -2 48 24 41 57 -1 8 -3 158 -3 333 l-1
317 -35 0 -35 0 2 -352z"/>
<path d="M932 423 c3 -295 3 -299 28 -348 20 -41 32 -53 65 -64 58 -20 106 3
137 67 22 45 23 58 26 345 l3 297 -40 0 -41 0 0 -280 c0 -280 -5 -322 -36
-334 -22 -8 -45 5 -55 31 -5 13 -9 150 -9 304 l0 279 -41 0 -40 0 3 -297z"/>
<path d="M1262 368 l3 -353 30 0 30 0 3 353 2 352 -35 0 -35 0 2 -352z"/>
<path d="M1410 365 l0 -354 80 2 c71 2 82 5 108 30 45 44 54 85 59 287 6 225
-5 305 -49 356 -30 34 -31 34 -114 34 l-84 0 0 -355z m156 218 c32 -75 26
-409 -7 -449 -6 -8 -27 -14 -45 -14 l-34 0 0 243 c0 134 3 247 7 250 3 4 19 7
35 7 24 0 32 -6 44 -37z"/>
<path d="M1730 370 l0 -350 23 -5 c12 -3 58 -5 102 -3 l80 3 3 52 3 53 -65 0
-66 0 0 105 0 105 60 0 60 0 0 55 0 55 -60 0 -60 0 0 90 0 90 65 0 65 0 0 50
0 50 -105 0 -105 0 0 -350z"/>
<path d="M2410 376 c0 -263 3 -346 13 -354 6 -5 39 -10 72 -11 144 -2 183 92
172 414 -7 180 -15 220 -56 264 -28 30 -32 31 -115 31 l-86 0 0 -344z m157
217 c15 -23 18 -55 21 -203 2 -124 -1 -188 -10 -220 -13 -42 -16 -45 -51 -48
l-37 -3 0 250 0 251 30 0 c21 0 35 -8 47 -27z"/>
<path d="M2740 366 l0 -354 103 1 102 2 3 52 3 53 -70 0 -71 0 0 105 0 105 60
0 60 0 0 55 0 55 -60 0 -61 0 3 88 3 87 63 3 62 3 0 49 0 50 -100 0 -100 0 0
-354z"/>
<path d="M3120 366 l0 -353 38 1 37 1 3 158 3 158 54 -4 55 -4 0 53 0 54 -55
0 -55 0 0 95 0 95 60 0 60 0 0 50 0 50 -100 0 -100 0 0 -354z"/>
<path d="M3360 365 l0 -355 35 0 35 0 0 150 0 150 24 0 c19 0 46 -15 57 -33 1
-1 4 -60 8 -131 l6 -129 35 -2 35 -3 -3 112 c-4 164 -9 192 -39 216 l-26 20
22 24 c29 30 41 77 41 156 0 78 -13 129 -40 158 -18 19 -31 22 -105 22 l-85 0
0 -355z m140 236 c5 -11 10 -48 10 -83 0 -73 -19 -111 -53 -106 -20 3 -22 10
-25 92 -2 49 -1 95 2 103 8 20 54 16 66 -6z"/>
<path d="M3658 398 c-1 -339 -1 -355 1 -376 1 -10 25 -12 99 -10 l97 3 3 53 3
52 -65 0 -66 0 0 105 0 105 60 0 60 0 0 55 0 55 -60 0 -60 0 0 90 0 90 65 0
65 0 0 50 0 50 -100 0 -100 0 -2 -322z"/>
<path d="M3922 368 l3 -353 38 -3 37 -3 0 355 0 356 -40 0 -40 0 2 -352z"/>
<path d="M4070 370 c0 -273 3 -350 13 -350 6 0 22 -3 35 -6 l22 -6 0 263 c0
144 2 260 4 258 3 -2 27 -116 55 -253 28 -137 53 -251 56 -255 8 -7 56 -11 78
-5 16 5 17 31 17 355 l0 349 -35 0 -35 0 -1 -242 c-1 -276 3 -279 -64 50 l-40
192 -52 0 -53 0 0 -350z"/>
</g>
</svg>
