<?xml version="1.0" standalone="no"?>
<!DOCTYPE svg PUBLIC "-//W3C//DTD SVG 20010904//EN"
 "http://www.w3.org/TR/2001/REC-SVG-20010904/DTD/svg10.dtd">
<svg version="1.0" xmlns="http://www.w3.org/2000/svg"
 width="425.000000pt" height="600.000000pt" viewBox="0 0 425.000000 600.000000"
 preserveAspectRatio="xMidYMid meet">
<metadata>
Created by potrace 1.12, written by Peter Selinger 2001-2015
</metadata>
<g transform="translate(0.000000,600.000000) scale(0.100000,-0.100000)"
fill="#000000" stroke="none">
<path d="M630 5990 c-85 -11 -138 -28 -230 -73 -70 -34 -102 -58 -180 -137
-78 -78 -103 -110 -137 -180 -85 -172 -78 -30 -78 -1685 0 -1392 1 -1473 18
-1535 72 -257 264 -451 522 -527 56 -17 157 -18 1505 -21 1230 -2 1456 0 1521
12 266 50 471 228 561 486 l33 95 0 1485 0 1485 -23 75 c-78 248 -257 427
-502 502 l-75 23 -1440 1 c-792 1 -1465 -2 -1495 -6z m2896 -91 c216 -30 396
-160 490 -356 67 -139 65 -74 62 -1668 -3 -1438 -3 -1440 -24 -1502 -36 -102
-92 -193 -168 -268 -76 -75 -149 -118 -261 -156 l-70 -24 -1470 0 -1470 0 -81
27 c-187 64 -343 215 -404 393 -40 115 -41 171 -38 1625 3 1321 5 1409 22
1465 37 123 75 185 170 281 111 110 189 153 331 179 92 17 2790 21 2911 4z"/>
<path d="M1989 5585 c-60 -19 -141 -95 -171 -160 l-23 -50 -3 -1052 -3 -1052
-49 -35 c-160 -115 -249 -349 -208 -547 55 -266 259 -444 523 -457 169 -8 305
41 420 153 222 216 234 563 27 786 -29 32 -69 68 -88 79 l-34 22 0 1038 c0
1169 4 1100 -76 1189 -57 63 -122 95 -204 98 -37 1 -85 -4 -111 -12z m232
-154 l29 -29 0 -1135 0 -1134 49 -32 c100 -64 152 -159 159 -286 7 -124 -28
-215 -114 -297 -185 -176 -492 -114 -602 120 -23 49 -27 70 -27 152 0 86 3
101 31 160 17 36 51 85 75 109 43 43 147 101 181 101 45 0 48 7 48 121 l0 109
-70 0 -70 0 0 75 0 75 70 0 70 0 0 95 0 95 -70 0 -70 0 0 75 0 75 70 0 70 0 0
90 0 90 -70 0 -70 0 0 75 0 75 70 0 70 0 0 90 0 89 -67 3 -68 3 0 75 0 75 68
3 67 3 0 89 0 90 -70 0 -70 0 0 75 0 75 70 0 70 0 0 90 0 89 -67 3 -68 3 -3
72 -3 72 68 3 68 3 6 90 c7 105 12 121 48 140 44 24 89 19 122 -14z"/>
<path d="M1618 1465 c-55 -31 -63 -68 -63 -300 0 -187 2 -214 19 -249 25 -50
60 -63 154 -58 l72 4 0 44 c0 36 -3 44 -18 44 -10 0 -24 -6 -31 -12 -11 -11
-12 -9 -7 12 24 82 28 127 24 273 -4 165 -12 203 -51 235 -24 20 -70 23 -99 7z
m74 -97 c18 -32 18 -374 0 -405 -18 -32 -50 -29 -63 5 -15 36 -15 358 0 395
13 33 45 36 63 5z"/>
<path d="M2815 1471 c-69 -29 -94 -161 -50 -267 7 -18 31 -52 53 -76 50 -55
62 -78 62 -122 0 -50 -9 -66 -36 -66 -26 0 -44 31 -44 76 0 20 -5 24 -30 24
-29 0 -30 -2 -30 -44 0 -115 67 -174 150 -131 37 19 54 70 54 160 0 83 -15
119 -79 190 -25 28 -48 60 -51 71 -17 66 21 131 52 90 8 -11 14 -32 14 -48 0
-24 4 -28 30 -28 29 0 30 2 30 46 0 96 -57 153 -125 125z"/>
<path d="M1220 1166 l0 -306 85 0 85 0 0 50 0 50 -50 0 -50 0 -2 253 -3 252
-32 3 -33 3 0 -305z"/>
<path d="M1430 1165 l0 -305 30 0 30 0 0 305 0 305 -30 0 -30 0 0 -305z"/>
<path d="M1832 1208 c3 -224 6 -268 20 -294 23 -41 40 -54 82 -61 30 -5 40 -1
65 24 45 46 51 85 51 351 l0 242 -29 0 -29 0 -4 -248 c-3 -261 -7 -282 -49
-282 -35 0 -40 34 -42 283 l-2 242 -33 3 -33 3 3 -263z"/>
<path d="M2110 1166 l0 -306 35 0 35 0 -2 303 -3 302 -32 3 -33 3 0 -305z"/>
<path d="M2240 1166 l0 -306 70 0 c64 0 73 3 95 26 43 46 50 86 50 274 -1 182
-10 239 -44 281 -16 20 -30 24 -95 27 l-76 4 0 -306z m131 197 c11 -12 14 -59
14 -198 0 -199 -4 -215 -56 -215 l-29 0 0 208 c0 115 3 212 7 215 12 13 51 7
64 -10z"/>
<path d="M2520 1165 l0 -305 90 0 90 0 0 45 0 45 -60 0 -60 0 0 90 0 90 50 0
c28 0 50 3 51 8 10 73 6 80 -51 84 l-45 3 -3 78 -3 77 56 0 55 0 0 45 0 45
-85 0 -85 0 0 -305z"/>
<path d="M1647 609 c-44 -34 -57 -101 -57 -285 0 -180 11 -253 43 -290 50 -56
135 -31 159 48 18 60 18 419 0 470 -26 72 -93 99 -145 57z m85 -96 c15 -37 15
-358 0 -395 -7 -18 -19 -28 -31 -28 -39 0 -46 34 -46 225 0 191 7 225 46 225
12 0 24 -11 31 -27z"/>
<path d="M2448 610 c-33 -26 -52 -96 -45 -169 6 -69 25 -110 83 -174 47 -52
63 -102 48 -146 -10 -28 -40 -39 -57 -22 -6 6 -13 30 -16 53 -5 38 -9 43 -35
46 l-28 4 4 -72 c3 -66 6 -75 36 -101 37 -33 60 -36 103 -13 41 21 59 68 59
154 0 86 -15 125 -75 193 -50 57 -65 95 -55 142 5 24 11 30 30 30 21 0 26 -7
34 -42 9 -38 13 -43 38 -43 26 0 28 3 28 40 0 47 -23 107 -48 126 -25 20 -76
17 -104 -6z"/>
<path d="M2704 612 c-36 -30 -47 -63 -47 -141 0 -88 15 -126 87 -209 41 -47
46 -59 46 -101 0 -50 -13 -71 -42 -71 -17 0 -38 51 -38 93 0 12 -8 17 -30 17
-29 0 -30 -2 -30 -42 0 -90 40 -158 92 -158 38 0 86 31 100 63 14 35 18 156 5
200 -4 15 -32 57 -63 93 -57 67 -73 108 -60 158 5 19 13 26 30 26 24 0 36 -21
36 -67 0 -19 6 -23 30 -23 29 0 30 1 30 50 0 56 -20 104 -49 120 -29 15 -73
12 -97 -8z"/>
<path d="M40 315 l0 -305 59 0 c84 0 105 11 132 67 23 45 24 58 24 238 0 207
-8 250 -52 285 -20 16 -41 20 -94 20 l-69 0 0 -305z m143 180 c5 -16 9 -98 9
-181 0 -171 -9 -207 -55 -212 l-27 -3 0 216 0 216 32 -3 c25 -2 33 -9 41 -33z"/>
<path d="M320 315 l0 -305 90 0 90 0 0 45 0 44 -57 3 -58 3 0 90 0 90 53 3 52
3 0 39 0 39 -52 3 -53 3 -3 78 -3 77 56 0 c37 0 55 4 56 13 1 6 2 26 3 42 l1
30 -87 3 -88 3 0 -306z"/>
<path d="M650 315 l0 -305 30 0 30 0 0 130 c0 122 1 130 19 130 44 0 58 -42
64 -195 2 -57 3 -60 30 -63 l27 -3 0 110 c0 117 -9 156 -41 179 l-20 14 20 14
c38 27 53 136 30 219 -18 66 -32 75 -116 75 l-73 0 0 -305z"/>
<path d="M910 315 l0 -305 85 0 85 0 0 45 0 45 -55 0 -55 0 0 95 0 95 50 0 50
0 0 40 0 40 -50 0 -50 0 0 80 0 80 55 0 55 0 0 45 0 45 -85 0 -85 0 0 -305z"/>
<path d="M1130 314 l0 -305 33 3 32 3 3 133 3 132 44 0 45 0 0 45 0 45 -45 0
-45 0 0 80 0 80 50 0 50 0 0 45 0 45 -85 0 -85 0 0 -306z"/>
<path d="M1338 610 c-1 -5 -2 -143 0 -305 l3 -295 29 0 30 0 0 130 c0 122 1
130 19 130 37 0 51 -37 51 -136 0 -113 4 -124 42 -124 l31 0 -7 61 c-3 34 -6
90 -6 125 0 53 -4 67 -26 93 -14 17 -22 31 -17 31 31 0 56 117 42 199 -13 81
-36 101 -120 101 -37 0 -69 -4 -71 -10z"/>
<path d="M1870 315 l0 -305 30 0 30 0 0 305 0 305 -30 0 -30 0 0 -305z"/>
<path d="M2000 315 l0 -305 64 0 c77 0 106 19 133 88 26 67 25 362 -1 439 -23
70 -44 83 -128 83 l-68 0 0 -305z m136 180 c10 -25 14 -75 14 -180 0 -175 -11
-215 -59 -215 l-31 0 0 215 0 215 31 0 c25 0 32 -6 45 -35z"/>
<path d="M2280 315 l0 -305 30 0 30 0 0 305 0 305 -30 0 -30 0 0 -305z"/>
<path d="M2910 315 l0 -305 90 0 90 0 0 45 0 45 -55 0 -55 0 0 95 0 95 50 0
50 0 0 40 c0 43 -1 43 -62 40 l-38 -2 0 81 0 81 55 0 55 0 0 45 0 45 -90 0
-90 0 0 -305z"/>
<path d="M3140 315 l0 -305 30 0 30 0 0 237 c0 130 2 234 4 232 3 -2 16 -97
31 -209 35 -274 31 -260 65 -260 32 0 27 -24 67 270 l28 205 3 -237 2 -238 30
0 30 0 0 305 0 305 -49 0 c-39 0 -51 -4 -55 -17 -2 -10 -15 -102 -27 -205 -13
-103 -26 -184 -30 -180 -3 4 -16 96 -29 205 l-24 197 -53 0 -53 0 0 -305z"/>
<path d="M3520 315 l0 -305 90 0 90 0 0 45 0 44 -56 3 -56 3 0 90 -1 90 51 3
52 3 0 40 0 39 -50 0 -50 0 0 70 c0 39 0 73 0 78 0 4 25 8 55 10 l55 3 0 44 0
45 -90 0 -90 0 0 -305z"/>
<path d="M3750 315 l0 -305 30 0 30 0 1 223 c0 122 3 215 7 207 3 -8 24 -107
47 -220 l41 -205 42 -3 42 -3 0 305 0 306 -30 0 -30 0 -1 -207 c-1 -233 3
-236 -54 37 -14 69 -28 135 -31 148 -4 19 -11 22 -49 22 l-45 0 0 -305z"/>
<path d="M4030 570 l0 -50 40 0 40 0 0 -255 0 -255 30 0 30 0 0 255 0 255 40
0 40 0 0 50 0 50 -110 0 -110 0 0 -50z"/>
</g>
</svg>
