<?xml version="1.0" standalone="no"?>
<!DOCTYPE svg PUBLIC "-//W3C//DTD SVG 20010904//EN"
 "http://www.w3.org/TR/2001/REC-SVG-20010904/DTD/svg10.dtd">
<svg version="1.0" xmlns="http://www.w3.org/2000/svg"
 width="800.000000pt" height="203.000000pt" viewBox="0 0 800.000000 203.000000"
 preserveAspectRatio="xMidYMid meet">
<metadata>
Created by potrace 1.12, written by Peter Selinger 2001-2015
</metadata>
<g transform="translate(0.000000,203.000000) scale(0.100000,-0.100000)"
fill="#000000" stroke="none">
<path d="M275 2016 c-97 -24 -189 -96 -234 -183 -40 -80 -42 -128 -39 -858 l3
-700 27 -57 c51 -109 142 -182 256 -207 67 -14 1375 -16 1450 -1 116 22 212
94 260 198 l27 57 0 755 0 755 -35 64 c-39 72 -108 134 -187 166 -46 19 -75
20 -763 22 -539 1 -727 -1 -765 -11z m1515 -45 c75 -29 134 -81 169 -153 43
-86 42 -93 -26 -118 -136 -51 -153 -61 -153 -89 0 -53 -31 -132 -68 -173 -41
-46 -158 -106 -307 -157 -103 -36 -137 -64 -221 -184 -30 -43 -66 -83 -79 -89
-51 -23 -115 18 -115 75 0 31 41 97 152 240 l37 48 -20 32 c-13 22 -19 50 -19
90 0 66 -1 67 -90 24 -52 -25 -89 -87 -98 -163 -4 -39 -13 -55 -58 -100 l-52
-54 -31 50 c-19 30 -31 64 -31 84 0 41 121 330 152 363 13 14 115 60 262 118
133 52 286 112 341 134 116 46 178 51 255 22z m-690 -681 c0 -3 -26 -39 -56
-80 -72 -95 -81 -119 -60 -162 l17 -32 -233 -233 -232 -233 44 -45 44 -45
-172 0 -172 0 0 172 0 172 45 -44 45 -45 327 328 328 327 37 -37 c21 -20 38
-40 38 -43z m400 -117 c0 -133 -9 -153 -67 -153 -55 0 -69 24 -77 130 -4 51
-5 94 -3 96 9 9 133 51 140 47 4 -2 7 -56 7 -120z m-38 -240 l218 -217 45 44
45 44 0 -174 0 -175 -172 3 -171 3 44 45 43 44 -182 183 -182 182 0 57 c0 50
5 63 42 117 23 34 44 61 47 61 3 0 104 -98 223 -217z m-392 63 c19 0 43 4 53
8 16 8 17 -10 17 -293 l0 -301 62 0 62 0 -114 -119 c-63 -65 -120 -119 -125
-120 -6 0 -64 53 -130 119 l-120 120 68 0 67 0 0 248 0 247 48 52 c31 34 52
49 62 45 8 -3 31 -6 50 -6z"/>
</g>
</svg>
