<?xml version="1.0" standalone="no"?>
<!DOCTYPE svg PUBLIC "-//W3C//DTD SVG 20010904//EN"
 "http://www.w3.org/TR/2001/REC-SVG-20010904/DTD/svg10.dtd">
<svg version="1.0" xmlns="http://www.w3.org/2000/svg"
 width="800.000000pt" height="203.000000pt" viewBox="0 0 800.000000 203.000000"
 preserveAspectRatio="xMidYMid meet">
<metadata>
Created by potrace 1.12, written by Peter Selinger 2001-2015
</metadata>
<g transform="translate(0.000000,203.000000) scale(0.100000,-0.100000)"
fill="#000000" stroke="none">
<path d="M275 2016 c-97 -24 -189 -96 -234 -183 -40 -80 -42 -128 -39 -858 l3
-700 27 -57 c51 -109 142 -182 256 -207 67 -14 1375 -16 1450 -1 116 22 212
94 260 198 l27 57 0 755 0 755 -35 64 c-39 72 -108 134 -187 166 -46 19 -75
20 -763 22 -539 1 -727 -1 -765 -11z m1515 -45 c75 -29 134 -81 169 -153 43
-86 42 -93 -26 -118 -136 -51 -153 -61 -153 -89 0 -53 -31 -132 -68 -173 -41
-46 -158 -106 -307 -157 -103 -36 -137 -64 -221 -184 -30 -43 -66 -83 -79 -89
-51 -23 -115 18 -115 75 0 31 41 97 152 240 l37 48 -20 32 c-13 22 -19 50 -19
90 0 66 -1 67 -90 24 -52 -25 -89 -87 -98 -163 -4 -39 -13 -55 -58 -100 l-52
-54 -31 50 c-19 30 -31 64 -31 84 0 41 121 330 152 363 13 14 115 60 262 118
133 52 286 112 341 134 116 46 178 51 255 22z m-690 -681 c0 -3 -26 -39 -56
-80 -72 -95 -81 -119 -60 -162 l17 -32 -233 -233 -232 -233 44 -45 44 -45
-172 0 -172 0 0 172 0 172 45 -44 45 -45 327 328 328 327 37 -37 c21 -20 38
-40 38 -43z m400 -117 c0 -133 -9 -153 -67 -153 -55 0 -69 24 -77 130 -4 51
-5 94 -3 96 9 9 133 51 140 47 4 -2 7 -56 7 -120z m-38 -240 l218 -217 45 44
45 44 0 -174 0 -175 -172 3 -171 3 44 45 43 44 -182 183 -182 182 0 57 c0 50
5 63 42 117 23 34 44 61 47 61 3 0 104 -98 223 -217z m-392 63 c19 0 43 4 53
8 16 8 17 -10 17 -293 l0 -301 62 0 62 0 -114 -119 c-63 -65 -120 -119 -125
-120 -6 0 -64 53 -130 119 l-120 120 68 0 67 0 0 248 0 247 48 52 c31 34 52
49 62 45 8 -3 31 -6 50 -6z"/>
<path d="M3572 1420 c-11 -8 -122 -159 -122 -165 0 -3 20 -5 45 -5 43 0 50 4
130 81 47 45 85 85 85 88 0 7 -129 8 -138 1z"/>
<path d="M5250 1421 c0 -2 26 -41 57 -87 l57 -84 49 0 c43 0 48 2 42 18 -4 9
-18 47 -32 85 -14 37 -30 67 -37 67 -89 4 -136 4 -136 1z"/>
<path d="M7353 1392 c-55 -3 -63 -6 -68 -25 -14 -64 -25 -113 -25 -119 0 -5
31 -8 70 -8 l69 0 7 38 c3 20 10 54 14 75 4 20 5 38 1 40 -3 1 -34 1 -68 -1z"/>
<path d="M2526 1373 c-3 -10 -37 -196 -76 -413 -39 -217 -74 -405 -77 -418
l-6 -24 199 4 c178 3 204 5 245 24 66 31 121 84 167 162 131 222 147 516 35
620 -54 50 -84 56 -290 60 -179 4 -191 3 -197 -15z m345 -149 c41 -21 59 -68
59 -157 0 -125 -48 -275 -109 -340 -44 -48 -72 -57 -176 -57 -109 0 -103 -9
-81 110 7 41 28 156 45 255 18 99 34 186 36 193 7 19 188 16 226 -4z"/>
<path d="M4461 983 c-40 -225 -75 -420 -78 -435 l-5 -28 69 0 70 0 22 128 c55
307 63 332 120 369 57 38 122 27 142 -24 8 -23 -22 -225 -67 -446 l-6 -27 70
0 c69 0 71 1 76 28 3 15 22 117 42 227 43 243 43 309 -1 355 -67 70 -179 62
-262 -20 -18 -18 -33 -28 -33 -24 0 5 11 70 25 144 14 74 25 141 25 148 0 8
-20 12 -68 12 l-67 0 -74 -407z"/>
<path d="M5837 1327 c-3 -7 -11 -48 -17 -90 l-13 -77 -38 0 c-36 0 -38 -2 -44
-37 -4 -21 -9 -46 -12 -55 -4 -18 9 -23 50 -20 23 2 22 -2 -18 -222 -43 -232
-44 -258 -9 -285 30 -23 99 -36 148 -27 28 5 36 12 40 36 3 17 9 43 12 60 5
29 5 30 -35 30 -41 0 -41 0 -40 38 0 20 15 111 32 202 l32 165 45 3 c24 2 45
4 46 5 1 1 5 26 9 55 l7 52 -42 0 -43 0 7 38 c3 20 9 61 12 90 l7 52 -66 0
c-44 0 -66 -4 -70 -13z"/>
<path d="M3404 1166 c-67 -21 -103 -48 -150 -109 -119 -159 -131 -440 -21
-514 68 -47 184 -51 265 -9 52 27 142 125 142 155 0 7 -25 11 -66 11 -58 0
-68 -3 -86 -25 -22 -28 -78 -46 -118 -38 -48 9 -72 44 -74 105 l-1 53 190 5
189 5 9 45 c4 25 6 77 4 115 -6 112 -48 176 -131 200 -59 18 -97 18 -152 1z
m107 -139 c25 -19 39 -52 39 -91 l0 -36 -116 0 c-115 0 -115 0 -108 23 24 77
67 117 128 117 22 0 48 -6 57 -13z"/>
<path d="M4038 1166 c-99 -27 -175 -110 -219 -241 -85 -253 -19 -419 165 -419
118 1 225 76 274 193 l21 51 -69 0 -69 0 -21 -38 c-38 -68 -113 -92 -161 -53
-22 17 -24 27 -24 103 0 185 81 301 190 274 19 -5 28 -17 37 -51 l12 -45 69 0
69 0 -4 65 c-3 53 -9 71 -34 102 -52 64 -137 86 -236 59z"/>
<path d="M5309 1166 c-144 -39 -249 -218 -249 -424 0 -94 15 -137 62 -182 44
-44 82 -55 169 -53 95 2 180 58 238 156 l23 37 -69 0 c-61 0 -72 -3 -93 -25
-34 -36 -90 -49 -134 -31 -43 18 -56 42 -56 105 l0 51 189 0 188 0 7 38 c12
76 6 186 -13 227 -43 96 -142 134 -262 101z m116 -151 c19 -18 25 -35 25 -70
l0 -45 -115 0 -115 0 10 25 c32 85 66 114 133 115 27 0 45 -7 62 -25z"/>
<path d="M6327 1170 c-154 -39 -257 -210 -257 -427 0 -162 65 -235 211 -237
81 0 162 35 212 94 39 46 63 88 54 96 -3 3 -33 6 -67 5 -53 0 -64 -4 -81 -26
-11 -13 -37 -29 -57 -35 -79 -21 -135 23 -136 107 l-1 48 191 3 191 2 7 47
c21 154 -13 266 -94 308 -37 19 -125 27 -173 15z m88 -136 c23 -9 45 -57 45
-99 l0 -35 -116 0 c-115 0 -115 0 -109 23 11 35 45 86 68 102 22 15 82 20 112
9z"/>
<path d="M7020 1158 c-25 -13 -59 -42 -77 -66 -35 -46 -37 -43 -24 26 l8 42
-66 0 -67 0 -53 -292 c-29 -161 -55 -305 -58 -320 l-5 -28 71 0 c39 0 71 4 71
9 0 4 16 93 35 196 29 156 39 194 61 222 30 40 77 63 128 63 29 0 37 4 40 23
14 64 26 129 26 137 0 17 -44 11 -90 -12z"/>
<path d="M7712 1165 c-109 -34 -185 -124 -225 -265 -50 -178 -21 -316 77 -371
49 -27 161 -31 217 -7 61 26 169 137 169 172 0 7 -24 10 -70 8 -62 -3 -73 -7
-86 -28 -21 -32 -78 -47 -128 -33 -44 12 -69 58 -64 117 l3 37 187 3 187 2 8
38 c11 57 9 173 -5 213 -36 104 -149 152 -270 114z m104 -133 c19 -12 44 -70
44 -102 l0 -30 -115 0 c-63 0 -115 4 -115 9 0 24 33 82 60 105 23 19 43 26 73
26 23 0 47 -4 53 -8z"/>
<path d="M7191 857 c-30 -166 -56 -310 -59 -319 -4 -16 4 -18 66 -18 69 0 71
1 76 27 18 90 106 585 106 598 0 12 -14 15 -67 15 l-68 0 -54 -303z"/>
</g>
</svg>
