<?xml version="1.0" standalone="no"?>
<!DOCTYPE svg PUBLIC "-//W3C//DTD SVG 20010904//EN"
 "http://www.w3.org/TR/2001/REC-SVG-20010904/DTD/svg10.dtd">
<svg version="1.0" xmlns="http://www.w3.org/2000/svg"
 width="489.000000pt" height="600.000000pt" viewBox="0 0 489.000000 600.000000"
 preserveAspectRatio="xMidYMid meet">
<metadata>
Created by potrace 1.12, written by Peter Selinger 2001-2015
</metadata>
<g transform="translate(0.000000,600.000000) scale(0.100000,-0.100000)"
fill="#000000" stroke="none">
<path d="M741 5989 c-339 -44 -616 -290 -713 -634 l-23 -80 -3 -1655 c-2
-1204 0 -1681 8 -1749 13 -104 45 -212 89 -299 38 -74 137 -199 192 -242 24
-19 46 -37 49 -40 17 -20 109 -74 176 -104 175 -76 37 -71 1934 -71 l1695 0
87 22 c314 80 541 304 631 622 l21 76 4 1655 c2 1152 0 1684 -8 1750 -45 392
-351 702 -740 750 -103 12 -3302 12 -3399 -1z m3499 -127 c225 -70 400 -229
487 -442 55 -138 54 -73 51 -1905 l-3 -1690 -28 -80 c-55 -154 -122 -253 -240
-353 -69 -60 -189 -121 -287 -149 -62 -17 -153 -18 -1770 -18 -1915 0 -1761
-6 -1925 75 -192 95 -331 265 -392 480 -17 62 -18 145 -18 1780 l0 1715 23 75
c64 202 194 361 371 453 78 41 154 67 225 77 28 4 812 7 1741 6 l1690 -1 75
-23z"/>
<path d="M3414 5581 c-182 -29 -320 -123 -458 -311 -31 -41 -59 -79 -63 -85
-34 -43 -222 -295 -233 -312 -8 -12 -60 -82 -116 -155 -282 -372 -831 -1109
-862 -1156 -18 -30 -45 -86 -59 -125 -22 -62 -26 -90 -27 -195 l-1 -122 -30
-5 c-570 -90 -878 -210 -968 -380 -21 -38 -22 -54 -25 -362 -2 -203 1 -336 7
-361 74 -271 742 -456 1731 -478 854 -20 1656 122 1903 336 26 23 59 63 75 88
l27 47 0 345 0 345 -27 47 c-76 128 -254 220 -592 303 -125 31 -372 72 -538
90 -52 6 -73 17 -50 27 4 2 156 201 337 443 180 242 349 467 373 500 25 33
105 139 178 235 208 276 233 329 241 505 11 237 -72 398 -289 563 -163 123
-264 166 -413 176 -39 3 -93 1 -121 -3z m246 -219 c74 -29 266 -175 308 -234
98 -138 105 -336 19 -471 -19 -29 -163 -224 -320 -434 l-286 -382 -43 -6 c-59
-9 -185 19 -281 61 -172 75 -328 213 -424 374 -30 50 -57 143 -49 171 3 13 50
81 104 151 53 70 180 239 282 375 102 136 203 267 224 291 45 49 107 88 181
115 68 24 208 19 285 -11z m-1158 -1241 c61 -93 177 -214 273 -285 116 -86
300 -167 410 -183 25 -3 44 -9 43 -13 -2 -4 -82 -113 -178 -242 l-175 -235
-295 5 c-263 4 -650 -8 -751 -24 l-36 -6 -7 55 c-9 70 8 166 41 231 14 28 155
223 312 434 235 313 288 379 296 365 6 -9 35 -55 67 -102z m270 -1151 c625
-33 1145 -144 1311 -281 48 -40 48 -68 0 -108 -148 -122 -575 -224 -1143 -273
-192 -16 -782 -16 -985 0 -567 46 -1004 151 -1154 277 -62 52 -30 98 114 166
140 65 309 112 560 153 390 65 856 88 1297 66z m-1976 -609 c5 -6 50 -26 101
-45 341 -132 802 -201 1418 -213 729 -14 1426 82 1737 238 32 16 62 29 67 29
5 0 9 -66 8 -161 l-2 -161 -34 -28 c-181 -152 -715 -263 -1396 -290 -744 -30
-1525 74 -1828 244 -100 56 -98 51 -104 235 -3 131 -2 161 9 161 8 0 18 -4 24
-9z"/>
<path d="M2048 724 c-64 -34 -82 -126 -75 -390 2 -114 10 -216 17 -238 23 -76
85 -111 146 -83 45 22 65 66 71 159 l6 78 -35 0 -35 0 -6 -62 c-8 -89 -52
-115 -76 -46 -14 41 -14 415 0 456 22 62 69 44 69 -27 0 -47 9 -58 45 -62 27
-4 30 -1 33 29 2 18 -2 58 -8 89 -21 97 -81 136 -152 97z"/>
<path d="M4014 731 c-98 -42 -108 -274 -17 -377 64 -71 83 -98 92 -132 15 -53
-1 -108 -33 -114 -29 -6 -44 17 -53 77 -6 44 -7 45 -41 45 l-35 0 5 -72 c7
-90 21 -122 65 -143 68 -33 141 5 163 84 5 20 10 70 10 111 0 90 -20 139 -83
207 -64 70 -77 93 -77 134 0 47 8 67 30 79 27 15 50 -13 50 -61 l0 -39 41 0
42 0 -6 60 c-7 62 -24 107 -50 129 -20 16 -77 23 -103 12z"/>
<path d="M782 373 l3 -358 30 0 30 0 5 265 c3 146 8 254 12 240 4 -14 21 -130
38 -259 19 -152 34 -237 42 -243 19 -12 44 -10 55 5 6 6 25 130 44 275 l34
262 5 -272 5 -273 35 0 35 0 0 355 0 355 -60 0 -60 0 -30 -232 c-16 -127 -33
-234 -36 -237 -3 -3 -19 101 -35 232 l-29 237 -63 3 -62 3 2 -358z"/>
<path d="M1232 373 l3 -358 103 -3 102 -3 0 55 0 56 -70 0 -70 0 0 105 0 105
60 0 60 0 0 55 0 55 -60 0 -60 0 0 90 0 90 65 0 65 0 0 55 0 55 -100 0 -100 0
2 -357z"/>
<path d="M1502 374 l3 -359 79 2 c67 3 84 7 104 25 51 49 56 75 57 318 0 242
-7 288 -49 337 -22 26 -31 28 -110 32 l-86 3 2 -358z m156 214 c30 -64 23
-415 -9 -454 -6 -8 -27 -14 -45 -14 l-34 0 0 251 0 250 37 -3 c30 -2 41 -9 51
-30z"/>
<path d="M1827 724 c-4 -4 -7 -164 -7 -356 l0 -348 40 0 40 0 -2 353 -3 352
-30 3 c-17 2 -34 0 -38 -4z"/>
<path d="M2346 703 c-3 -16 -26 -165 -51 -333 -25 -168 -48 -317 -51 -333 -5
-24 -3 -27 23 -27 44 0 51 10 60 85 l8 70 63 3 62 3 1 -38 c0 -21 3 -56 7 -78
7 -38 9 -40 45 -41 44 -2 43 -7 22 132 -38 254 -85 577 -85 580 0 2 -22 4 -49
4 -46 0 -50 -2 -55 -27z"/>
<path d="M2600 375 l0 -355 24 -6 c14 -3 30 -3 35 1 7 4 11 97 12 273 1 157 4
253 9 232 4 -19 20 -138 36 -265 15 -126 32 -233 38 -237 11 -7 54 -3 63 5 2
3 19 121 39 263 19 142 37 260 39 263 3 2 5 -116 5 -262 l0 -267 35 0 35 0 0
355 0 355 -54 0 c-30 0 -57 -4 -61 -10 -3 -5 -19 -111 -35 -236 -16 -125 -31
-229 -34 -231 -5 -6 -11 34 -36 242 -31 262 -21 235 -90 235 l-60 0 0 -355z"/>
<path d="M3042 373 l3 -358 100 0 100 0 3 53 3 52 -65 0 -66 0 0 105 0 104 58
3 57 3 3 53 3 52 -60 0 -61 0 0 90 0 90 65 0 65 0 0 55 0 55 -105 0 -105 0 2
-357z"/>
<path d="M3317 723 c-4 -3 -7 -163 -7 -354 l0 -347 23 -6 c49 -13 47 -22 48
257 0 159 4 254 9 242 5 -11 30 -126 56 -255 25 -129 48 -239 51 -243 3 -4 26
-7 51 -5 l47 3 0 355 0 355 -32 3 -33 3 -1 -248 c0 -161 -4 -241 -10 -228 -5
11 -29 118 -54 238 -25 121 -48 223 -51 228 -6 10 -87 12 -97 2z"/>
<path d="M3640 670 l0 -60 45 0 45 0 0 -298 c0 -327 -4 -308 57 -296 l22 4 -2
295 -2 295 42 0 c23 0 44 3 46 8 2 4 2 31 -1 60 l-4 52 -124 0 -124 0 0 -60z"/>
</g>
</svg>
