<?xml version="1.0" standalone="no"?>
<!DOCTYPE svg PUBLIC "-//W3C//DTD SVG 20010904//EN"
 "http://www.w3.org/TR/2001/REC-SVG-20010904/DTD/svg10.dtd">
<svg version="1.0" xmlns="http://www.w3.org/2000/svg"
 width="489.000000pt" height="600.000000pt" viewBox="0 0 489.000000 600.000000"
 preserveAspectRatio="xMidYMid meet">
<metadata>
Created by potrace 1.12, written by Peter Selinger 2001-2015
</metadata>
<g transform="translate(0.000000,600.000000) scale(0.100000,-0.100000)"
fill="#000000" stroke="none">
<path d="M741 5989 c-339 -44 -616 -290 -713 -634 l-23 -80 -3 -1655 c-2
-1204 0 -1681 8 -1749 13 -104 45 -212 89 -299 38 -74 137 -199 192 -242 24
-19 46 -37 49 -40 17 -20 109 -74 176 -104 175 -76 37 -71 1934 -71 l1695 0
87 22 c314 80 541 304 631 622 l21 76 4 1655 c2 1152 0 1684 -8 1750 -45 392
-351 702 -740 750 -103 12 -3302 12 -3399 -1z m3499 -127 c225 -70 400 -229
487 -442 55 -138 54 -73 51 -1905 l-3 -1690 -28 -80 c-55 -154 -122 -253 -240
-353 -69 -60 -189 -121 -287 -149 -62 -17 -153 -18 -1770 -18 -1915 0 -1761
-6 -1925 75 -192 95 -331 265 -392 480 -17 62 -18 145 -18 1780 l0 1715 23 75
c64 202 194 361 371 453 78 41 154 67 225 77 28 4 812 7 1741 6 l1690 -1 75
-23z"/>
<path d="M3414 5581 c-182 -29 -320 -123 -458 -311 -31 -41 -59 -79 -63 -85
-34 -43 -222 -295 -233 -312 -8 -12 -60 -82 -116 -155 -282 -372 -831 -1109
-862 -1156 -18 -30 -45 -86 -59 -125 -22 -62 -26 -90 -27 -195 l-1 -122 -30
-5 c-570 -90 -878 -210 -968 -380 -21 -38 -22 -54 -25 -362 -2 -203 1 -336 7
-361 74 -271 742 -456 1731 -478 854 -20 1656 122 1903 336 26 23 59 63 75 88
l27 47 0 345 0 345 -27 47 c-76 128 -254 220 -592 303 -125 31 -372 72 -538
90 -52 6 -73 17 -50 27 4 2 156 201 337 443 180 242 349 467 373 500 25 33
105 139 178 235 208 276 233 329 241 505 11 237 -72 398 -289 563 -163 123
-264 166 -413 176 -39 3 -93 1 -121 -3z m246 -219 c74 -29 266 -175 308 -234
98 -138 105 -336 19 -471 -19 -29 -163 -224 -320 -434 l-286 -382 -43 -6 c-59
-9 -185 19 -281 61 -172 75 -328 213 -424 374 -30 50 -57 143 -49 171 3 13 50
81 104 151 53 70 180 239 282 375 102 136 203 267 224 291 45 49 107 88 181
115 68 24 208 19 285 -11z m-1158 -1241 c61 -93 177 -214 273 -285 116 -86
300 -167 410 -183 25 -3 44 -9 43 -13 -2 -4 -82 -113 -178 -242 l-175 -235
-295 5 c-263 4 -650 -8 -751 -24 l-36 -6 -7 55 c-9 70 8 166 41 231 14 28 155
223 312 434 235 313 288 379 296 365 6 -9 35 -55 67 -102z m270 -1151 c625
-33 1145 -144 1311 -281 48 -40 48 -68 0 -108 -148 -122 -575 -224 -1143 -273
-192 -16 -782 -16 -985 0 -567 46 -1004 151 -1154 277 -62 52 -30 98 114 166
140 65 309 112 560 153 390 65 856 88 1297 66z m-1976 -609 c5 -6 50 -26 101
-45 341 -132 802 -201 1418 -213 729 -14 1426 82 1737 238 32 16 62 29 67 29
5 0 9 -66 8 -161 l-2 -161 -34 -28 c-181 -152 -715 -263 -1396 -290 -744 -30
-1525 74 -1828 244 -100 56 -98 51 -104 235 -3 131 -2 161 9 161 8 0 18 -4 24
-9z"/>
</g>
</svg>
