<?xml version="1.0" standalone="no"?>
<!DOCTYPE svg PUBLIC "-//W3C//DTD SVG 20010904//EN"
 "http://www.w3.org/TR/2001/REC-SVG-20010904/DTD/svg10.dtd">
<svg version="1.0" xmlns="http://www.w3.org/2000/svg"
 width="488.000000pt" height="600.000000pt" viewBox="0 0 488.000000 600.000000"
 preserveAspectRatio="xMidYMid meet">
<metadata>
Created by potrace 1.12, written by Peter Selinger 2001-2015
</metadata>
<g transform="translate(0.000000,600.000000) scale(0.100000,-0.100000)"
fill="#000000" stroke="none">
<path d="M770 5993 c-96 -10 -252 -56 -310 -91 -237 -145 -363 -304 -432 -547
l-23 -80 -3 -1650 c-2 -1106 0 -1680 7 -1741 25 -214 110 -385 266 -533 119
-113 266 -188 425 -217 111 -20 3369 -20 3480 0 154 28 296 99 413 206 163
150 252 324 278 544 7 61 9 635 7 1741 l-3 1650 -23 80 c-98 348 -374 591
-722 634 -79 10 -3269 14 -3360 4z m3480 -137 c124 -41 213 -97 305 -190 87
-88 143 -181 187 -311 l23 -70 3 -1680 c2 -1160 -1 -1702 -8 -1750 -24 -153
-99 -301 -207 -407 -98 -97 -177 -145 -308 -189 l-70 -24 -1695 -3 c-1201 -2
-1714 0 -1759 8 -306 53 -553 305 -601 615 -7 48 -10 589 -8 1750 4 1890 -4
1706 84 1884 98 199 307 353 530 391 27 4 812 7 1744 6 l1695 -1 85 -29z"/>
<path d="M1085 5319 c-126 -18 -285 -128 -285 -199 0 -40 39 -80 79 -80 20 0
45 14 82 45 58 50 121 75 188 75 53 1 531 -148 531 -165 0 -6 -38 -120 -84
-255 -46 -135 -112 -329 -147 -432 l-63 -186 -64 24 c-36 13 -74 24 -86 24
-35 0 -63 -27 -81 -77 -9 -27 -83 -244 -165 -483 -81 -239 -164 -482 -184
-540 -20 -58 -50 -144 -66 -192 -52 -155 -109 -250 -229 -381 -77 -84 -87
-113 -51 -155 10 -13 35 -26 54 -29 30 -5 40 0 82 38 72 67 176 200 221 286
23 43 75 177 116 298 41 121 137 402 212 625 76 223 141 408 145 413 9 10 220
-64 220 -78 0 -6 -66 -204 -146 -441 -80 -236 -175 -514 -210 -617 -89 -261
-125 -328 -249 -458 -69 -73 -84 -95 -85 -127 0 -35 43 -72 85 -72 30 0 44 9
96 62 154 158 214 265 319 573 39 116 139 408 222 650 83 242 153 455 156 473
9 63 -11 81 -145 127 -8 3 29 126 116 382 145 426 169 494 174 499 2 2 30 -5
63 -15 32 -11 145 -47 249 -81 196 -63 220 -74 268 -119 32 -29 77 -110 77
-139 0 -42 22 -81 55 -97 32 -14 37 -14 65 0 45 23 55 53 41 122 -15 79 -56
158 -109 215 -87 93 -57 81 -877 347 -488 157 -478 155 -590 140z"/>
<path d="M2905 4845 c-47 -17 -65 -38 -65 -76 0 -57 50 -82 234 -119 77 -15
160 -31 184 -35 23 -4 42 -9 42 -11 0 -3 -57 -71 -126 -151 -69 -80 -131 -154
-137 -165 -11 -17 -42 -18 -663 -18 l-651 0 -23 -25 c-13 -14 -23 -37 -23 -52
0 -46 367 -1417 387 -1448 20 -31 61 -37 237 -34 82 1 151 0 154 -3 3 -2 12
-42 20 -87 40 -209 132 -380 285 -532 116 -115 273 -206 437 -251 66 -19 104
-22 253 -23 163 0 181 2 269 28 540 161 841 719 674 1252 -135 432 -548 716
-1004 691 l-116 -6 -17 62 c-8 35 -31 122 -51 193 -39 148 -41 161 -20 182 9
8 64 72 123 141 59 69 125 145 147 168 l40 44 120 -25 c152 -32 188 -31 253 1
69 34 96 74 96 139 0 64 -28 112 -86 145 l-43 25 -445 2 c-366 2 -452 0 -485
-12z m109 -743 c7 -12 96 -341 96 -356 0 -7 -35 -30 -77 -51 -113 -55 -178
-100 -267 -185 -92 -88 -148 -163 -205 -278 -42 -84 -91 -243 -91 -297 0 -54
-5 -56 -150 -53 l-133 3 -63 240 c-35 132 -107 400 -159 597 -52 196 -95 363
-95 372 0 14 56 16 569 16 314 0 572 -4 575 -8z m671 -512 c288 -92 490 -304
566 -590 30 -115 30 -289 0 -405 -75 -290 -300 -518 -588 -597 -115 -31 -317
-31 -428 0 -237 68 -418 218 -524 436 -44 89 -81 210 -81 263 0 17 22 18 426
18 l426 0 24 28 c13 15 24 37 24 49 0 11 -47 198 -105 416 -58 217 -105 399
-105 404 0 7 56 8 148 6 116 -4 162 -10 217 -28z m-512 -72 c24 -84 167 -627
167 -633 0 -3 -160 -5 -355 -5 l-355 0 0 23 c0 36 38 171 65 233 55 124 178
272 285 342 53 34 158 90 172 91 4 1 13 -23 21 -51z"/>
<path d="M1517 724 c-4 -4 -7 -164 -7 -355 l0 -347 27 -5 c16 -3 31 -3 35 0 5
2 8 124 8 270 0 147 3 263 7 260 3 -4 21 -122 39 -264 20 -160 37 -259 45
-264 14 -8 49 -4 59 8 4 5 22 125 41 268 l34 260 3 -265 c1 -145 6 -268 11
-273 5 -5 23 -6 40 -2 l31 7 -2 351 -3 352 -39 3 c-84 7 -78 19 -110 -235 -16
-125 -32 -232 -36 -236 -4 -4 -20 99 -36 230 l-29 238 -55 3 c-31 2 -59 0 -63
-4z"/>
<path d="M1960 375 l0 -355 23 -5 c12 -3 58 -5 102 -3 l80 3 3 53 3 52 -70 0
-71 0 0 105 0 105 60 0 60 0 0 55 0 55 -60 0 -60 0 0 90 0 90 65 0 65 0 0 55
0 55 -100 0 -100 0 0 -355z"/>
<path d="M2194 716 c-3 -7 -4 -33 -2 -57 3 -44 3 -44 46 -47 l42 -3 0 -295 c0
-188 4 -294 10 -295 6 -1 19 -1 30 -1 11 0 25 0 30 1 6 1 10 107 10 296 l0
295 45 0 46 0 -3 58 -3 57 -123 3 c-98 2 -123 0 -128 -12z"/>
<path d="M2535 708 c-2 -13 -25 -162 -50 -333 -26 -171 -49 -320 -52 -332 -6
-27 15 -38 51 -29 22 5 25 13 32 73 4 38 7 71 6 75 -1 5 25 8 57 8 67 0 65 2
77 -92 3 -32 9 -58 13 -59 43 -8 71 -5 71 7 0 8 -22 167 -50 355 -27 188 -50
343 -50 345 0 2 -22 4 -50 4 -43 0 -50 -3 -55 -22z"/>
<path d="M2790 430 c0 -249 3 -307 15 -338 37 -86 99 -112 165 -68 64 42 70
78 70 418 l0 289 -32 -3 -33 -3 -5 -285 c-3 -157 -9 -293 -14 -303 -15 -32
-42 -39 -68 -18 l-23 19 -3 296 -3 296 -35 0 -34 0 0 -300z"/>
<path d="M3090 726 c0 -2 19 -71 41 -153 23 -81 44 -157 46 -168 2 -11 -16
-96 -41 -190 -56 -207 -56 -208 -15 -201 18 2 35 8 39 13 8 9 50 184 50 208 0
8 4 15 8 15 5 0 21 -53 38 -117 l29 -118 34 -3 c18 -2 37 0 41 5 4 4 -14 87
-40 183 l-49 175 45 161 c24 89 44 169 44 178 0 13 -7 17 -31 14 -40 -4 -43
-10 -70 -131 -12 -54 -25 -95 -29 -90 -4 4 -15 46 -25 93 -27 128 -28 130 -75
130 -22 0 -40 -2 -40 -4z"/>
</g>
</svg>
