<?xml version="1.0" standalone="no"?>
<!DOCTYPE svg PUBLIC "-//W3C//DTD SVG 20010904//EN"
 "http://www.w3.org/TR/2001/REC-SVG-20010904/DTD/svg10.dtd">
<svg version="1.0" xmlns="http://www.w3.org/2000/svg"
 width="508.000000pt" height="600.000000pt" viewBox="0 0 508.000000 600.000000"
 preserveAspectRatio="xMidYMid meet">
<metadata>
Created by potrace 1.12, written by Peter Selinger 2001-2015
</metadata>
<g transform="translate(0.000000,600.000000) scale(0.100000,-0.100000)"
fill="#000000" stroke="none">
<path d="M842 5910 c-75 -20 -226 -86 -252 -111 -8 -8 -31 -26 -50 -40 -121
-91 -221 -236 -271 -392 -39 -121 -40 -194 -37 -1802 l3 -1560 23 -80 c86
-297 293 -499 598 -581 66 -18 136 -19 1684 -19 l1615 0 80 22 c297 80 507
288 587 583 l23 85 0 1610 c0 1803 5 1671 -73 1839 -108 230 -293 384 -536
446 -78 20 -105 20 -1700 19 -1560 0 -1624 -1 -1694 -19z m3427 -114 c232 -81
410 -282 462 -521 10 -48 13 -385 13 -1655 0 -1769 5 -1635 -65 -1788 -77
-172 -241 -317 -416 -372 -130 -40 -173 -41 -1778 -38 l-1550 3 -75 22 c-107
31 -160 57 -239 116 -94 71 -165 157 -211 252 -77 160 -72 22 -71 1810 0 1109
4 1617 11 1651 28 126 86 238 174 332 95 101 205 167 338 202 71 18 122 19
1698 17 l1625 -2 84 -29z"/>
<path d="M1087 5054 c-4 -4 -7 -451 -7 -993 l-1 -986 -94 -47 -95 -48 0 51 c0
40 -5 55 -25 74 -24 25 -26 25 -209 25 l-185 0 -20 -26 c-21 -26 -21 -36 -21
-504 l0 -477 23 -21 c22 -21 32 -22 206 -22 180 0 182 0 206 25 23 22 25 32
25 120 0 92 1 95 23 95 12 0 148 -20 302 -45 154 -25 325 -52 380 -61 55 -8
219 -34 365 -57 l265 -42 5 -172 c4 -148 8 -175 23 -190 16 -16 41 -18 253
-18 236 0 236 0 255 24 17 21 19 41 19 242 l0 218 77 53 c138 95 157 109 608
428 88 63 196 139 240 170 44 31 136 96 205 145 242 171 319 225 325 225 3 0
5 -40 5 -88 0 -80 2 -91 23 -110 22 -21 33 -22 191 -22 164 0 167 0 192 25
l25 25 -3 547 c-3 622 1 591 -89 684 -48 50 -83 71 -144 87 -22 6 -338 21
-702 33 -726 24 -711 24 -798 -33 -50 -33 -111 -111 -126 -160 -6 -18 -14 -82
-17 -141 l-7 -109 -82 -45 -83 -45 0 586 0 585 -763 1 c-420 0 -766 -3 -770
-6z m1373 -166 c0 -7 1 -110 2 -228 l2 -215 -612 -3 -612 -2 0 230 0 230 610
0 c481 0 610 -3 610 -12z m1145 -619 c748 -23 792 -25 826 -45 93 -55 110
-175 35 -250 -18 -18 -47 -36 -66 -41 -23 -6 -172 -5 -415 3 -209 7 -500 17
-646 22 -236 8 -271 11 -305 29 -94 48 -112 188 -33 260 36 32 84 42 179 37
47 -2 238 -9 425 -15z m-1144 -184 c0 -99 -1 -199 -1 -222 l0 -43 -610 0 -610
0 0 225 0 225 611 -2 612 -3 -2 -180z m499 -235 c21 -11 58 -24 82 -29 23 -5
288 -17 588 -27 300 -9 549 -20 553 -24 4 -4 -15 -22 -42 -41 -27 -19 -197
-138 -378 -265 -330 -232 -416 -292 -631 -439 -64 -45 -167 -115 -229 -158
-61 -42 -114 -77 -117 -77 -3 0 -6 20 -6 44 0 37 -5 48 -31 70 -30 26 -31 26
-217 26 -308 0 -302 3 -302 -175 0 -117 -1 -125 -20 -125 -10 0 -293 43 -627
95 -334 52 -614 95 -620 95 -27 0 -11 17 44 47 32 17 112 59 178 93 66 35 152
80 190 100 39 21 124 65 190 100 66 34 152 79 190 100 84 45 591 312 800 421
83 43 195 103 250 133 55 29 104 54 108 55 4 0 25 -8 47 -19z m1557 -363 l-2
-312 -60 0 -60 0 -3 272 -2 272 57 45 c31 25 60 43 64 40 5 -3 7 -145 6 -317z
m-2347 172 c0 -5 -149 -88 -193 -107 -4 -2 -20 8 -34 22 -90 90 -253 -1 -229
-127 l6 -32 -158 -82 c-86 -46 -194 -103 -239 -127 -46 -25 -83 -42 -83 -38 0
23 -1 488 0 494 0 8 930 5 930 -3z m2070 -152 l0 -73 -106 -75 c-59 -41 -116
-81 -128 -89 -32 -22 -220 -154 -231 -162 -5 -4 -66 -47 -135 -96 -268 -188
-581 -410 -710 -503 -74 -53 -138 -94 -142 -92 -5 2 -8 44 -8 92 l0 88 103 69
c56 39 181 124 277 191 371 257 448 309 839 572 123 83 228 151 232 151 5 0 9
-33 9 -73z m-3510 -902 l0 -375 -75 0 -75 0 0 368 c0 203 3 372 7 375 3 4 37
7 75 7 l68 0 0 -375z m1900 -275 l0 -440 -125 0 -125 0 0 440 0 440 125 0 125
0 0 -440z m-1062 240 c354 -55 647 -100 653 -100 5 0 9 -44 9 -100 0 -55 -1
-100 -2 -100 -2 0 -30 5 -63 10 -54 9 -442 71 -1035 165 -118 19 -221 35 -227
35 -10 0 -13 27 -13 99 0 89 2 99 18 95 9 -2 306 -49 660 -104z"/>

</g>
</svg>
