<?xml version="1.0" standalone="no"?>
<!DOCTYPE svg PUBLIC "-//W3C//DTD SVG 20010904//EN"
 "http://www.w3.org/TR/2001/REC-SVG-20010904/DTD/svg10.dtd">
<svg version="1.0" xmlns="http://www.w3.org/2000/svg"
 width="476.000000pt" height="600.000000pt" viewBox="0 0 476.000000 600.000000"
 preserveAspectRatio="xMidYMid meet">
<metadata>
Created by potrace 1.12, written by Peter Selinger 2001-2015
</metadata>
<g transform="translate(0.000000,600.000000) scale(0.100000,-0.100000)"
fill="#000000" stroke="none">
<path d="M745 5993 c-93 -12 -190 -40 -270 -79 -221 -107 -384 -306 -448 -547
l-22 -82 0 -1665 0 -1665 22 -84 c74 -275 273 -489 544 -583 l94 -33 1690 -3
c1668 -2 1691 -2 1770 18 262 66 480 257 575 502 63 162 61 109 58 1898 l-3
1625 -22 75 c-87 304 -299 517 -599 603 l-79 22 -1640 1 c-902 1 -1653 0
-1670 -3z m3409 -136 c242 -86 414 -271 477 -515 18 -73 19 -129 19 -1713 0
-1768 2 -1705 -52 -1832 -72 -171 -229 -327 -397 -395 -134 -55 -69 -53 -1856
-50 -1645 3 -1650 3 -1715 24 -215 69 -360 196 -456 397 -67 142 -64 40 -64
1853 0 1613 0 1642 20 1720 66 257 261 453 520 523 74 20 98 20 1750 18 l1675
-2 79 -28z"/>
<path d="M2245 5635 c-60 -30 -193 -94 -295 -143 -102 -49 -315 -152 -475
-229 -596 -288 -668 -323 -675 -323 -4 0 -13 -7 -20 -15 -10 -12 -6 -24 19
-65 17 -28 31 -52 31 -55 0 -2 14 -28 31 -57 18 -29 51 -87 74 -128 23 -41 82
-145 131 -230 50 -85 105 -182 123 -215 l34 -60 -6 -175 c-4 -96 -7 -240 -7
-321 l0 -145 -207 -17 c-115 -9 -334 -26 -488 -38 -154 -12 -281 -23 -283 -25
-3 -2 57 -137 129 -289 143 -305 248 -539 244 -545 -2 -4 -51 -35 -107 -68
-156 -92 -146 -81 -117 -138 25 -51 172 -331 291 -559 38 -71 85 -163 106
-202 32 -64 40 -73 64 -73 16 0 533 41 1151 90 617 50 1166 93 1220 97 54 3
100 10 103 14 3 5 -41 98 -98 206 -56 109 -141 272 -188 363 -96 184 -96 165
-5 215 69 37 203 113 380 215 83 48 206 118 275 157 280 160 465 265 468 268
1 1 -2 286 -8 632 l-11 629 56 239 c30 132 62 267 70 300 33 138 115 497 115
505 0 13 -20 4 -145 -63 -60 -33 -180 -95 -265 -139 -85 -45 -164 -86 -176
-93 -11 -7 -83 -46 -160 -86 -76 -40 -188 -99 -248 -131 -60 -32 -117 -58
-127 -58 -9 0 -45 9 -80 19 -35 11 -140 40 -234 66 -93 26 -175 52 -181 59 -6
6 -31 47 -54 91 -24 44 -54 97 -67 117 -12 21 -23 40 -23 42 0 3 -14 29 -31
58 -17 29 -44 76 -59 103 -89 164 -143 255 -153 254 -7 0 -61 -25 -122 -54z
m148 -297 c47 -84 112 -202 146 -262 48 -84 59 -112 50 -122 -6 -8 -15 -14
-20 -14 -4 0 -30 -13 -57 -29 -27 -16 -74 -42 -103 -59 -208 -114 -366 -202
-509 -282 -91 -51 -194 -108 -230 -128 -36 -19 -124 -68 -197 -109 -72 -40
-135 -73 -140 -73 -4 0 -17 17 -29 38 -11 20 -56 98 -99 172 -133 228 -215
374 -215 382 0 5 4 8 9 8 4 0 102 46 217 101 115 56 250 121 299 144 132 63
749 362 791 384 1 1 40 -68 87 -151z m1696 -399 c-27 -118 -63 -270 -78 -338
-16 -68 -33 -127 -38 -131 -4 -4 -98 -54 -208 -110 -110 -57 -258 -133 -330
-170 -71 -37 -229 -118 -350 -180 -121 -62 -257 -132 -303 -156 -45 -24 -88
-44 -95 -44 -10 0 -11 15 -4 68 4 37 16 173 25 302 l17 234 120 64 c66 35 176
93 245 129 69 36 199 105 290 153 91 48 219 116 285 150 66 35 199 105 295
156 96 51 176 92 177 90 1 -1 -20 -99 -48 -217z m-1169 -135 c52 -14 101 -30
109 -34 9 -5 -26 -28 -102 -69 -64 -33 -120 -61 -126 -61 -7 0 -11 35 -11 101
0 91 2 100 18 95 9 -3 60 -17 112 -32z m-290 -138 l0 -124 -30 -12 c-16 -7
-30 -18 -30 -24 0 -34 -53 -722 -56 -725 -4 -5 -1014 373 -1014 380 0 4 356
204 785 441 17 9 98 54 180 101 83 47 153 86 158 86 4 1 7 -55 7 -123z m1344
-588 c3 -112 8 -347 10 -523 l5 -320 -422 -240 c-232 -132 -427 -241 -432
-243 -6 -1 -21 19 -32 45 -18 40 -144 312 -334 720 -37 81 -39 83 -68 77 -23
-5 -31 -3 -31 8 0 14 33 32 425 233 219 112 403 207 630 326 203 105 229 118
236 119 4 0 9 -91 13 -202z m-2254 -175 c157 -58 319 -118 360 -133 41 -16
154 -58 250 -94 110 -40 176 -70 178 -79 4 -18 -13 -20 -298 -43 -107 -8 -303
-24 -435 -34 -132 -11 -277 -23 -323 -26 l-84 -7 3 209 c2 115 5 237 7 271 l4
62 26 -10 c15 -6 155 -58 312 -116z m950 -507 c10 -22 35 -77 55 -121 60 -127
91 -196 191 -413 22 -50 29 -74 21 -76 -7 -2 -79 -9 -162 -15 -144 -11 -818
-65 -1638 -131 -214 -18 -390 -30 -391 -28 -8 9 -296 641 -296 649 0 5 3 9 8
9 4 0 57 5 117 10 61 5 223 18 360 29 247 20 1246 100 1545 125 85 7 159 10
163 8 5 -2 17 -23 27 -46z m149 -1011 c43 -82 173 -331 250 -479 17 -33 30
-61 28 -62 -2 -2 -128 -13 -522 -44 -277 -22 -1166 -94 -1430 -115 -278 -23
-239 -38 -317 118 -90 176 -225 434 -249 475 -14 24 -15 34 -6 37 6 2 298 25
647 50 349 26 826 62 1060 80 234 18 440 32 458 31 31 -1 36 -6 81 -91z"/>
<path d="M2352 3308 c-7 -7 -12 -20 -12 -30 0 -17 209 -427 232 -455 23 -29
78 -8 78 29 0 15 -185 379 -226 446 -16 24 -53 29 -72 10z"/>
<path d="M2102 3298 c-7 -7 -12 -21 -12 -32 0 -31 230 -465 250 -471 26 -8 49
4 56 31 6 22 -40 117 -189 394 -47 88 -74 109 -105 78z"/>
<path d="M1853 3284 c-28 -12 -8 -65 98 -267 62 -117 116 -218 122 -224 21
-28 77 -8 77 27 0 15 -88 192 -192 385 -35 65 -48 80 -68 82 -14 1 -31 -1 -37
-3z"/>
<path d="M1602 3268 c-14 -14 -16 -60 -3 -73 7 -9 48 -86 176 -332 45 -86 69
-112 92 -97 42 27 40 40 -25 167 -137 267 -167 322 -178 335 -16 15 -46 16
-62 0z"/>
<path d="M1355 3265 c-5 -2 -117 -9 -248 -16 -249 -12 -267 -17 -267 -59 0
-19 213 -435 235 -459 11 -11 54 -11 273 2 144 9 270 21 282 27 31 16 25 41
-35 155 -30 58 -80 153 -111 213 -66 127 -88 151 -129 137z m82 -247 c43 -84
79 -158 81 -165 4 -16 -32 -21 -193 -28 -77 -3 -152 -8 -166 -11 -25 -5 -30 2
-104 148 -43 84 -82 159 -88 166 -5 7 -8 14 -6 16 4 5 253 22 346 25 l52 1 78
-152z"/>
<path d="M2518 2388 c-30 -24 -25 -43 37 -163 35 -66 86 -165 114 -220 62
-120 71 -130 105 -121 51 13 43 39 -74 266 -100 192 -137 250 -159 250 -4 0
-14 -6 -23 -12z"/>
<path d="M2256 2359 c-15 -22 -11 -32 89 -224 129 -249 137 -263 154 -270 18
-7 61 21 61 40 0 13 -85 183 -201 400 -42 79 -74 95 -103 54z"/>
<path d="M1925 2363 c-213 -10 -211 -5 -97 -226 49 -95 104 -201 123 -236 l34
-64 144 6 c115 5 148 10 162 23 20 18 25 44 10 60 -4 5 -54 99 -111 209 -56
110 -110 208 -118 218 -10 11 -27 16 -51 15 -20 -1 -63 -3 -96 -5z m170 -245
c44 -84 81 -158 83 -164 4 -14 -126 -30 -138 -17 -4 4 -40 71 -80 148 -40 77
-77 145 -82 152 -18 23 3 33 70 33 l67 0 80 -152z"/>
<path d="M1504 2316 c-17 -27 -28 -2 168 -373 63 -119 84 -139 119 -107 10 9
19 23 19 30 0 14 -203 406 -232 446 -24 34 -52 36 -74 4z"/>
<path d="M1252 2296 c-8 -17 -7 -30 2 -47 7 -13 58 -112 114 -220 57 -109 109
-203 118 -210 20 -16 67 -1 72 23 2 10 -40 102 -94 205 -140 271 -141 273
-173 273 -20 0 -31 -7 -39 -24z"/>
<path d="M1006 2289 c-19 -28 -36 9 168 -379 59 -114 83 -135 116 -105 28 25
26 37 -19 119 -21 39 -71 134 -111 211 -40 77 -80 148 -88 158 -20 23 -48 22
-66 -4z"/>
<path d="M1861 774 c-37 -31 -51 -77 -51 -169 0 -86 18 -126 94 -218 55 -68
62 -86 57 -152 -3 -36 -17 -55 -42 -55 -24 0 -33 16 -39 75 -5 49 -5 50 -40
50 l-35 0 2 -67 c1 -37 9 -81 18 -98 20 -39 66 -63 108 -55 69 13 97 57 104
163 8 109 -11 163 -87 246 -64 70 -80 113 -63 169 17 62 73 39 73 -30 0 -33 3
-35 40 -35 41 0 42 0 34 60 -3 31 -13 69 -20 84 -32 62 -101 76 -153 32z"/>
<path d="M2565 767 c-47 -47 -58 -123 -53 -367 3 -172 6 -200 24 -241 24 -52
76 -84 119 -73 56 14 81 70 88 194 l2 44 -35 1 -35 0 -6 -63 c-6 -67 -18 -88
-43 -79 -33 13 -40 58 -41 257 0 209 9 260 47 260 22 0 27 -11 36 -76 7 -46 9
-49 40 -52 l32 -3 0 53 c0 113 -39 178 -106 178 -27 0 -44 -8 -69 -33z"/>
<path d="M3778 784 c-57 -31 -78 -121 -78 -339 0 -242 25 -332 96 -355 65 -22
116 14 141 100 23 80 23 421 -1 502 -27 93 -90 129 -158 92z m84 -106 c10 -17
13 -82 13 -240 0 -206 -1 -218 -21 -238 -27 -28 -51 -17 -65 29 -16 54 -8 433
10 454 19 24 48 21 63 -5z"/>
<path d="M4444 781 c-36 -22 -50 -56 -60 -140 -9 -80 14 -155 69 -221 87 -106
89 -110 84 -168 -3 -47 -16 -71 -38 -72 -21 0 -40 31 -46 78 -6 51 -6 52 -39
52 l-34 0 0 -52 c0 -111 39 -173 109 -173 84 0 124 61 125 190 0 96 -19 146
-86 220 -57 63 -68 85 -68 130 0 47 15 75 41 75 21 0 39 -34 39 -76 0 -21 5
-24 35 -24 35 0 35 1 35 43 0 129 -76 193 -166 138z"/>
<path d="M190 445 l0 -345 40 0 40 0 0 140 0 140 35 0 c82 0 114 46 123 175 6
100 -10 174 -45 210 -23 23 -33 25 -109 25 l-84 0 0 -345z m148 230 c13 -12
21 -101 13 -137 -10 -44 -24 -58 -58 -58 -22 0 -23 3 -23 106 l0 107 32 -7
c17 -3 34 -8 36 -11z"/>
<path d="M531 718 c-7 -40 -16 -100 -21 -133 -20 -124 -70 -463 -70 -474 0 -6
15 -11 34 -11 38 0 37 0 51 102 l6 48 54 0 c60 0 60 1 71 -93 l6 -57 40 0 c38
0 39 0 34 33 -9 56 -35 227 -56 377 -11 80 -25 175 -31 213 l-11 67 -48 0 -48
0 -11 -72z"/>
<path d="M790 445 l0 -345 40 0 40 0 0 140 0 140 43 0 c23 0 49 6 58 13 72 55
79 309 11 372 -24 22 -35 25 -109 25 l-83 0 0 -345z m144 229 c12 -11 16 -35
16 -85 0 -86 -11 -109 -50 -109 l-30 0 0 105 c0 105 0 105 24 105 14 0 32 -7
40 -16z"/>
<path d="M1090 445 l0 -345 35 0 35 0 0 345 0 345 -35 0 -35 0 0 -345z"/>
<path d="M1240 445 l0 -345 105 0 105 0 0 50 0 50 -65 0 -65 0 0 105 0 104 56
3 57 3 1 48 1 47 -57 0 -58 0 0 90 0 90 60 0 60 0 0 50 0 50 -100 0 -100 0 0
-345z"/>
<path d="M1510 445 l0 -345 40 0 39 0 -2 142 c-2 123 0 143 14 146 9 1 27 -6
40 -17 23 -18 24 -26 28 -145 l3 -126 37 0 36 0 -6 132 c-5 138 -15 179 -46
197 -17 10 -17 11 3 25 58 41 58 252 1 314 -18 19 -30 22 -104 22 l-83 0 0
-345z"/>
<path d="M2306 763 c-10 -46 -102 -635 -112 -710 -6 -49 -5 -53 14 -53 11 0
23 8 26 18 3 9 24 136 46 282 23 146 46 292 51 325 24 148 24 165 1 165 -14 0
-22 -8 -26 -27z"/>
<path d="M2836 458 c-27 -183 -51 -339 -53 -345 -4 -9 7 -13 35 -13 l39 0 9
73 9 72 56 3 57 3 6 -58 c11 -89 13 -93 52 -93 31 0 34 3 33 28 0 15 -21 169
-47 342 l-47 315 -50 3 -50 3 -49 -333z"/>
<path d="M3140 445 l0 -345 35 0 35 0 0 139 c0 77 4 142 8 145 17 10 50 -6 61
-30 6 -14 11 -69 11 -124 0 -121 3 -130 45 -130 l33 0 -4 118 c-7 157 -11 178
-39 200 -23 18 -23 21 -8 33 29 25 43 76 43 158 0 87 -10 124 -42 159 -19 19
-31 22 -100 22 l-78 0 0 -345z"/>
<path d="M3410 735 l0 -55 40 0 40 0 0 -290 0 -290 40 0 40 0 0 289 0 290 43
3 c23 2 41 6 40 11 -2 4 -3 27 -3 52 l0 45 -120 0 -120 0 0 -55z"/>
<path d="M4030 446 l0 -346 35 0 35 0 0 247 c0 135 2 244 5 241 3 -3 26 -104
50 -224 25 -121 47 -229 50 -241 5 -20 12 -23 55 -23 l50 0 0 345 0 345 -35 0
-35 0 -1 -237 c0 -131 -3 -231 -7 -223 -3 8 -26 114 -52 235 l-46 220 -52 3
-52 3 0 -345z"/>
</g>
</svg>
