<?xml version="1.0" standalone="no"?>
<!DOCTYPE svg PUBLIC "-//W3C//DTD SVG 20010904//EN"
 "http://www.w3.org/TR/2001/REC-SVG-20010904/DTD/svg10.dtd">
<svg version="1.0" xmlns="http://www.w3.org/2000/svg"
 width="476.000000pt" height="600.000000pt" viewBox="0 0 476.000000 600.000000"
 preserveAspectRatio="xMidYMid meet">
<metadata>
Created by potrace 1.12, written by Peter Selinger 2001-2015
</metadata>
<g transform="translate(0.000000,600.000000) scale(0.100000,-0.100000)"
fill="#000000" stroke="none">
<path d="M745 5993 c-93 -12 -190 -40 -270 -79 -221 -107 -384 -306 -448 -547
l-22 -82 0 -1665 0 -1665 22 -84 c74 -275 273 -489 544 -583 l94 -33 1690 -3
c1668 -2 1691 -2 1770 18 262 66 480 257 575 502 63 162 61 109 58 1898 l-3
1625 -22 75 c-87 304 -299 517 -599 603 l-79 22 -1640 1 c-902 1 -1653 0
-1670 -3z m3409 -136 c242 -86 414 -271 477 -515 18 -73 19 -129 19 -1713 0
-1768 2 -1705 -52 -1832 -72 -171 -229 -327 -397 -395 -134 -55 -69 -53 -1856
-50 -1645 3 -1650 3 -1715 24 -215 69 -360 196 -456 397 -67 142 -64 40 -64
1853 0 1613 0 1642 20 1720 66 257 261 453 520 523 74 20 98 20 1750 18 l1675
-2 79 -28z"/>
<path d="M2245 5635 c-60 -30 -193 -94 -295 -143 -102 -49 -315 -152 -475
-229 -596 -288 -668 -323 -675 -323 -4 0 -13 -7 -20 -15 -10 -12 -6 -24 19
-65 17 -28 31 -52 31 -55 0 -2 14 -28 31 -57 18 -29 51 -87 74 -128 23 -41 82
-145 131 -230 50 -85 105 -182 123 -215 l34 -60 -6 -175 c-4 -96 -7 -240 -7
-321 l0 -145 -207 -17 c-115 -9 -334 -26 -488 -38 -154 -12 -281 -23 -283 -25
-3 -2 57 -137 129 -289 143 -305 248 -539 244 -545 -2 -4 -51 -35 -107 -68
-156 -92 -146 -81 -117 -138 25 -51 172 -331 291 -559 38 -71 85 -163 106
-202 32 -64 40 -73 64 -73 16 0 533 41 1151 90 617 50 1166 93 1220 97 54 3
100 10 103 14 3 5 -41 98 -98 206 -56 109 -141 272 -188 363 -96 184 -96 165
-5 215 69 37 203 113 380 215 83 48 206 118 275 157 280 160 465 265 468 268
1 1 -2 286 -8 632 l-11 629 56 239 c30 132 62 267 70 300 33 138 115 497 115
505 0 13 -20 4 -145 -63 -60 -33 -180 -95 -265 -139 -85 -45 -164 -86 -176
-93 -11 -7 -83 -46 -160 -86 -76 -40 -188 -99 -248 -131 -60 -32 -117 -58
-127 -58 -9 0 -45 9 -80 19 -35 11 -140 40 -234 66 -93 26 -175 52 -181 59 -6
6 -31 47 -54 91 -24 44 -54 97 -67 117 -12 21 -23 40 -23 42 0 3 -14 29 -31
58 -17 29 -44 76 -59 103 -89 164 -143 255 -153 254 -7 0 -61 -25 -122 -54z
m148 -297 c47 -84 112 -202 146 -262 48 -84 59 -112 50 -122 -6 -8 -15 -14
-20 -14 -4 0 -30 -13 -57 -29 -27 -16 -74 -42 -103 -59 -208 -114 -366 -202
-509 -282 -91 -51 -194 -108 -230 -128 -36 -19 -124 -68 -197 -109 -72 -40
-135 -73 -140 -73 -4 0 -17 17 -29 38 -11 20 -56 98 -99 172 -133 228 -215
374 -215 382 0 5 4 8 9 8 4 0 102 46 217 101 115 56 250 121 299 144 132 63
749 362 791 384 1 1 40 -68 87 -151z m1696 -399 c-27 -118 -63 -270 -78 -338
-16 -68 -33 -127 -38 -131 -4 -4 -98 -54 -208 -110 -110 -57 -258 -133 -330
-170 -71 -37 -229 -118 -350 -180 -121 -62 -257 -132 -303 -156 -45 -24 -88
-44 -95 -44 -10 0 -11 15 -4 68 4 37 16 173 25 302 l17 234 120 64 c66 35 176
93 245 129 69 36 199 105 290 153 91 48 219 116 285 150 66 35 199 105 295
156 96 51 176 92 177 90 1 -1 -20 -99 -48 -217z m-1169 -135 c52 -14 101 -30
109 -34 9 -5 -26 -28 -102 -69 -64 -33 -120 -61 -126 -61 -7 0 -11 35 -11 101
0 91 2 100 18 95 9 -3 60 -17 112 -32z m-290 -138 l0 -124 -30 -12 c-16 -7
-30 -18 -30 -24 0 -34 -53 -722 -56 -725 -4 -5 -1014 373 -1014 380 0 4 356
204 785 441 17 9 98 54 180 101 83 47 153 86 158 86 4 1 7 -55 7 -123z m1344
-588 c3 -112 8 -347 10 -523 l5 -320 -422 -240 c-232 -132 -427 -241 -432
-243 -6 -1 -21 19 -32 45 -18 40 -144 312 -334 720 -37 81 -39 83 -68 77 -23
-5 -31 -3 -31 8 0 14 33 32 425 233 219 112 403 207 630 326 203 105 229 118
236 119 4 0 9 -91 13 -202z m-2254 -175 c157 -58 319 -118 360 -133 41 -16
154 -58 250 -94 110 -40 176 -70 178 -79 4 -18 -13 -20 -298 -43 -107 -8 -303
-24 -435 -34 -132 -11 -277 -23 -323 -26 l-84 -7 3 209 c2 115 5 237 7 271 l4
62 26 -10 c15 -6 155 -58 312 -116z m950 -507 c10 -22 35 -77 55 -121 60 -127
91 -196 191 -413 22 -50 29 -74 21 -76 -7 -2 -79 -9 -162 -15 -144 -11 -818
-65 -1638 -131 -214 -18 -390 -30 -391 -28 -8 9 -296 641 -296 649 0 5 3 9 8
9 4 0 57 5 117 10 61 5 223 18 360 29 247 20 1246 100 1545 125 85 7 159 10
163 8 5 -2 17 -23 27 -46z m149 -1011 c43 -82 173 -331 250 -479 17 -33 30
-61 28 -62 -2 -2 -128 -13 -522 -44 -277 -22 -1166 -94 -1430 -115 -278 -23
-239 -38 -317 118 -90 176 -225 434 -249 475 -14 24 -15 34 -6 37 6 2 298 25
647 50 349 26 826 62 1060 80 234 18 440 32 458 31 31 -1 36 -6 81 -91z"/>
<path d="M2352 3308 c-7 -7 -12 -20 -12 -30 0 -17 209 -427 232 -455 23 -29
78 -8 78 29 0 15 -185 379 -226 446 -16 24 -53 29 -72 10z"/>
<path d="M2102 3298 c-7 -7 -12 -21 -12 -32 0 -31 230 -465 250 -471 26 -8 49
4 56 31 6 22 -40 117 -189 394 -47 88 -74 109 -105 78z"/>
<path d="M1853 3284 c-28 -12 -8 -65 98 -267 62 -117 116 -218 122 -224 21
-28 77 -8 77 27 0 15 -88 192 -192 385 -35 65 -48 80 -68 82 -14 1 -31 -1 -37
-3z"/>
<path d="M1602 3268 c-14 -14 -16 -60 -3 -73 7 -9 48 -86 176 -332 45 -86 69
-112 92 -97 42 27 40 40 -25 167 -137 267 -167 322 -178 335 -16 15 -46 16
-62 0z"/>
<path d="M1355 3265 c-5 -2 -117 -9 -248 -16 -249 -12 -267 -17 -267 -59 0
-19 213 -435 235 -459 11 -11 54 -11 273 2 144 9 270 21 282 27 31 16 25 41
-35 155 -30 58 -80 153 -111 213 -66 127 -88 151 -129 137z m82 -247 c43 -84
79 -158 81 -165 4 -16 -32 -21 -193 -28 -77 -3 -152 -8 -166 -11 -25 -5 -30 2
-104 148 -43 84 -82 159 -88 166 -5 7 -8 14 -6 16 4 5 253 22 346 25 l52 1 78
-152z"/>

</g>
</svg>
