<?xml version="1.0" standalone="no"?>
<!DOCTYPE svg PUBLIC "-//W3C//DTD SVG 20010904//EN"
 "http://www.w3.org/TR/2001/REC-SVG-20010904/DTD/svg10.dtd">
<svg version="1.0" xmlns="http://www.w3.org/2000/svg"
 width="419.000000pt" height="600.000000pt" viewBox="0 0 419.000000 600.000000"
 preserveAspectRatio="xMidYMid meet">
<metadata>
Created by potrace 1.12, written by Peter Selinger 2001-2015
</metadata>
<g transform="translate(0.000000,600.000000) scale(0.100000,-0.100000)"
fill="#000000" stroke="none">
<path d="M655 5993 c-318 -40 -564 -262 -637 -574 -10 -42 -13 -374 -13 -1524
l0 -1470 23 -75 c41 -130 98 -226 187 -316 127 -128 258 -194 430 -215 50 -6
609 -9 1510 -7 1609 4 1457 -4 1635 84 79 39 110 62 181 134 75 75 93 100 137
191 28 57 56 129 64 159 19 79 19 2958 0 3039 -71 303 -319 533 -616 571 -67
9 -2834 12 -2901 3z m2960 -106 c236 -69 397 -231 462 -468 17 -60 18 -159 18
-1509 0 -1567 2 -1500 -55 -1627 -86 -190 -241 -316 -451 -365 -83 -20 -2922
-19 -2999 1 -192 48 -348 175 -430 346 -69 146 -65 41 -65 1640 0 1624 -5
1511 73 1659 45 85 149 198 226 245 72 43 169 78 248 90 36 5 671 8 1488 7
1324 -1 1429 -3 1485 -19z"/>
<path d="M2077 4653 c-4 -3 -7 -21 -7 -38 0 -32 -1 -32 -57 -39 -87 -10 -233
-52 -336 -97 -234 -101 -460 -269 -712 -530 -158 -164 -251 -275 -465 -561
l-178 -238 1744 0 c1654 0 1744 1 1744 18 0 9 -15 90 -34 179 l-33 162 51 3
51 3 0 85 0 85 -69 0 -70 1 -62 301 c-69 331 -88 386 -162 466 -52 54 -87 78
-157 103 -43 16 -94 19 -380 24 l-330 5 -3 38 -3 37 -263 0 c-144 0 -266 -3
-269 -7z m1102 -213 c144 -15 212 -60 255 -169 16 -41 166 -742 166 -776 0
-13 -163 -15 -1426 -15 -911 0 -1424 3 -1422 10 2 5 43 58 93 117 439 528 841
800 1230 833 135 11 996 11 1104 0z m451 -1062 c0 -7 3 -30 6 -50 l7 -38
-1517 0 c-834 0 -1516 3 -1516 6 0 3 14 26 32 50 l31 44 1479 0 c1176 0 1478
-3 1478 -12z"/>
<path d="M2255 4320 c-160 -24 -244 -71 -327 -185 -120 -164 -151 -251 -112
-310 37 -56 19 -55 834 -55 437 0 750 4 750 9 0 22 -83 359 -96 391 -32 77
-107 130 -209 149 -66 12 -759 13 -840 1z m868 -154 c47 -23 51 -31 80 -155
l24 -101 -639 0 -640 0 22 38 c54 91 113 163 155 187 81 48 145 54 570 52 359
-2 393 -3 428 -21z"/>

</g>
</svg>
