<?xml version="1.0" standalone="no"?>
<!DOCTYPE svg PUBLIC "-//W3C//DTD SVG 20010904//EN"
 "http://www.w3.org/TR/2001/REC-SVG-20010904/DTD/svg10.dtd">
<svg version="1.0" xmlns="http://www.w3.org/2000/svg"
 width="419.000000pt" height="600.000000pt" viewBox="0 0 419.000000 600.000000"
 preserveAspectRatio="xMidYMid meet">
<metadata>
Created by potrace 1.12, written by Peter Selinger 2001-2015
</metadata>
<g transform="translate(0.000000,600.000000) scale(0.100000,-0.100000)"
fill="#000000" stroke="none">
<path d="M655 5993 c-318 -40 -564 -262 -637 -574 -10 -42 -13 -374 -13 -1524
l0 -1470 23 -75 c41 -130 98 -226 187 -316 127 -128 258 -194 430 -215 50 -6
609 -9 1510 -7 1609 4 1457 -4 1635 84 79 39 110 62 181 134 75 75 93 100 137
191 28 57 56 129 64 159 19 79 19 2958 0 3039 -71 303 -319 533 -616 571 -67
9 -2834 12 -2901 3z m2960 -106 c236 -69 397 -231 462 -468 17 -60 18 -159 18
-1509 0 -1567 2 -1500 -55 -1627 -86 -190 -241 -316 -451 -365 -83 -20 -2922
-19 -2999 1 -192 48 -348 175 -430 346 -69 146 -65 41 -65 1640 0 1624 -5
1511 73 1659 45 85 149 198 226 245 72 43 169 78 248 90 36 5 671 8 1488 7
1324 -1 1429 -3 1485 -19z"/>
<path d="M2077 4653 c-4 -3 -7 -21 -7 -38 0 -32 -1 -32 -57 -39 -87 -10 -233
-52 -336 -97 -234 -101 -460 -269 -712 -530 -158 -164 -251 -275 -465 -561
l-178 -238 1744 0 c1654 0 1744 1 1744 18 0 9 -15 90 -34 179 l-33 162 51 3
51 3 0 85 0 85 -69 0 -70 1 -62 301 c-69 331 -88 386 -162 466 -52 54 -87 78
-157 103 -43 16 -94 19 -380 24 l-330 5 -3 38 -3 37 -263 0 c-144 0 -266 -3
-269 -7z m1102 -213 c144 -15 212 -60 255 -169 16 -41 166 -742 166 -776 0
-13 -163 -15 -1426 -15 -911 0 -1424 3 -1422 10 2 5 43 58 93 117 439 528 841
800 1230 833 135 11 996 11 1104 0z m451 -1062 c0 -7 3 -30 6 -50 l7 -38
-1517 0 c-834 0 -1516 3 -1516 6 0 3 14 26 32 50 l31 44 1479 0 c1176 0 1478
-3 1478 -12z"/>
<path d="M2255 4320 c-160 -24 -244 -71 -327 -185 -120 -164 -151 -251 -112
-310 37 -56 19 -55 834 -55 437 0 750 4 750 9 0 22 -83 359 -96 391 -32 77
-107 130 -209 149 -66 12 -759 13 -840 1z m868 -154 c47 -23 51 -31 80 -155
l24 -101 -639 0 -640 0 22 38 c54 91 113 163 155 187 81 48 145 54 570 52 359
-2 393 -3 428 -21z"/>
<path d="M1547 1450 c-30 -35 -42 -99 -34 -170 7 -60 23 -90 81 -158 49 -57
64 -103 49 -149 -13 -39 -50 -43 -63 -8 -5 14 -10 40 -10 56 0 28 -2 30 -32
27 l-33 -3 3 -55 c7 -97 35 -134 104 -132 68 2 98 53 98 164 0 86 -19 134 -75
193 -21 22 -44 54 -52 72 -19 47 -1 113 32 113 15 0 35 -43 35 -76 0 -21 4
-24 28 -21 26 4 27 6 26 61 -2 79 -25 110 -86 114 -40 3 -48 -1 -71 -28z"/>
<path d="M3772 1458 c-44 -48 -53 -175 -17 -250 8 -18 38 -59 65 -91 45 -53
50 -63 50 -107 0 -53 -17 -75 -49 -65 -16 5 -22 18 -27 56 -6 46 -8 49 -35 49
-28 0 -29 -1 -29 -52 0 -99 52 -158 122 -140 62 16 98 110 82 214 -9 58 -26
89 -84 154 -46 49 -50 59 -50 103 0 81 54 99 66 21 4 -22 10 -41 15 -41 43 -6
44 -5 44 58 0 51 -4 66 -24 87 -33 35 -98 36 -129 4z"/>
<path d="M440 1171 c0 -200 4 -302 11 -306 5 -4 21 -4 35 -1 24 6 24 7 24 129
l0 122 41 1 c48 0 72 23 89 82 13 48 13 147 -1 197 -18 67 -31 75 -121 75
l-78 0 0 -299z"/>
<path d="M700 1166 l0 -303 90 -2 90 -2 0 45 0 46 -60 0 -60 0 0 95 0 95 50 0
50 0 0 45 0 45 -50 0 -51 0 3 78 3 77 53 3 52 3 0 40 0 39 -85 0 -85 0 0 -304z"/>
<path d="M900 1426 c0 -44 0 -45 38 -48 l37 -3 3 -251 c2 -251 2 -252 25 -258
12 -3 25 -6 30 -6 4 0 7 117 7 260 l0 260 40 0 40 0 0 45 0 45 -110 0 -110 0
0 -44z"/>
<path d="M1160 1166 l0 -303 23 2 c12 1 25 3 30 4 4 0 7 136 7 301 l0 300 -30
0 -30 0 0 -304z"/>
<path d="M1260 1426 c0 -44 0 -45 38 -48 l37 -3 3 -250 c2 -258 4 -264 45
-265 16 0 17 19 17 260 l0 260 40 0 40 0 0 45 0 45 -110 0 -110 0 0 -44z"/>
<path d="M1936 1458 c-3 -7 -7 -33 -11 -58 -3 -25 -22 -150 -41 -278 -18 -128
-34 -239 -34 -246 0 -11 17 -14 52 -7 4 0 10 22 13 49 11 82 11 82 65 82 l48
0 7 -65 c4 -36 10 -66 14 -66 33 -6 61 -7 61 -1 1 4 -18 141 -42 305 l-43 297
-43 0 c-25 0 -44 -5 -46 -12z"/>
<path d="M2150 1165 c0 -324 -2 -312 48 -299 21 6 22 10 22 129 0 118 1 123
20 118 32 -8 79 17 97 51 21 40 29 168 14 224 -19 69 -39 82 -126 82 l-75 0 0
-305z"/>
<path d="M2410 1168 l0 -303 30 0 30 -1 0 122 0 121 42 6 c57 8 86 40 97 108
13 79 3 174 -23 212 -21 31 -25 32 -99 35 l-77 3 0 -303z"/>
<path d="M2697 1423 c-4 -26 -23 -159 -43 -296 -20 -136 -34 -250 -30 -254 3
-3 16 -7 29 -8 20 -2 23 4 32 64 l10 66 51 3 52 3 7 -66 c4 -38 11 -65 18 -66
7 0 22 -2 35 -5 13 -2 22 1 22 9 -1 6 -20 143 -43 302 l-43 290 -45 3 -46 3
-6 -48z"/>
<path d="M2922 1168 l3 -302 28 -1 27 -2 0 129 0 128 25 0 c36 0 48 -32 52
-140 4 -115 6 -120 38 -120 l25 0 0 103 c0 114 -12 172 -39 189 -17 11 -17 12
0 29 44 44 51 205 12 258 -18 24 -27 26 -97 29 l-76 3 2 -303z"/>
<path d="M3173 1182 c-1 -158 0 -295 3 -304 4 -15 18 -18 79 -18 95 0 100 2
99 48 l-1 37 -57 3 -56 3 0 94 0 95 50 0 50 0 0 45 0 45 -50 0 -50 0 0 80 0
80 43 -1 c67 -2 67 -2 67 41 l0 40 -87 0 -88 0 -2 -288z"/>
<path d="M3410 1468 c-4 -57 -3 -598 0 -600 3 0 17 -2 33 -3 l27 -2 0 303 0
304 -30 0 c-16 0 -30 -1 -30 -2z"/>
<path d="M3530 1170 c0 -233 3 -300 13 -301 6 0 34 -3 62 -5 82 -8 95 -1 95
51 l0 45 -50 0 -50 0 0 255 0 255 -35 0 -35 0 0 -300z"/>
<path d="M2370 617 c-54 -43 -75 -160 -66 -362 7 -152 17 -193 52 -226 27 -25
79 -31 137 -16 l27 7 0 155 0 155 -50 0 -50 0 0 -45 c0 -39 3 -45 20 -45 19 0
21 -5 18 -72 l-3 -73 -32 -3 c-29 -3 -33 0 -43 36 -8 25 -11 100 -9 215 4 152
6 179 22 194 26 26 50 6 61 -51 7 -42 11 -46 37 -46 26 0 29 3 29 33 0 50 -19
107 -45 133 -27 26 -79 32 -105 11z"/>
<path d="M3112 608 c-31 -34 -42 -72 -42 -144 0 -80 18 -124 74 -184 52 -55
71 -104 58 -152 -9 -34 -35 -49 -55 -29 -6 6 -13 30 -16 53 -6 40 -8 43 -36
43 -30 0 -30 0 -29 -57 2 -106 61 -159 137 -123 45 21 67 73 67 161 0 81 -17
122 -79 189 -52 57 -68 104 -52 147 18 47 61 41 61 -8 0 -40 11 -54 42 -54
l31 0 -7 56 c-11 91 -36 123 -97 124 -24 0 -42 -7 -57 -22z"/>
<path d="M1110 315 l0 -305 30 0 30 0 2 233 3 232 29 -232 29 -233 28 0 c15 0
30 3 32 8 3 4 17 101 32 217 15 116 32 214 36 219 5 6 9 -90 9 -217 l0 -227
30 0 30 0 0 305 0 305 -54 0 -53 0 -6 -52 c-11 -101 -46 -351 -50 -354 -2 -2
-14 78 -26 179 -30 246 -23 227 -82 227 l-49 0 0 -305z"/>
<path d="M1490 315 l0 -305 90 0 90 0 0 45 0 44 -57 3 -58 3 0 90 0 90 53 3
52 3 0 45 0 44 -55 0 -55 0 0 75 0 75 38 1 c20 1 45 1 55 0 9 -1 17 1 18 6 0
4 1 24 2 43 l2 35 -87 3 -88 3 0 -306z"/>
<path d="M1720 315 l0 -305 30 0 30 0 1 223 c1 122 3 215 6 207 2 -8 23 -107
46 -220 l42 -205 43 -3 42 -3 0 305 0 306 -30 0 -30 0 -2 -207 -3 -208 -28
140 c-16 77 -36 170 -44 208 l-15 67 -44 0 -44 0 0 -305z"/>
<path d="M2090 613 c0 -5 -7 -48 -15 -98 -7 -49 -26 -171 -40 -270 -14 -99
-28 -192 -31 -208 -5 -25 -3 -27 26 -27 35 0 36 3 45 83 l6 57 49 0 c53 0 50
5 65 -97 6 -39 10 -43 34 -43 15 0 30 2 33 5 2 3 -15 137 -38 298 -24 160 -44
295 -44 300 0 4 -20 7 -45 7 -25 0 -45 -3 -45 -7z"/>
<path d="M2590 315 l0 -306 88 3 87 3 3 42 3 43 -60 0 -61 0 0 95 0 95 50 0
50 0 0 45 0 45 -50 0 -50 0 0 75 0 75 55 0 55 0 0 45 0 45 -85 0 -85 0 0 -305z"/>
<path d="M2817 613 c-9 -8 -9 -566 -1 -587 4 -10 18 -16 35 -16 l29 0 0 130
c0 122 1 130 19 130 37 0 51 -37 51 -136 0 -113 4 -124 42 -124 l31 0 -7 61
c-3 34 -6 90 -6 125 0 53 -4 67 -26 93 -14 17 -21 31 -16 31 23 0 44 74 44
150 0 81 -17 132 -47 144 -22 8 -140 8 -148 -1z"/>
</g>
</svg>
