<?xml version="1.0" standalone="no"?>
<!DOCTYPE svg PUBLIC "-//W3C//DTD SVG 20010904//EN"
 "http://www.w3.org/TR/2001/REC-SVG-20010904/DTD/svg10.dtd">
<svg version="1.0" xmlns="http://www.w3.org/2000/svg"
 width="417.000000pt" height="600.000000pt" viewBox="0 0 417.000000 600.000000"
 preserveAspectRatio="xMidYMid meet">
<metadata>
Created by potrace 1.12, written by Peter Selinger 2001-2015
</metadata>
<g transform="translate(0.000000,600.000000) scale(0.100000,-0.100000)"
fill="#000000" stroke="none">
<path d="M630 5990 c-84 -11 -137 -28 -230 -73 -71 -34 -101 -57 -180 -136
-78 -79 -103 -112 -137 -181 -84 -171 -77 -30 -81 -1625 -3 -1501 -2 -1527 43
-1657 77 -222 274 -401 509 -466 55 -15 189 -17 1466 -20 945 -2 1435 0 1497
7 84 10 197 43 255 74 173 94 298 242 361 428 36 107 38 186 35 1629 -4 1590
2 1461 -81 1629 -34 69 -59 103 -132 176 -131 132 -246 190 -418 214 -90 13
-2815 13 -2907 1z m2989 -108 c212 -65 373 -231 439 -450 15 -52 17 -175 20
-1462 2 -913 -1 -1432 -7 -1482 -30 -224 -153 -398 -353 -499 -134 -68 -39
-64 -1633 -64 -1378 0 -1443 1 -1510 19 -216 58 -397 233 -457 441 l-23 80 0
1450 c0 1613 -5 1493 67 1644 34 72 152 202 227 250 62 40 166 78 243 90 36 5
669 8 1488 7 l1425 -1 74 -23z"/>
<path d="M1725 5723 c-25 -4 -429 -130 -1062 -333 -181 -59 -258 -96 -302
-145 -57 -65 -63 -105 -32 -201 11 -32 56 -171 100 -309 43 -137 118 -371 166
-520 48 -148 97 -304 110 -345 13 -41 44 -139 69 -218 25 -79 46 -150 46 -158
0 -13 -138 -152 -385 -387 l-80 -76 50 -53 c28 -29 102 -107 166 -173 63 -66
225 -234 358 -372 134 -139 246 -253 250 -253 3 0 92 83 196 184 105 101 191
183 193 181 1 -1 4 -36 6 -76 4 -102 29 -145 118 -199 282 -173 1133 -230
1713 -114 232 46 400 132 436 222 5 13 9 206 9 438 0 469 3 447 -80 513 -151
119 -562 201 -1020 201 l-165 0 85 83 c47 45 200 192 340 327 260 250 431 415
645 622 66 64 135 131 153 148 l33 31 -73 75 c-40 41 -74 79 -76 83 -1 4 40
49 93 100 52 51 95 95 95 98 0 6 -68 78 -324 346 l-180 187 -86 -83 c-125
-123 -107 -120 -191 -32 -40 41 -77 75 -82 75 -5 0 -147 -134 -316 -297 -427
-415 -461 -448 -470 -451 -4 -1 -35 87 -70 195 -183 577 -193 607 -225 639
-43 43 -118 60 -211 47z m149 -115 c51 -72 -34 -176 -185 -227 -66 -22 -80
-21 -59 4 10 12 9 20 -5 41 -9 14 -15 27 -13 28 2 2 31 13 64 25 69 25 116 67
120 107 5 47 52 60 78 22z m-321 -117 c9 -16 17 -33 17 -38 0 -5 -54 -27 -121
-48 -66 -21 -127 -45 -135 -52 -27 -27 -10 -73 26 -73 9 0 73 18 144 41 71 22
132 37 136 32 11 -11 171 -515 166 -521 -3 -2 -65 -23 -138 -47 -119 -38 -134
-41 -140 -27 -15 34 -158 487 -158 500 0 17 1 17 -150 -33 -74 -25 -140 -45
-147 -45 -8 0 -13 12 -13 30 0 47 -31 47 -173 3 l-125 -40 -6 46 c-3 24 -3 48
1 52 5 3 60 23 123 44 63 21 120 40 126 42 7 3 14 -14 18 -41 4 -25 11 -46 16
-46 6 0 179 53 278 85 10 4 9 11 -3 34 -8 17 -15 36 -15 43 0 12 198 84 240
87 9 0 23 -12 33 -28z m1877 -118 c29 -32 100 -105 157 -163 l103 -106 -45
-47 c-26 -26 -50 -47 -55 -47 -10 0 -303 305 -309 321 -3 10 76 99 89 99 4 0
31 -26 60 -57z m-171 -228 c69 -72 183 -190 254 -262 70 -72 127 -135 127
-140 0 -5 -10 -17 -22 -27 -13 -10 -75 -69 -138 -130 -63 -61 -180 -174 -260
-251 -544 -526 -723 -698 -781 -753 l-65 -62 -120 -15 c-422 -55 -635 -144
-673 -282 -6 -22 -11 -133 -11 -258 l1 -220 -193 -188 -193 -187 -148 152
c-344 354 -472 490 -472 503 0 7 99 109 220 226 121 117 288 278 370 358 83
80 263 254 400 386 137 132 308 296 380 365 71 69 186 180 255 245 69 66 247
238 395 381 149 144 306 296 350 338 l80 76 59 -63 c32 -34 116 -121 185 -192z
m-2771 13 c19 -19 34 -23 80 -21 32 1 77 9 101 17 56 21 64 20 49 -3 -9 -15
-8 -24 5 -44 20 -30 18 -32 -59 -52 -107 -28 -207 -15 -244 32 -51 65 8 127
68 71z m631 -257 c44 -140 80 -255 78 -257 -11 -9 -259 -85 -268 -82 -9 3
-182 516 -175 519 34 15 273 84 278 80 3 -3 43 -120 87 -260z m2012 -1556
c163 -19 307 -47 400 -78 79 -27 149 -63 149 -77 0 -36 -185 -102 -374 -134
-423 -73 -967 -60 -1331 30 -98 25 -227 80 -229 99 -5 44 256 125 504 155 261
32 635 34 881 5z m-1336 -375 c134 -57 412 -104 719 -120 407 -22 918 33 1123
121 25 10 47 19 49 19 2 0 4 -99 4 -221 l0 -220 -64 -29 c-181 -83 -515 -130
-916 -130 -395 0 -711 44 -903 126 l-67 29 0 223 c0 122 2 222 4 222 2 0 25
-9 51 -20z m1 -494 c190 -91 699 -148 1117 -126 306 17 561 60 715 123 l62 26
0 -31 c0 -35 -15 -50 -80 -79 -166 -76 -431 -117 -795 -126 -447 -10 -818 38
-1005 130 -61 30 -65 34 -68 70 -2 20 -2 37 1 37 2 0 25 -11 53 -24z"/>
<path d="M2756 4908 l-47 -43 76 -75 75 -75 -77 -77 -76 -77 45 -47 45 -47 77
73 77 73 75 -74 74 -74 45 45 45 45 -70 72 c-39 40 -70 77 -70 82 0 5 34 40
75 78 l74 68 -47 48 -46 47 -77 -76 -76 -75 -70 75 c-39 42 -73 76 -75 76 -2
0 -26 -19 -52 -42z"/>
<path d="M890 3105 l-44 -45 104 -108 c58 -59 143 -147 189 -195 46 -48 87
-87 92 -87 5 0 28 18 51 39 l42 40 -121 128 c-67 70 -155 161 -195 201 l-74
72 -44 -45z"/>
<path d="M2667 3313 c-4 -3 -7 -17 -7 -30 0 -22 -2 -23 -95 -23 -83 0 -96 -2
-105 -19 -5 -11 -10 -22 -10 -25 0 -3 45 -6 101 -6 100 0 101 0 96 -22 -3 -13
-9 -44 -12 -70 l-7 -48 87 0 c85 0 87 0 82 23 -3 12 -9 43 -12 70 l-7 47 101
0 c55 0 101 3 101 8 0 4 -7 15 -14 25 -11 14 -29 17 -104 17 l-90 0 -7 30 c-6
28 -10 30 -49 30 -24 0 -46 -3 -49 -7z"/>
<path d="M2133 1459 c-38 -24 -53 -67 -53 -152 0 -73 17 -114 79 -188 54 -64
69 -108 52 -152 -21 -54 -71 -25 -71 42 0 29 -3 31 -36 31 l-35 0 7 -57 c11
-96 40 -133 102 -133 71 0 107 68 100 189 -5 83 -16 108 -80 176 -46 49 -62
92 -50 137 6 26 13 33 32 33 21 0 26 -7 33 -42 7 -39 11 -43 38 -43 26 0 29 3
29 33 0 61 -19 107 -53 127 -40 25 -54 25 -94 -1z"/>
<path d="M1240 1165 l0 -305 36 0 35 0 -2 123 -3 122 44 5 c36 4 48 11 67 38
53 80 37 278 -26 312 -11 5 -49 10 -85 10 l-66 0 0 -305z"/>
<path d="M1500 1165 l0 -306 33 3 32 3 0 300 0 300 -32 3 -33 3 0 -306z"/>
<path d="M1640 1165 l0 -305 80 0 80 0 0 50 0 50 -50 0 -50 0 0 255 0 255 -30
0 -30 0 0 -305z"/>
<path d="M1850 1165 l0 -305 91 0 90 0 -3 43 -3 42 -57 3 -58 3 0 89 0 90 50
0 50 0 0 45 0 45 -50 0 -50 0 0 80 0 80 55 0 55 0 0 45 0 45 -85 0 -85 0 0
-305z"/>
<path d="M2450 1165 l0 -305 90 0 90 0 0 45 0 45 -55 0 -55 0 0 90 0 90 50 0
50 0 0 45 0 45 -50 0 -50 0 0 80 0 80 55 0 55 0 0 45 0 45 -90 0 -90 0 0 -305z"/>
<path d="M2660 1420 l0 -50 40 0 40 0 0 -255 0 -255 30 0 30 0 0 255 0 255 40
0 40 0 0 50 0 50 -110 0 -110 0 0 -50z"/>
<path d="M715 607 c-39 -33 -55 -115 -55 -287 0 -156 16 -258 44 -289 42 -46
124 -30 144 29 6 17 14 57 18 90 l7 60 -31 0 c-28 0 -32 -4 -37 -37 -12 -76
-15 -83 -35 -83 -37 0 -44 36 -43 220 0 185 8 230 42 230 23 0 31 -19 31 -71
0 -37 2 -39 30 -39 29 0 30 1 30 48 0 99 -32 152 -92 152 -15 0 -39 -10 -53
-23z"/>
<path d="M978 610 c-42 -33 -53 -95 -53 -300 0 -216 11 -264 69 -295 29 -16
38 -17 65 -5 41 17 60 55 68 135 l6 65 -32 0 c-25 0 -31 -4 -31 -22 0 -48 -20
-98 -39 -98 -32 0 -41 52 -40 229 1 182 6 214 33 219 25 5 36 -15 36 -66 0
-43 0 -43 33 -40 30 3 32 6 31 38 -3 132 -72 199 -146 140z"/>
<path d="M3698 623 c-9 -2 -27 -21 -40 -41 -19 -31 -23 -51 -23 -117 1 -90 13
-122 74 -189 49 -53 61 -77 61 -118 0 -42 -20 -71 -46 -66 -14 2 -22 17 -29
53 -10 44 -14 50 -39 53 l-28 4 4 -66 c7 -107 61 -157 132 -123 50 23 68 64
69 156 0 79 -20 140 -59 172 -40 33 -74 92 -74 130 0 50 8 69 31 69 22 0 39
-28 39 -64 0 -22 4 -26 30 -26 29 0 30 2 30 44 0 101 -50 151 -132 129z"/>
<path d="M440 610 c0 -14 -78 -536 -86 -573 -5 -25 -3 -27 29 -27 l34 0 7 70
7 70 49 0 c53 0 50 5 65 -97 6 -39 10 -43 34 -43 15 0 30 2 33 5 2 3 -15 136
-38 297 -24 161 -44 296 -44 301 0 11 -90 8 -90 -3z"/>
<path d="M1189 603 c-5 -116 4 -495 12 -520 13 -40 62 -83 94 -83 34 0 83 45
95 88 5 21 10 147 10 285 l0 247 -30 0 -30 0 0 -234 c0 -254 -6 -296 -45 -296
-39 0 -45 42 -45 296 l0 234 -30 0 c-22 0 -30 -5 -31 -17z"/>
<path d="M1470 315 l0 -305 30 0 30 0 0 237 c0 130 2 234 5 231 3 -2 16 -92
30 -199 14 -107 27 -205 29 -219 3 -14 5 -31 5 -37 1 -7 14 -13 30 -13 34 0
29 -18 67 260 14 107 28 197 30 199 2 2 4 -100 4 -227 l0 -232 30 0 30 0 0
305 0 305 -50 0 c-48 0 -49 -1 -54 -32 -10 -56 -46 -340 -46 -357 0 -9 -3 -11
-8 -6 -5 6 -14 57 -21 115 -6 58 -16 144 -22 193 l-12 87 -53 0 -54 0 0 -305z"/>
<path d="M1860 371 c0 -257 5 -296 43 -338 45 -50 120 -33 154 37 16 30 18 71
21 293 l3 257 -29 0 c-28 0 -30 -3 -36 -49 -4 -27 -6 -137 -5 -244 1 -203 -5
-237 -40 -237 -42 0 -46 21 -49 282 l-4 248 -29 0 -29 0 0 -249z"/>
<path d="M2150 315 l0 -305 83 0 82 0 1 50 1 50 -54 0 -53 0 0 255 0 255 -30
0 -30 0 0 -305z"/>
<path d="M2417 578 c-25 -178 -78 -527 -82 -545 -5 -20 -2 -23 29 -23 l34 0 7
70 7 70 49 0 c55 0 55 1 64 -82 l6 -58 36 0 c32 0 34 2 29 27 -3 16 -22 138
-41 273 -50 346 -39 310 -90 310 -42 0 -42 0 -48 -42z"/>
<path d="M2590 570 l0 -50 40 0 40 0 0 -255 0 -255 30 0 30 0 0 255 0 255 40
0 40 0 0 50 0 50 -110 0 -110 0 0 -50z"/>
<path d="M2850 315 l0 -305 90 0 90 0 0 45 0 45 -55 0 -55 0 0 95 0 95 50 0
50 0 0 39 0 40 -52 3 c-29 2 -52 6 -50 11 1 4 2 39 2 77 l0 70 55 0 55 0 0 45
0 45 -90 0 -90 0 0 -305z"/>
<path d="M3090 373 c0 -137 5 -264 10 -284 21 -74 93 -108 144 -68 55 43 60
70 64 347 l4 252 -36 0 -36 0 0 -240 c0 -255 -6 -293 -44 -288 -40 6 -46 39
-46 291 l0 237 -30 0 -30 0 0 -247z"/>
<path d="M3370 315 l0 -305 35 0 35 0 0 130 c0 138 4 147 46 116 16 -12 20
-31 24 -128 l5 -113 32 -3 31 -3 -4 103 c-7 140 -11 165 -36 182 l-20 14 21
23 c26 29 34 71 29 159 -3 50 -9 77 -24 97 -19 26 -27 28 -98 31 l-76 3 0
-306z"/>
</g>
</svg>
