<?xml version="1.0" standalone="no"?>
<!DOCTYPE svg PUBLIC "-//W3C//DTD SVG 20010904//EN"
 "http://www.w3.org/TR/2001/REC-SVG-20010904/DTD/svg10.dtd">
<svg version="1.0" xmlns="http://www.w3.org/2000/svg"
 width="486.000000pt" height="600.000000pt" viewBox="0 0 486.000000 600.000000"
 preserveAspectRatio="xMidYMid meet">
<metadata>
Created by potrace 1.12, written by Peter Selinger 2001-2015
</metadata>
<g transform="translate(0.000000,600.000000) scale(0.100000,-0.100000)"
fill="#000000" stroke="none">
<path d="M775 5994 c-209 -26 -363 -96 -504 -228 -146 -138 -234 -312 -261
-516 -8 -60 -10 -575 -8 -1740 l3 -1655 28 -89 c96 -306 315 -520 611 -596 77
-19 111 -20 1790 -20 l1712 -1 87 26 c303 88 519 310 603 620 18 67 19 134 19
1770 0 1642 -1 1703 -19 1775 -28 110 -61 185 -121 275 -123 183 -288 301
-511 362 -54 15 -213 17 -1729 19 -919 0 -1683 0 -1700 -2z m3383 -120 c303
-62 532 -301 581 -604 7 -43 11 -609 11 -1708 0 -1789 2 -1713 -55 -1855 -72
-176 -231 -331 -415 -405 -133 -54 -66 -52 -1840 -52 -1096 0 -1666 4 -1709
11 -247 40 -464 209 -561 437 -63 149 -60 58 -60 1864 0 1093 4 1665 11 1707
38 238 194 447 409 549 58 27 141 53 210 65 14 2 771 5 1683 6 1480 1 1666 -1
1735 -15z"/>
<path d="M2777 5175 c-261 -32 -420 -82 -496 -157 -58 -56 -62 -76 -61 -304 1
-113 0 -207 -2 -208 -2 -1 -91 2 -198 8 -140 7 -260 6 -425 -2 -605 -32 -989
-143 -1075 -313 -18 -35 -20 -59 -20 -279 0 -273 3 -287 80 -353 151 -129 565
-223 1053 -240 48 -1 87 -7 87 -12 0 -6 -5 -27 -11 -47 -6 -23 -9 -214 -7
-501 l3 -464 30 -48 c87 -141 356 -232 855 -287 178 -20 758 -17 940 5 404 49
668 131 768 240 23 26 47 59 52 73 6 15 10 217 10 500 0 529 2 513 -69 582
-100 97 -317 170 -641 216 -115 16 -335 35 -445 39 -57 2 -69 5 -66 17 2 8 7
31 12 50 5 19 9 107 9 195 l0 161 162 13 c372 29 591 100 649 211 17 32 19 62
19 348 0 241 -3 320 -14 345 -44 107 -258 186 -591 217 -148 14 -475 11 -608
-5z m678 -195 c144 -19 305 -62 305 -80 0 -12 -84 -38 -196 -60 -306 -60 -780
-46 -1041 31 -40 12 -73 26 -73 30 0 21 222 70 396 88 109 12 500 6 609 -9z
m-926 -310 c316 -82 912 -76 1200 11 35 10 65 19 67 19 2 0 4 -49 4 -109 l0
-108 -67 -22 c-173 -54 -350 -75 -638 -74 -225 0 -233 1 -348 31 -64 17 -164
39 -222 48 l-104 17 -3 31 c-2 17 -2 66 0 109 3 68 6 78 20 72 9 -3 50 -15 91
-25z m1271 -279 c0 -37 -2 -39 -52 -59 -115 -46 -285 -75 -506 -87 -114 -7
-125 -6 -145 12 -12 11 -40 32 -62 47 l-40 26 95 0 c223 0 518 36 640 79 30
10 58 19 63 20 4 0 7 -16 7 -38z m-1725 -71 c416 -25 752 -96 869 -185 25 -19
15 -30 -56 -66 -113 -57 -276 -97 -535 -131 -143 -18 -218 -22 -503 -22 -427
-1 -649 21 -910 90 -123 33 -242 89 -238 112 2 9 32 31 68 49 161 81 469 135
880 156 133 7 267 6 425 -3z m-1359 -439 c5 -5 38 -18 73 -30 167 -57 419
-101 691 -122 173 -13 699 -6 840 11 232 28 466 78 579 124 59 24 61 24 61 5
0 -41 -198 -109 -430 -149 -216 -37 -403 -51 -695 -51 -282 0 -418 8 -620 37
-269 38 -525 119 -525 166 0 19 10 23 26 9z m25 -107 c103 -53 384 -114 644
-139 205 -21 630 -23 825 -6 322 29 553 78 733 156 14 6 17 2 17 -27 0 -43
-17 -59 -100 -96 -80 -36 -138 -49 -255 -57 -109 -7 -316 -38 -433 -64 -290
-65 -1024 -9 -1326 100 -120 43 -150 65 -154 112 -4 41 4 45 49 21z m2644
-354 c329 -28 584 -82 718 -152 31 -17 57 -36 57 -43 0 -32 -157 -97 -325
-134 -232 -51 -467 -72 -805 -72 -363 0 -625 27 -865 88 -97 24 -265 95 -265
112 0 61 347 160 670 190 63 6 131 13 150 14 84 9 556 6 665 -3z m-1325 -484
c543 -163 1597 -146 2043 35 l67 27 0 -260 0 -259 -65 -30 c-133 -60 -324
-103 -602 -135 -188 -22 -708 -25 -893 -6 -275 29 -531 84 -650 141 l-55 26
-5 253 c-3 139 -4 256 -2 261 2 5 20 1 40 -9 20 -10 75 -29 122 -44z m-20
-571 c351 -121 1057 -159 1591 -85 218 30 373 71 527 137 20 8 15 -61 -5 -79
-98 -86 -431 -161 -833 -188 -518 -34 -1107 31 -1343 149 -66 33 -72 39 -78
73 -3 21 -4 40 -1 43 2 2 21 -3 41 -11 20 -9 65 -26 101 -39z"/>
<path d="M3060 4950 c0 -19 -7 -20 -89 -20 -50 0 -93 -4 -96 -10 -4 -6 25 -10
81 -10 l87 0 -6 -40 -5 -40 75 0 75 0 -7 27 c-3 15 -7 32 -8 38 -1 6 33 11 86
13 113 4 106 22 -10 22 -76 0 -85 2 -90 20 -4 16 -14 20 -49 20 -37 0 -44 -3
-44 -20z"/>
<path d="M1531 4163 c-8 -21 -16 -44 -18 -50 -4 -10 63 -13 316 -13 l321 0
-19 48 -19 47 -284 3 -284 2 -13 -37z"/>
<path d="M2976 3364 c-3 -9 -6 -24 -6 -35 0 -18 -8 -19 -108 -19 l-108 0 -17
-30 -18 -30 114 0 c62 0 116 -2 119 -5 5 -5 2 -29 -16 -127 l-5 -28 101 0 101
0 -6 38 c-4 20 -9 56 -13 80 l-7 42 121 0 121 0 -17 30 -17 30 -112 0 c-62 0
-112 3 -112 8 1 4 1 19 0 35 -1 26 -3 27 -55 27 -40 0 -55 -4 -60 -16z"/>
<path d="M1707 719 c-59 -35 -83 -207 -40 -299 11 -25 43 -71 72 -103 57 -65
68 -93 63 -164 -2 -22 -26 -53 -42 -53 -20 0 -39 33 -45 80 -7 49 -7 50 -42
50 l-36 0 5 -76 c7 -110 54 -164 130 -150 79 15 113 87 106 222 -4 70 -9 88
-36 130 -17 27 -45 63 -62 79 -42 40 -60 76 -60 120 0 49 16 75 44 75 27 0 36
-17 36 -65 0 -36 13 -46 53 -38 31 6 33 22 16 102 -14 67 -49 101 -103 101
-22 0 -49 -5 -59 -11z"/>
<path d="M2473 706 c-46 -39 -55 -83 -60 -287 -5 -198 6 -312 34 -360 18 -30
67 -59 102 -59 32 0 89 57 103 103 18 59 18 466 0 526 -29 95 -114 131 -179
77z m98 -93 c11 -12 15 -64 17 -206 4 -204 -1 -269 -23 -291 -23 -23 -54 -8
-66 33 -16 54 -8 443 10 464 17 22 45 22 62 0z"/>
<path d="M3422 714 c-34 -24 -50 -63 -63 -160 -15 -114 -7 -380 15 -448 39
-126 152 -142 207 -29 23 46 24 56 24 283 0 253 -6 297 -50 344 -19 20 -33 26
-67 26 -24 0 -54 -7 -66 -16z m100 -121 c9 -26 12 -96 12 -223 0 -210 -10
-260 -49 -260 -45 0 -50 28 -50 260 0 232 5 260 50 260 18 0 26 -8 37 -37z"/>
<path d="M4107 710 c-40 -32 -60 -97 -55 -182 5 -90 29 -143 99 -221 46 -51
53 -63 57 -110 3 -41 0 -57 -15 -76 -35 -43 -73 -4 -73 75 0 33 -1 34 -41 34
l-42 0 6 -59 c13 -124 62 -182 140 -167 71 13 102 79 101 211 0 83 -23 137
-84 203 -60 64 -72 87 -72 136 -1 50 14 76 43 76 21 0 39 -35 39 -75 0 -24 20
-35 53 -27 36 9 16 141 -27 185 -25 24 -96 23 -129 -3z"/>
<path d="M672 368 l3 -352 32 -3 32 -3 3 148 c3 123 5 146 18 144 26 -6 77 8
99 28 65 56 68 302 5 365 -23 23 -33 25 -110 25 l-84 0 2 -352z m142 230 c19
-27 21 -125 4 -163 -9 -19 -19 -25 -45 -25 l-33 0 0 105 0 105 29 0 c20 0 35
-8 45 -22z"/>
<path d="M970 370 c0 -192 3 -350 8 -351 4 -1 21 -2 37 -3 l30 -1 3 353 2 352
-40 0 -40 0 0 -350z"/>
<path d="M1130 367 l0 -352 76 -3 c110 -4 114 -1 114 64 l0 54 -60 0 -60 0 0
295 0 295 -35 0 -35 0 0 -353z"/>
<path d="M1372 368 l3 -353 100 0 100 0 3 52 3 53 -65 0 -66 0 0 105 0 105 60
0 60 0 0 55 0 55 -60 0 -60 0 0 90 0 90 65 0 65 0 0 50 0 50 -105 0 -105 0 2
-352z"/>
<path d="M2080 364 l0 -356 90 4 c84 3 91 5 120 33 60 61 64 254 5 315 -25 27
-25 27 -5 45 57 51 52 248 -8 295 -20 17 -40 20 -113 20 l-89 0 0 -356z m156
235 c13 -14 18 -35 18 -72 0 -71 -16 -97 -58 -97 l-34 0 -4 58 c-1 31 -1 74 1
95 3 33 6 37 31 37 15 0 35 -9 46 -21z m-1 -283 c14 -10 20 -30 23 -80 5 -84
-12 -116 -62 -116 -19 0 -36 4 -38 10 -1 5 -2 52 0 105 l3 95 28 0 c15 0 36
-6 46 -14z"/>
<path d="M2750 423 c0 -268 2 -302 19 -338 37 -80 99 -105 161 -63 64 43 69
74 69 406 l1 292 -34 0 -35 0 -3 -283 c-3 -251 -5 -286 -21 -310 -21 -32 -38
-34 -63 -6 -18 20 -19 42 -22 310 l-3 289 -35 0 -34 0 0 -297z"/>
<path d="M3050 665 l0 -55 45 0 45 0 0 -299 c0 -280 1 -299 18 -296 9 2 27 4
40 4 l23 1 -1 293 -1 292 45 3 46 3 0 55 0 54 -130 0 -130 0 0 -55z"/>
<path d="M3690 370 c0 -192 3 -350 8 -351 4 0 19 -3 35 -5 l27 -5 0 262 c0
144 2 260 5 257 3 -2 27 -116 54 -252 27 -136 51 -250 55 -253 3 -3 25 -6 48
-7 l43 -1 3 353 2 352 -35 0 -35 0 -2 -242 -3 -243 -50 243 -49 242 -53 0 -53
0 0 -350z"/>
</g>
</svg>
