<?xml version="1.0" standalone="no"?>
<!DOCTYPE svg PUBLIC "-//W3C//DTD SVG 20010904//EN"
 "http://www.w3.org/TR/2001/REC-SVG-20010904/DTD/svg10.dtd">
<svg version="1.0" xmlns="http://www.w3.org/2000/svg"
 width="488.000000pt" height="600.000000pt" viewBox="0 0 488.000000 600.000000"
 preserveAspectRatio="xMidYMid meet">
<metadata>
Created by potrace 1.12, written by Peter Selinger 2001-2015
</metadata>
<g transform="translate(0.000000,600.000000) scale(0.100000,-0.100000)"
fill="#000000" stroke="none">
<path d="M736 5989 c-95 -13 -230 -60 -317 -111 -97 -57 -241 -201 -297 -297
-54 -92 -98 -222 -111 -331 -15 -116 -15 -3263 -1 -3378 38 -301 245 -571 524
-682 159 -64 49 -61 1939 -58 1909 3 1729 -3 1892 65 264 110 468 383 505 675
14 115 14 3262 -1 3378 -24 194 -102 353 -244 495 -121 121 -236 187 -405 232
-60 16 -186 17 -1740 19 -941 1 -1705 -2 -1744 -7z m3484 -121 c269 -83 463
-285 532 -553 10 -40 13 -400 13 -1755 l0 -1705 -23 -78 c-75 -261 -259 -441
-528 -519 l-79 -23 -1695 0 -1695 0 -79 23 c-224 65 -389 200 -482 397 -75
157 -69 -2 -72 1865 -2 1126 1 1697 8 1743 24 159 93 292 214 412 108 108 246
180 392 205 27 4 812 7 1744 6 1560 -1 1699 -3 1750 -18z"/>
<path d="M3193 5580 c-219 -4 -265 -8 -278 -21 -14 -14 -22 -52 -75 -384 -17
-102 -11 -136 26 -160 36 -23 36 -23 2 -190 -24 -121 -71 -264 -182 -552 -121
-316 -203 -583 -222 -721 l-6 -50 -117 -6 c-207 -10 -444 -28 -538 -40 l-93
-12 0 363 0 362 -114 218 c-257 493 -286 554 -286 594 0 32 3 39 20 39 19 0
20 7 20 200 l0 200 -260 0 -260 0 0 -200 c0 -171 2 -200 15 -200 11 0 15 -12
15 -47 0 -39 -14 -74 -89 -217 -49 -94 -136 -264 -195 -377 l-106 -207 0 -947
c0 -690 3 -958 12 -986 15 -53 68 -112 123 -138 41 -19 61 -21 259 -21 l215 0
32 -68 c50 -103 175 -222 304 -289 157 -81 347 -132 615 -165 169 -21 761 -18
930 5 365 49 593 133 736 269 l41 39 229 0 c248 -1 286 5 308 47 30 58 90 326
118 522 20 145 17 518 -6 655 -56 337 -138 539 -366 895 -182 285 -242 388
-324 550 -86 171 -109 228 -136 334 -27 107 -26 118 11 135 56 24 56 40 15
264 -46 248 -51 270 -73 289 -27 23 -36 24 -320 18z m-103 -280 c0 -66 1 -123
3 -127 1 -5 -17 -9 -40 -11 -51 -4 -50 -12 -26 145 16 107 18 113 40 113 23 0
23 -1 23 -120z m108 -7 l-3 -128 -25 0 -25 0 -3 128 -3 127 31 0 31 0 -3 -127z
m197 105 c25 -112 42 -225 36 -231 -5 -5 -24 -7 -42 -5 l-34 3 -3 128 c-2 121
-2 127 18 127 12 0 21 -8 25 -22z m-2245 -444 c0 -56 5 -74 44 -146 23 -46 85
-164 136 -263 51 -99 110 -212 131 -252 22 -39 39 -74 39 -77 0 -3 -185 -6
-411 -6 l-410 0 7 23 c3 12 10 27 14 32 4 6 44 82 90 170 45 88 118 228 161
311 75 143 79 155 79 215 l0 64 60 -3 60 -4 0 -64z m2232 -22 c23 -212 185
-544 500 -1030 168 -259 234 -396 292 -602 97 -348 95 -751 -7 -1165 l-22 -90
-142 -3 c-79 -1 -143 0 -143 3 0 3 9 32 20 65 11 33 27 108 35 167 23 164 40
211 102 289 67 84 73 98 73 180 0 36 5 109 11 162 18 148 -8 293 -88 487 -99
245 -252 494 -378 621 -138 137 -276 152 -359 41 -18 -24 -21 -42 -20 -110 1
-76 7 -98 77 -287 41 -113 78 -213 82 -222 9 -22 -2 -23 -110 -3 -134 23 -355
46 -522 53 l-158 7 3 35 c10 107 83 343 210 680 152 404 192 535 213 701 l12
89 156 -2 156 -3 7 -63z m-1842 -1117 l0 -285 -455 0 -455 0 0 285 0 285 455
0 455 0 0 -285z m1948 115 c55 -44 137 -147 202 -255 80 -132 198 -380 186
-392 -3 -3 -40 9 -83 25 -43 17 -102 39 -132 49 l-54 18 -28 80 c-15 44 -53
152 -84 240 -105 293 -106 313 -7 235z m-1948 -484 c0 -33 -1 -34 -57 -45 -41
-8 -177 -11 -453 -9 l-395 3 -3 28 c-7 60 -33 57 458 57 l450 0 0 -34z m-315
-116 c-3 -5 -12 -10 -18 -10 -7 0 -46 -16 -86 -35 l-73 -35 -207 2 -206 3 -3
28 c-7 59 -18 57 303 57 195 0 294 -3 290 -10z m1650 -10 c514 -41 919 -145
1040 -266 40 -40 43 -59 12 -95 -99 -115 -452 -217 -932 -269 -157 -17 -668
-24 -860 -11 -552 36 -1008 156 -1102 290 -44 64 58 142 283 216 182 60 481
113 759 134 157 12 659 12 800 1z m-1946 -157 c-18 -21 -38 -41 -44 -45 -5 -5
-64 -7 -130 -6 l-120 3 -3 43 -3 42 167 0 168 0 -35 -37z m-73 -134 c-3 -17
-6 -37 -6 -43 0 -8 -33 -10 -110 -8 l-110 3 0 40 0 39 116 0 117 0 -7 -31z m2
-147 l3 -43 -113 3 -113 3 -3 28 c-7 56 -2 58 115 55 l108 -3 3 -43z m2 -137
l0 -46 -112 3 -113 3 -3 28 c-6 55 -2 57 118 57 l110 0 0 -45z m361 -71 c575
-197 1597 -227 2289 -68 133 31 279 79 351 115 80 40 90 26 33 -43 -86 -102
-114 -173 -138 -350 -25 -180 -57 -258 -140 -346 -111 -118 -310 -199 -596
-242 -293 -45 -777 -47 -1066 -4 -255 37 -481 120 -588 215 -99 87 -139 177
-167 366 -27 187 -68 292 -144 363 -15 14 -25 35 -25 51 l0 27 59 -29 c32 -16
92 -41 132 -55z m-318 -64 l28 -40 -150 0 -151 0 0 40 0 40 123 0 122 0 28
-40z m93 -136 c8 -18 14 -36 14 -39 0 -3 -85 -5 -190 -5 l-190 0 0 40 0 40
168 2 c92 2 171 1 176 -1 4 -2 14 -18 22 -37z m27 -101 c3 -5 7 -35 8 -68 l4
-60 -182 0 c-203 0 -209 2 -220 68 -11 68 -15 67 196 67 104 0 192 -3 194 -7z"/>
<path d="M1286 2394 c-23 -23 -20 -61 7 -78 27 -17 193 -58 345 -85 121 -22
155 -18 168 21 11 36 -20 65 -78 73 -76 10 -281 52 -341 70 -64 19 -82 19
-101 -1z"/>
<path d="M3535 2384 c-127 -34 -341 -70 -540 -91 -131 -13 -258 -17 -553 -18
-357 0 -385 -1 -397 -18 -15 -20 -10 -51 11 -68 24 -20 394 -31 649 -20 349
16 587 46 844 107 134 32 170 65 121 114 -24 24 -22 24 -135 -6z"/>


</g>
</svg>
