<?xml version="1.0" standalone="no"?>
<!DOCTYPE svg PUBLIC "-//W3C//DTD SVG 20010904//EN"
 "http://www.w3.org/TR/2001/REC-SVG-20010904/DTD/svg10.dtd">
<svg version="1.0" xmlns="http://www.w3.org/2000/svg"
 width="418.000000pt" height="600.000000pt" viewBox="0 0 418.000000 600.000000"
 preserveAspectRatio="xMidYMid meet">
<metadata>
Created by potrace 1.12, written by Peter Selinger 2001-2015
</metadata>
<g transform="translate(0.000000,600.000000) scale(0.100000,-0.100000)"
fill="#000000" stroke="none">
<path d="M660 5994 c-97 -15 -153 -29 -205 -52 -212 -91 -377 -281 -432 -498
-17 -65 -18 -161 -18 -1534 0 -1647 -6 -1518 76 -1685 74 -152 184 -260 344
-336 152 -72 70 -69 1665 -69 1597 0 1509 -4 1668 70 198 93 340 265 398 485
18 67 19 136 19 1535 0 1635 5 1520 -70 1671 -112 226 -314 374 -559 408 -72
10 -2820 14 -2886 5z m2960 -111 c88 -28 116 -41 180 -84 119 -79 224 -223
266 -364 16 -55 18 -130 21 -909 4 -813 3 -848 -14 -843 -10 3 -98 38 -195 78
l-178 72 0 167 c0 194 8 178 -120 238 -47 22 -251 117 -455 212 -203 95 -385
179 -403 187 -30 12 -40 12 -102 -8 l-68 -22 -244 91 c-134 51 -364 138 -512
195 l-270 104 -105 -67 c-58 -37 -188 -119 -288 -182 -99 -64 -239 -148 -310
-188 -70 -40 -177 -101 -238 -135 -60 -34 -161 -90 -223 -125 -62 -35 -117
-71 -122 -81 -13 -23 -13 -215 -1 -238 6 -10 28 -30 50 -46 23 -15 41 -31 41
-35 0 -5 -20 -21 -45 -37 -55 -34 -58 -45 -53 -226 3 -119 5 -138 22 -150 16
-12 820 -380 1611 -737 154 -70 305 -139 335 -153 264 -122 500 -227 513 -227
13 0 99 64 153 115 6 5 36 30 65 55 30 25 74 63 99 85 150 135 168 148 206
141 19 -4 41 -9 49 -12 9 -4 45 41 103 125 77 113 105 144 206 231 297 256
347 299 408 353 36 31 70 57 77 57 15 0 16 -946 0 -1056 -29 -213 -154 -389
-342 -483 -152 -76 -66 -72 -1687 -69 l-1445 3 -65 23 c-246 83 -411 287 -440
544 -8 63 -10 539 -8 1493 4 1566 -2 1439 76 1590 49 95 172 218 267 267 61
31 149 58 235 72 14 2 669 3 1455 2 1426 -1 1430 -1 1495 -23z m-1819 -1127
c123 -46 296 -110 384 -141 88 -32 164 -62 168 -65 5 -4 -51 -13 -123 -20
-112 -11 -130 -15 -126 -29 10 -35 18 -91 12 -91 -6 0 -84 36 -330 154 -87 42
-164 76 -171 76 -6 0 -94 -39 -196 -86 -101 -47 -231 -108 -289 -134 -58 -26
-150 -69 -205 -95 -55 -26 -120 -56 -145 -67 -25 -11 -107 -49 -183 -85 l-137
-64 -45 27 c-25 14 -45 27 -45 29 0 2 69 41 153 88 210 117 444 248 767 431
151 85 278 155 281 156 3 0 107 -38 230 -84z m-262 -198 c-24 -17 -144 -105
-266 -196 l-223 -164 0 -72 0 -72 281 -20 280 -19 77 63 c42 35 81 67 85 71 4
4 4 33 -1 64 l-9 57 124 0 123 0 0 75 0 75 74 -37 c62 -32 83 -50 130 -110 31
-39 56 -74 56 -78 0 -3 -34 -67 -75 -142 -41 -74 -75 -139 -75 -143 0 -4 -73
-35 -162 -70 -90 -35 -215 -83 -278 -108 -63 -25 -151 -56 -194 -68 l-79 -24
-56 26 c-31 15 -130 63 -221 107 -91 43 -201 96 -245 117 -252 118 -404 195
-398 200 5 4 82 41 173 83 91 41 273 126 405 187 132 61 271 126 310 143 38
18 94 44 125 59 75 36 93 35 39 -4z m271 -50 c169 -71 171 -73 168 -101 l-3
-29 -137 -1 c-76 0 -138 -3 -138 -7 0 -4 7 -24 16 -45 l15 -38 -68 -63 -68
-64 -80 5 c-44 3 -120 10 -170 15 -49 5 -123 12 -162 16 -40 3 -73 9 -73 13 0
3 17 17 37 30 20 13 104 74 187 135 254 188 279 206 292 206 7 0 90 -33 184
-72z m685 -8 l58 -20 66 21 66 21 380 -177 c209 -98 410 -191 448 -208 l67
-31 0 -56 0 -57 -145 -103 c-79 -56 -142 -107 -138 -113 3 -6 1 -7 -4 -4 -6 4
-134 -82 -284 -190 -151 -108 -320 -229 -377 -270 l-103 -73 -257 119 c-141
65 -340 158 -442 206 -102 48 -193 89 -202 92 -10 3 -18 9 -18 13 0 6 348 144
470 185 44 15 47 18 133 176 49 88 86 166 84 173 -3 8 -35 52 -72 100 -64 83
-85 126 -85 173 0 21 5 23 53 24 28 0 75 4 102 9 87 13 140 11 200 -10z m-750
-292 c8 -46 14 -39 -100 -127 l-50 -39 -250 18 c-137 11 -253 19 -257 20 -5 0
-8 23 -8 51 l0 51 33 -5 c17 -4 135 -16 261 -28 l229 -21 61 61 c33 34 64 61
68 61 3 0 9 -19 13 -42z m-1105 -231 c41 -19 152 -72 245 -117 94 -45 203 -98
244 -117 40 -19 148 -71 240 -115 91 -44 245 -117 341 -163 96 -45 258 -123
360 -172 102 -49 278 -134 393 -188 l207 -98 0 -63 0 -63 -82 38 c-46 21 -335
161 -643 311 -308 150 -627 305 -710 345 -82 40 -280 136 -439 214 -159 77
-291 141 -293 141 -2 0 -20 12 -39 26 -31 24 -34 30 -28 63 4 20 9 39 11 43 2
4 30 -5 61 -21 31 -16 91 -45 132 -64z m2940 -66 c0 -35 -5 -43 -42 -69 -24
-16 -198 -141 -388 -278 -489 -354 -588 -424 -594 -424 -3 0 -6 19 -6 43 l1
42 172 122 c95 68 323 231 507 363 184 132 338 240 343 240 4 0 7 -18 7 -39z
m-2910 -91 c55 -28 100 -52 100 -54 0 -2 -31 -28 -70 -57 -38 -30 -70 -58 -70
-62 0 -14 -39 -1 -150 51 l-104 50 48 33 c27 19 65 46 85 61 20 15 42 27 49
27 7 1 57 -22 112 -49z m2979 -95 c75 -30 178 -72 229 -94 l93 -38 -43 -36
c-41 -35 -43 -35 -46 -14 -3 18 -40 39 -203 116 -109 52 -199 98 -199 101 0
10 12 20 24 20 5 0 71 -25 145 -55z m-2524 -126 c160 -78 407 -199 550 -268
143 -70 269 -133 280 -140 l20 -12 -20 4 c-11 2 -141 41 -290 87 -148 45 -324
98 -390 117 -103 30 -574 229 -598 252 -14 13 115 112 138 107 12 -3 151 -69
310 -147z m-588 45 c533 -241 1318 -594 1408 -634 28 -12 97 -44 155 -70 123
-55 478 -211 533 -234 l37 -15 0 -85 c0 -48 -2 -86 -4 -86 -9 0 -288 126
-1216 550 -195 89 -418 191 -495 225 -77 35 -243 111 -370 168 l-230 105 -3
76 c-2 43 1 76 7 76 5 0 85 -34 178 -76z m2941 48 l52 -27 -87 -67 c-49 -37
-234 -176 -413 -309 -179 -133 -330 -246 -337 -251 -7 -6 -34 2 -78 25 l-67
33 76 55 c42 30 123 88 180 129 155 113 155 113 391 282 121 87 222 158 225
158 3 -1 29 -13 58 -28z m-1626 -168 c161 -75 358 -167 438 -204 241 -111 230
-104 230 -150 0 -22 -2 -40 -5 -40 -5 0 -376 172 -790 367 -99 47 -200 94
-225 106 l-45 20 50 18 c28 10 51 18 52 18 0 1 133 -60 295 -135z m1763 100
c30 -15 52 -31 49 -36 -3 -5 -40 -33 -82 -63 -81 -57 -250 -180 -515 -374 -87
-64 -168 -123 -180 -131 -12 -8 -53 -37 -92 -65 -38 -28 -76 -54 -82 -59 -10
-5 -13 7 -13 53 l0 60 328 245 c180 134 372 278 427 319 55 42 101 76 103 76
2 1 28 -11 57 -25z m182 -51 c34 -16 63 -30 63 -33 0 -10 -128 -100 -142 -99
-7 0 -40 13 -72 28 l-59 27 69 52 c38 28 71 52 74 52 3 0 33 -12 67 -27z
m-155 -130 c48 -20 67 -32 65 -43 -2 -8 -40 -67 -84 -130 -43 -63 -132 -194
-197 -290 -66 -96 -124 -180 -130 -187 -11 -12 -12 -12 -383 100 -57 16 -103
34 -103 38 0 5 10 13 21 20 12 6 90 61 173 122 83 60 174 126 201 145 55 39
162 118 270 199 39 28 76 52 84 53 8 0 46 -12 83 -27z m-1932 -215 l465 -140
240 -116 c132 -63 245 -119 252 -124 8 -7 27 1 58 23 45 32 46 33 98 20 28 -8
58 -17 65 -20 8 -5 -26 -34 -94 -80 -81 -55 -111 -71 -129 -67 -20 5 -368 157
-535 233 -30 14 -93 42 -140 63 -47 21 -170 76 -275 123 -104 47 -257 115
-340 152 -82 37 -154 72 -160 77 -7 8 -4 9 10 4 11 -4 229 -71 485 -148z
m1303 -394 c26 -9 47 -19 46 -22 0 -6 -157 -143 -320 -280 l-39 -34 0 99 1 98
112 77 c62 43 121 78 133 78 11 0 41 -7 67 -16z"/>
<path d="M1070 1165 l0 -305 36 0 36 0 -3 125 -4 125 36 0 c79 0 117 76 106
216 -9 121 -30 143 -134 144 l-73 0 0 -305z"/>
<path d="M1330 1165 l0 -305 80 0 80 0 0 50 0 50 -50 0 -50 0 0 255 0 255 -30
0 -30 0 0 -305z"/>
<path d="M1595 1458 c-6 -18 -85 -559 -85 -580 0 -13 8 -18 29 -18 29 0 30 2
36 58 9 83 9 82 64 82 l49 0 7 -70 7 -70 34 0 c19 0 34 3 34 8 0 13 -82 576
-86 590 -2 7 -20 12 -44 12 -24 0 -42 -5 -45 -12z"/>
<path d="M1782 1423 c3 -47 3 -48 38 -49 l35 0 3 -257 2 -257 30 0 30 0 2 258
3 257 38 -1 37 -2 0 49 0 49 -111 0 -110 0 3 -47z"/>
<path d="M2040 1165 l0 -305 30 0 30 0 0 130 c0 122 1 130 19 130 39 0 51 -27
51 -108 0 -42 3 -94 6 -114 6 -34 10 -38 35 -38 l29 0 0 84 c0 125 -9 172 -38
201 -13 14 -20 25 -14 25 35 0 60 127 42 213 -15 74 -34 87 -122 87 l-68 0 0
-305z"/>
<path d="M2290 1165 l0 -305 90 0 90 0 0 45 0 45 -55 0 -55 0 0 95 0 95 50 0
50 0 0 45 0 45 -50 0 -50 0 0 75 0 75 55 0 55 0 0 45 0 45 -90 0 -90 0 0 -305z"/>
<path d="M2620 1165 l0 -305 90 0 90 0 0 45 0 45 -55 0 -55 0 0 95 0 95 50 0
50 0 0 45 0 45 -50 0 -50 0 0 75 0 75 55 0 55 0 0 45 0 45 -90 0 -90 0 0 -305z"/>
<path d="M2832 1423 c3 -42 6 -48 26 -49 12 -1 28 -2 35 -3 9 -1 12 -59 12
-253 l0 -253 33 -3 32 -3 0 259 0 259 37 -1 37 -1 0 45 1 45 -108 3 -108 3 3
-48z"/>
<path d="M1622 617 c-27 -29 -42 -77 -42 -137 0 -69 17 -114 63 -171 64 -79
77 -101 77 -137 0 -44 -16 -72 -41 -72 -22 0 -39 35 -39 81 0 26 -3 29 -31 29
l-31 0 4 -65 c6 -99 56 -148 126 -123 54 19 72 60 72 164 0 91 -15 128 -74
192 -52 56 -68 90 -60 132 13 64 58 65 69 1 6 -37 9 -41 37 -41 l30 0 -4 55
c-7 77 -32 109 -89 113 -36 2 -49 -2 -67 -21z"/>
<path d="M847 610 c-44 -35 -52 -78 -52 -280 0 -210 5 -247 41 -290 25 -29 28
-30 115 -30 l89 0 0 45 c0 37 -3 45 -18 45 -10 0 -24 -6 -31 -12 -11 -11 -12
-9 -7 12 24 82 28 128 24 278 -3 153 -5 170 -26 204 -12 20 -29 39 -38 42 -31
12 -72 6 -97 -14z m90 -97 c14 -50 10 -375 -5 -401 -16 -29 -42 -25 -59 8 -15
30 -18 355 -3 394 14 37 57 36 67 -1z"/>
<path d="M60 315 l0 -305 30 0 30 0 0 125 0 125 34 0 c18 0 45 9 59 20 38 30
50 79 45 186 -6 132 -18 148 -122 152 l-76 3 0 -306z"/>
<path d="M310 315 l0 -305 85 0 85 0 0 50 0 50 -52 0 -53 0 3 255 3 255 -36 0
-35 0 0 -305z"/>
<path d="M575 588 c-6 -40 -85 -568 -85 -574 0 -2 13 -4 29 -4 33 0 36 6 46
88 l7 52 48 0 48 0 7 -42 c14 -97 15 -98 46 -98 22 0 29 5 29 20 0 11 -18 145
-40 296 -22 152 -40 280 -40 285 0 5 -20 9 -45 9 -42 0 -44 -2 -50 -32z"/>
<path d="M1072 358 c3 -253 4 -264 26 -299 53 -86 147 -70 181 30 7 22 11 123
11 282 l0 249 -30 0 -30 0 0 -237 c0 -250 -6 -284 -45 -291 -41 -8 -45 18 -45
280 l0 248 -36 0 -36 0 4 -262z"/>
<path d="M1354 607 c-2 -7 -3 -144 -2 -303 l3 -289 88 -3 87 -3 0 46 0 45 -55
0 -55 0 0 95 0 95 50 0 50 0 0 45 0 45 -50 0 -50 0 0 74 0 75 53 3 52 3 3 43
3 42 -86 0 c-61 0 -87 -4 -91 -13z"/>
<path d="M1930 315 l0 -305 64 0 c123 0 146 50 146 310 0 183 -14 257 -53 285
-14 10 -44 15 -89 15 l-68 0 0 -305z m137 175 c14 -41 17 -278 3 -334 -9 -42
-23 -56 -57 -56 l-23 0 0 216 0 215 33 -3 c27 -2 34 -9 44 -38z"/>
<path d="M2202 318 l3 -303 88 -3 87 -3 0 46 0 45 -55 0 -55 0 0 95 0 95 50 0
50 0 0 45 0 45 -50 0 -50 0 0 75 0 75 55 0 55 0 0 45 0 45 -90 0 -90 0 2 -302z"/>
<path d="M2540 315 l0 -305 30 0 30 0 0 125 0 125 34 0 c18 0 45 9 59 20 38
30 50 79 45 186 -6 132 -18 148 -122 152 l-76 3 0 -306z"/>
<path d="M2790 315 l0 -305 85 0 85 0 0 50 0 50 -55 0 -55 0 1 243 c0 133 0
248 0 255 -1 7 -14 12 -31 12 l-30 0 0 -305z"/>
<path d="M3056 593 c-3 -16 -13 -77 -21 -138 -9 -60 -27 -183 -40 -272 -14
-89 -25 -164 -25 -167 0 -3 13 -6 29 -6 31 0 32 1 46 97 l7 43 48 0 48 0 7
-42 c14 -97 15 -98 46 -98 37 0 37 -2 0 243 -16 105 -35 231 -42 280 l-12 87
-43 0 c-38 0 -43 -3 -48 -27z"/>
<path d="M3222 573 c3 -47 3 -48 38 -49 l35 0 3 -257 2 -257 30 0 30 0 0 255
0 255 33 1 c17 1 35 1 40 0 4 0 7 22 7 49 l0 50 -111 0 -110 0 3 -47z"/>
<path d="M3470 315 l1 -305 34 0 35 0 0 130 c0 122 1 130 19 130 37 0 51 -37
51 -136 0 -112 4 -124 41 -124 l28 0 -5 103 c-7 141 -12 164 -36 182 l-22 15
25 26 c22 24 24 33 24 129 0 96 -2 105 -24 129 -22 23 -32 26 -98 26 l-73 0 0
-305z"/>
<path d="M3730 315 l0 -305 90 0 90 0 0 45 0 44 -57 3 -58 3 0 90 0 90 53 3
53 3 -3 42 -3 42 -52 3 -53 3 0 75 0 74 55 0 c30 0 55 5 56 10 1 6 1 21 1 35
0 14 0 30 -1 35 -1 6 -37 10 -86 10 l-85 0 0 -305z"/>
</g>
</svg>
