<?xml version="1.0" standalone="no"?>
<!DOCTYPE svg PUBLIC "-//W3C//DTD SVG 20010904//EN"
 "http://www.w3.org/TR/2001/REC-SVG-20010904/DTD/svg10.dtd">
<svg version="1.0" xmlns="http://www.w3.org/2000/svg"
 width="486.000000pt" height="600.000000pt" viewBox="0 0 486.000000 600.000000"
 preserveAspectRatio="xMidYMid meet">
<metadata>
Created by potrace 1.12, written by Peter Selinger 2001-2015
</metadata>
<g transform="translate(0.000000,600.000000) scale(0.100000,-0.100000)"
fill="#000000" stroke="none">
<path d="M775 5994 c-209 -26 -363 -96 -504 -228 -146 -138 -234 -312 -261
-516 -8 -60 -10 -575 -8 -1740 l3 -1655 28 -89 c81 -258 235 -436 470 -546
173 -80 31 -75 1942 -75 l1700 0 88 28 c310 97 520 313 603 622 18 67 19 134
19 1770 0 1642 -1 1703 -19 1775 -28 109 -61 185 -121 275 -119 181 -288 301
-511 362 -54 15 -213 17 -1729 19 -919 0 -1683 0 -1700 -2z m3383 -120 c303
-62 532 -301 581 -604 7 -43 11 -609 11 -1708 0 -1789 2 -1713 -55 -1855 -72
-176 -231 -331 -415 -405 -133 -54 -65 -52 -1848 -52 -1777 0 -1721 -1 -1851
50 -178 70 -337 223 -411 398 -63 149 -60 58 -60 1864 0 1093 4 1665 11 1707
38 238 194 447 409 549 58 27 141 53 210 65 14 2 771 5 1683 6 1480 1 1666 -1
1735 -15z"/>
<path d="M1903 5420 c-561 -85 -1004 -756 -1073 -1624 -39 -500 51 -995 254
-1388 80 -156 171 -282 281 -393 144 -144 279 -227 452 -277 77 -23 87 -23
613 -23 524 0 537 1 614 23 487 137 855 683 968 1432 29 192 31 579 5 770 -80
571 -311 1037 -641 1292 -107 83 -192 128 -313 165 l-88 27 -510 2 c-280 1
-533 -1 -562 -6z m272 -176 c80 -19 205 -81 286 -142 327 -248 560 -796 587
-1382 30 -630 -133 -1192 -450 -1552 -118 -133 -262 -228 -413 -269 -105 -29
-277 -24 -374 11 -246 87 -454 302 -610 631 -295 622 -288 1485 16 2094 237
472 590 697 958 609z m806 6 c101 -26 246 -98 314 -156 l26 -22 -53 -76 c-29
-41 -58 -75 -64 -76 -7 0 -122 42 -256 93 -242 91 -246 93 -317 157 -40 36
-79 69 -87 73 -8 4 -14 12 -14 16 0 12 399 5 451 -9z m475 -317 c8 -10 44 -62
80 -115 l67 -96 -108 -136 c-59 -75 -108 -136 -110 -136 -1 0 -42 22 -91 50
-49 27 -137 75 -195 107 l-106 57 -51 95 c-29 52 -51 95 -50 96 2 2 85 -29
186 -66 101 -38 187 -67 192 -64 4 3 43 54 86 115 43 60 80 110 82 110 3 0 11
-8 18 -17z m239 -400 c26 -67 93 -274 98 -303 6 -34 5 -36 -85 -105 -50 -38
-96 -75 -102 -80 -6 -6 -37 -30 -68 -54 l-58 -43 -154 73 -155 74 -16 75 c-9
41 -28 113 -41 159 -13 47 -22 86 -20 88 3 4 33 -12 223 -118 59 -32 107 -59
108 -59 1 0 57 70 125 155 67 85 126 155 130 155 4 0 11 -8 15 -17z m160 -629
c15 -115 22 -250 15 -257 -3 -2 -90 -61 -194 -130 -112 -75 -194 -123 -200
-119 -6 5 -66 52 -133 106 -110 88 -123 102 -123 130 0 17 -5 83 -10 146 -5
63 -8 115 -6 117 1 2 68 -28 149 -67 80 -38 148 -70 150 -70 2 0 78 58 167
130 90 71 165 128 167 126 2 -2 10 -52 18 -112z m0 -666 c-13 -104 -19 -125
-37 -138 -18 -13 -174 -105 -321 -189 l-54 -31 -79 97 c-189 231 -172 203
-163 264 4 30 8 75 8 102 1 26 5 47 11 47 5 0 27 -15 47 -33 46 -40 183 -151
200 -161 7 -4 91 46 205 122 l193 129 3 -43 c2 -24 -4 -99 -13 -166z m-571
-418 c64 -77 122 -140 129 -140 6 0 27 9 44 20 132 80 316 181 321 176 8 -9
-49 -182 -93 -283 l-34 -78 -206 -36 c-137 -23 -208 -32 -213 -25 -3 6 -37 70
-74 143 l-67 132 32 116 c17 63 35 115 39 115 3 0 59 -63 122 -140z m-140
-557 c0 -1 89 14 196 32 107 19 196 32 198 30 6 -5 -76 -110 -139 -179 l-51
-56 -202 0 -202 0 -47 65 c-26 36 -47 67 -47 70 0 2 17 31 38 63 21 32 58 98
82 146 l44 88 64 -128 c35 -71 65 -130 66 -131z m-339 -261 l50 -71 115 -1
c123 -1 129 -8 26 -37 -54 -15 -466 -27 -466 -14 0 4 29 31 64 59 36 28 82 72
102 97 21 25 43 44 49 42 5 -2 33 -36 60 -75z"/>
<path d="M1929 4650 c-83 -25 -202 -133 -267 -242 -74 -124 -135 -315 -168
-524 -23 -147 -23 -477 0 -624 43 -278 134 -509 253 -645 73 -83 178 -135 272
-135 98 0 164 31 251 119 121 122 204 302 255 556 94 462 20 1002 -176 1296
-55 81 -148 163 -214 188 -57 22 -155 27 -206 11z m160 -169 c66 -34 67 -40
23 -128 -98 -195 -147 -414 -159 -703 -12 -329 44 -635 158 -863 45 -88 44
-94 -22 -128 -74 -37 -136 -20 -211 57 -90 94 -176 298 -212 504 -35 196 -35
511 -1 699 39 215 126 420 215 507 78 77 136 92 209 55z m211 -289 c117 -311
133 -777 40 -1113 -16 -59 -41 -133 -55 -165 -30 -69 -30 -69 -77 60 -130 355
-124 871 14 1229 35 91 40 91 78 -11z"/>
<path d="M3133 706 c-46 -39 -55 -83 -60 -287 -7 -268 13 -372 77 -399 14 -6
66 -10 116 -8 l89 3 3 53 c3 45 1 52 -15 52 -11 0 -24 -5 -31 -12 -21 -21 -23
-2 -5 43 14 36 17 79 17 239 1 216 -8 265 -54 312 -38 37 -96 39 -137 4z m103
-111 c18 -44 19 -391 1 -445 -14 -40 -45 -51 -68 -24 -20 25 -21 463 0 487 23
28 51 21 67 -18z"/>
<path d="M4047 719 c-34 -20 -57 -88 -57 -170 0 -100 19 -152 86 -228 66 -76
78 -102 69 -158 -7 -45 -26 -64 -56 -56 -17 5 -24 24 -31 93 -3 21 -9 25 -42
28 l-39 3 6 -71 c10 -116 53 -166 132 -155 48 7 63 19 86 70 13 29 19 64 19
125 0 104 -16 142 -93 229 -61 68 -76 110 -60 164 6 24 15 33 35 35 28 3 30 0
43 -65 6 -30 10 -33 41 -33 31 0 34 3 34 30 0 62 -21 130 -47 150 -28 22 -95
27 -126 9z"/>
<path d="M682 368 l3 -353 30 0 30 0 3 143 3 142 35 0 c48 0 90 24 111 63 14
25 18 57 18 147 0 182 -21 210 -155 210 l-80 0 2 -352z m148 233 c14 -26 13
-134 -2 -166 -9 -19 -19 -25 -45 -25 l-33 0 0 98 c0 54 3 102 7 105 14 15 63
7 73 -12z"/>
<path d="M970 370 c0 -381 -2 -370 55 -356 l25 6 -1 246 c0 135 1 247 3 249 2
2 26 -108 52 -245 39 -200 52 -250 65 -252 42 -3 67 -4 79 0 9 3 12 83 12 353
l0 349 -35 0 -35 0 -2 -242 c-3 -270 -4 -270 -52 -33 -15 72 -34 163 -42 203
l-16 72 -54 0 -54 0 0 -350z"/>
<path d="M1330 370 l0 -350 23 -5 c12 -3 58 -5 102 -3 l80 3 3 52 3 53 -70 0
-71 0 0 105 0 104 61 3 62 3 0 50 0 50 -62 3 -61 3 0 89 0 90 65 0 65 0 0 50
0 50 -100 0 -100 0 0 -350z"/>
<path d="M1596 437 c1 -155 5 -298 9 -317 9 -45 50 -98 83 -111 38 -15 93 4
120 40 36 49 41 103 42 394 l0 277 -35 0 -35 0 -1 -247 c0 -327 -11 -381 -69
-366 -34 9 -40 56 -40 339 l0 274 -38 0 -37 0 1 -283z"/>
<path d="M1920 365 l0 -356 35 3 35 2 0 270 c0 148 2 267 5 264 3 -3 19 -108
35 -234 40 -309 36 -291 65 -296 13 -3 29 -2 35 2 7 4 26 110 46 251 18 134
34 251 36 259 1 8 5 -104 8 -250 l5 -265 30 0 30 0 3 353 2 352 -58 0 -59 0
-28 -217 c-15 -120 -31 -226 -34 -236 -7 -19 -15 31 -48 306 l-17 147 -63 0
-63 0 0 -355z"/>
<path d="M2440 715 c0 -3 -22 -155 -50 -338 -27 -183 -50 -340 -50 -350 0 -13
7 -17 31 -15 36 3 43 16 53 101 l7 57 59 0 58 0 7 -62 c10 -83 17 -95 57 -94
39 1 41 -41 -18 359 -24 163 -44 308 -44 322 0 24 -3 25 -55 25 -30 0 -55 -2
-55 -5z"/>
<path d="M2630 665 l0 -55 45 0 45 0 0 -298 0 -299 35 -1 35 -1 0 299 0 300
45 0 45 0 0 55 0 55 -125 0 -125 0 0 -55z"/>
<path d="M2921 391 c-1 -181 1 -341 5 -355 6 -26 25 -33 58 -20 14 5 16 46 16
355 l0 349 -39 0 -39 0 -1 -329z"/>
<path d="M3400 433 c0 -171 4 -303 11 -326 33 -122 161 -140 215 -31 17 35 19
67 22 342 l3 302 -36 0 -35 0 0 -262 c0 -272 -7 -330 -40 -348 -58 -31 -70 27
-70 349 l0 261 -35 0 -35 0 0 -287z"/>
<path d="M3720 371 c0 -276 3 -350 13 -354 7 -3 53 -4 102 -3 l90 1 3 52 3 53
-65 0 -65 0 -3 105 -3 105 63 0 62 0 0 55 0 55 -60 0 -60 0 0 90 0 90 65 0 65
0 0 50 0 50 -105 0 -105 0 0 -349z"/>
</g>
</svg>
