<?xml version="1.0" standalone="no"?>
<!DOCTYPE svg PUBLIC "-//W3C//DTD SVG 20010904//EN"
 "http://www.w3.org/TR/2001/REC-SVG-20010904/DTD/svg10.dtd">
<svg version="1.0" xmlns="http://www.w3.org/2000/svg"
 width="491.000000pt" height="600.000000pt" viewBox="0 0 491.000000 600.000000"
 preserveAspectRatio="xMidYMid meet">
<metadata>
Created by potrace 1.12, written by Peter Selinger 2001-2015
</metadata>
<g transform="translate(0.000000,600.000000) scale(0.100000,-0.100000)"
fill="#000000" stroke="none">
<path d="M750 5990 c-358 -49 -641 -306 -727 -661 -17 -70 -18 -176 -18 -1774
0 -1825 -2 -1747 51 -1899 78 -226 289 -435 514 -510 147 -48 47 -46 1879 -46
1921 0 1788 -5 1958 75 131 62 227 137 316 249 86 108 130 199 164 344 17 73
18 172 18 1787 l0 1710 -22 84 c-85 316 -322 549 -641 628 -61 16 -213 17
-1752 19 -927 1 -1710 -2 -1740 -6z m3494 -123 c141 -43 239 -102 342 -205 81
-82 133 -167 176 -292 l33 -95 3 -1685 c2 -1130 -1 -1707 -8 -1753 -37 -243
-186 -447 -405 -553 -178 -86 -12 -79 -1935 -79 l-1705 0 -79 23 c-226 65
-419 235 -498 439 -61 156 -58 73 -58 1876 0 1058 4 1674 10 1714 52 322 296
567 620 623 25 4 810 7 1745 6 1599 -1 1703 -3 1759 -19z"/>
<path d="M790 3515 l0 -1495 258 0 257 0 152 189 152 189 -43 66 c-111 165
-123 320 -34 458 124 195 437 207 661 24 l57 -46 0 125 c0 145 16 130 -150
140 -143 8 -364 41 -446 66 -110 34 -157 106 -104 159 l20 20 -27 10 c-69 25
-85 34 -98 54 -20 28 -19 69 3 96 10 12 48 32 87 45 l69 22 -45 7 c-123 19
-209 68 -209 119 0 58 71 99 205 116 50 7 49 7 -45 19 -188 25 -291 62 -308
111 -15 44 4 77 58 100 27 12 58 21 69 21 38 0 22 17 -21 24 -133 21 -198 59
-198 116 0 63 62 90 270 114 139 17 532 36 739 36 74 0 132 2 130 4 -2 2 -96
9 -209 15 -399 24 -653 59 -735 104 -73 41 -69 120 9 152 84 35 322 59 714 71
l224 7 9 26 c20 50 62 94 117 118 107 49 231 8 282 -93 l25 -51 215 -7 c413
-13 652 -42 710 -84 63 -47 49 -110 -33 -147 -92 -43 -235 -61 -782 -104
l-110 -8 120 -2 c400 -4 783 -34 893 -68 88 -27 118 -90 66 -138 -28 -26 -67
-40 -169 -60 -61 -13 -61 -14 11 -34 62 -17 94 -46 94 -86 0 -66 -57 -94 -254
-129 l-128 -22 72 -12 c78 -13 144 -42 154 -67 11 -30 6 -73 -10 -90 -26 -26
-70 -44 -150 -63 l-76 -18 62 -17 c133 -37 150 -126 35 -182 -51 -25 -54 -29
-40 -45 8 -9 15 -30 15 -46 0 -65 -58 -104 -203 -134 -87 -19 -322 -47 -432
-53 l-50 -2 -3 -149 -3 -148 28 22 c130 101 239 149 359 157 185 13 325 -49
392 -174 74 -141 38 -319 -95 -472 l-47 -54 37 -71 c20 -39 60 -110 88 -158
l51 -88 329 0 329 0 0 1495 0 1495 -1685 0 -1685 0 0 -1495z"/>
<path d="M1775 4659 c-156 -8 -312 -25 -361 -38 -26 -7 -22 -9 41 -24 116 -26
562 -67 737 -67 l58 0 0 70 0 70 -162 -1 c-90 -1 -230 -6 -313 -10z"/>
<path d="M2690 4602 l0 -72 58 0 c202 0 676 50 754 79 54 20 -227 48 -569 58
l-243 6 0 -71z"/>
<path d="M1660 4309 c-163 -7 -362 -27 -394 -39 -21 -7 119 -33 269 -49 151
-17 402 -32 560 -34 l150 -2 3 68 3 67 -218 -2 c-120 0 -288 -4 -373 -9z"/>
<path d="M2690 4250 l0 -70 63 0 c238 0 860 60 884 84 23 22 -433 55 -764 56
l-183 0 0 -70z"/>
<path d="M1835 4080 c-185 -8 -380 -24 -460 -39 l-40 -7 35 -12 c45 -14 217
-38 390 -52 166 -14 472 -28 483 -23 4 2 7 33 7 69 l0 64 -32 0 c-18 0 -69 2
-113 4 -44 2 -165 0 -270 -4z"/>
<path d="M2748 4083 l-58 -4 0 -69 0 -68 83 4 c441 24 748 57 780 84 27 24
-610 65 -805 53z"/>
<path d="M1910 3813 c-117 -5 -314 -23 -375 -35 l-60 -12 45 -13 c92 -27 346
-57 593 -69 l137 -7 0 71 0 72 -137 -2 c-76 -1 -167 -3 -203 -5z"/>
<path d="M2690 3749 l0 -72 133 7 c225 12 462 40 558 66 39 11 41 13 22 21
-57 21 -400 49 -610 49 l-103 0 0 -71z"/>
<path d="M1820 3559 c-127 -11 -249 -30 -255 -40 -9 -14 149 -43 240 -44 50 0
170 4 268 9 l177 9 0 38 0 39 -167 -1 c-93 -1 -211 -5 -263 -10z"/>
<path d="M2690 3533 l0 -39 228 -13 c158 -8 244 -9 282 -1 107 20 152 32 143
41 -18 18 -224 40 -435 46 l-218 6 0 -40z"/>
<path d="M1750 3363 c-14 -2 -43 -9 -65 -15 l-40 -11 39 -13 c61 -22 198 -43
382 -59 93 -8 173 -15 177 -15 5 0 7 19 5 43 l-3 42 -170 11 c-93 6 -199 14
-235 17 -36 3 -76 3 -90 0z"/>
<path d="M3079 3366 c-2 -2 -76 -9 -164 -16 -236 -16 -225 -13 -225 -60 0 -22
3 -40 8 -40 92 1 366 34 466 56 82 18 109 30 86 38 -53 17 -161 31 -171 22z"/>
<path d="M1765 2971 c-74 -19 -138 -71 -172 -139 -13 -26 -18 -59 -18 -112 1
-85 23 -139 101 -243 24 -33 44 -67 44 -78 0 -10 -19 -42 -43 -71 -23 -29 -67
-84 -97 -123 l-54 -70 112 108 c148 141 165 142 254 4 l31 -49 -20 -66 c-40
-127 -51 -112 79 -112 l113 0 58 64 c31 36 57 66 57 69 0 2 -29 19 -64 37 -79
40 -138 97 -172 167 -22 45 -26 63 -22 118 5 77 25 110 89 143 57 30 115 25
165 -13 39 -30 90 -105 100 -148 10 -46 46 -62 144 -62 121 0 138 10 179 101
40 88 79 124 145 131 148 17 249 -121 185 -254 -25 -51 -108 -130 -184 -173
-30 -17 -55 -35 -55 -38 0 -4 23 -37 50 -74 l50 -68 116 0 115 0 -6 93 c-3 50
-2 97 2 102 4 6 32 30 62 53 78 61 93 57 153 -42 65 -108 68 -108 12 2 -26 51
-47 106 -47 122 0 21 15 45 58 91 111 121 152 255 106 354 -39 85 -103 128
-211 144 -183 25 -349 -62 -557 -292 -34 -38 -105 -67 -162 -67 -47 0 -132 40
-159 74 -11 15 -30 47 -42 71 -32 65 -142 164 -235 209 -67 34 -90 40 -154 42
-42 2 -89 0 -106 -5z"/>
<path d="M2061 2514 c-24 -31 -25 -35 -10 -88 23 -82 134 -167 239 -182 94
-14 95 -51 5 -149 l-65 -70 226 -3 c125 -1 229 -1 231 2 2 2 -16 34 -42 71
-63 93 -60 106 37 164 133 79 201 145 201 197 0 37 -40 74 -80 74 -45 0 -73
-31 -101 -112 -21 -58 -27 -67 -68 -86 -106 -52 -249 -52 -353 0 -40 20 -47
29 -63 78 -38 115 -110 163 -157 104z"/>
<path d="M1660 2130 l-115 -110 113 0 c61 0 112 3 112 8 0 4 11 41 24 83 l24
77 -22 26 -21 26 -115 -110z"/>
<path d="M1732 720 c-56 -53 -73 -153 -67 -406 5 -195 21 -255 75 -292 67 -45
138 -10 166 82 20 68 29 325 16 443 -16 140 -51 192 -128 193 -27 0 -47 -7
-62 -20z m85 -88 c24 -15 35 -124 31 -302 -4 -190 -11 -220 -54 -220 -42 0
-48 34 -49 265 0 185 2 214 18 238 18 28 33 33 54 19z"/>
<path d="M2090 733 c-33 -12 -61 -50 -78 -103 -26 -85 -23 -453 4 -529 25 -72
58 -96 127 -95 29 1 64 6 80 12 l27 12 -2 177 -3 178 -57 3 -58 3 0 -56 c0
-48 2 -55 20 -55 18 0 20 -7 20 -84 0 -76 -2 -85 -20 -91 -35 -11 -59 4 -67
43 -4 20 -8 127 -8 237 0 176 2 204 18 228 32 50 68 26 77 -52 5 -45 6 -46 40
-46 33 0 35 2 38 37 5 57 -16 118 -53 155 -32 32 -65 40 -105 26z"/>
<path d="M4031 710 c-53 -53 -65 -193 -25 -288 8 -20 37 -62 65 -94 54 -62 80
-113 74 -144 -15 -73 -15 -74 -39 -74 -32 0 -48 22 -54 75 -4 44 -6 45 -40 45
l-35 0 5 -76 c8 -115 56 -166 138 -144 75 20 100 71 100 200 0 92 -25 149
-100 233 -39 43 -53 68 -57 97 -7 53 3 87 28 95 28 9 42 -6 48 -57 6 -41 8
-43 44 -46 35 -3 37 -2 37 27 0 56 -21 129 -45 155 -36 39 -103 37 -144 -4z"/>
<path d="M560 371 l0 -358 38 1 37 1 3 148 3 148 27 -3 c41 -5 52 -38 52 -165
0 -62 4 -115 10 -118 5 -3 24 -8 41 -10 l31 -4 -7 142 c-8 143 -20 192 -51
204 -13 5 -12 9 4 27 37 40 45 69 45 161 0 64 -5 100 -16 122 -30 58 -41 63
-133 63 l-84 0 0 -359z"/>
<path d="M937 708 c-3 -13 -24 -147 -47 -298 -22 -151 -44 -300 -49 -330 -5
-30 -8 -57 -6 -60 2 -3 18 -5 36 -5 37 0 34 -7 54 130 5 30 5 30 64 27 l59 -4
7 -74 c4 -43 12 -75 19 -76 52 -7 66 -4 66 13 0 18 -14 119 -65 469 -37 253
-28 230 -85 230 -41 0 -49 -3 -53 -22z"/>
<path d="M1192 373 l3 -358 68 -1 c117 -2 157 36 176 171 22 146 7 415 -26
478 -30 58 -48 67 -140 67 l-83 0 2 -357z m161 223 c8 -15 12 -82 12 -221 0
-175 -2 -204 -18 -228 -12 -19 -26 -27 -47 -27 l-30 0 0 253 0 253 35 -4 c23
-3 40 -12 48 -26z"/>
<path d="M1520 370 l0 -361 35 3 35 2 0 358 0 358 -35 0 -35 0 0 -360z"/>
<path d="M2322 373 l3 -358 38 -3 37 -3 0 150 0 151 24 0 c47 0 56 -22 57
-138 1 -133 7 -157 39 -158 14 -1 29 0 35 2 6 3 8 55 4 147 -5 147 -15 181
-52 193 -16 5 -16 8 7 29 34 32 49 96 43 186 -5 80 -25 132 -56 149 -11 5 -56
10 -100 10 l-81 0 2 -357z m146 229 c14 -19 16 -120 2 -156 -7 -20 -16 -26
-40 -26 l-30 0 0 98 c0 54 3 101 6 104 9 9 48 -3 62 -20z"/>
<path d="M2700 720 c0 -6 -20 -143 -44 -303 -24 -161 -47 -317 -51 -348 l-7
-56 29 3 c15 1 31 2 35 3 3 1 12 35 19 76 l12 75 57 0 58 0 10 -72 c6 -39 17
-75 24 -80 10 -6 56 -3 65 5 1 2 -33 237 -85 587 l-17 115 -53 3 c-34 2 -52
-1 -52 -8z"/>
<path d="M2956 723 c-3 -4 -6 -164 -6 -355 1 -378 -1 -368 55 -354 l25 6 0
145 0 145 48 0 c38 0 53 5 69 23 42 45 48 68 48 187 -1 175 -26 210 -156 210
-41 0 -79 -3 -83 -7z m155 -130 c13 -35 11 -124 -4 -153 -9 -17 -22 -26 -45
-28 l-32 -3 0 108 0 109 36 -4 c26 -3 38 -11 45 -29z"/>
<path d="M3260 370 l0 -360 33 3 32 2 5 160 5 160 45 0 45 0 3 -157 c1 -93 7
-158 12 -159 13 -2 47 -2 60 0 7 1 9 121 8 354 l-3 352 -37 3 -38 3 0 -145 0
-146 -50 0 -50 0 0 145 0 145 -35 0 -35 0 0 -360z"/>
<path d="M3580 377 c0 -195 2 -356 5 -358 2 -3 20 -3 40 -1 l35 4 0 354 0 354
-40 0 -40 0 0 -353z"/>
<path d="M3732 373 l3 -358 103 -2 102 -1 0 54 0 54 -65 0 -65 0 0 100 c0 55
-1 103 -2 108 -2 4 25 8 60 10 l62 3 0 49 0 50 -60 0 -60 0 0 93 0 92 63 0 62
0 3 53 3 52 -106 0 -105 0 2 -357z"/>
</g>
</svg>
