<?xml version="1.0" standalone="no"?>
<!DOCTYPE svg PUBLIC "-//W3C//DTD SVG 20010904//EN"
 "http://www.w3.org/TR/2001/REC-SVG-20010904/DTD/svg10.dtd">
<svg version="1.0" xmlns="http://www.w3.org/2000/svg"
 width="491.000000pt" height="600.000000pt" viewBox="0 0 491.000000 600.000000"
 preserveAspectRatio="xMidYMid meet">
<metadata>
Created by potrace 1.12, written by Peter Selinger 2001-2015
</metadata>
<g transform="translate(0.000000,600.000000) scale(0.100000,-0.100000)"
fill="#000000" stroke="none">
<path d="M750 5990 c-358 -49 -641 -306 -727 -661 -17 -70 -18 -176 -18 -1774
0 -1825 -2 -1747 51 -1899 78 -226 289 -435 514 -510 147 -48 47 -46 1879 -46
1921 0 1788 -5 1958 75 131 62 227 137 316 249 86 108 130 199 164 344 17 73
18 172 18 1787 l0 1710 -22 84 c-85 316 -322 549 -641 628 -61 16 -213 17
-1752 19 -927 1 -1710 -2 -1740 -6z m3494 -123 c141 -43 239 -102 342 -205 81
-82 133 -167 176 -292 l33 -95 3 -1685 c2 -1130 -1 -1707 -8 -1753 -37 -243
-186 -447 -405 -553 -178 -86 -12 -79 -1935 -79 l-1705 0 -79 23 c-226 65
-419 235 -498 439 -61 156 -58 73 -58 1876 0 1058 4 1674 10 1714 52 322 296
567 620 623 25 4 810 7 1745 6 1599 -1 1703 -3 1759 -19z"/>
<path d="M790 3515 l0 -1495 258 0 257 0 152 189 152 189 -43 66 c-111 165
-123 320 -34 458 124 195 437 207 661 24 l57 -46 0 125 c0 145 16 130 -150
140 -143 8 -364 41 -446 66 -110 34 -157 106 -104 159 l20 20 -27 10 c-69 25
-85 34 -98 54 -20 28 -19 69 3 96 10 12 48 32 87 45 l69 22 -45 7 c-123 19
-209 68 -209 119 0 58 71 99 205 116 50 7 49 7 -45 19 -188 25 -291 62 -308
111 -15 44 4 77 58 100 27 12 58 21 69 21 38 0 22 17 -21 24 -133 21 -198 59
-198 116 0 63 62 90 270 114 139 17 532 36 739 36 74 0 132 2 130 4 -2 2 -96
9 -209 15 -399 24 -653 59 -735 104 -73 41 -69 120 9 152 84 35 322 59 714 71
l224 7 9 26 c20 50 62 94 117 118 107 49 231 8 282 -93 l25 -51 215 -7 c413
-13 652 -42 710 -84 63 -47 49 -110 -33 -147 -92 -43 -235 -61 -782 -104
l-110 -8 120 -2 c400 -4 783 -34 893 -68 88 -27 118 -90 66 -138 -28 -26 -67
-40 -169 -60 -61 -13 -61 -14 11 -34 62 -17 94 -46 94 -86 0 -66 -57 -94 -254
-129 l-128 -22 72 -12 c78 -13 144 -42 154 -67 11 -30 6 -73 -10 -90 -26 -26
-70 -44 -150 -63 l-76 -18 62 -17 c133 -37 150 -126 35 -182 -51 -25 -54 -29
-40 -45 8 -9 15 -30 15 -46 0 -65 -58 -104 -203 -134 -87 -19 -322 -47 -432
-53 l-50 -2 -3 -149 -3 -148 28 22 c130 101 239 149 359 157 185 13 325 -49
392 -174 74 -141 38 -319 -95 -472 l-47 -54 37 -71 c20 -39 60 -110 88 -158
l51 -88 329 0 329 0 0 1495 0 1495 -1685 0 -1685 0 0 -1495z"/>
<path d="M1775 4659 c-156 -8 -312 -25 -361 -38 -26 -7 -22 -9 41 -24 116 -26
562 -67 737 -67 l58 0 0 70 0 70 -162 -1 c-90 -1 -230 -6 -313 -10z"/>
<path d="M2690 4602 l0 -72 58 0 c202 0 676 50 754 79 54 20 -227 48 -569 58
l-243 6 0 -71z"/>
<path d="M1660 4309 c-163 -7 -362 -27 -394 -39 -21 -7 119 -33 269 -49 151
-17 402 -32 560 -34 l150 -2 3 68 3 67 -218 -2 c-120 0 -288 -4 -373 -9z"/>
<path d="M2690 4250 l0 -70 63 0 c238 0 860 60 884 84 23 22 -433 55 -764 56
l-183 0 0 -70z"/>
<path d="M1835 4080 c-185 -8 -380 -24 -460 -39 l-40 -7 35 -12 c45 -14 217
-38 390 -52 166 -14 472 -28 483 -23 4 2 7 33 7 69 l0 64 -32 0 c-18 0 -69 2
-113 4 -44 2 -165 0 -270 -4z"/>
<path d="M2748 4083 l-58 -4 0 -69 0 -68 83 4 c441 24 748 57 780 84 27 24
-610 65 -805 53z"/>
<path d="M1910 3813 c-117 -5 -314 -23 -375 -35 l-60 -12 45 -13 c92 -27 346
-57 593 -69 l137 -7 0 71 0 72 -137 -2 c-76 -1 -167 -3 -203 -5z"/>
<path d="M2690 3749 l0 -72 133 7 c225 12 462 40 558 66 39 11 41 13 22 21
-57 21 -400 49 -610 49 l-103 0 0 -71z"/>
<path d="M1820 3559 c-127 -11 -249 -30 -255 -40 -9 -14 149 -43 240 -44 50 0
170 4 268 9 l177 9 0 38 0 39 -167 -1 c-93 -1 -211 -5 -263 -10z"/>
<path d="M2690 3533 l0 -39 228 -13 c158 -8 244 -9 282 -1 107 20 152 32 143
41 -18 18 -224 40 -435 46 l-218 6 0 -40z"/>
<path d="M1750 3363 c-14 -2 -43 -9 -65 -15 l-40 -11 39 -13 c61 -22 198 -43
382 -59 93 -8 173 -15 177 -15 5 0 7 19 5 43 l-3 42 -170 11 c-93 6 -199 14
-235 17 -36 3 -76 3 -90 0z"/>
<path d="M3079 3366 c-2 -2 -76 -9 -164 -16 -236 -16 -225 -13 -225 -60 0 -22
3 -40 8 -40 92 1 366 34 466 56 82 18 109 30 86 38 -53 17 -161 31 -171 22z"/>
<path d="M1765 2971 c-74 -19 -138 -71 -172 -139 -13 -26 -18 -59 -18 -112 1
-85 23 -139 101 -243 24 -33 44 -67 44 -78 0 -10 -19 -42 -43 -71 -23 -29 -67
-84 -97 -123 l-54 -70 112 108 c148 141 165 142 254 4 l31 -49 -20 -66 c-40
-127 -51 -112 79 -112 l113 0 58 64 c31 36 57 66 57 69 0 2 -29 19 -64 37 -79
40 -138 97 -172 167 -22 45 -26 63 -22 118 5 77 25 110 89 143 57 30 115 25
165 -13 39 -30 90 -105 100 -148 10 -46 46 -62 144 -62 121 0 138 10 179 101
40 88 79 124 145 131 148 17 249 -121 185 -254 -25 -51 -108 -130 -184 -173
-30 -17 -55 -35 -55 -38 0 -4 23 -37 50 -74 l50 -68 116 0 115 0 -6 93 c-3 50
-2 97 2 102 4 6 32 30 62 53 78 61 93 57 153 -42 65 -108 68 -108 12 2 -26 51
-47 106 -47 122 0 21 15 45 58 91 111 121 152 255 106 354 -39 85 -103 128
-211 144 -183 25 -349 -62 -557 -292 -34 -38 -105 -67 -162 -67 -47 0 -132 40
-159 74 -11 15 -30 47 -42 71 -32 65 -142 164 -235 209 -67 34 -90 40 -154 42
-42 2 -89 0 -106 -5z"/>
<path d="M2061 2514 c-24 -31 -25 -35 -10 -88 23 -82 134 -167 239 -182 94
-14 95 -51 5 -149 l-65 -70 226 -3 c125 -1 229 -1 231 2 2 2 -16 34 -42 71
-63 93 -60 106 37 164 133 79 201 145 201 197 0 37 -40 74 -80 74 -45 0 -73
-31 -101 -112 -21 -58 -27 -67 -68 -86 -106 -52 -249 -52 -353 0 -40 20 -47
29 -63 78 -38 115 -110 163 -157 104z"/>
<path d="M1660 2130 l-115 -110 113 0 c61 0 112 3 112 8 0 4 11 41 24 83 l24
77 -22 26 -21 26 -115 -110z"/>

</g>
</svg>
