<?xml version="1.0" standalone="no"?>
<!DOCTYPE svg PUBLIC "-//W3C//DTD SVG 20010904//EN"
 "http://www.w3.org/TR/2001/REC-SVG-20010904/DTD/svg10.dtd">
<svg version="1.0" xmlns="http://www.w3.org/2000/svg"
 width="418.000000pt" height="600.000000pt" viewBox="0 0 418.000000 600.000000"
 preserveAspectRatio="xMidYMid meet">
<metadata>
Created by potrace 1.12, written by Peter Selinger 2001-2015
</metadata>
<g transform="translate(0.000000,600.000000) scale(0.100000,-0.100000)"
fill="#000000" stroke="none">
<path d="M627 5989 c-82 -12 -143 -32 -233 -75 -63 -31 -98 -58 -174 -134 -78
-78 -103 -111 -137 -180 -85 -172 -78 -30 -78 -1685 0 -1658 -7 -1515 80
-1692 35 -71 62 -109 118 -166 102 -104 178 -152 312 -198 l70 -24 1505 0
1505 0 80 27 c113 39 198 91 286 178 117 116 185 251 209 416 8 57 10 482 8
1504 -4 1585 1 1472 -72 1620 -47 95 -84 145 -153 211 -115 110 -253 177 -407
198 -94 13 -2830 13 -2919 0z m2983 -102 c178 -54 322 -170 402 -324 78 -148
73 -25 73 -1648 0 -1353 -1 -1454 -18 -1515 -65 -242 -257 -425 -492 -470 -44
-8 -454 -10 -1520 -8 l-1460 3 -72 26 c-197 72 -353 240 -410 439 -17 62 -18
139 -18 1520 0 1381 1 1458 18 1520 32 111 83 197 172 286 109 110 212 160
385 188 14 2 669 3 1455 2 1309 -2 1435 -3 1485 -19z"/>
<path d="M1050 3910 l0 -1670 90 0 90 0 0 -50 0 -50 189 0 190 0 3 48 3 47
493 3 492 2 0 -50 0 -50 195 0 195 0 0 50 0 50 90 0 90 0 -2 1668 -3 1667
-1057 3 -1058 2 0 -1670z m1978 1158 l2 -368 -920 -2 -920 -3 0 373 0 372 918
-2 917 -3 3 -367z m0 -1600 l2 -1088 -920 -2 -920 -3 0 1093 0 1092 918 -2
917 -3 3 -1087z"/>
<path d="M2460 4885 l0 -85 145 0 145 0 0 85 0 85 -145 0 -145 0 0 -85z"/>
<path d="M2464 4327 c-3 -8 -4 -207 -2 -443 l3 -429 148 -3 147 -3 0 446 0
445 -145 0 c-112 0 -147 -3 -151 -13z m206 -432 l0 -355 -55 0 -55 0 0 355 0
355 55 0 55 0 0 -355z"/>
<path d="M1550 1452 c-44 -44 -53 -96 -53 -293 1 -213 13 -267 68 -293 39 -19
57 -20 108 -5 l37 10 0 154 0 155 -50 0 -50 0 0 -45 c0 -38 3 -45 20 -45 18 0
20 -7 20 -75 l0 -75 -35 0 c-32 0 -35 3 -46 42 -16 61 -9 369 10 391 32 39 71
6 71 -59 0 -20 5 -24 30 -24 28 0 30 2 30 40 0 121 -91 190 -160 122z"/>
<path d="M3619 1465 c-37 -20 -54 -68 -54 -155 1 -78 22 -139 61 -171 61 -50
90 -131 64 -180 -26 -47 -70 -8 -70 62 0 26 -3 29 -30 29 -30 0 -30 0 -30 -57
0 -79 24 -125 71 -137 80 -20 130 39 131 156 1 87 -17 136 -71 193 -49 51 -61
75 -61 122 0 47 12 66 36 61 13 -2 22 -16 28 -46 9 -37 13 -42 38 -42 26 0 28
3 28 40 0 47 -23 107 -48 126 -22 17 -60 17 -93 -1z"/>
<path d="M390 1165 l0 -305 30 0 30 0 0 123 c0 68 2 126 5 129 3 3 16 3 30 1
33 -7 45 -48 45 -160 l0 -94 31 3 32 3 -2 108 c-2 113 -11 154 -37 174 -14 10
-13 15 6 40 42 58 39 215 -5 259 -21 21 -34 24 -95 24 l-70 0 0 -305z"/>
<path d="M650 1165 l0 -305 90 0 90 0 0 45 0 45 -55 0 -56 0 3 93 3 92 48 3
47 3 0 40 0 39 -50 0 -50 0 0 80 0 80 55 0 55 0 0 45 0 45 -90 0 -90 0 0 -305z"/>
<path d="M890 1165 l0 -305 30 0 30 0 0 135 0 135 50 0 50 0 0 45 0 45 -50 0
-50 0 0 79 0 80 52 3 51 3 4 43 3 42 -85 0 -85 0 0 -305z"/>
<path d="M1100 1165 l0 -305 30 0 30 0 0 123 c0 68 2 126 5 129 3 3 17 3 30 0
33 -6 45 -51 45 -164 l0 -88 30 0 30 0 0 109 c0 117 -11 166 -41 182 -20 10
-20 10 -1 27 57 49 56 225 0 275 -15 13 -38 17 -89 17 l-69 0 0 -305z"/>
<path d="M1360 1165 l0 -305 35 0 35 0 0 305 0 305 -35 0 -35 0 0 -305z"/>
<path d="M1790 1165 l0 -305 85 0 85 0 0 45 0 45 -55 0 -55 0 0 96 0 96 38 -2
c61 -3 62 -3 62 40 l0 40 -50 0 -50 0 0 80 0 80 55 0 55 0 0 45 0 45 -85 0
-85 0 0 -305z"/>
<path d="M2020 1165 l0 -305 30 0 30 0 0 125 0 125 29 0 c39 0 51 -36 51 -156
l0 -94 30 0 30 0 0 109 c0 113 -7 146 -35 174 -15 15 -14 19 5 45 42 57 39
214 -5 258 -21 21 -34 24 -95 24 l-70 0 0 -305z"/>
<path d="M2346 1443 c-5 -27 -86 -569 -86 -578 0 -3 13 -5 30 -5 32 0 33 3 45
93 l6 47 49 0 49 0 6 -47 c12 -90 13 -93 45 -93 22 0 30 5 30 18 0 10 -18 142
-40 292 -22 150 -40 279 -40 287 0 9 -14 13 -44 13 -40 0 -45 -2 -50 -27z"/>
<path d="M2520 1420 l0 -50 35 0 35 0 0 -255 0 -255 35 0 36 0 -3 255 -3 255
38 0 37 0 0 50 0 50 -105 0 -105 0 0 -50z"/>
<path d="M2780 1165 l0 -305 90 0 90 0 0 45 0 45 -60 0 -61 0 3 93 c2 73 6 92
18 93 8 1 32 2 53 3 36 1 37 2 37 40 l0 40 -52 3 -53 3 -3 78 -3 77 59 0 59 0
-1 45 -1 45 -87 0 -88 0 0 -305z"/>
<path d="M3012 1213 c4 -239 5 -261 25 -299 32 -61 81 -78 134 -47 53 32 59
66 59 348 l0 255 -30 0 -30 0 -1 -237 c-1 -131 -4 -249 -8 -263 -10 -37 -57
-41 -71 -5 -6 15 -10 130 -10 266 l0 239 -36 0 -36 0 4 -257z"/>
<path d="M3300 1164 l0 -305 33 3 32 3 2 105 c1 58 2 115 3 127 0 18 4 20 27
14 35 -9 41 -31 42 -153 l1 -98 33 0 32 0 -3 92 c-4 142 -9 171 -37 192 l-24
18 26 22 c22 19 26 33 30 93 7 91 -2 139 -32 169 -21 21 -34 24 -95 24 l-70 0
0 -306z"/>
<path d="M587 602 c-40 -41 -49 -106 -45 -319 3 -168 5 -192 24 -223 38 -67
104 -76 145 -20 18 24 39 134 31 158 -2 7 -17 12 -33 12 -27 0 -29 -2 -29 -41
0 -72 -35 -104 -62 -56 -9 16 -13 74 -13 202 0 189 7 225 44 225 19 0 31 -34
31 -86 0 -20 5 -24 30 -24 29 0 30 2 30 43 0 131 -83 202 -153 129z"/>
<path d="M857 609 c-44 -34 -57 -101 -57 -285 0 -182 10 -246 44 -289 19 -24
31 -30 65 -30 86 0 111 70 111 307 0 86 -5 181 -11 210 -21 94 -91 135 -152
87z m85 -96 c16 -36 15 -357 0 -395 -15 -37 -49 -37 -64 0 -17 39 -17 370 0
400 18 31 50 28 64 -5z"/>
<path d="M1451 602 c-41 -41 -54 -129 -49 -332 5 -191 17 -232 76 -257 38 -16
115 -9 132 12 7 8 10 66 8 156 l-3 144 -50 0 -50 0 -3 -42 c-3 -38 -1 -43 17
-43 19 0 21 -6 21 -75 l0 -75 -30 0 c-49 0 -55 23 -55 225 0 190 7 225 45 225
24 0 40 -28 40 -69 0 -29 3 -31 36 -31 l36 0 -7 43 c-11 71 -25 106 -52 127
-37 29 -79 26 -112 -8z"/>
<path d="M3464 612 c-37 -31 -48 -64 -47 -142 0 -91 14 -126 82 -203 45 -51
51 -64 51 -102 0 -59 -8 -75 -36 -75 -18 0 -25 8 -33 37 -6 21 -11 46 -11 56
0 12 -8 17 -30 17 -29 0 -30 -2 -30 -42 0 -103 44 -165 109 -154 47 7 77 40
92 98 23 99 -6 195 -82 274 -42 42 -57 90 -45 138 5 19 13 26 30 26 26 0 36
-17 36 -61 0 -26 4 -29 30 -29 29 0 30 1 30 51 0 28 -5 60 -11 72 -28 55 -94
73 -135 39z"/>
<path d="M1090 315 l0 -305 30 0 30 0 2 222 3 221 45 -219 45 -219 43 -3 42
-3 0 305 0 306 -30 0 -30 0 -1 -207 -1 -208 -18 75 c-9 41 -30 135 -45 208
l-28 132 -43 0 -44 0 0 -305z"/>
<path d="M1690 315 l0 -305 90 0 90 0 0 45 0 45 -60 0 -61 0 3 93 3 92 52 3
52 3 -3 42 -3 42 -49 1 -49 1 -3 76 -3 77 56 0 55 0 0 45 0 45 -85 0 -85 0 0
-305z"/>
<path d="M1930 315 l0 -305 80 0 80 0 0 50 0 50 -50 0 -50 0 0 255 0 255 -30
0 -30 0 0 -305z"/>
<path d="M2200 614 c0 -10 -80 -548 -86 -577 -5 -25 -3 -27 26 -27 35 0 36 3
45 83 l6 57 49 0 c53 0 50 5 65 -97 6 -39 10 -43 34 -43 15 0 30 2 33 5 2 3
-15 136 -39 297 -23 161 -43 296 -43 301 0 8 -90 10 -90 1z"/>
<path d="M2370 569 l0 -51 38 4 37 3 3 -258 2 -257 30 0 30 0 0 255 0 255 40
0 40 0 0 50 0 50 -110 0 -110 0 0 -51z"/>
<path d="M2630 315 l0 -305 90 0 90 0 0 45 0 44 -56 3 -57 3 0 90 0 90 51 3
52 3 0 45 0 45 -51 -2 -51 -3 -1 77 -2 76 55 3 55 3 3 43 3 42 -90 0 -91 0 0
-305z"/>
<path d="M2870 373 c0 -261 6 -307 42 -340 56 -51 115 -37 150 36 22 44 23 59
26 299 l4 252 -36 0 -36 0 0 -239 c0 -257 -6 -294 -42 -289 -43 6 -48 37 -48
291 l0 237 -30 0 -30 0 0 -247z"/>
<path d="M3150 315 l0 -305 35 0 35 0 0 130 c0 138 4 147 46 116 16 -12 20
-30 24 -128 l5 -113 34 -3 34 -3 -7 47 c-3 26 -6 82 -6 126 0 71 -2 81 -26
105 l-25 25 23 25 c18 20 23 38 26 99 5 92 -2 134 -29 162 -17 19 -31 22 -94
22 l-75 0 0 -305z"/>
</g>
</svg>
