<?xml version="1.0" standalone="no"?>
<!DOCTYPE svg PUBLIC "-//W3C//DTD SVG 20010904//EN"
 "http://www.w3.org/TR/2001/REC-SVG-20010904/DTD/svg10.dtd">
<svg version="1.0" xmlns="http://www.w3.org/2000/svg"
 width="418.000000pt" height="600.000000pt" viewBox="0 0 418.000000 600.000000"
 preserveAspectRatio="xMidYMid meet">
<metadata>
Created by potrace 1.12, written by Peter Selinger 2001-2015
</metadata>
<g transform="translate(0.000000,600.000000) scale(0.100000,-0.100000)"
fill="#000000" stroke="none">
<path d="M627 5989 c-82 -12 -143 -32 -233 -75 -63 -31 -98 -58 -174 -134 -78
-78 -103 -111 -137 -180 -85 -172 -78 -30 -78 -1685 0 -1658 -7 -1515 80
-1692 35 -71 62 -109 118 -166 102 -104 178 -152 312 -198 l70 -24 1505 0
1505 0 80 27 c113 39 198 91 286 178 117 116 185 251 209 416 8 57 10 482 8
1504 -4 1585 1 1472 -72 1620 -47 95 -84 145 -153 211 -115 110 -253 177 -407
198 -94 13 -2830 13 -2919 0z m2983 -102 c178 -54 322 -170 402 -324 78 -148
73 -25 73 -1648 0 -1353 -1 -1454 -18 -1515 -65 -242 -257 -425 -492 -470 -44
-8 -454 -10 -1520 -8 l-1460 3 -72 26 c-197 72 -353 240 -410 439 -17 62 -18
139 -18 1520 0 1381 1 1458 18 1520 32 111 83 197 172 286 109 110 212 160
385 188 14 2 669 3 1455 2 1309 -2 1435 -3 1485 -19z"/>
<path d="M1050 3910 l0 -1670 90 0 90 0 0 -50 0 -50 189 0 190 0 3 48 3 47
493 3 492 2 0 -50 0 -50 195 0 195 0 0 50 0 50 90 0 90 0 -2 1668 -3 1667
-1057 3 -1058 2 0 -1670z m1978 1158 l2 -368 -920 -2 -920 -3 0 373 0 372 918
-2 917 -3 3 -367z m0 -1600 l2 -1088 -920 -2 -920 -3 0 1093 0 1092 918 -2
917 -3 3 -1087z"/>
<path d="M2460 4885 l0 -85 145 0 145 0 0 85 0 85 -145 0 -145 0 0 -85z"/>
<path d="M2464 4327 c-3 -8 -4 -207 -2 -443 l3 -429 148 -3 147 -3 0 446 0
445 -145 0 c-112 0 -147 -3 -151 -13z m206 -432 l0 -355 -55 0 -55 0 0 355 0
355 55 0 55 0 0 -355z"/>
</g>
</svg>
