<?xml version="1.0" standalone="no"?>
<!DOCTYPE svg PUBLIC "-//W3C//DTD SVG 20010904//EN"
 "http://www.w3.org/TR/2001/REC-SVG-20010904/DTD/svg10.dtd">
<svg version="1.0" xmlns="http://www.w3.org/2000/svg"
 width="420.000000pt" height="600.000000pt" viewBox="0 0 420.000000 600.000000"
 preserveAspectRatio="xMidYMid meet">
<metadata>
Created by potrace 1.12, written by Peter Selinger 2001-2015
</metadata>
<g transform="translate(0.000000,600.000000) scale(0.100000,-0.100000)"
fill="#000000" stroke="none">
<path d="M625 5989 c-237 -35 -446 -192 -550 -412 -75 -158 -69 -29 -73 -1622
-2 -991 0 -1456 8 -1513 22 -171 98 -321 221 -436 120 -112 236 -171 389 -195
90 -15 2870 -15 2959 0 159 25 285 92 407 213 66 66 89 98 127 176 89 181 82
34 82 1700 l0 1475 -23 80 c-38 130 -95 227 -192 326 -72 72 -100 93 -180 132
-181 89 -30 82 -1665 83 -797 1 -1477 -2 -1510 -7z m2900 -89 c113 -12 184
-35 275 -90 134 -81 244 -230 287 -390 17 -61 18 -164 18 -1520 0 -1189 -2
-1465 -14 -1510 -59 -243 -268 -443 -506 -485 -67 -12 -313 -14 -1485 -14
-1553 0 -1499 -2 -1637 63 -179 85 -297 228 -349 421 -18 67 -19 132 -19 1525
0 1356 1 1459 18 1520 30 113 84 207 167 291 108 110 226 169 372 188 90 12
2763 13 2873 1z"/>
<path d="M667 5478 c-13 -13 -80 -133 -151 -268 -71 -135 -144 -274 -164 -310
-128 -241 -162 -309 -162 -328 0 -12 10 -30 22 -42 21 -19 34 -20 255 -20 128
0 233 -1 233 -3 0 -2 -10 -23 -22 -48 -33 -64 -32 -196 0 -257 101 -190 327
-235 489 -98 18 15 47 56 64 92 41 82 45 172 11 248 -12 27 -22 52 -22 57 0 5
105 9 234 9 l235 0 20 26 c12 15 21 32 21 39 0 19 -418 854 -447 893 l-24 32
-285 0 c-282 0 -285 0 -307 -22z m695 -470 l176 -353 -576 -3 c-316 -1 -577
-1 -579 1 -1 2 21 49 51 104 29 55 84 158 121 229 37 71 92 174 122 228 30 55
59 110 64 123 l9 23 218 0 218 0 176 -352z"/>
<path d="M2233 5201 c-149 -59 -283 -112 -297 -119 l-26 -12 0 -1290 0 -1290
78 0 77 1 200 159 200 159 468 1 467 0 0 -160 0 -160 74 0 c74 0 76 1 188 66
62 36 118 70 123 74 6 4 37 23 70 40 33 18 68 40 78 48 16 14 17 86 15 1301
l-3 1286 -720 1 -720 2 -272 -107z m1607 65 c0 -4 -126 -81 -237 -145 l-72
-41 -743 2 -743 3 85 32 c47 18 153 59 235 92 l150 59 663 1 c364 1 662 -1
662 -3z m-320 -1481 l0 -1255 -40 0 -40 0 0 1204 c0 1003 -2 1205 -14 1215 -9
8 -202 10 -702 9 l-689 -3 -3 -1211 -2 -1212 -40 -4 -40 -4 0 1258 0 1258 785
0 785 0 0 -1255z m-122 973 l3 -158 -426 0 -425 0 0 160 0 160 423 -2 422 -3
3 -157z m2 -293 l0 -95 -610 0 c-335 0 -610 2 -610 4 0 4 61 39 185 106 44 24
94 52 110 62 28 17 63 18 478 18 l447 0 0 -95z m0 -175 l0 -40 -647 0 -648 0
0 40 0 40 648 0 647 0 0 -40z m-2 -212 l-3 -133 -422 -3 -423 -2 0 135 0 135
425 0 426 0 -3 -132z m0 -270 l-3 -93 -610 -3 c-460 -2 -606 1 -598 9 7 7 79
49 160 95 l148 82 453 1 453 1 -3 -92z m2 -178 l0 -40 -644 0 -644 0 -4 40 -4
40 648 0 648 0 0 -40z m-2 -252 l-3 -173 -422 -3 -423 -2 0 175 0 175 425 0
425 0 -2 -172z m0 -310 l-3 -93 -607 -3 c-335 -1 -608 1 -608 6 0 4 24 20 53
35 28 15 99 53 157 86 l105 60 453 0 453 1 -3 -92z m2 -178 l0 -40 -645 0
-645 0 0 40 0 40 645 0 645 0 0 -40z"/>
<path d="M806 3709 c-49 -33 -80 -80 -91 -140 -7 -40 17 -123 46 -155 18 -19
18 -23 4 -57 -8 -21 -18 -64 -22 -96 l-6 -60 -38 26 c-80 53 -186 37 -253 -37
-96 -107 -52 -272 87 -323 14 -5 17 -16 16 -52 -2 -38 -9 -50 -48 -87 -133
-127 -115 -324 40 -428 43 -29 61 -35 119 -38 76 -5 129 9 176 43 29 22 32 22
84 9 30 -8 85 -14 123 -14 l70 0 46 -50 c59 -63 124 -92 205 -92 98 1 166 39
228 130 27 39 32 57 36 124 4 69 2 84 -22 132 -15 30 -42 68 -61 85 -29 25
-34 35 -29 59 6 28 8 30 45 25 82 -11 172 48 205 134 62 160 -118 321 -271
243 -22 -11 -43 -20 -47 -20 -4 0 0 19 9 43 8 23 16 70 17 104 1 56 4 65 34
94 18 18 39 44 47 59 61 118 -12 260 -148 285 -55 11 -101 -2 -151 -40 -41
-31 -49 -34 -95 -28 -46 5 -52 9 -71 46 -38 73 -97 107 -183 107 -43 0 -63 -6
-101 -31z m190 -83 c28 -28 34 -42 34 -75 l0 -41 64 0 c35 0 83 -7 106 -15 56
-20 52 -21 75 22 50 92 188 74 215 -28 15 -56 -10 -107 -66 -134 l-41 -20 5
-86 c4 -77 2 -92 -21 -142 -31 -68 -76 -112 -145 -144 -45 -21 -65 -25 -125
-21 -165 8 -271 119 -272 284 0 61 5 80 32 133 l32 62 -34 20 c-22 14 -39 35
-50 63 -15 40 -15 46 0 82 22 54 50 74 109 74 41 0 53 -5 82 -34z m-332 -471
l26 -17 -29 -33 c-16 -18 -43 -62 -61 -98 -25 -51 -36 -64 -50 -60 -30 8 -59
41 -71 82 -31 104 92 187 185 126z m119 -101 c27 -55 101 -128 164 -160 53
-26 67 -29 158 -29 87 0 107 3 155 26 30 14 73 42 95 62 l40 36 17 -32 c9 -18
22 -62 29 -98 42 -230 -133 -456 -369 -476 -175 -15 -329 75 -405 235 -30 62
-32 75 -32 172 0 93 3 111 27 163 28 59 83 137 97 137 4 0 15 -16 24 -36z
m858 -41 c58 -35 75 -127 32 -176 -26 -29 -80 -49 -113 -42 -25 6 -29 12 -35
58 -4 28 -14 69 -21 91 -19 51 -18 53 14 70 36 20 88 20 123 -1z m-1071 -366
c0 -7 14 -41 31 -77 21 -46 51 -85 104 -136 l74 -72 -29 -12 c-45 -19 -132 -8
-174 21 -87 59 -109 191 -45 273 20 25 39 27 39 3z m970 -151 c16 -43 12 -113
-10 -156 -32 -62 -81 -93 -155 -98 -68 -4 -99 7 -149 54 l-28 27 47 24 c99 50
181 127 224 211 l12 22 24 -28 c14 -16 29 -41 35 -56z"/>
<path d="M1179 3311 c-56 -56 -27 -145 52 -157 31 -5 42 -1 70 24 46 41 47 92
1 133 -43 39 -84 38 -123 0z"/>
<path d="M2201 1464 c-38 -32 -55 -90 -48 -165 6 -67 26 -111 78 -164 46 -49
68 -99 62 -142 -11 -73 -67 -64 -79 12 -6 41 -9 45 -35 45 -28 0 -29 -2 -29
-50 0 -60 20 -114 48 -129 28 -15 93 -13 114 3 30 22 48 81 48 153 0 84 -19
128 -89 206 -44 51 -51 64 -51 101 0 45 13 66 41 66 20 0 29 -20 29 -61 0 -27
3 -29 35 -29 33 0 35 2 35 33 0 121 -84 185 -159 121z"/>
<path d="M3111 1465 c-49 -42 -56 -79 -56 -290 0 -199 6 -239 46 -289 17 -21
29 -26 65 -26 55 0 86 29 103 95 14 57 14 383 0 441 -22 85 -98 119 -158 69z
m92 -92 c7 -18 12 -89 12 -203 0 -152 -2 -180 -18 -203 -9 -15 -22 -27 -27
-27 -21 0 -39 34 -45 84 -11 84 -2 328 13 354 18 31 50 28 65 -5z"/>
<path d="M640 1175 l0 -305 35 0 35 0 0 125 0 125 24 0 c14 0 28 -6 33 -12 4
-7 10 -62 13 -123 l5 -110 33 -3 32 -3 0 98 c0 114 -12 166 -43 188 l-21 15
21 15 c57 40 57 212 1 272 -19 20 -31 23 -95 23 l-73 0 0 -305z"/>
<path d="M910 1175 l0 -305 90 0 90 0 0 45 0 45 -60 0 -60 0 0 90 0 90 55 0
55 0 0 45 0 45 -55 0 -55 0 0 80 0 80 60 0 60 0 0 45 0 45 -90 0 -90 0 0 -305z"/>
<path d="M1144 1465 c-3 -8 -4 -124 -2 -257 4 -261 11 -298 59 -332 33 -23 90
-21 118 5 47 44 51 71 51 344 l0 255 -29 0 -29 0 -4 -250 c-3 -237 -4 -251
-24 -270 -26 -26 -49 -18 -63 22 -7 19 -11 124 -11 264 l0 234 -30 0 c-18 0
-33 -6 -36 -15z"/>
<path d="M1410 1430 l0 -50 40 0 40 0 0 -255 0 -255 35 0 35 0 0 255 0 255 40
0 40 0 0 50 0 50 -115 0 -115 0 0 -50z"/>
<path d="M1680 1175 l0 -305 30 0 30 0 0 305 0 305 -30 0 -30 0 0 -305z"/>
<path d="M1810 1176 l0 -306 84 0 84 0 4 45 3 45 -52 0 -53 0 -2 258 -3 257
-32 3 -33 3 0 -305z"/>
<path d="M2020 1175 l0 -305 35 0 35 0 0 305 0 305 -35 0 -35 0 0 -305z"/>
<path d="M2486 1453 c-3 -16 -24 -147 -46 -293 -22 -146 -43 -271 -45 -277 -3
-9 7 -13 30 -13 32 0 35 3 40 38 17 99 11 92 71 92 52 0 54 -1 54 -27 0 -16 3
-45 6 -65 6 -35 9 -38 40 -38 19 0 34 4 34 8 0 9 -76 519 -85 570 -6 30 -8 32
-50 32 -39 0 -44 -3 -49 -27z"/>
<path d="M2660 1430 l0 -50 40 0 40 0 0 -255 0 -255 30 0 30 0 0 255 0 255 40
0 40 0 0 50 0 50 -110 0 -110 0 0 -50z"/>
<path d="M2920 1175 l0 -305 35 0 35 0 0 305 0 305 -35 0 -35 0 0 -305z"/>
<path d="M3350 1175 l0 -305 30 0 30 0 0 217 c0 119 3 214 6 210 3 -3 23 -90
45 -194 21 -103 41 -198 44 -210 5 -20 12 -23 50 -23 l45 0 0 305 0 305 -30 0
-30 0 -1 -212 c0 -126 -4 -204 -9 -192 -7 19 -17 60 -65 289 -8 39 -17 80 -20
93 -5 19 -12 22 -50 22 l-45 0 0 -305z"/>
<path d="M1478 622 l-28 -3 0 -305 0 -305 93 3 92 3 3 43 3 42 -60 0 -61 0 0
95 0 95 50 0 50 0 0 45 0 45 -50 0 -50 0 0 75 c0 82 -4 78 73 77 l37 -1 0 44
0 43 -62 4 c-35 1 -75 2 -90 0z"/>
<path d="M1700 622 c-6 -2 -10 -119 -10 -308 l0 -305 92 3 93 3 2 43 1 42 -59
0 -59 0 0 95 0 95 50 0 50 0 0 45 0 45 -50 0 -50 0 0 75 0 75 55 0 55 0 0 44
0 44 -80 4 c-44 2 -85 2 -90 0z"/>
<path d="M1978 622 l-48 -3 0 -305 0 -304 30 0 30 0 0 237 c0 130 2 234 5 231
3 -2 16 -92 30 -199 39 -295 32 -271 69 -267 l31 3 31 221 c17 121 34 227 37
235 3 8 6 -93 6 -223 l1 -238 30 0 30 0 0 305 0 305 -54 0 -54 0 -7 -57 c-3
-32 -15 -120 -26 -196 -10 -75 -19 -142 -19 -149 0 -6 -2 -9 -5 -7 -2 3 -16
95 -30 205 -15 109 -29 201 -33 204 -4 3 -28 4 -54 2z"/>
<path d="M2608 623 c-17 -4 -18 -27 -18 -309 l0 -304 90 0 90 0 0 50 0 50 -55
0 -55 0 0 254 c0 222 -2 255 -16 260 -9 3 -16 5 -17 5 -1 -1 -10 -3 -19 -6z"/>
<path d="M2847 600 c-37 -44 -51 -143 -45 -330 6 -184 19 -229 75 -255 65 -31
124 6 143 91 15 65 12 384 -4 438 -18 59 -49 85 -103 86 -34 0 -46 -5 -66 -30z
m103 -85 c20 -41 21 -345 1 -392 -15 -36 -40 -43 -62 -16 -22 26 -26 357 -5
407 19 45 44 45 66 1z"/>
<path d="M3113 623 c-10 -4 -13 -74 -13 -309 l0 -304 30 0 30 0 0 304 c0 281
-1 304 -17 308 -10 3 -24 3 -30 1z"/>
<path d="M1180 315 l0 -305 35 0 35 0 0 130 c0 117 2 130 18 130 45 -1 61 -46
62 -177 l0 -83 33 0 33 0 -3 103 c-5 142 -10 164 -39 184 -23 14 -24 17 -9 26
58 32 59 253 2 289 -7 4 -47 8 -89 8 l-78 0 0 -305z"/>
<path d="M2330 315 l0 -305 30 0 30 0 0 125 0 125 33 0 c82 1 117 53 117 175
0 44 -5 97 -10 117 -15 54 -41 68 -127 68 l-73 0 0 -305z"/>
</g>
</svg>
