<?xml version="1.0" standalone="no"?>
<!DOCTYPE svg PUBLIC "-//W3C//DTD SVG 20010904//EN"
 "http://www.w3.org/TR/2001/REC-SVG-20010904/DTD/svg10.dtd">
<svg version="1.0" xmlns="http://www.w3.org/2000/svg"
 width="486.000000pt" height="600.000000pt" viewBox="0 0 486.000000 600.000000"
 preserveAspectRatio="xMidYMid meet">
<metadata>
Created by potrace 1.12, written by Peter Selinger 2001-2015
</metadata>
<g transform="translate(0.000000,600.000000) scale(0.100000,-0.100000)"
fill="#000000" stroke="none">
<path d="M775 5994 c-209 -26 -363 -96 -504 -228 -146 -138 -234 -312 -261
-516 -8 -60 -10 -575 -8 -1740 l3 -1655 28 -89 c96 -307 315 -520 612 -596 78
-20 104 -20 1775 -20 1119 0 1714 3 1750 10 275 52 521 254 623 511 67 167 62
27 62 1899 0 1637 -1 1698 -19 1770 -28 109 -61 185 -121 275 -119 181 -288
301 -511 362 -54 15 -213 17 -1729 19 -919 0 -1683 0 -1700 -2z m3383 -120
c303 -62 532 -301 581 -604 7 -43 11 -609 11 -1708 0 -1789 2 -1713 -55 -1855
-55 -134 -176 -274 -305 -350 -36 -22 -105 -53 -155 -70 l-90 -32 -1705 0
c-1355 0 -1715 3 -1755 13 -235 60 -425 218 -515 430 -64 150 -61 56 -58 1907
3 1586 5 1683 22 1740 63 212 207 383 396 473 58 27 141 53 210 65 14 2 771 5
1683 6 1480 1 1666 -1 1735 -15z"/>
<path d="M3610 5515 c-108 -38 -161 -64 -224 -109 -174 -124 -256 -272 -256
-460 0 -79 19 -209 29 -204 118 59 209 109 257 144 168 119 245 276 269 549 4
39 9 78 11 88 7 22 -6 21 -86 -8z m-115 -257 c-19 -68 -73 -153 -129 -205 -55
-51 -61 -54 -64 -35 -6 43 48 138 113 202 67 64 91 75 80 38z"/>
<path d="M2630 5351 c-130 -101 -223 -208 -280 -324 -81 -167 -95 -278 -54
-457 19 -83 91 -233 108 -222 6 4 66 64 132 134 131 137 185 224 221 358 25
93 23 263 -5 410 -30 155 -31 160 -40 159 -4 0 -41 -26 -82 -58z m-17 -273
c19 -126 -33 -296 -124 -411 l-38 -48 -7 36 c-11 61 2 186 26 248 22 60 115
207 130 207 4 0 10 -15 13 -32z"/>
<path d="M1570 5066 c-7 -28 -33 -114 -57 -191 -24 -77 -53 -185 -64 -240 -60
-285 29 -553 242 -734 l61 -51 55 132 c74 181 93 255 99 378 5 83 1 126 -15
204 -27 133 -75 229 -203 407 l-105 147 -13 -52z m113 -384 c28 -63 52 -154
62 -242 7 -61 -6 -157 -33 -246 l-18 -59 -27 46 c-67 114 -88 240 -63 389 19
113 34 170 45 170 5 0 20 -26 34 -58z"/>
<path d="M3991 4870 c-64 -14 -161 -62 -223 -110 -29 -23 -54 -45 -56 -49 -1
-3 17 -18 40 -33 24 -15 72 -47 108 -71 97 -66 192 -97 297 -97 47 0 111 7
143 15 50 13 231 79 252 91 4 3 -14 24 -39 47 -25 23 -60 55 -76 70 -45 42
-155 103 -217 121 -70 21 -173 28 -229 16z"/>
<path d="M3300 4685 c-91 -41 -187 -84 -215 -96 -502 -220 -877 -433 -1175
-668 -228 -180 -385 -331 -569 -550 -281 -333 -598 -846 -616 -996 -23 -178
100 -411 257 -489 59 -30 138 -35 191 -13 52 22 102 86 127 163 60 184 213
536 334 769 166 319 296 505 486 695 156 156 448 418 580 519 335 259 600 435
817 545 l72 36 -52 77 c-29 42 -57 78 -62 79 -6 2 -84 -30 -175 -71z m-630
-479 c0 -2 -57 -50 -127 -107 -274 -223 -585 -513 -689 -643 -71 -89 -187
-255 -226 -326 -14 -25 -40 -70 -58 -100 -75 -126 -310 -619 -310 -650 0 -23
-20 -7 -50 40 -40 62 -111 126 -167 152 -24 10 -43 21 -43 24 0 8 177 290 214
342 84 117 206 276 269 351 278 331 614 602 1059 855 107 61 128 71 128 62z
m-1647 -1817 c67 -58 111 -152 116 -246 6 -120 -35 -153 -116 -94 -47 34 -99
112 -119 177 -16 55 -18 141 -4 178 16 42 66 36 123 -15z"/>
<path d="M787 4283 c-14 -54 -39 -152 -57 -218 -28 -105 -33 -137 -34 -250 0
-107 3 -144 22 -210 44 -152 142 -302 270 -411 41 -35 77 -63 78 -61 2 2 20
48 40 102 107 294 120 351 111 494 -11 187 -82 367 -193 487 -28 30 -197 164
-207 164 -2 0 -16 -44 -30 -97z m203 -309 c69 -149 84 -322 40 -467 -13 -43
-26 -80 -30 -82 -19 -12 -96 129 -125 229 -29 100 -16 313 26 423 l10 26 25
-34 c15 -19 39 -61 54 -95z"/>
<path d="M3423 4356 c-59 -14 -131 -50 -210 -102 l-53 -35 98 -78 c134 -107
149 -116 238 -153 75 -31 86 -32 209 -33 122 0 137 2 255 38 68 21 130 42 138
46 10 6 -6 28 -59 85 -187 200 -406 282 -616 232z m252 -171 c28 -9 65 -26 84
-38 29 -18 31 -21 16 -30 -44 -24 -220 11 -293 59 l-27 18 25 8 c37 11 138 2
195 -17z"/>
<path d="M2906 3860 c-124 -23 -260 -103 -361 -213 -36 -39 -64 -76 -62 -81 5
-14 284 -124 346 -136 77 -14 226 -12 298 5 35 8 91 28 125 43 69 31 308 180
308 191 0 10 -145 96 -221 130 -36 16 -93 37 -128 46 -75 19 -237 27 -305 15z
m182 -160 c81 -11 152 -29 152 -40 0 -12 -115 -60 -170 -70 -98 -19 -235 -6
-294 27 -16 9 -11 14 45 42 35 17 91 35 124 40 33 5 62 9 65 9 3 1 38 -3 78
-8z"/>
<path d="M2294 3216 c-90 -21 -199 -71 -277 -128 -61 -45 -207 -192 -207 -208
0 -11 262 -118 358 -147 74 -22 107 -26 222 -26 219 -2 345 43 607 215 l124
81 -63 38 c-106 66 -239 127 -333 155 -112 33 -330 43 -431 20z m323 -162 c95
-19 185 -52 177 -65 -9 -15 -134 -75 -194 -93 -140 -42 -290 -39 -431 9 -39
13 -74 26 -77 29 -16 17 150 103 231 121 85 18 203 18 294 -1z"/>
</g>
</svg>
