<?xml version="1.0" standalone="no"?>
<!DOCTYPE svg PUBLIC "-//W3C//DTD SVG 20010904//EN"
 "http://www.w3.org/TR/2001/REC-SVG-20010904/DTD/svg10.dtd">
<svg version="1.0" xmlns="http://www.w3.org/2000/svg"
 width="421.000000pt" height="600.000000pt" viewBox="0 0 421.000000 600.000000"
 preserveAspectRatio="xMidYMid meet">
<metadata>
Created by potrace 1.12, written by Peter Selinger 2001-2015
</metadata>
<g transform="translate(0.000000,600.000000) scale(0.100000,-0.100000)"
fill="#000000" stroke="none">
<path d="M630 5989 c-288 -43 -519 -250 -602 -536 l-23 -78 0 -1480 0 -1480
23 -79 c61 -212 196 -375 389 -470 154 -77 22 -71 1688 -71 1416 0 1493 1
1555 18 207 59 375 196 466 382 86 175 79 32 79 1700 l0 1480 -23 78 c-75 259
-260 443 -527 523 -56 17 -146 18 -1515 20 -800 1 -1480 -2 -1510 -7z m2540
-91 l455 -3 70 -28 c202 -81 343 -238 402 -447 17 -61 18 -145 18 -1525 0
-1634 5 -1508 -72 -1665 -52 -105 -170 -223 -273 -274 -156 -76 -20 -70 -1624
-73 -1611 -4 -1536 -7 -1691 66 -159 75 -289 232 -342 416 -16 55 -18 166 -21
1460 -2 922 1 1433 7 1497 6 56 22 126 36 165 86 226 292 388 525 412 59 5
1377 5 2510 -1z"/>
<path d="M1974 5433 c3 -10 15 -70 28 -133 19 -96 23 -146 23 -305 0 -163 -4
-203 -23 -280 -32 -127 -81 -283 -91 -289 -5 -3 -32 30 -61 75 -48 72 -185
222 -250 274 -44 35 -158 115 -164 115 -3 0 -6 -64 -6 -142 0 -213 -35 -351
-145 -575 -58 -120 -100 -193 -270 -468 -224 -362 -248 -555 -103 -837 l50
-98 1138 0 1138 0 46 143 c83 260 101 391 101 732 0 211 -3 277 -18 350 -41
204 -93 378 -167 565 -58 145 -212 444 -220 428 -4 -7 -10 -49 -14 -93 -13
-162 -39 -258 -107 -405 -41 -87 -119 -223 -125 -217 -2 2 -22 77 -45 167
-113 452 -235 647 -564 902 -77 59 -144 108 -148 108 -5 0 -6 -8 -3 -17z m309
-421 c151 -174 241 -416 326 -875 l37 -198 78 88 c121 137 205 270 285 456
l34 79 15 -29 c56 -106 149 -430 177 -618 39 -261 7 -666 -72 -918 l-28 -88
-1044 1 c-821 0 -1047 3 -1053 13 -34 53 -71 169 -75 236 -10 144 32 247 232
571 241 391 328 588 370 844 l6 38 26 -23 c49 -46 165 -204 200 -274 20 -38
51 -112 70 -164 18 -52 36 -98 40 -104 3 -5 33 60 67 145 151 373 196 554 196
797 l0 133 36 -32 c20 -17 54 -52 77 -78z"/>
<path d="M1030 2490 l0 -70 1035 0 1035 0 0 70 0 70 -1035 0 -1035 0 0 -70z"/>
</g>
</svg>
