<?xml version="1.0" standalone="no"?>
<!DOCTYPE svg PUBLIC "-//W3C//DTD SVG 20010904//EN"
 "http://www.w3.org/TR/2001/REC-SVG-20010904/DTD/svg10.dtd">
<svg version="1.0" xmlns="http://www.w3.org/2000/svg"
 width="420.000000pt" height="600.000000pt" viewBox="0 0 420.000000 600.000000"
 preserveAspectRatio="xMidYMid meet">
<metadata>
Created by potrace 1.12, written by Peter Selinger 2001-2015
</metadata>
<g transform="translate(0.000000,600.000000) scale(0.100000,-0.100000)"
fill="#000000" stroke="none">
<path d="M625 5989 c-229 -34 -439 -187 -541 -394 -86 -175 -79 -33 -79 -1695
l0 -1475 23 -78 c70 -243 236 -419 477 -504 l80 -28 1510 0 c1437 0 1513 1
1568 18 160 51 292 142 383 263 65 86 98 151 126 251 l23 78 0 1475 c0 1666 7
1519 -82 1700 -38 79 -61 110 -132 181 -71 71 -102 94 -181 132 -181 89 -30
82 -1665 83 -797 1 -1477 -2 -1510 -7z m3012 -106 c215 -62 386 -236 450 -458
16 -55 18 -165 21 -1460 2 -966 0 -1429 -8 -1495 -30 -261 -192 -459 -450
-546 -53 -18 -115 -19 -1550 -19 l-1495 0 -77 27 c-136 48 -247 133 -323 247
-61 94 -93 183 -106 299 -6 64 -9 575 -7 1492 4 1559 -2 1434 75 1590 28 55
59 96 118 155 108 108 214 162 360 184 33 5 702 8 1490 7 1424 -1 1430 -1
1502 -23z"/>
<path d="M1960 5363 c0 -4 12 -64 26 -133 55 -270 41 -501 -46 -773 l-41 -129
-49 73 c-90 135 -222 269 -363 367 l-62 43 -3 -77 -3 -78 67 -67 c37 -37 71
-67 75 -66 4 1 47 -43 95 -98 133 -151 297 -316 305 -308 13 13 98 240 130
346 45 151 69 309 69 455 l1 127 70 -75 c117 -124 202 -281 264 -484 l27 -88
58 57 57 57 -22 66 c-74 218 -167 373 -310 517 -88 88 -345 288 -345 268z"/>
<path d="M723 5218 l-32 -33 307 -312 c169 -172 470 -476 670 -677 199 -200
362 -368 362 -372 -1 -5 -288 -299 -640 -654 l-639 -645 27 -27 c14 -16 31
-28 37 -28 7 0 114 105 240 233 335 341 1039 1047 1045 1047 3 1 293 -290 645
-645 l640 -646 32 33 32 33 -637 644 c-350 354 -638 647 -640 652 -2 5 2 15
10 22 7 8 309 312 671 677 l659 662 -32 33 -33 34 -526 -530 c-289 -292 -591
-598 -671 -680 l-145 -150 -465 468 c-256 257 -560 564 -675 681 l-210 213
-32 -33z"/>
<path d="M2977 4569 c-65 -66 -118 -131 -133 -162 -47 -94 -117 -217 -125
-217 -4 0 -10 21 -14 47 l-7 46 -60 -60 -61 -61 17 -94 c9 -51 21 -117 27
-147 l11 -53 45 43 c112 109 248 320 319 494 l32 80 26 -59 c48 -108 126 -367
152 -505 24 -122 26 -158 26 -351 -1 -238 -18 -396 -58 -559 l-26 -104 55 -55
55 -55 26 84 c54 173 78 338 92 619 12 250 -27 503 -120 784 -53 158 -152 396
-166 396 -3 0 -55 -50 -113 -111z"/>
<path d="M1386 4379 c-65 -216 -132 -350 -338 -682 -175 -280 -227 -402 -236
-548 -6 -103 14 -195 65 -308 l34 -74 54 53 54 53 -20 39 c-35 69 -52 156 -45
235 10 122 61 235 223 490 144 229 260 450 309 591 l19 52 -57 57 c-39 39 -58
52 -62 42z"/>
<path d="M1186 2760 l-68 -70 976 0 c1109 0 1006 -10 902 88 l-55 52 -843 0
-843 0 -69 -70z"/>
<path d="M1020 2420 l0 -70 1030 0 1030 0 0 70 0 70 -1030 0 -1030 0 0 -70z"/>
<path d="M1083 1470 c-54 -32 -65 -93 -61 -323 3 -165 6 -197 22 -231 42 -85
138 -78 173 13 15 39 18 78 18 246 0 223 -9 265 -65 298 -36 22 -48 21 -87 -3z
m78 -102 c16 -40 17 -359 0 -400 -13 -33 -31 -35 -57 -7 -17 19 -19 38 -19
203 0 118 5 191 12 209 17 38 47 35 64 -5z"/>
<path d="M767 1473 c-4 -3 -7 -26 -7 -50 l0 -43 40 0 40 0 0 -254 c0 -233 1
-254 18 -258 9 -2 25 -2 35 0 16 3 18 22 17 255 l-1 252 35 3 36 3 0 50 0 49
-103 0 c-57 0 -107 -3 -110 -7z"/>
<path d="M1302 1212 l3 -269 28 -41 c24 -37 32 -42 66 -42 55 0 67 7 93 48 22
36 23 47 26 305 l3 267 -30 0 -29 0 -4 -247 c-3 -260 -9 -293 -48 -293 -39 0
-45 33 -48 293 l-4 247 -29 0 -30 0 3 -268z"/>
<path d="M1560 1430 l0 -50 35 0 35 0 0 -255 0 -255 35 0 35 0 0 255 0 255 34
0 c30 0 35 4 41 29 14 64 4 71 -117 71 l-98 0 0 -50z"/>
<path d="M1914 1466 c-3 -8 12 -144 33 -303 l38 -288 40 0 39 0 37 255 c57
390 54 350 26 350 -14 0 -29 -6 -34 -12 -5 -7 -20 -96 -32 -198 -23 -183 -31
-234 -36 -228 -2 2 -13 91 -25 198 -12 107 -25 205 -30 218 -11 25 -47 30 -56
8z"/>
<path d="M2197 1474 c-4 -4 -7 -141 -7 -305 0 -265 2 -298 16 -301 9 -2 50 -2
91 0 l74 4 -3 41 -3 42 -45 2 c-25 1 -51 2 -57 2 -10 1 -13 26 -13 91 l0 90
49 0 c28 0 52 4 55 8 3 5 3 25 -1 45 -6 37 -6 37 -54 37 l-49 0 0 80 0 80 56
0 55 0 -3 43 -3 42 -75 3 c-42 1 -79 0 -83 -4z"/>
<path d="M2420 1174 l0 -304 30 0 30 0 2 218 3 217 44 -217 44 -218 43 0 44 0
0 306 0 305 -27 -3 -28 -3 -5 -210 -5 -210 -39 190 c-50 244 -45 232 -95 233
l-41 1 0 -305z"/>
<path d="M2795 1470 c-6 -10 -17 -77 -60 -375 -14 -93 -28 -183 -31 -198 -6
-27 -4 -28 28 -25 33 3 33 4 41 66 l9 62 48 0 c51 0 60 -8 60 -58 0 -56 10
-72 45 -72 l32 0 -43 293 c-24 160 -43 298 -44 305 0 14 -76 17 -85 2z"/>
<path d="M3010 1176 l0 -306 30 0 30 0 1 218 1 217 28 -135 c16 -74 36 -172
46 -217 l17 -83 43 0 44 0 -2 303 -3 302 -25 0 -25 0 -5 -210 c-3 -115 -7
-207 -8 -204 -1 4 -20 96 -42 205 -23 109 -43 200 -45 202 -2 2 -22 6 -44 9
l-41 6 0 -307z"/>
<path d="M3296 1473 c-3 -4 -6 -26 -6 -49 0 -42 1 -43 36 -46 l35 -3 -1 -252
-1 -253 36 0 35 0 0 255 0 255 41 0 40 0 -3 48 -3 47 -101 2 c-56 1 -105 -1
-108 -4z"/>
<path d="M686 600 c-34 -41 -41 -94 -41 -300 0 -199 12 -252 64 -283 43 -25
69 -21 106 16 42 42 50 95 49 307 -2 227 -25 290 -109 290 -36 0 -48 -5 -69
-30z m102 -95 c19 -56 13 -375 -7 -398 -24 -29 -49 -21 -61 21 -17 55 -9 384
9 406 22 26 45 15 59 -29z"/>
<path d="M1869 603 c-38 -41 -49 -103 -49 -282 0 -173 11 -246 41 -285 26 -33
71 -42 107 -20 33 19 48 54 57 136 l7 58 -36 0 c-36 0 -36 0 -36 -44 0 -57 -8
-76 -31 -76 -28 0 -40 40 -46 160 -8 143 3 253 28 282 19 23 19 23 34 4 8 -11
15 -39 15 -63 0 -41 1 -43 31 -43 l31 0 -4 70 c-5 89 -28 124 -84 128 -32 2
-44 -2 -65 -25z"/>
<path d="M340 315 l0 -305 30 0 30 0 2 222 3 223 45 -220 45 -220 43 -3 42 -3
0 305 0 306 -30 0 -30 0 0 -207 c0 -113 -2 -204 -4 -202 -4 3 -86 392 -86 405
0 2 -20 4 -45 4 l-45 0 0 -305z"/>
<path d="M930 314 l0 -305 28 3 27 3 5 220 c3 121 6 213 8 205 1 -8 20 -108
43 -222 l42 -208 44 0 43 0 0 305 0 305 -30 0 -30 0 -1 -207 c0 -115 -4 -199
-8 -188 -4 11 -25 104 -46 208 l-38 187 -44 0 -43 0 0 -306z"/>
<path d="M1390 315 l0 -305 30 0 30 0 0 305 0 305 -30 0 -30 0 0 -305z"/>
<path d="M1511 315 l0 -305 29 0 30 0 0 222 c0 124 4 218 9 212 4 -5 25 -97
46 -204 21 -107 42 -203 47 -212 6 -13 21 -18 48 -18 l40 0 0 305 0 305 -30 0
-30 0 0 -207 c0 -115 -4 -201 -9 -193 -4 8 -26 102 -47 208 l-39 192 -47 0
-47 0 0 -305z"/>
<path d="M2080 315 l0 -305 30 0 30 0 0 305 0 305 -30 0 -30 0 0 -305z"/>
<path d="M2208 603 c-2 -9 -2 -146 0 -305 l3 -289 26 3 27 3 2 210 c1 116 2
215 3 220 2 8 89 -404 91 -427 0 -5 20 -8 45 -8 l45 0 0 305 0 305 -30 0 -30
0 -1 -212 c0 -117 -4 -202 -8 -188 -4 14 -25 109 -46 213 l-39 187 -42 0 c-32
0 -43 -4 -46 -17z"/>
<path d="M2510 315 l0 -305 90 0 90 0 0 45 0 44 -56 3 -56 3 0 90 0 90 51 3
51 3 0 45 0 44 -50 0 -50 0 0 59 c0 33 -3 66 -6 75 -5 13 2 16 39 16 67 0 77
6 77 51 l0 39 -90 0 -90 0 0 -305z"/>
<path d="M2740 315 l0 -306 33 3 32 3 3 128 c3 134 7 143 48 113 16 -13 19
-29 22 -130 l4 -116 32 0 32 0 -3 103 c-5 139 -10 163 -38 185 -20 16 -22 21
-10 26 49 18 62 205 19 263 -19 26 -27 28 -98 31 l-76 3 0 -306z"/>
<path d="M3051 538 c-6 -46 -26 -183 -45 -305 l-33 -223 32 0 c32 0 32 0 41
67 l9 68 51 3 51 3 9 -68 c9 -68 9 -68 42 -71 l34 -3 -6 38 c-27 180 -50 338
-65 443 l-17 125 -46 3 -45 3 -12 -83z"/>
<path d="M3280 315 l0 -305 64 0 c118 0 146 27 154 144 5 82 -8 136 -41 166
-11 11 -16 20 -9 20 40 0 61 174 28 237 -20 39 -31 43 -122 43 l-74 0 0 -305z
m141 -51 c18 -22 18 -126 0 -148 -9 -11 -25 -16 -45 -14 l-31 3 -3 88 -3 87
34 0 c20 0 40 -7 48 -16z"/>
<path d="M3560 315 l0 -305 85 0 85 0 0 50 0 50 -53 0 -53 0 4 201 c2 110 1
225 -3 255 -6 52 -8 54 -36 54 l-29 0 0 -305z"/>
<path d="M3765 315 l0 -306 90 3 90 3 2 43 3 42 -60 0 -60 0 0 95 0 95 50 0
50 0 0 45 0 45 -50 0 -50 0 0 78 0 77 55 -3 55 -4 0 46 0 46 -87 0 -88 0 0
-305z"/>
</g>
</svg>
