<?xml version="1.0" standalone="no"?>
<!DOCTYPE svg PUBLIC "-//W3C//DTD SVG 20010904//EN"
 "http://www.w3.org/TR/2001/REC-SVG-20010904/DTD/svg10.dtd">
<svg version="1.0" xmlns="http://www.w3.org/2000/svg"
 width="421.000000pt" height="600.000000pt" viewBox="0 0 421.000000 600.000000"
 preserveAspectRatio="xMidYMid meet">
<metadata>
Created by potrace 1.12, written by Peter Selinger 2001-2015
</metadata>
<g transform="translate(0.000000,600.000000) scale(0.100000,-0.100000)"
fill="#000000" stroke="none">
<path d="M630 5989 c-288 -43 -519 -250 -602 -536 l-23 -78 0 -1480 0 -1480
23 -79 c61 -212 196 -375 389 -470 154 -77 22 -71 1688 -71 1416 0 1493 1
1555 18 207 59 375 196 466 382 86 175 79 32 79 1700 l0 1480 -23 78 c-75 259
-260 443 -527 523 -56 17 -146 18 -1515 20 -800 1 -1480 -2 -1510 -7z m2540
-91 l455 -3 70 -28 c202 -81 343 -238 402 -447 17 -61 18 -145 18 -1525 0
-1634 5 -1508 -72 -1665 -52 -105 -170 -223 -273 -274 -156 -76 -20 -70 -1624
-73 -1611 -4 -1536 -7 -1691 66 -159 75 -289 232 -342 416 -16 55 -18 166 -21
1460 -2 922 1 1433 7 1497 6 56 22 126 36 165 86 226 292 388 525 412 59 5
1377 5 2510 -1z"/>
<path d="M1974 5433 c3 -10 15 -70 28 -133 19 -96 23 -146 23 -305 0 -163 -4
-203 -23 -280 -32 -127 -81 -283 -91 -289 -5 -3 -32 30 -61 75 -48 72 -185
222 -250 274 -44 35 -158 115 -164 115 -3 0 -6 -64 -6 -142 0 -213 -35 -351
-145 -575 -58 -120 -100 -193 -270 -468 -224 -362 -248 -555 -103 -837 l50
-98 1138 0 1138 0 46 143 c83 260 101 391 101 732 0 211 -3 277 -18 350 -41
204 -93 378 -167 565 -58 145 -212 444 -220 428 -4 -7 -10 -49 -14 -93 -13
-162 -39 -258 -107 -405 -41 -87 -119 -223 -125 -217 -2 2 -22 77 -45 167
-113 452 -235 647 -564 902 -77 59 -144 108 -148 108 -5 0 -6 -8 -3 -17z m309
-421 c151 -174 241 -416 326 -875 l37 -198 78 88 c121 137 205 270 285 456
l34 79 15 -29 c56 -106 149 -430 177 -618 39 -261 7 -666 -72 -918 l-28 -88
-1044 1 c-821 0 -1047 3 -1053 13 -34 53 -71 169 -75 236 -10 144 32 247 232
571 241 391 328 588 370 844 l6 38 26 -23 c49 -46 165 -204 200 -274 20 -38
51 -112 70 -164 18 -52 36 -98 40 -104 3 -5 33 60 67 145 151 373 196 554 196
797 l0 133 36 -32 c20 -17 54 -52 77 -78z"/>
<path d="M1030 2490 l0 -70 1035 0 1035 0 0 70 0 70 -1035 0 -1035 0 0 -70z"/>
<path d="M968 1467 c-44 -41 -52 -86 -53 -292 0 -160 3 -197 18 -237 28 -71
92 -100 144 -63 46 32 58 94 58 300 0 206 -12 268 -58 300 -32 22 -80 19 -109
-8z m93 -97 c11 -40 10 -341 -2 -382 -8 -31 -15 -38 -34 -38 -19 0 -26 7 -34
38 -14 48 -14 326 0 375 9 33 14 38 37 35 18 -2 28 -11 33 -28z"/>
<path d="M660 1435 c0 -38 3 -45 23 -50 13 -4 30 -5 38 -3 12 3 14 -37 17
-254 l2 -258 30 0 30 0 0 255 0 255 40 0 40 0 0 50 0 50 -110 0 -110 0 0 -45z"/>
<path d="M1200 1225 c0 -271 4 -299 49 -344 27 -27 80 -27 114 0 48 37 57 96
57 361 l0 238 -35 0 -35 0 0 -246 c0 -150 -4 -253 -10 -265 -6 -10 -21 -19
-34 -19 -40 0 -46 41 -46 296 l0 234 -30 0 -30 0 0 -255z"/>
<path d="M1452 1433 l3 -48 38 0 37 0 0 -257 0 -258 35 0 35 0 0 258 0 257 33
0 c31 0 32 1 35 48 l3 47 -111 0 -111 0 3 -47z"/>
<path d="M1816 1388 c7 -51 25 -189 40 -305 l28 -213 38 0 c45 0 37 -29 83
300 20 140 38 268 41 283 6 27 4 28 -27 25 l-34 -3 -27 -200 c-14 -110 -27
-209 -27 -219 -2 -51 -12 7 -31 175 -29 262 -26 249 -65 249 l-32 0 13 -92z"/>
<path d="M2090 1175 l0 -305 90 0 90 0 0 45 0 45 -60 0 -60 0 0 93 0 92 50 -3
50 -4 0 46 0 46 -50 0 -50 0 0 80 0 80 55 0 55 0 0 45 0 45 -85 0 -85 0 0
-305z"/>
<path d="M2320 1175 l0 -305 30 0 30 0 2 223 3 222 44 -222 45 -223 43 0 43 0
0 305 0 305 -30 0 -30 0 -1 -212 c-1 -204 -2 -210 -15 -153 -15 66 -46 217
-64 308 l-11 57 -45 0 -44 0 0 -305z"/>
<path d="M2690 1475 c0 -3 -14 -96 -30 -208 -17 -111 -35 -233 -40 -272 -6
-38 -13 -83 -16 -98 -6 -27 -4 -28 28 -25 32 3 33 5 39 55 10 77 12 79 62 81
50 2 47 7 62 -95 6 -41 8 -43 41 -43 31 0 33 2 29 28 -6 29 -85 572 -85 578 0
2 -20 4 -45 4 -25 0 -45 -2 -45 -5z"/>
<path d="M2910 1175 l0 -305 30 0 30 0 2 222 3 222 44 -222 44 -222 43 0 44 0
0 305 0 305 -30 0 -30 0 0 -207 c0 -113 -2 -204 -5 -202 -4 5 -85 384 -85 402
0 4 -20 7 -45 7 l-45 0 0 -305z"/>
<path d="M3192 1433 c3 -47 3 -48 38 -49 l35 0 3 -257 2 -257 30 0 30 0 2 257
3 258 35 0 c35 0 35 1 38 48 l3 47 -111 0 -111 0 3 -47z"/>
<path d="M1264 626 c-23 -11 -36 -27 -50 -63 -16 -41 -19 -77 -19 -248 0 -183
2 -204 21 -246 27 -57 68 -78 114 -59 40 17 59 56 67 135 l6 65 -30 0 c-29 0
-30 -2 -39 -57 -7 -48 -13 -59 -30 -61 -38 -5 -46 37 -42 241 3 159 5 189 20
203 26 26 48 2 48 -51 0 -37 3 -43 24 -47 41 -8 50 4 42 62 -9 66 -33 115 -63
129 -29 13 -31 13 -69 -3z"/>
<path d="M767 623 c-4 -3 -7 -143 -7 -310 l0 -303 30 0 30 0 0 310 0 310 -23
0 c-13 0 -27 -3 -30 -7z"/>
<path d="M890 318 l0 -308 29 0 30 0 1 217 c0 119 2 218 3 220 2 1 23 -97 47
-217 l43 -220 44 0 43 0 -2 308 -3 307 -25 0 -25 0 -5 -210 c-3 -116 -7 -207
-8 -203 -1 4 -20 96 -43 205 -22 109 -46 201 -52 205 -7 4 -27 7 -44 6 l-33
-1 0 -309z"/>
<path d="M1450 321 l0 -311 29 0 c16 0 31 4 33 10 2 5 1 144 -2 307 l-5 298
-27 3 -28 3 0 -310z"/>
<path d="M1587 623 c-4 -3 -7 -143 -7 -310 l0 -303 30 0 30 0 2 228 3 227 45
-225 45 -225 43 -3 42 -3 0 310 0 311 -30 0 -30 0 -2 -212 -3 -213 -38 190
c-48 236 -47 235 -90 235 -19 0 -37 -3 -40 -7z"/>
<path d="M1890 319 l0 -309 90 0 90 0 0 45 0 45 -60 0 -60 0 0 95 0 95 50 0
50 0 0 45 0 45 -50 0 -50 0 0 80 0 80 55 0 55 0 0 45 0 46 -85 -2 -85 -2 0
-308z"/>
<path d="M2133 624 c-10 -4 -13 -76 -13 -310 l0 -304 30 0 30 0 0 130 0 130
25 0 c35 0 45 -27 45 -118 0 -120 6 -142 41 -142 l29 0 0 98 c-1 117 -11 169
-39 189 l-22 14 24 29 c46 54 47 206 2 258 -18 21 -32 26 -81 28 -32 2 -65 1
-71 -2z"/>
<path d="M2445 621 c-5 -10 -94 -570 -95 -598 0 -8 12 -13 29 -13 31 0 34 5
46 93 l7 47 48 0 c53 0 50 5 65 -98 7 -41 8 -43 38 -40 25 2 32 7 30 23 -7 60
-85 580 -88 585 -6 10 -73 11 -80 1z"/>
<path d="M2660 319 l0 -309 64 0 c80 0 111 11 129 47 36 70 32 205 -9 251
l-23 27 22 23 c19 21 22 35 22 119 0 94 0 95 -33 124 -29 26 -38 29 -102 28
l-70 -1 0 -309z m140 -58 c5 -11 10 -44 10 -75 0 -63 -16 -86 -61 -86 l-29 0
0 90 0 90 35 0 c24 0 37 -6 45 -19z"/>
<path d="M2947 624 c-4 -4 -7 -144 -7 -311 l0 -304 83 3 82 3 3 47 3 48 -55 0
-56 0 -2 258 c-3 250 -4 257 -23 260 -12 2 -24 0 -28 -4z"/>
<path d="M3153 624 c-10 -4 -13 -76 -13 -310 l0 -304 90 0 90 0 0 45 0 45 -55
0 -55 0 0 95 0 95 50 0 50 0 0 45 0 45 -50 0 -50 0 0 80 0 80 55 0 55 0 0 39
c0 22 -5 41 -12 43 -19 7 -141 8 -155 2z"/>
</g>
</svg>
