<?xml version="1.0" standalone="no"?>
<!DOCTYPE svg PUBLIC "-//W3C//DTD SVG 20010904//EN"
 "http://www.w3.org/TR/2001/REC-SVG-20010904/DTD/svg10.dtd">
<svg version="1.0" xmlns="http://www.w3.org/2000/svg"
 width="490.000000pt" height="600.000000pt" viewBox="0 0 490.000000 600.000000"
 preserveAspectRatio="xMidYMid meet">
<metadata>
Created by potrace 1.12, written by Peter Selinger 2001-2015
</metadata>
<g transform="translate(0.000000,600.000000) scale(0.100000,-0.100000)"
fill="#000000" stroke="none">
<path d="M750 5990 c-352 -46 -630 -294 -723 -643 l-22 -82 0 -1715 0 -1715
22 -83 c44 -164 141 -324 264 -435 70 -64 218 -148 310 -175 140 -43 152 -43
1899 -40 1896 4 1726 -4 1915 88 178 87 308 217 394 395 93 190 85 20 89 1900
2 1125 0 1690 -8 1752 -45 392 -352 704 -740 752 -97 13 -3309 13 -3400 1z
m3485 -124 c216 -65 381 -201 475 -391 82 -165 75 1 75 -1925 0 -1927 7 -1757
-75 -1925 -94 -192 -267 -333 -482 -393 -59 -16 -179 -17 -1778 -17 -1877 0
-1756 -4 -1897 60 -233 107 -394 317 -433 565 -8 55 -10 518 -8 1755 3 1588 5
1683 22 1740 87 287 302 487 581 540 57 11 392 13 1765 11 1605 -1 1698 -2
1755 -20z"/>
<path d="M2194 5721 c-37 -22 -44 -50 -44 -162 0 -62 -3 -79 -14 -79 -8 0 -28
-11 -43 -24 l-28 -24 0 -157 0 -157 28 -24 c15 -13 35 -24 43 -24 17 0 17 33
4 -390 -6 -190 -15 -361 -20 -382 -13 -47 -86 -113 -248 -226 -162 -112 -276
-224 -323 -317 -68 -132 -69 -144 -49 -805 10 -334 24 -827 36 -1290 l7 -244
28 -28 27 -28 852 0 852 0 27 28 28 28 7 249 c4 138 11 401 16 585 6 184 14
493 20 685 16 545 15 652 -2 711 -50 163 -155 280 -403 448 -106 72 -188 145
-210 186 -9 18 -16 130 -24 404 -7 208 -11 379 -9 380 2 1 16 7 31 14 48 21
60 67 55 221 -4 131 -5 134 -32 157 -15 13 -34 24 -42 24 -11 0 -14 17 -14 79
0 112 -7 140 -44 162 -28 17 -53 19 -256 19 -203 0 -228 -2 -256 -19z m386
-226 l0 -75 -130 0 -130 0 0 75 0 75 130 0 130 0 0 -75z m90 -215 l0 -40 -220
0 -220 0 0 40 0 40 220 0 220 0 0 -40z m-86 -272 c4 -68 11 -261 16 -430 12
-355 13 -361 107 -460 32 -33 128 -110 213 -171 234 -167 311 -259 326 -388 3
-30 -1 -304 -10 -609 -9 -305 -21 -726 -26 -935 -6 -209 -12 -405 -13 -435
l-2 -55 -68 3 -67 4 -53 55 c-78 84 -234 220 -285 250 -141 83 -346 92 -486
22 -73 -36 -177 -119 -282 -226 l-100 -102 -75 -2 -74 -2 -2 44 c-1 24 -7 226
-13 449 -6 223 -17 650 -26 950 -9 300 -13 566 -10 591 2 26 15 68 28 95 30
65 137 176 240 249 259 184 323 245 355 337 11 31 18 152 28 463 8 231 14 421
14 423 1 1 59 2 130 2 l129 0 6 -122z m26 -3298 c77 -39 243 -179 214 -180
-69 -3 -728 1 -731 4 -6 5 112 112 164 147 68 47 115 59 218 56 71 -3 100 -8
135 -27z"/>
<path d="M3165 728 c-55 -31 -81 -110 -72 -214 7 -75 30 -122 90 -190 56 -62
68 -86 69 -133 1 -61 -9 -81 -42 -81 -23 0 -30 6 -39 31 -6 18 -11 45 -11 60
0 27 -3 29 -36 29 l-37 0 5 -72 c7 -90 21 -122 65 -143 70 -34 142 5 164 89
16 57 7 193 -15 235 -10 19 -37 55 -60 80 -24 25 -50 57 -59 71 -22 32 -23
113 -1 134 34 34 64 7 64 -58 0 -35 1 -36 41 -36 l41 0 -7 63 c-8 70 -25 109
-57 131 -26 19 -74 20 -103 4z"/>
<path d="M1593 698 c3 -18 25 -177 48 -353 23 -179 47 -323 53 -327 14 -10 58
-10 72 0 6 4 32 158 58 342 26 184 50 343 52 353 5 14 -1 17 -35 17 -32 0 -41
-4 -41 -17 -1 -10 -16 -128 -34 -263 -24 -176 -35 -235 -39 -210 -7 35 -57
463 -57 481 0 5 -19 9 -41 9 -41 0 -41 0 -36 -32z"/>
<path d="M1930 372 l0 -358 51 -3 c29 -1 76 1 105 5 l54 6 0 49 0 49 -70 0
-71 0 3 107 3 108 45 1 c72 1 70 0 70 54 l0 50 -60 0 -60 0 0 90 c0 100 -7 93
83 90 l47 -1 0 55 0 56 -100 0 -100 0 0 -358z"/>
<path d="M2202 373 l3 -358 35 0 35 0 3 148 3 147 28 0 c40 0 49 -30 53 -167
4 -122 11 -139 52 -129 l26 6 0 113 c-1 136 -11 185 -45 215 -22 18 -24 23
-10 28 46 18 70 168 41 267 -22 76 -40 87 -143 87 l-83 0 2 -357z"/>
<path d="M2510 376 c0 -378 -2 -365 50 -362 l25 1 3 148 3 148 27 -3 c41 -5
52 -38 52 -164 0 -72 4 -114 12 -122 17 -17 58 -15 65 4 3 9 2 79 -4 156 -9
134 -10 142 -36 164 -23 19 -24 24 -11 35 34 28 47 72 47 164 1 92 -7 120 -46
163 -18 19 -30 22 -104 22 l-83 0 0 -354z"/>
<path d="M2820 376 l0 -354 63 -6 c52 -4 78 -4 140 3 4 1 7 23 7 51 l0 49 -67
3 -68 3 0 105 0 105 50 1 c28 1 55 2 60 3 11 1 17 45 10 78 -4 19 -13 22 -63
25 l-57 3 -2 88 -1 87 54 1 c30 1 60 2 67 3 8 1 12 18 12 51 l0 50 -102 3
-103 3 0 -355z"/>
</g>
</svg>
