<?xml version="1.0" standalone="no"?>
<!DOCTYPE svg PUBLIC "-//W3C//DTD SVG 20010904//EN"
 "http://www.w3.org/TR/2001/REC-SVG-20010904/DTD/svg10.dtd">
<svg version="1.0" xmlns="http://www.w3.org/2000/svg"
 width="490.000000pt" height="600.000000pt" viewBox="0 0 490.000000 600.000000"
 preserveAspectRatio="xMidYMid meet">
<metadata>
Created by potrace 1.12, written by Peter Selinger 2001-2015
</metadata>
<g transform="translate(0.000000,600.000000) scale(0.100000,-0.100000)"
fill="#000000" stroke="none">
<path d="M750 5990 c-352 -46 -630 -294 -723 -643 l-22 -82 0 -1715 0 -1715
22 -83 c44 -164 141 -324 264 -435 70 -64 218 -148 310 -175 140 -43 152 -43
1899 -40 1896 4 1726 -4 1915 88 178 87 308 217 394 395 93 190 85 20 89 1900
2 1125 0 1690 -8 1752 -45 392 -352 704 -740 752 -97 13 -3309 13 -3400 1z
m3485 -124 c216 -65 381 -201 475 -391 82 -165 75 1 75 -1925 0 -1927 7 -1757
-75 -1925 -94 -192 -267 -333 -482 -393 -59 -16 -179 -17 -1778 -17 -1877 0
-1756 -4 -1897 60 -233 107 -394 317 -433 565 -8 55 -10 518 -8 1755 3 1588 5
1683 22 1740 87 287 302 487 581 540 57 11 392 13 1765 11 1605 -1 1698 -2
1755 -20z"/>
<path d="M2194 5721 c-37 -22 -44 -50 -44 -162 0 -62 -3 -79 -14 -79 -8 0 -28
-11 -43 -24 l-28 -24 0 -157 0 -157 28 -24 c15 -13 35 -24 43 -24 17 0 17 33
4 -390 -6 -190 -15 -361 -20 -382 -13 -47 -86 -113 -248 -226 -162 -112 -276
-224 -323 -317 -68 -132 -69 -144 -49 -805 10 -334 24 -827 36 -1290 l7 -244
28 -28 27 -28 852 0 852 0 27 28 28 28 7 249 c4 138 11 401 16 585 6 184 14
493 20 685 16 545 15 652 -2 711 -50 163 -155 280 -403 448 -106 72 -188 145
-210 186 -9 18 -16 130 -24 404 -7 208 -11 379 -9 380 2 1 16 7 31 14 48 21
60 67 55 221 -4 131 -5 134 -32 157 -15 13 -34 24 -42 24 -11 0 -14 17 -14 79
0 112 -7 140 -44 162 -28 17 -53 19 -256 19 -203 0 -228 -2 -256 -19z m386
-226 l0 -75 -130 0 -130 0 0 75 0 75 130 0 130 0 0 -75z m90 -215 l0 -40 -220
0 -220 0 0 40 0 40 220 0 220 0 0 -40z m-86 -272 c4 -68 11 -261 16 -430 12
-355 13 -361 107 -460 32 -33 128 -110 213 -171 234 -167 311 -259 326 -388 3
-30 -1 -304 -10 -609 -9 -305 -21 -726 -26 -935 -6 -209 -12 -405 -13 -435
l-2 -55 -68 3 -67 4 -53 55 c-78 84 -234 220 -285 250 -141 83 -346 92 -486
22 -73 -36 -177 -119 -282 -226 l-100 -102 -75 -2 -74 -2 -2 44 c-1 24 -7 226
-13 449 -6 223 -17 650 -26 950 -9 300 -13 566 -10 591 2 26 15 68 28 95 30
65 137 176 240 249 259 184 323 245 355 337 11 31 18 152 28 463 8 231 14 421
14 423 1 1 59 2 130 2 l129 0 6 -122z m26 -3298 c77 -39 243 -179 214 -180
-69 -3 -728 1 -731 4 -6 5 112 112 164 147 68 47 115 59 218 56 71 -3 100 -8
135 -27z"/>

</g>
</svg>
