<svg version="1.1" id="Calque_1" xmlns="http://www.w3.org/2000/svg" xmlns:xlink="http://www.w3.org/1999/xlink" x="0px" y="0px"
	 width="50px" height="50px" viewBox="0 0 50 50" enable-background="new 0 0 50 50" xml:space="preserve">
<g>
	<path fill="#7fdc2b" d="M16.635,7.846c0,0,0.04-0.001,0.116-0.002C16.679,7.837,16.635,7.846,16.635,7.846z"/>
	<path fill="#7fdc2b" d="M16.751,7.844c0.283,0.028,1.006,0.309,1.238,2.374c0.292,2.591,0.729,6.472,0.729,6.472h12.586
		l0.728-6.473c0,0-0.349-2.079,1.42-2.371C35.139,7.567,18.313,7.82,16.751,7.844z"/>
</g>
<path fill="#00897B" stroke="#7fdc2b" stroke-width="0.0539" stroke-miterlimit="10" d="M43.192,39.338l-0.782-0.701
	c0,0-1.884-27.53-2.046-29.391c-0.162-1.861-1.294-1.69-1.294-1.69s-1.618-0.009-4.531,0c-2.912,0.01-2.508,2.661-2.508,2.661
	l-0.728,6.473l-12.569,0.08l-0.017-0.08l-0.729-6.472c0,0,0.405-2.652-2.508-2.661c-2.912-0.009-4.53,0-4.53,0
	s-1.133-0.171-1.295,1.69c-0.161,1.86-2.045,29.389-2.045,29.389l-0.782,0.701c0,0-0.323,0.755-0.243,1.159
	c0.081,0.405,0.594,0.917,1.457,1.133c0.862,0.216,16.05,0.701,16.05,0.701l1.835,0.001c0,0,15.188-0.485,16.051-0.701
	s1.375-0.729,1.456-1.133S43.192,39.338,43.192,39.338z"/>
<ellipse fill="#00897B" stroke="#7fdc2b" stroke-width="0.0539" stroke-miterlimit="10" cx="21.624" cy="12.351" rx="2.157" ry="2.805"/>
<ellipse fill="#00897B" stroke="#7fdc2b" stroke-width="0.0539" stroke-miterlimit="10" cx="21.57" cy="12.055" rx="1.78" ry="1.915"/>
<g>
	
		<ellipse fill="#00897B" stroke="#7fdc2b" stroke-width="0.0539" stroke-miterlimit="10" cx="28.69" cy="12.351" rx="2.158" ry="2.805"/>
	
		<ellipse fill="#00897B" stroke="#7fdc2b" stroke-width="0.0539" stroke-miterlimit="10" cx="28.636" cy="12.055" rx="1.78" ry="1.915"/>
</g>
<path fill="#00897B" stroke="#7fdc2b" stroke-width="0.0539" stroke-miterlimit="10" d="M43.172,39.455l-0.782-0.701
	c0,0-0.019-0.28-0.054-0.785c-1.241,0.104-15.84,1.257-34.69-0.005c-0.035,0.507-0.055,0.789-0.055,0.789l-0.782,0.701
	c0,0-0.323,0.755-0.242,1.159s0.593,0.917,1.456,1.133s16.051,0.701,16.051,0.701l1.835,0.001c0,0,15.188-0.485,16.05-0.701
	c0.863-0.216,1.376-0.729,1.457-1.133S43.172,39.455,43.172,39.455z"/>
<path fill="#7fdc2b" stroke="#00897B" stroke-width="0.0539" stroke-miterlimit="10" d="M42.336,37.969
	c-1.241,0.104-15.84,1.257-34.69-0.005l1.238-17.462c18.258,1.323,32.212,0,32.212,0L42.336,37.969z"/>
</svg>
