<svg width="48px" height="52px" viewBox="0 0 48 52" version="1.1" xmlns="http://www.w3.org/2000/svg" xmlns:xlink="http://www.w3.org/1999/xlink" xmlns:sketch="http://www.bohemiancoding.com/sketch/ns" fill="#7fdc2b" stroke="#616161">
   	<path d="M28.6575893,20.4082645 L28.6575893,25.3384298 C28.6575893,25.3384298 28.9549464,27.3359504 30.6663929,27.2673554 C32.3778393,27.1987603 32.7199643,25.4078512 32.7199643,25.4078512 L32.7199643,19.0545455 L28.6575893,20.4082645 L28.6575893,20.4082645 Z"></path>
    <path d="M25.6117321,22.8136364 L28.8834821,26.0595041 L28.6575893,20.4078512 C28.6575893,20.4082645 26.7904821,21.2173554 25.6117321,22.8136364 L25.6117321,22.8136364 Z"></path>
    <path d="M25.4852321,22.6995868 L36.9634643,34.7739669 L39.4959286,32.2946281 L39.4959286,41.6607438 L29.9813214,41.6607438 L32.6509643,39.3194215 L22.7938214,29.4020661 L22.7938214,26.5256198 L25.4852321,22.6995868 Z"></path>
    <path d="M22.6570536,27.1615702 L22.6570536,43.0384298 L26.2167143,43.0384298 L19.7820536,49.8566116 L13.0052679,43.1070248 L16.7702857,42.9698347 L16.7021071,29.5400826 L19.3035714,27.1615702 C19.3035714,27.1615702 20.3977143,27.9512397 22.6570536,27.1615702 L22.6570536,27.1615702 Z"></path>
    <path d="M20.0219107,17.2123967 L17.8098036,19.4338843 L15.4633929,21.7900826 L2.60146429,34.7053719 L0.273946429,32.1801653 L0.273946429,41.6607438 L9.24107143,41.6607438 L6.91355357,39.2508264 L19.4403393,26.8549587 C19.4403393,26.8549587 18.362625,26.0285124 19.0982143,24.2367769 C19.8338036,22.4450413 22.3445,19.4409091 22.3445,19.4409091 L20.0219107,17.2123967 L20.0219107,17.2123967 Z"></path>
    <path d="M36.8961071,0.407438017 L21.1517857,6.60578512 C21.1517857,6.60578512 16.4285714,7.91446281 15.5385536,12.0466942 L13.8271071,15.8347107 C13.8271071,15.8347107 12.18425,19.4847107 14.9906607,21.5508264 L15.4629821,21.7900826 L17.8089821,19.4347107 L17.5917143,18.9338843 C17.5917143,18.9338843 16.9403214,16.8272727 19.4222679,13.768595 C22.588875,10.9855372 22.9995893,12.2533058 22.9995893,12.2533058 C22.9995893,12.2533058 22.4521071,15.2144628 24.026375,17.3495868 L19.4222679,22.8590909 C19.4222679,22.8590909 17.7974821,24.7533058 19.3031607,26.9396694 C19.3031607,26.9396694 21.3567321,28.9202479 23.4103036,25.8896694 C25.463875,22.8590909 26.148125,22.1706612 26.148125,22.1706612 C26.148125,22.1706612 27.4488571,20.3797521 31.7613571,19.3471074 C36.0738571,18.3140496 40.181,13.4243802 40.181,13.4243802 L40.523125,9.98099174 L45.7942321,7.84586777 L45.7942321,0.40785124 L36.8961071,0.40785124 L36.8961071,0.407438017 Z"></path>
</svg>