<svg width="30" height="30" xmlns="http://www.w3.org/2000/svg" xmlns:svg="http://www.w3.org/2000/svg">
   <path id="svg_1" d="m17.66799,12.06347l0,2.91199c0,0 0.17671,1.17985 1.19374,1.13932s1.22035,-1.09831 1.22035,-1.09831l0,-3.75258l-2.41409,0.79957l0,0.00001z" stroke-miterlimit="10" fill="#FF1524" stroke="#FFFFFF"/>
   <path id="svg_2" d="m15.85796,13.48419l1.94425,1.91716l-0.13422,-3.33815c0,0.00025 -1.10955,0.47814 -1.81003,1.42098l0,0l0,0.00001z" stroke-miterlimit="10" fill="#FF1524" stroke="#FFFFFF"/>
   <polygon id="svg_3" points="15.78278923034668,13.416831016540527 22.60382080078125,20.548551559448242 24.108732223510742,19.084144592285156 24.108732223510742,24.616226196289062 18.45462989807129,24.616226196289062 20.041086196899414,23.233322143554688 14.183403015136719,17.375654220581055 14.183403015136719,15.67668342590332 " stroke-miterlimit="10" fill="#FF1524" stroke="#FFFFFF"/>
   <path id="svg_4" d="m14.10213,16.05231l0,9.37767l2.11535,0l-3.82384,4.02716l-4.02716,-3.98667l2.23739,-0.08101l-0.04052,-7.93229l1.54594,-1.40486c0,0 0.65019,0.46642 1.99284,0l0,0z" stroke-miterlimit="10" fill="#FF1524" stroke="#FFFFFF"/>
   <path id="svg_5" d="m12.53617,10.17583l-1.31456,1.31212l-1.39437,1.39169l-7.64331,7.6284l-1.38314,-1.4915l0,5.5997l5.32878,0l-1.38314,-1.42342l7.44414,-7.3216c0,0 -0.64044,-0.48814 -0.20331,-1.54643s1.92914,-2.83268 1.92914,-2.83268l-1.38022,-1.31627l-0.00001,-0.00001z" stroke-miterlimit="10" fill="#FF1524" stroke="#FFFFFF"/>
   <path id="svg_6" d="m22.56378,0.24999l-9.35618,3.66105c0,0 -2.80681,0.77297 -3.3357,3.21367l-1.01704,2.23739c0,0 -0.97628,2.15587 0.69145,3.37622l0.28069,0.14131l1.39411,-1.39119l-0.1291,-0.29582c0,0 -0.38711,-1.24426 1.0878,-3.05088c1.8818,-1.64381 2.12587,-0.895 2.12587,-0.895s-0.32535,1.74901 0.61018,3.01012l-2.73605,3.25419c0,0 -0.96552,1.11881 -0.07076,2.41019c0,0 1.22035,1.16982 2.4407,-0.62019s1.62698,-2.19663 1.62698,-2.19663s0.77297,-1.05779 3.3357,-1.66773c2.56274,-0.61018 5.00344,-3.49826 5.00344,-3.49826l0.20331,-2.03384l3.13239,-1.26111l0,-4.39326l-5.28779,0l0,-0.00024l0,0l0,0.00001z" stroke-miterlimit="10" fill="#FF1524" stroke="#FFFFFF"/>
</svg>