<?xml version="1.0" encoding="UTF-8"?><svg xmlns="http://www.w3.org/2000/svg" xmlns:xlink="http://www.w3.org/1999/xlink" fill-opacity="1" color-rendering="auto" color-interpolation="auto" text-rendering="auto" stroke="black" stroke-linecap="square" width="1320" stroke-miterlimit="10" shape-rendering="auto" stroke-opacity="1" fill="black" stroke-dasharray="none" font-weight="normal" stroke-width="1" height="1044" font-family="'Dialog'" font-style="normal" stroke-linejoin="miter" font-size="12" stroke-dashoffset="0" image-rendering="auto">
  <!--Generated by ySVG 2.5-->
  <defs id="genericDefs"/>
  <g>
    <defs id="defs1">
      <clipPath clipPathUnits="userSpaceOnUse" id="clipPath1">
        <path d="M0 0 L1320 0 L1320 1044 L0 1044 L0 0 Z"/>
      </clipPath>
      <clipPath clipPathUnits="userSpaceOnUse" id="clipPath2">
        <path d="M-268 3 L1052 3 L1052 1047 L-268 1047 L-268 3 Z"/>
      </clipPath>
    </defs>
    <g fill="white" text-rendering="geometricPrecision" shape-rendering="geometricPrecision" transform="translate(268,-3)" stroke="white">
      <rect x="-268" width="1320" height="1044" y="3" clip-path="url(#clipPath2)" stroke="none"/>
    </g>
    <g fill="rgb(51,153,102)" text-rendering="geometricPrecision" shape-rendering="geometricPrecision" transform="matrix(1,0,0,1,268,-3)" stroke="rgb(51,153,102)">
      <rect x="32" width="886.6667" height="40" y="18" clip-path="url(#clipPath2)" stroke="none"/>
    </g>
    <g stroke-linecap="butt" transform="matrix(1,0,0,1,268,-3)" fill="rgb(204,255,255)" text-rendering="geometricPrecision" font-family="'Droid Sans'" shape-rendering="geometricPrecision" stroke="rgb(204,255,255)" stroke-miterlimit="1.45">
      <text x="396.5453" xml:space="preserve" y="42.1543" clip-path="url(#clipPath2)" stroke="none">A types a search in order to X</text>
      <rect x="32" y="18" clip-path="url(#clipPath2)" fill="none" width="886.6667" height="40" stroke="black"/>
    </g>
    <g fill="rgb(51,153,102)" text-rendering="geometricPrecision" shape-rendering="geometricPrecision" transform="matrix(1,0,0,1,268,-3)" stroke="rgb(51,153,102)">
      <rect x="595.6667" width="323" height="40" y="85" clip-path="url(#clipPath2)" stroke="none"/>
    </g>
    <g stroke-linecap="butt" transform="matrix(1,0,0,1,268,-3)" fill="rgb(204,255,255)" text-rendering="geometricPrecision" font-family="'Droid Sans'" shape-rendering="geometricPrecision" stroke="rgb(204,255,255)" stroke-miterlimit="1.45">
      <text x="694.5212" xml:space="preserve" y="109.1543" clip-path="url(#clipPath2)" stroke="none">A wants to post an X'ad</text>
      <rect x="595.6667" y="85" clip-path="url(#clipPath2)" fill="none" width="323" height="40" stroke="black"/>
    </g>
    <g fill="rgb(51,153,102)" text-rendering="geometricPrecision" shape-rendering="geometricPrecision" transform="matrix(1,0,0,1,268,-3)" stroke="rgb(51,153,102)">
      <rect x="32" width="323" height="40" y="155" clip-path="url(#clipPath2)" stroke="none"/>
    </g>
    <g stroke-linecap="butt" transform="matrix(1,0,0,1,268,-3)" fill="rgb(204,255,255)" text-rendering="geometricPrecision" font-family="'Droid Sans'" shape-rendering="geometricPrecision" stroke="rgb(204,255,255)" stroke-miterlimit="1.45">
      <text x="143.7568" xml:space="preserve" y="172.1699" clip-path="url(#clipPath2)" stroke="none">A fills a short form</text>
      <text x="62.0449" xml:space="preserve" y="186.1387" clip-path="url(#clipPath2)" stroke="none">(if he has some questions, he can ask them here)</text>
      <rect x="32" y="155" clip-path="url(#clipPath2)" fill="none" width="323" height="40" stroke="black"/>
    </g>
    <g fill="rgb(51,153,102)" text-rendering="geometricPrecision" shape-rendering="geometricPrecision" transform="matrix(1,0,0,1,268,-3)" stroke="rgb(51,153,102)">
      <rect x="-129" width="323" height="40" y="225" clip-path="url(#clipPath2)" stroke="none"/>
    </g>
    <g stroke-linecap="butt" transform="matrix(1,0,0,1,268,-3)" fill="rgb(204,255,255)" text-rendering="geometricPrecision" font-family="'Droid Sans'" shape-rendering="geometricPrecision" stroke="rgb(204,255,255)" stroke-miterlimit="1.45">
      <text x="-89.4336" xml:space="preserve" y="242.1699" clip-path="url(#clipPath2)" stroke="none">B can see the list of interested persons' form </text>
      <text x="-76.9531" xml:space="preserve" y="256.1387" clip-path="url(#clipPath2)" stroke="none">(classified by their status / score / place )</text>
      <rect x="-129" y="225" clip-path="url(#clipPath2)" fill="none" width="323" height="40" stroke="black"/>
    </g>
    <g fill="rgb(51,153,102)" text-rendering="geometricPrecision" shape-rendering="geometricPrecision" transform="matrix(1,0,0,1,268,-3)" stroke="rgb(51,153,102)">
      <rect x="-129" width="141" height="40" y="310.9022" clip-path="url(#clipPath2)" stroke="none"/>
    </g>
    <g stroke-linecap="butt" transform="matrix(1,0,0,1,268,-3)" fill="rgb(204,255,255)" text-rendering="geometricPrecision" font-family="'Droid Sans'" shape-rendering="geometricPrecision" stroke="rgb(204,255,255)" stroke-miterlimit="1.45">
      <text x="-103.1748" xml:space="preserve" y="335.0565" clip-path="url(#clipPath2)" stroke="none">B refuses A prop</text>
      <rect x="-129" y="310.9022" clip-path="url(#clipPath2)" fill="none" width="141" height="40" stroke="black"/>
    </g>
    <g fill="rgb(51,153,102)" text-rendering="geometricPrecision" shape-rendering="geometricPrecision" transform="matrix(1,0,0,1,268,-3)" stroke="rgb(51,153,102)">
      <rect x="42" width="141" height="40" y="310.9022" clip-path="url(#clipPath2)" stroke="none"/>
    </g>
    <g stroke-linecap="butt" transform="matrix(1,0,0,1,268,-3)" fill="rgb(204,255,255)" text-rendering="geometricPrecision" font-family="'Droid Sans'" shape-rendering="geometricPrecision" stroke="rgb(204,255,255)" stroke-miterlimit="1.45">
      <text x="77.5078" xml:space="preserve" y="328.0722" clip-path="url(#clipPath2)" stroke="none">B postpones </text>
      <text x="73.1016" xml:space="preserve" y="342.0409" clip-path="url(#clipPath2)" stroke="none">( fav system ? )</text>
      <rect x="42" y="310.9022" clip-path="url(#clipPath2)" fill="none" width="141" height="40" stroke="black"/>
    </g>
    <g fill="rgb(51,153,102)" text-rendering="geometricPrecision" shape-rendering="geometricPrecision" transform="matrix(1,0,0,1,268,-3)" stroke="rgb(51,153,102)">
      <rect x="376" width="141" height="40" y="310.9022" clip-path="url(#clipPath2)" stroke="none"/>
    </g>
    <g stroke-linecap="butt" transform="matrix(1,0,0,1,268,-3)" fill="rgb(204,255,255)" text-rendering="geometricPrecision" font-family="'Droid Sans'" shape-rendering="geometricPrecision" stroke="rgb(204,255,255)" stroke-miterlimit="1.45">
      <text x="415.8027" xml:space="preserve" y="335.0565" clip-path="url(#clipPath2)" stroke="none">B accepts A</text>
      <rect x="376" y="310.9022" clip-path="url(#clipPath2)" fill="none" width="141" height="40" stroke="black"/>
    </g>
    <g fill="rgb(51,153,102)" text-rendering="geometricPrecision" shape-rendering="geometricPrecision" transform="matrix(1,0,0,1,268,-3)" stroke="rgb(51,153,102)">
      <rect x="213" width="141" height="40" y="310.9022" clip-path="url(#clipPath2)" stroke="none"/>
    </g>
    <g stroke-linecap="butt" transform="matrix(1,0,0,1,268,-3)" fill="rgb(204,255,255)" text-rendering="geometricPrecision" font-family="'Droid Sans'" shape-rendering="geometricPrecision" stroke="rgb(204,255,255)" stroke-miterlimit="1.45">
      <text x="226.9658" xml:space="preserve" y="335.0565" clip-path="url(#clipPath2)" stroke="none">B starts a chat with A</text>
      <rect x="213" y="310.9022" clip-path="url(#clipPath2)" fill="none" width="141" height="40" stroke="black"/>
    </g>
    <g fill="rgb(51,153,102)" text-rendering="geometricPrecision" shape-rendering="geometricPrecision" transform="matrix(1,0,0,1,268,-3)" stroke="rgb(51,153,102)">
      <ellipse rx="70.5" ry="28.6806" clip-path="url(#clipPath2)" cx="283.5" cy="399.5828" stroke="none"/>
    </g>
    <g stroke-linecap="butt" transform="matrix(1,0,0,1,268,-3)" fill="rgb(204,255,255)" text-rendering="geometricPrecision" font-family="'Droid Sans'" shape-rendering="geometricPrecision" stroke="rgb(204,255,255)" stroke-miterlimit="1.45">
      <text x="229.1484" xml:space="preserve" y="396.7527" clip-path="url(#clipPath2)" stroke="none">Chat INSIDE 2ndLife</text>
      <text x="238.0254" xml:space="preserve" y="410.7215" clip-path="url(#clipPath2)" stroke="none">between A and B</text>
      <ellipse clip-path="url(#clipPath2)" fill="none" rx="70.5" cx="283.5" ry="28.6806" cy="399.5828" stroke="black"/>
    </g>
    <g fill="rgb(51,153,102)" text-rendering="geometricPrecision" shape-rendering="geometricPrecision" transform="matrix(1,0,0,1,268,-3)" stroke="rgb(51,153,102)">
      <path d="M-190.658 130.0458 L-129 195 L-252.316 195 Z" fill-rule="evenodd" clip-path="url(#clipPath2)" stroke="none"/>
    </g>
    <g stroke-linecap="butt" transform="matrix(1,0,0,1,268,-3)" fill="rgb(204,255,255)" text-rendering="geometricPrecision" font-family="'Droid Sans'" shape-rendering="geometricPrecision" stroke="rgb(204,255,255)" stroke-miterlimit="1.45">
      <text x="-232.9949" xml:space="preserve" y="186.1699" clip-path="url(#clipPath2)" stroke="none">B deletes his ad</text>
      <path fill="none" d="M-190.658 130.0458 L-129 195 L-252.316 195 Z" fill-rule="evenodd" clip-path="url(#clipPath2)" stroke="black"/>
    </g>
    <g fill="rgb(51,153,102)" text-rendering="geometricPrecision" shape-rendering="geometricPrecision" transform="matrix(1,0,0,1,268,-3)" stroke="rgb(51,153,102)">
      <rect x="147.9469" width="646" height="40" y="505.5138" clip-path="url(#clipPath2)" stroke="none"/>
    </g>
    <g stroke-linecap="butt" transform="matrix(1,0,0,1,268,-3)" fill="rgb(204,255,255)" text-rendering="geometricPrecision" font-family="'Droid Sans'" shape-rendering="geometricPrecision" stroke="rgb(204,255,255)" stroke-miterlimit="1.45">
      <text x="439.4704" xml:space="preserve" y="529.6681" clip-path="url(#clipPath2)" stroke="none">Transaction</text>
      <rect x="147.9469" y="505.5138" clip-path="url(#clipPath2)" fill="none" width="646" height="40" stroke="black"/>
    </g>
    <g fill="rgb(51,153,102)" text-rendering="geometricPrecision" shape-rendering="geometricPrecision" transform="matrix(1,0,0,1,268,-3)" stroke="rgb(51,153,102)">
      <path d="M147.9469 595.5138 L470.9469 575.5138 L793.9469 595.5138 L470.9469 615.5138 Z" fill-rule="evenodd" clip-path="url(#clipPath2)" stroke="none"/>
    </g>
    <g stroke-linecap="butt" transform="matrix(1,0,0,1,268,-3)" fill="rgb(204,255,255)" text-rendering="geometricPrecision" font-family="'Droid Sans'" shape-rendering="geometricPrecision" stroke="rgb(204,255,255)" stroke-miterlimit="1.45">
      <text x="401.5251" xml:space="preserve" y="599.6681" clip-path="url(#clipPath2)" stroke="none">Delete ad / refuse others?</text>
      <path fill="none" d="M147.9469 595.5138 L470.9469 575.5138 L793.9469 595.5138 L470.9469 615.5138 Z" fill-rule="evenodd" clip-path="url(#clipPath2)" stroke="black"/>
    </g>
    <g fill="rgb(51,153,102)" text-rendering="geometricPrecision" shape-rendering="geometricPrecision" transform="matrix(1,0,0,1,268,-3)" stroke="rgb(51,153,102)">
      <rect x="147.9469" width="237.0508" height="40" y="645.5138" clip-path="url(#clipPath2)" stroke="none"/>
    </g>
    <g stroke-linecap="butt" transform="matrix(1,0,0,1,268,-3)" fill="rgb(204,255,255)" text-rendering="geometricPrecision" font-family="'Droid Sans'" shape-rendering="geometricPrecision" stroke="rgb(204,255,255)" stroke-miterlimit="1.45">
      <text x="191.61" xml:space="preserve" y="669.6681" clip-path="url(#clipPath2)" stroke="none">Delete ad and refuse others</text>
      <rect x="147.9469" y="645.5138" clip-path="url(#clipPath2)" fill="none" width="237.0508" height="40" stroke="black"/>
    </g>
    <g fill="rgb(51,153,102)" text-rendering="geometricPrecision" shape-rendering="geometricPrecision" transform="matrix(1,0,0,1,268,-3)" stroke="rgb(51,153,102)">
      <path d="M147.9469 728.8317 L470.9469 708.8317 L793.9469 728.8317 L470.9469 748.8317 Z" fill-rule="evenodd" clip-path="url(#clipPath2)" stroke="none"/>
    </g>
    <g stroke-linecap="butt" transform="matrix(1,0,0,1,268,-3)" fill="rgb(204,255,255)" text-rendering="geometricPrecision" font-family="'Droid Sans'" shape-rendering="geometricPrecision" stroke="rgb(204,255,255)" stroke-miterlimit="1.45">
      <text x="438.6178" xml:space="preserve" y="732.986" clip-path="url(#clipPath2)" stroke="none">B is mobile?</text>
      <path fill="none" d="M147.9469 728.8317 L470.9469 708.8317 L793.9469 728.8317 L470.9469 748.8317 Z" fill-rule="evenodd" clip-path="url(#clipPath2)" stroke="black"/>
    </g>
    <g fill="rgb(51,153,102)" text-rendering="geometricPrecision" shape-rendering="geometricPrecision" transform="matrix(1,0,0,1,268,-3)" stroke="rgb(51,153,102)">
      <rect x="147.9469" width="312.2537" height="57.3611" y="786.2658" clip-path="url(#clipPath2)" stroke="none"/>
    </g>
    <g stroke-linecap="butt" transform="matrix(1,0,0,1,268,-3)" fill="rgb(204,255,255)" text-rendering="geometricPrecision" font-family="'Droid Sans'" shape-rendering="geometricPrecision" stroke="rgb(204,255,255)" stroke-miterlimit="1.45">
      <text x="239.2574" xml:space="preserve" y="812.1163" clip-path="url(#clipPath2)" stroke="none">A sends his address and</text>
      <text x="242.9458" xml:space="preserve" y="826.085" clip-path="url(#clipPath2)" stroke="none">timetable propositions</text>
      <rect x="147.9469" y="786.2658" clip-path="url(#clipPath2)" fill="none" width="312.2537" height="57.3611" stroke="black"/>
    </g>
    <g fill="rgb(51,153,102)" text-rendering="geometricPrecision" shape-rendering="geometricPrecision" transform="matrix(1,0,0,1,268,-3)" stroke="rgb(51,153,102)">
      <rect x="491.6891" width="302.2579" height="57.3611" y="786.2658" clip-path="url(#clipPath2)" stroke="none"/>
    </g>
    <g stroke-linecap="butt" transform="matrix(1,0,0,1,268,-3)" fill="rgb(204,255,255)" text-rendering="geometricPrecision" font-family="'Droid Sans'" shape-rendering="geometricPrecision" stroke="rgb(204,255,255)" stroke-miterlimit="1.45">
      <text x="576.3639" xml:space="preserve" y="812.1163" clip-path="url(#clipPath2)" stroke="none">B sends his address and </text>
      <text x="581.6901" xml:space="preserve" y="826.085" clip-path="url(#clipPath2)" stroke="none">timetable propositions</text>
      <rect x="491.6891" y="786.2658" clip-path="url(#clipPath2)" fill="none" width="302.2579" height="57.3611" stroke="black"/>
    </g>
    <g fill="rgb(51,153,102)" text-rendering="geometricPrecision" shape-rendering="geometricPrecision" transform="matrix(1,0,0,1,268,-3)" stroke="rgb(51,153,102)">
      <rect x="147.9469" width="312.2537" height="57.3611" y="881.061" clip-path="url(#clipPath2)" stroke="none"/>
    </g>
    <g stroke-linecap="butt" transform="matrix(1,0,0,1,268,-3)" fill="rgb(204,255,255)" text-rendering="geometricPrecision" font-family="'Droid Sans'" shape-rendering="geometricPrecision" stroke="rgb(204,255,255)" stroke-miterlimit="1.45">
      <text x="245.3306" xml:space="preserve" y="906.9115" clip-path="url(#clipPath2)" stroke="none">B chooses a date and </text>
      <text x="286.0913" xml:space="preserve" y="920.8802" clip-path="url(#clipPath2)" stroke="none">checks</text>
      <rect x="147.9469" y="881.061" clip-path="url(#clipPath2)" fill="none" width="312.2537" height="57.3611" stroke="black"/>
    </g>
    <g fill="rgb(51,153,102)" text-rendering="geometricPrecision" shape-rendering="geometricPrecision" transform="matrix(1,0,0,1,268,-3)" stroke="rgb(51,153,102)">
      <rect x="491.6891" width="302.2579" height="57.3611" y="881.061" clip-path="url(#clipPath2)" stroke="none"/>
    </g>
    <g stroke-linecap="butt" transform="matrix(1,0,0,1,268,-3)" fill="rgb(204,255,255)" text-rendering="geometricPrecision" font-family="'Droid Sans'" shape-rendering="geometricPrecision" stroke="rgb(204,255,255)" stroke-miterlimit="1.45">
      <text x="584.1539" xml:space="preserve" y="906.9115" clip-path="url(#clipPath2)" stroke="none">A chooses a date and </text>
      <text x="624.8356" xml:space="preserve" y="920.8802" clip-path="url(#clipPath2)" stroke="none">checks</text>
      <rect x="491.6891" y="881.061" clip-path="url(#clipPath2)" fill="none" width="302.2579" height="57.3611" stroke="black"/>
    </g>
    <g fill="rgb(51,153,102)" text-rendering="geometricPrecision" shape-rendering="geometricPrecision" transform="matrix(1,0,0,1,268,-3)" stroke="rgb(51,153,102)">
      <rect x="595.6667" width="323" height="40" y="155" clip-path="url(#clipPath2)" stroke="none"/>
    </g>
    <g stroke-linecap="butt" transform="matrix(1,0,0,1,268,-3)" fill="rgb(204,255,255)" text-rendering="geometricPrecision" font-family="'Droid Sans'" shape-rendering="geometricPrecision" stroke="rgb(204,255,255)" stroke-miterlimit="1.45">
      <text x="723.112" xml:space="preserve" y="179.1543" clip-path="url(#clipPath2)" stroke="none">A fills a form</text>
      <rect x="595.6667" y="155" clip-path="url(#clipPath2)" fill="none" width="323" height="40" stroke="black"/>
    </g>
    <g fill="rgb(51,153,102)" text-rendering="geometricPrecision" shape-rendering="geometricPrecision" transform="matrix(1,0,0,1,268,-3)" stroke="rgb(51,153,102)">
      <rect x="595.6667" width="323" height="40" y="210.7416" clip-path="url(#clipPath2)" stroke="none"/>
    </g>
    <g stroke-linecap="butt" transform="matrix(1,0,0,1,268,-3)" fill="rgb(204,255,255)" text-rendering="geometricPrecision" font-family="'Droid Sans'" shape-rendering="geometricPrecision" stroke="rgb(204,255,255)" stroke-miterlimit="1.45">
      <text x="716.3679" xml:space="preserve" y="234.8959" clip-path="url(#clipPath2)" stroke="none">A checks his ad</text>
      <rect x="595.6667" y="210.7416" clip-path="url(#clipPath2)" fill="none" width="323" height="40" stroke="black"/>
    </g>
    <g fill="rgb(51,153,102)" text-rendering="geometricPrecision" shape-rendering="geometricPrecision" transform="matrix(1,0,0,1,268,-3)" stroke="rgb(51,153,102)">
      <rect x="42" width="886.6667" height="40" y="975.8562" clip-path="url(#clipPath2)" stroke="none"/>
    </g>
    <g stroke-linecap="butt" transform="matrix(1,0,0,1,268,-3)" fill="rgb(204,255,255)" text-rendering="geometricPrecision" font-family="'Droid Sans'" shape-rendering="geometricPrecision" stroke="rgb(204,255,255)" stroke-miterlimit="1.45">
      <text x="421.5833" xml:space="preserve" y="1000.0105" clip-path="url(#clipPath2)" stroke="none">Exhange between A &amp; B</text>
      <rect x="42" y="975.8562" clip-path="url(#clipPath2)" fill="none" width="886.6667" height="40" stroke="black"/>
    </g>
    <g fill="rgb(51,153,102)" text-rendering="geometricPrecision" shape-rendering="geometricPrecision" transform="matrix(1,0,0,1,268,-3)" stroke="rgb(51,153,102)">
      <ellipse rx="161.5" ry="20" clip-path="url(#clipPath2)" cx="193.5" cy="105" stroke="none"/>
    </g>
    <g stroke-linecap="butt" transform="matrix(1,0,0,1,268,-3)" fill="rgb(204,255,255)" text-rendering="geometricPrecision" font-family="'Droid Sans'" shape-rendering="geometricPrecision" stroke="rgb(204,255,255)" stroke-miterlimit="1.45">
      <text x="151.3916" xml:space="preserve" y="109.1543" clip-path="url(#clipPath2)" stroke="none">A scrolls Y's ads</text>
      <ellipse clip-path="url(#clipPath2)" fill="none" rx="161.5" cx="193.5" ry="20" cy="105" stroke="black"/>
    </g>
    <g fill="rgb(51,153,102)" text-rendering="geometricPrecision" shape-rendering="geometricPrecision" transform="matrix(1,0,0,1,268,-3)" stroke="rgb(51,153,102)">
      <rect x="194" width="323" height="40" y="225" clip-path="url(#clipPath2)" stroke="none"/>
    </g>
    <g stroke-linecap="butt" transform="matrix(1,0,0,1,268,-3)" fill="rgb(204,255,255)" text-rendering="geometricPrecision" font-family="'Droid Sans'" shape-rendering="geometricPrecision" stroke="rgb(204,255,255)" stroke-miterlimit="1.45">
      <text x="305.9971" xml:space="preserve" y="249.1543" clip-path="url(#clipPath2)" stroke="none">B can see A's form</text>
      <rect x="194" y="225" clip-path="url(#clipPath2)" fill="none" width="323" height="40" stroke="black"/>
    </g>
    <g fill="rgb(255,204,0)" text-rendering="geometricPrecision" shape-rendering="geometricPrecision" transform="matrix(1,0,0,1,268,-3)" stroke="rgb(255,204,0)">
      <path d="M1006.0502 1016.7173 L1021.0502 1001.7173 L1036.0502 1016.7173 L1021.0502 1031.7173 Z" fill-rule="evenodd" clip-path="url(#clipPath2)" stroke="none"/>
    </g>
    <g text-rendering="geometricPrecision" stroke-miterlimit="1.45" shape-rendering="geometricPrecision" transform="matrix(1,0,0,1,268,-3)" stroke-linecap="butt">
      <path fill="none" d="M1006.0502 1016.7173 L1021.0502 1001.7173 L1036.0502 1016.7173 L1021.0502 1031.7173 Z" fill-rule="evenodd" clip-path="url(#clipPath2)"/>
    </g>
    <g fill="rgb(51,153,102)" text-rendering="geometricPrecision" shape-rendering="geometricPrecision" transform="matrix(1,0,0,1,268,-3)" stroke="rgb(51,153,102)">
      <rect x="-163.0911" width="141" height="40" y="505.5138" clip-path="url(#clipPath2)" stroke="none"/>
    </g>
    <g stroke-linecap="butt" transform="matrix(1,0,0,1,268,-3)" fill="rgb(204,255,255)" text-rendering="geometricPrecision" font-family="'Droid Sans'" shape-rendering="geometricPrecision" stroke="rgb(204,255,255)" stroke-miterlimit="1.45">
      <text x="-153.0013" xml:space="preserve" y="529.6681" clip-path="url(#clipPath2)" stroke="none">Delete the proposition</text>
      <rect x="-163.0911" y="505.5138" clip-path="url(#clipPath2)" fill="none" width="141" height="40" stroke="black"/>
      <path fill="none" d="M757.1667 58.0048 L757.1667 77" clip-path="url(#clipPath2)" stroke="black"/>
      <path fill="black" d="M757.1667 85 L762.1667 73 L757.1667 76 L752.1667 73 Z" clip-path="url(#clipPath2)" stroke="none"/>
      <path fill="none" d="M185.7841 265.0004 L19.7239 309.7993" clip-path="url(#clipPath2)" stroke="black"/>
      <path fill="black" d="M12 311.8831 L24.8881 313.5849 L20.6894 309.5389 L22.2835 303.9301 Z" clip-path="url(#clipPath2)" stroke="none"/>
      <path fill="none" d="M184.8577 270.1558 L142.4499 305.7584" clip-path="url(#clipPath2)" stroke="black"/>
      <path fill="black" d="M190.9847 265.012 L178.5792 268.8983 L184.0918 270.7988 L185.009 276.5571 Z" clip-path="url(#clipPath2)" stroke="none"/>
      <path fill="black" d="M136.3228 310.9023 L148.7283 307.0159 L143.2158 305.1154 L142.2985 299.3571 Z" clip-path="url(#clipPath2)" stroke="none"/>
      <path fill="none" d="M194.0189 262.4295 L368.2789 309.6887" clip-path="url(#clipPath2)" stroke="black"/>
      <path fill="black" d="M376 311.7827 L365.7271 303.8161 L367.3138 309.427 L363.1096 313.4674 Z" clip-path="url(#clipPath2)" stroke="none"/>
      <path fill="none" d="M191.4677 265.0064 L249.0628 306.2449" clip-path="url(#clipPath2)" stroke="black"/>
      <path fill="black" d="M255.5674 310.9023 L248.7213 299.8509 L248.2497 305.6628 L242.8997 307.9816 Z" clip-path="url(#clipPath2)" stroke="none"/>
      <path fill="none" d="M283.5 350.9023 L283.5 362.9023" clip-path="url(#clipPath2)" stroke="black"/>
      <path fill="black" d="M283.5 370.9023 L288.5 358.9023 L283.5 361.9023 L278.5 358.9023 Z" clip-path="url(#clipPath2)" stroke="none"/>
      <path fill="none" d="M290.7098 428.1051 L290.9703 428.5299 L293.5242 431.9205 L296.3896 435.0523 L299.5463 437.9012 L302.9742 440.4429 L306.6532 442.6534 L310.5633 444.5084 L314.6843 445.9837 L318.9961 447.0551 L323.4786 447.6985 L328.0032 447.8871 L332.4384 447.6236 L336.7599 446.9281 L340.9435 445.8207 L344.9652 444.3215 L348.8007 442.4507 L352.4258 440.2282 L355.8163 437.6743 L358.9482 434.8089 L361.797 431.6522 L364.3388 428.2243 L366.5493 424.5453 L368.4042 420.6352 L369.8795 416.5142 L370.951 412.2024 L371.5943 407.7198 L371.7829 403.1953 L371.5194 398.7601 L370.8239 394.4387 L369.7166 390.255 L368.2174 386.2333 L366.3465 382.3978 L364.1241 378.7727 L361.5701 375.3821 L358.7047 372.2503 L355.548 369.4015 L352.1201 366.8597 L348.4411 364.6493 L344.5311 362.7943 L340.4101 361.319 L336.0982 360.2476 L331.6157 359.6042 L327.0911 359.4156 L322.656 359.6791 L318.3345 360.3746 L314.1508 361.482 L310.1292 362.9811 L306.2937 364.852 L303.5933 366.5075 L303.5157 366.5706" clip-path="url(#clipPath2)" stroke="black"/>
      <path fill="black" d="M297.2174 371.5033 L309.7478 368.0406 L304.303 365.954 L303.5819 360.1678 Z" clip-path="url(#clipPath2)" stroke="none"/>
      <path fill="none" d="M283.5 428.2634 L283.5 458.2964 L-58.5 458.2964 L-58.5 358.9023" clip-path="url(#clipPath2)" stroke="black"/>
      <path fill="black" d="M-58.5 350.9023 L-63.5 362.9023 L-58.5 359.9023 L-53.5 362.9023 Z" clip-path="url(#clipPath2)" stroke="none"/>
      <path fill="none" d="M283.5 428.2634 L283.5 458.2964 L329.7326 458.2964 L446.5 458.2964 L446.5 358.9023" clip-path="url(#clipPath2)" stroke="black"/>
      <path fill="black" d="M446.5 350.9023 L441.5 362.9023 L446.5 359.9023 L451.5 362.9023 Z" clip-path="url(#clipPath2)" stroke="none"/>
      <path fill="none" d="M-190.658 195.0395 L-190.658 330.9023 L-137 330.9023" clip-path="url(#clipPath2)" stroke="black"/>
      <path fill="black" d="M-129 330.9023 L-141 325.9023 L-138 330.9023 L-141 335.9023 Z" clip-path="url(#clipPath2)" stroke="none"/>
      <path fill="none" d="M470.9469 350.9142 L470.9469 497.5138" clip-path="url(#clipPath2)" stroke="black"/>
      <path fill="black" d="M470.9469 505.5138 L475.9469 493.5138 L470.9469 496.5138 L465.9469 493.5138 Z" clip-path="url(#clipPath2)" stroke="none"/>
      <text x="447.7204" y="432.3623" clip-path="url(#clipPath2)" fill="black" font-family="sans-serif" stroke="none" xml:space="preserve">A receives a push</text>
      <path fill="none" d="M470.9469 545.5138 L470.9469 567.5431" clip-path="url(#clipPath2)" stroke="black"/>
      <path fill="black" d="M470.9469 575.5431 L475.9469 563.5431 L470.9469 566.5431 L465.9469 563.5431 Z" clip-path="url(#clipPath2)" stroke="none"/>
      <path fill="none" d="M228.3616 600.5134 L228.3616 637.4868" clip-path="url(#clipPath2)" stroke="black"/>
      <path fill="black" d="M228.3616 645.4868 L233.3616 633.4868 L228.3616 636.4868 L223.3616 633.4868 Z" clip-path="url(#clipPath2)" stroke="none"/>
      <text x="187.8792" y="634.6681" clip-path="url(#clipPath2)" fill="black" font-family="sans-serif" stroke="none" xml:space="preserve">Yes</text>
      <path fill="none" d="M331.059 685.5138 L409.4467 709.7875" clip-path="url(#clipPath2)" stroke="black"/>
      <path fill="black" d="M417.0887 712.1539 L407.1047 703.828 L408.4915 709.4916 L404.1467 713.3805 Z" clip-path="url(#clipPath2)" stroke="none"/>
      <text x="221.8364" y="704.3997" clip-path="url(#clipPath2)" fill="black" font-family="sans-serif" stroke="none" xml:space="preserve">others receive a push</text>
      <path fill="none" d="M642.3289 604.9164 L563.0458 707.8898" clip-path="url(#clipPath2)" stroke="black"/>
      <path fill="black" d="M558.1653 714.2287 L569.4478 707.7708 L563.6559 707.0975 L561.5243 701.6701 Z" clip-path="url(#clipPath2)" stroke="none"/>
      <text x="649.781" y="637.97" clip-path="url(#clipPath2)" fill="black" font-family="sans-serif" stroke="none" xml:space="preserve">No</text>
      <path fill="none" d="M303.6165 738.4882 L303.6165 778.2955" clip-path="url(#clipPath2)" stroke="black"/>
      <path fill="black" d="M303.6165 786.2955 L308.6165 774.2955 L303.6165 777.2955 L298.6165 774.2955 Z" clip-path="url(#clipPath2)" stroke="none"/>
      <text x="263.1341" y="771.7031" clip-path="url(#clipPath2)" fill="black" font-family="sans-serif" stroke="none" xml:space="preserve">Yes</text>
      <path fill="none" d="M642.818 738.2085 L642.818 778.2658" clip-path="url(#clipPath2)" stroke="black"/>
      <path fill="black" d="M642.818 786.2658 L647.818 774.2658 L642.818 777.2658 L637.818 774.2658 Z" clip-path="url(#clipPath2)" stroke="none"/>
      <text x="664.6588" y="771.7031" clip-path="url(#clipPath2)" fill="black" font-family="sans-serif" stroke="none" xml:space="preserve">No</text>
      <path fill="none" d="M304.0738 843.627 L304.0738 873.061" clip-path="url(#clipPath2)" stroke="black"/>
      <path fill="black" d="M304.0738 881.061 L309.0738 869.061 L304.0738 872.061 L299.0738 869.061 Z" clip-path="url(#clipPath2)" stroke="none"/>
      <path fill="none" d="M642.818 843.627 L642.818 856.1442 L642.818 873.061" clip-path="url(#clipPath2)" stroke="black"/>
      <path fill="black" d="M642.818 881.061 L647.818 869.061 L642.818 872.061 L637.818 869.061 Z" clip-path="url(#clipPath2)" stroke="none"/>
      <path fill="none" d="M757.1667 125 L757.1667 147" clip-path="url(#clipPath2)" stroke="black"/>
      <path fill="black" d="M757.1667 155 L762.1667 143 L757.1667 146 L752.1667 143 Z" clip-path="url(#clipPath2)" stroke="none"/>
      <path fill="none" d="M757.1667 195 L757.1667 202.7416" clip-path="url(#clipPath2)" stroke="black"/>
      <path fill="black" d="M757.1667 210.7416 L762.1667 198.7416 L757.1667 201.7416 L752.1667 198.7416 Z" clip-path="url(#clipPath2)" stroke="none"/>
      <path fill="none" d="M364.4424 938.4221 L436.0101 972.4232" clip-path="url(#clipPath2)" stroke="black"/>
      <path fill="black" d="M443.2361 975.8562 L434.5427 966.1905 L435.1068 971.9941 L430.2515 975.223 Z" clip-path="url(#clipPath2)" stroke="none"/>
      <path fill="none" d="M590.3676 938.4221 L528.9281 972.018" clip-path="url(#clipPath2)" stroke="black"/>
      <path fill="black" d="M521.9089 975.8562 L534.8365 974.4859 L529.8055 971.5383 L530.0388 965.712 Z" clip-path="url(#clipPath2)" stroke="none"/>
      <path fill="none" d="M595.6357 230.7287 L349.3841 128.0781" clip-path="url(#clipPath2)" stroke="black"/>
      <path fill="black" d="M342 125 L351.1524 134.2322 L350.3071 128.4629 L355 125.0021 Z" clip-path="url(#clipPath2)" stroke="none"/>
      <text x="393.9572" y="175.3098" clip-path="url(#clipPath2)" fill="black" font-family="sans-serif" stroke="none" xml:space="preserve">After posting his ad</text>
      <path fill="none" d="M193.5 58.0217 L193.5 77" clip-path="url(#clipPath2)" stroke="black"/>
      <path fill="black" d="M193.5 85 L198.5 73 L193.5 76 L188.5 73 Z" clip-path="url(#clipPath2)" stroke="none"/>
      <path fill="none" d="M57.825 94.1616 L57.4221 93.0608 L54.5941 87.8505 L50.8487 83.311 L46.3092 79.5656 L41.099 76.7376 L38.2809 75.7062 L35.3414 74.9503 L32.2958 74.4855 L29.1597 74.3272 L26.0236 74.4855 L22.9781 74.9503 L20.0386 75.7062 L17.2205 76.7376 L12.0103 79.5656 L7.4708 83.311 L3.7253 87.8505 L0.8973 93.0607 L-0.1341 95.8788 L-0.8899 98.8184 L-1.3547 101.8639 L-1.5131 105 L-1.3547 108.1361 L-0.8899 111.1816 L-0.1341 114.1212 L0.8973 116.9392 L3.7253 122.1495 L7.4708 126.689 L12.0103 130.4344 L17.2205 133.2624 L20.0386 134.2938 L22.9781 135.0497 L26.0236 135.5145 L29.1597 135.6728 L32.2958 135.5145 L35.3414 135.0497 L38.2809 134.2938 L41.099 133.2624 L46.3092 130.4344 L50.8487 126.689 L54.0027 122.8662 L54.0483 122.7772" clip-path="url(#clipPath2)" stroke="black"/>
      <path fill="black" d="M57.8728 115.7506 L47.7444 123.9002 L53.5702 123.6555 L56.5277 128.6808 Z" clip-path="url(#clipPath2)" stroke="none"/>
      <path fill="none" d="M355 105 L477 105 L587.6377 105" clip-path="url(#clipPath2)" stroke="black"/>
      <path fill="black" d="M595.6377 105 L583.6377 100 L586.6377 105 L583.6377 110 Z" clip-path="url(#clipPath2)" stroke="none"/>
      <text x="419.584" y="80.4751" clip-path="url(#clipPath2)" fill="black" font-family="sans-serif" stroke="none" xml:space="preserve">No satisfiting posts</text>
      <path fill="none" d="M193.5 125 L193.5 144.7924 L193.5 147" clip-path="url(#clipPath2)" stroke="black"/>
      <path fill="black" d="M193.5 155 L198.5 143 L193.5 146 L188.5 143 Z" clip-path="url(#clipPath2)" stroke="none"/>
      <text x="117.4365" y="139.0505" clip-path="url(#clipPath2)" fill="black" font-family="sans-serif" stroke="none" xml:space="preserve">A is interested in a Y's ad</text>
      <path fill="none" d="M194.1797 195 L194.9283 217.0258" clip-path="url(#clipPath2)" stroke="black"/>
      <path fill="black" d="M195.2 225.0211 L199.7895 212.8582 L194.8943 216.0263 L189.7953 213.1979 Z" clip-path="url(#clipPath2)" stroke="none"/>
      <text x="141.4167" y="213.1387" clip-path="url(#clipPath2)" fill="black" font-family="sans-serif" stroke="none" xml:space="preserve">B receives a push</text>
      <path fill="none" d="M-75.8159 350.939 L-75.8159 447.2489 L-75.8159 497.495" clip-path="url(#clipPath2)" stroke="black"/>
      <path fill="black" d="M-75.8159 505.495 L-70.8159 493.495 L-75.8159 496.495 L-80.8159 493.495 Z" clip-path="url(#clipPath2)" stroke="none"/>
      <text x="-198.0333" y="426.4673" clip-path="url(#clipPath2)" fill="black" font-family="sans-serif" stroke="none" xml:space="preserve">A receives a push</text>
    </g>
  </g>
</svg>
