<?xml version="1.0" standalone="no"?>
<!DOCTYPE svg PUBLIC "-//W3C//DTD SVG 20010904//EN"
 "http://www.w3.org/TR/2001/REC-SVG-20010904/DTD/svg10.dtd">
<svg version="1.0" xmlns="http://www.w3.org/2000/svg"
 width="481.000000pt" height="600.000000pt" viewBox="0 0 481.000000 600.000000"
 preserveAspectRatio="xMidYMid meet">
<metadata>
Created by potrace 1.12, written by Peter Selinger 2001-2015
</metadata>
<g transform="translate(0.000000,600.000000) scale(0.100000,-0.100000)"
fill="#000000" stroke="none">
<path d="M644 5950 c-321 -84 -555 -327 -625 -650 -20 -95 -21 -3354 0 -3445
73 -327 320 -576 641 -649 66 -15 227 -17 1754 -16 1653 0 1682 0 1766 20 169
41 336 145 449 282 65 79 135 219 161 322 20 78 20 115 20 1766 0 1630 -1
1689 -19 1762 -23 90 -66 187 -116 262 -82 123 -242 255 -377 309 -150 60 -60
57 -1900 56 -1610 0 -1686 -1 -1754 -19z m3541 -109 c213 -72 366 -201 455
-386 74 -154 70 -44 70 -1875 0 -1804 3 -1715 -61 -1857 -100 -222 -305 -382
-544 -422 -53 -9 -484 -12 -1735 -9 -1665 3 -1665 3 -1730 24 -210 69 -361
195 -455 382 -76 151 -70 1 -70 1877 0 1619 1 1683 19 1750 73 271 281 467
561 530 49 11 361 13 1740 12 l1680 -2 70 -24z"/>
<path d="M2364 5609 c-317 -19 -546 -119 -652 -286 -31 -49 -62 -139 -62 -180
l0 -23 244 0 244 0 10 43 c26 100 102 157 242 178 124 19 285 -6 345 -53 35
-27 64 -92 65 -141 0 -111 -84 -151 -387 -182 -334 -35 -484 -64 -592 -118
-87 -42 -163 -116 -198 -192 -25 -54 -28 -71 -28 -165 0 -93 4 -112 27 -163
91 -196 311 -289 647 -274 213 10 352 48 481 132 l68 43 7 -36 c3 -20 11 -51
16 -69 l10 -32 249 -3 248 -3 -19 48 c-32 80 -39 204 -39 677 -1 410 -2 460
-18 506 -75 215 -406 322 -908 293z m433 -926 c-4 -97 -10 -139 -25 -174 -57
-130 -170 -189 -367 -191 -222 -2 -321 58 -319 193 2 142 98 196 409 234 147
17 218 31 255 51 52 28 53 25 47 -113z"/>
<path d="M1298 3897 c-17 -13 -82 -141 -333 -652 -73 -148 -241 -490 -374
-758 -132 -269 -241 -497 -241 -507 0 -39 42 -70 105 -80 105 -15 158 -47 211
-128 20 -32 60 -79 88 -105 190 -178 497 -149 645 62 67 94 99 124 161 150 45
19 67 23 125 19 108 -7 160 -41 234 -150 47 -71 98 -115 180 -156 72 -36 78
-37 180 -37 87 0 116 5 164 23 70 29 149 90 185 144 85 128 162 178 272 178
107 0 195 -55 259 -162 61 -103 216 -188 342 -188 37 0 52 5 73 26 14 15 26
30 26 34 0 4 126 263 281 576 155 313 323 655 374 759 51 105 129 263 174 353
44 90 81 173 81 185 0 36 -45 77 -84 77 -86 0 -197 63 -232 133 -46 87 -175
185 -275 207 -88 20 -212 9 -282 -23 -72 -33 -144 -92 -182 -149 -43 -65 -95
-117 -140 -141 -32 -17 -57 -22 -120 -21 -120 0 -162 28 -278 184 -44 59 -138
123 -211 145 -27 8 -86 15 -131 15 -163 0 -274 -65 -390 -231 -41 -58 -98 -97
-165 -111 -121 -25 -224 22 -302 137 -58 86 -104 127 -188 167 -76 37 -201 50
-232 25z m180 -177 c36 -21 67 -51 103 -100 65 -90 129 -146 209 -183 59 -28
74 -31 172 -31 60 -1 108 -2 108 -4 0 -1 -20 -42 -44 -90 -49 -96 -434 -876
-584 -1182 -143 -294 -202 -371 -308 -407 -58 -20 -157 -12 -212 16 -41 21
-88 69 -139 143 -38 56 -115 119 -177 144 -25 11 -46 22 -46 26 0 8 165 345
515 1053 141 286 270 548 287 583 19 40 35 62 46 62 9 0 41 -14 70 -30z m1217
6 c56 -26 89 -57 138 -131 45 -67 135 -138 210 -167 49 -18 82 -23 155 -23 50
0 92 -3 92 -6 0 -8 -228 -475 -528 -1079 -160 -323 -252 -497 -275 -522 -125
-132 -348 -110 -440 44 -84 140 -220 218 -383 218 -41 0 -74 2 -74 4 0 2 115
237 256 522 141 286 319 646 395 802 76 156 149 292 161 303 73 64 200 79 293
35z m1260 -13 c32 -20 71 -61 108 -112 58 -79 134 -142 205 -170 17 -8 32 -17
32 -21 0 -4 -88 -187 -196 -406 -108 -220 -238 -484 -289 -589 -301 -616 -345
-700 -368 -696 -61 9 -131 68 -192 159 -78 117 -207 182 -362 182 -40 0 -73 2
-73 5 0 5 142 296 388 795 317 646 393 795 415 818 12 14 45 35 72 49 42 20
62 23 130 21 71 -3 87 -7 130 -35z"/>
</g>
</svg>
