<?xml version="1.0" standalone="no"?>
<!DOCTYPE svg PUBLIC "-//W3C//DTD SVG 20010904//EN"
 "http://www.w3.org/TR/2001/REC-SVG-20010904/DTD/svg10.dtd">
<svg version="1.0" xmlns="http://www.w3.org/2000/svg"
 width="485.000000pt" height="600.000000pt" viewBox="0 0 485.000000 600.000000"
 preserveAspectRatio="xMidYMid meet">
<metadata>
Created by potrace 1.12, written by Peter Selinger 2001-2015
</metadata>
<g transform="translate(0.000000,600.000000) scale(0.100000,-0.100000)"
fill="#000000" stroke="none">
<path d="M730 5989 c-155 -20 -324 -100 -444 -210 -139 -129 -200 -229 -259
-424 -21 -70 -21 -76 -25 -1715 -3 -1683 -2 -1758 35 -1884 73 -250 281 -468
533 -557 143 -51 136 -51 1915 -47 l1660 3 88 28 c330 103 551 354 602 684 14
86 15 304 13 1753 l-3 1655 -23 82 c-92 345 -370 590 -717 632 -108 13 -3274
13 -3375 0z m3495 -132 c240 -85 398 -242 481 -479 l29 -83 3 -1675 c2 -1135
-1 -1697 -8 -1743 -40 -261 -233 -489 -491 -579 l-94 -33 -1695 -3 c-1667 -2
-1696 -2 -1775 18 -267 67 -470 264 -542 530 -17 61 -18 167 -18 1770 0 1639
1 1707 19 1765 88 283 286 469 561 529 61 13 287 14 1760 13 l1690 -2 80 -28z"/>
<path d="M1130 4705 l0 -165 -225 0 -225 0 0 -1115 0 -1115 1745 0 1745 0 0
1115 0 1115 -222 2 -223 3 -3 163 -2 162 -410 0 -410 0 -2 -162 -3 -163 -470
0 -470 0 -3 163 -2 162 -410 0 -410 0 0 -165z m658 -72 l-3 -78 -245 0 -245 0
-3 78 -3 77 251 0 251 0 -3 -77z m1770 0 l-3 -78 -245 0 -245 0 -3 78 -3 77
251 0 251 0 -3 -77z m450 -1205 l-3 -953 -1560 -3 c-858 -1 -1570 0 -1582 3
l-23 5 0 950 0 950 1585 0 1585 0 -2 -952z"/>
<path d="M1465 3700 c-4 -6 -5 -61 -4 -123 l3 -112 -122 -3 -122 -3 0 -74 0
-75 120 0 119 0 3 -122 3 -123 75 0 75 0 3 123 3 122 119 0 120 0 0 75 0 75
-120 0 -119 0 -3 123 -3 122 -72 3 c-43 2 -74 -1 -78 -8z"/>
<path d="M2990 3385 l0 -75 320 0 320 0 0 75 0 75 -320 0 -320 0 0 -75z"/>
</g>
</svg>
