<?xml version="1.0" standalone="no"?>
<!DOCTYPE svg PUBLIC "-//W3C//DTD SVG 20010904//EN"
 "http://www.w3.org/TR/2001/REC-SVG-20010904/DTD/svg10.dtd">
<svg version="1.0" xmlns="http://www.w3.org/2000/svg"
 width="418.000000pt" height="600.000000pt" viewBox="0 0 418.000000 600.000000"
 preserveAspectRatio="xMidYMid meet">
<metadata>
Created by potrace 1.12, written by Peter Selinger 2001-2015
</metadata>
<g transform="translate(0.000000,600.000000) scale(0.100000,-0.100000)"
fill="#000000" stroke="none">
<path d="M660 5994 c-97 -15 -153 -29 -205 -52 -160 -69 -300 -199 -373 -347
-82 -166 -76 -36 -80 -1635 -3 -1480 -2 -1512 38 -1644 74 -236 305 -438 555
-486 43 -8 464 -10 1530 -8 l1470 3 70 24 c241 81 417 265 487 506 l23 80 0
1470 c0 1641 5 1525 -70 1676 -112 226 -314 374 -559 408 -72 10 -2820 14
-2886 5z m2960 -111 c88 -28 116 -41 180 -84 122 -81 226 -225 267 -369 17
-62 18 -139 18 -1520 0 -1357 -1 -1459 -18 -1520 -58 -217 -215 -381 -437
-456 -53 -18 -115 -19 -1535 -19 l-1480 0 -72 23 c-239 75 -407 275 -442 526
-8 52 -11 522 -11 1450 0 1547 -3 1483 72 1636 32 67 58 102 122 165 112 112
214 162 386 189 14 2 669 3 1455 2 1426 -1 1430 -1 1495 -23z"/>
<path d="M903 5665 c-62 -26 -68 -49 -68 -240 0 -169 0 -170 23 -173 15 -2 22
-10 22 -27 0 -23 -17 -35 -51 -35 -37 0 -116 -49 -163 -101 -61 -68 -88 -115
-123 -214 l-28 -80 -3 -1166 -3 -1166 87 -79 c47 -43 90 -80 95 -82 5 -2 50
20 100 49 70 40 96 50 108 42 9 -5 52 -31 97 -57 l80 -47 97 57 96 56 50 -27
49 -27 12 -79 c9 -57 19 -86 36 -104 l23 -25 704 0 c805 0 732 -9 762 97 9 32
18 63 20 70 3 9 84 13 319 15 l314 3 39 31 c21 17 47 46 58 65 19 33 20 55 23
633 1 330 -1 602 -6 605 -15 11 -82 104 -82 114 0 5 20 35 45 65 l45 54 0 341
0 340 -84 161 c-251 484 -256 494 -256 530 0 23 5 39 15 42 12 5 15 34 15 170
l0 164 -220 0 -220 0 0 -164 c0 -136 3 -165 15 -170 44 -16 14 -85 -261 -601
l-59 -110 -5 -280 -5 -280 -38 60 c-176 277 -293 526 -315 669 -7 44 -6 56 4
56 23 0 54 43 54 74 0 62 -69 388 -86 407 -16 18 -35 19 -254 19 -228 0 -238
-1 -256 -21 -14 -16 -27 -71 -51 -217 -34 -209 -33 -234 10 -248 18 -6 19 -12
13 -73 -6 -65 -39 -207 -50 -219 -3 -3 -6 44 -6 105 0 273 -132 503 -310 538
-49 10 -55 14 -58 38 -3 23 0 27 22 27 l26 0 0 176 0 176 -34 34 -34 34 -145
0 c-80 0 -151 2 -159 5 -7 2 -27 -2 -45 -10z m275 -204 l3 -72 -103 3 -103 3
-3 59 c-2 32 -1 64 2 71 3 9 32 12 103 10 l98 -2 3 -72z m2015 -160 c4 -1 7
-24 7 -53 0 -46 12 -75 122 -287 66 -130 134 -260 150 -289 15 -29 28 -55 28
-57 0 -3 -157 -5 -350 -5 -192 0 -350 2 -350 5 0 3 68 137 150 298 133 257
151 297 150 337 -1 25 -1 48 -1 51 1 5 44 5 94 0z m-2043 -96 c0 -37 6 -51 36
-84 28 -32 44 -41 82 -46 71 -10 75 -12 121 -58 90 -88 131 -213 131 -400 l0
-117 -442 2 -443 3 -3 90 c-5 170 34 314 110 400 47 53 76 70 138 80 81 14
120 57 120 135 l0 40 75 0 75 0 0 -45z m965 -402 c10 -90 25 -151 61 -245 40
-105 147 -319 204 -405 22 -34 40 -64 40 -67 0 -6 56 -94 159 -251 89 -136
153 -268 200 -411 62 -191 76 -285 75 -534 0 -222 -15 -349 -62 -535 l-18 -70
-626 -3 -626 -2 -6 27 c-50 237 -76 510 -76 803 0 402 31 549 228 1075 135
362 172 494 172 621 l0 54 134 0 135 0 6 -57z m1423 -380 l3 -93 -391 0 -390
0 0 95 0 95 388 -2 387 -3 3 -92z m-2020 -110 c-3 -143 -5 -151 -41 -248 -130
-341 -168 -528 -176 -865 -3 -129 -9 -234 -13 -232 -5 1 -154 2 -333 2 l-325
0 0 745 0 745 446 0 445 0 -3 -147z m2022 -69 l0 -34 -390 0 -390 0 0 35 0 35
383 2 c210 2 385 2 390 0 4 -2 7 -19 7 -38z m0 -114 l0 -40 -390 0 -390 0 0
40 0 40 390 0 390 0 0 -40z m0 -136 c0 -52 -3 -59 -47 -110 l-47 -54 -302 0
-302 0 -15 23 c-8 12 -26 36 -41 52 -22 25 -26 40 -26 88 l0 57 390 0 390 0 0
-56z m-92 -223 l-3 -26 -298 -3 c-262 -3 -298 -2 -303 12 -17 45 -12 46 306
44 l301 -2 -3 -25z m46 -115 c25 -29 46 -63 46 -75 l0 -21 -329 0 -328 0 -27
61 c-15 33 -25 67 -22 75 4 12 54 14 310 14 l304 0 46 -54z m44 -178 l3 -38
-308 0 -309 0 -12 33 c-7 18 -12 37 -12 40 0 4 143 6 318 5 l317 -3 3 -37z m2
-118 l0 -40 -295 0 c-162 0 -295 4 -295 9 0 5 -3 23 -6 40 l-6 31 301 0 301 0
0 -40z m-2 -117 l-3 -38 -280 0 -280 0 -3 38 -3 37 286 0 286 0 -3 -37z m0
-118 c-2 -20 -6 -35 -10 -35 -5 0 -127 0 -272 0 l-264 0 -4 35 -4 35 279 0
278 0 -3 -35z m2 -120 l0 -35 -270 0 -270 0 0 35 0 35 270 0 270 0 0 -35z m-2
-117 l3 -38 -270 0 -271 0 0 33 c0 19 3 36 6 40 3 3 124 5 267 4 l262 -2 3
-37z m-2234 -29 c10 -104 7 -163 -14 -224 -24 -71 -25 -71 -1 -78 15 -3 21 2
27 22 6 24 8 22 15 -18 5 -25 6 -47 3 -50 -2 -3 -18 3 -35 13 l-30 18 -97 -57
c-71 -42 -101 -54 -112 -48 -8 6 -52 31 -97 57 l-82 48 -86 -51 -86 -50 -39
36 -40 35 0 204 0 204 334 0 333 0 7 -61z m2236 -89 l0 -40 -268 0 c-148 0
-271 2 -273 5 -3 2 -3 20 -1 40 l4 35 269 0 269 0 0 -40z m-2 -117 l-3 -38
-269 -3 c-148 -1 -273 1 -277 5 -4 5 -5 23 -2 41 l5 32 275 0 274 0 -3 -37z
m2 -121 c0 -73 -2 -74 -306 -72 -148 0 -269 2 -271 3 -1 2 0 27 4 55 l6 52
283 0 284 0 0 -38z"/>
<path d="M2105 4073 c-65 -17 -101 -87 -92 -181 3 -35 38 -147 90 -292 47
-129 108 -299 136 -377 28 -79 57 -156 65 -172 34 -64 137 -121 221 -121 51 0
136 49 170 98 28 41 30 49 30 140 0 118 -25 200 -120 399 -169 354 -355 542
-500 506z m145 -205 c63 -66 155 -209 225 -353 115 -236 144 -383 83 -428 -28
-21 -78 -19 -112 6 -20 14 -296 778 -296 820 0 27 0 27 29 13 16 -9 48 -35 71
-58z"/>
</g>
</svg>
