<?xml version="1.0" standalone="no"?>
<!DOCTYPE svg PUBLIC "-//W3C//DTD SVG 20010904//EN"
 "http://www.w3.org/TR/2001/REC-SVG-20010904/DTD/svg10.dtd">
<svg version="1.0" xmlns="http://www.w3.org/2000/svg"
 width="487.000000pt" height="600.000000pt" viewBox="0 0 487.000000 600.000000"
 preserveAspectRatio="xMidYMid meet">
<metadata>
Created by potrace 1.12, written by Peter Selinger 2001-2015
</metadata>
<g transform="translate(0.000000,600.000000) scale(0.100000,-0.100000)"
fill="#000000" stroke="none">
<path d="M744 5990 c-195 -26 -345 -101 -489 -245 -142 -142 -220 -301 -244
-495 -15 -116 -15 -3263 -1 -3378 47 -369 337 -672 701 -732 42 -6 634 -10
1732 -10 1476 0 1677 2 1744 16 317 65 564 300 656 622 l22 77 3 1660 c2 1151
0 1685 -8 1743 -25 193 -98 347 -229 486 -106 111 -246 194 -401 237 l-85 24
-1670 1 c-919 1 -1698 -2 -1731 -6z m3476 -126 c36 -12 93 -35 127 -52 214
-104 367 -312 403 -549 7 -46 10 -615 8 -1748 l-3 -1680 -27 -80 c-79 -230
-248 -402 -476 -483 l-77 -27 -1710 -3 c-1936 -3 -1781 -9 -1955 80 -181 92
-301 235 -371 443 l-24 70 -3 1680 c-2 1131 1 1702 8 1748 25 161 93 293 214
412 112 110 245 180 391 204 28 5 811 8 1740 7 l1690 -1 65 -21z"/>
<path d="M1880 5596 c-94 -26 -170 -85 -215 -167 -29 -52 -30 -58 -30 -184 0
-122 3 -136 35 -230 65 -188 234 -496 381 -690 33 -44 40 -60 37 -90 l-3 -37
-85 -25 c-157 -44 -233 -94 -271 -176 -18 -40 -19 -86 -19 -1149 0 -767 3
-1123 11 -1160 14 -68 50 -130 96 -165 33 -25 44 -28 117 -28 64 0 90 5 126
23 25 12 61 25 81 28 32 5 41 1 93 -45 73 -63 134 -85 224 -79 78 4 148 34
196 84 39 40 56 42 127 10 76 -35 136 -41 201 -22 101 29 164 108 187 231 8
40 11 285 11 735 0 524 3 714 15 850 18 212 75 931 75 954 0 11 -9 16 -32 16
-79 0 -78 -2 -79 139 0 69 -4 151 -8 181 -5 30 -7 56 -6 58 1 1 62 9 136 17
74 8 150 18 169 21 l35 6 -24 17 c-20 13 -53 16 -179 16 l-155 0 -23 78 c-52
174 -145 328 -279 462 -164 164 -346 263 -585 316 -99 22 -289 24 -360 5z
m375 -175 c103 -27 303 -127 382 -191 131 -105 263 -299 307 -451 l13 -46 -96
-7 c-53 -3 -132 -6 -176 -6 -80 0 -103 -6 -437 -113 l-37 -12 50 -103 49 -104
221 3 c212 3 222 4 230 24 5 11 24 63 42 115 l33 95 68 8 c38 4 71 6 72 4 19
-18 32 -331 15 -341 -5 -3 -12 -35 -16 -72 -5 -52 -10 -64 -22 -60 -8 3 -47
15 -88 27 -81 24 -85 30 -85 125 l0 44 -280 0 -280 0 -98 148 c-168 252 -255
422 -308 601 -52 180 -18 288 103 328 55 19 240 9 338 -16z m292 -1317 c68 -6
82 -10 86 -25 4 -15 15 -19 44 -19 85 0 264 -59 310 -102 l23 -21 0 -1099 c0
-1176 1 -1151 -48 -1177 -33 -18 -83 -13 -141 15 -107 49 -186 39 -256 -34
-34 -35 -91 -62 -130 -62 -33 0 -58 13 -115 61 -93 78 -173 88 -298 39 -42
-17 -85 -30 -96 -28 -52 7 -51 -21 -54 1148 -2 597 0 1100 3 1118 6 30 14 37
68 61 53 24 136 48 259 75 15 3 29 15 33 25 4 13 17 21 38 24 56 7 189 7 274
1z"/>
<path d="M2007 3048 l2 -323 436 -3 435 -2 0 325 0 325 -437 0 -438 0 2 -322z
m811 0 l2 -258 -375 0 -375 0 0 260 0 260 373 -2 372 -3 3 -257z"/>
<path d="M2008 2405 l-3 -265 438 0 437 0 0 265 0 265 -435 0 -434 0 -3 -265z
m807 -5 l0 -195 -372 -3 -373 -2 0 200 0 200 373 -2 372 -3 0 -195z"/>

</g>
</svg>
