<?xml version="1.0" standalone="no"?>
<!DOCTYPE svg PUBLIC "-//W3C//DTD SVG 20010904//EN"
 "http://www.w3.org/TR/2001/REC-SVG-20010904/DTD/svg10.dtd">
<svg version="1.0" xmlns="http://www.w3.org/2000/svg"
 width="484.000000pt" height="600.000000pt" viewBox="0 0 484.000000 600.000000"
 preserveAspectRatio="xMidYMid meet">
<metadata>
Created by potrace 1.12, written by Peter Selinger 2001-2015
</metadata>
<g transform="translate(0.000000,600.000000) scale(0.100000,-0.100000)"
fill="#000000" stroke="none">
<path d="M730 5989 c-167 -21 -328 -100 -457 -222 -159 -151 -237 -305 -263
-518 -8 -68 -10 -541 -8 -1734 l3 -1640 23 -80 c95 -338 363 -577 700 -625 54
-8 568 -10 1742 -8 1864 4 1706 -2 1875 77 264 124 444 367 484 655 15 106 15
3247 0 3366 -23 189 -108 358 -249 494 -141 136 -298 213 -482 236 -100 12
-3270 12 -3368 -1z m3475 -128 c228 -77 387 -223 472 -431 56 -139 54 -59 51
-1883 l-3 -1682 -23 -70 c-85 -251 -262 -427 -507 -502 -57 -17 -142 -18
-1775 -18 -1630 0 -1718 1 -1774 18 -250 77 -430 257 -508 507 l-23 75 0 1705
0 1705 23 75 c87 276 295 464 573 519 24 5 797 8 1734 8 l1690 -2 70 -24z"/>
<path d="M3665 4785 c-141 -31 -238 -85 -345 -195 -87 -88 -141 -184 -168
-297 l-17 -72 -313 -3 -312 -3 0 143 0 142 165 0 165 0 0 80 0 80 -415 0 -415
0 0 -80 0 -80 165 0 165 0 0 -140 0 -140 -543 0 -544 0 -94 40 c-52 23 -107
47 -124 55 -16 7 -64 27 -105 44 -41 16 -187 77 -325 135 -137 57 -251 104
-252 103 -1 -1 14 -74 32 -162 18 -88 38 -185 45 -216 10 -52 16 -60 68 -101
31 -25 156 -123 277 -218 121 -96 276 -217 345 -271 69 -53 132 -105 141 -115
9 -11 25 -72 37 -149 42 -251 162 -960 167 -983 l5 -22 962 2 961 3 27 100
c86 314 262 954 270 980 l10 30 102 0 c186 1 321 58 459 195 69 69 93 101 127
170 94 195 94 394 0 590 -57 119 -177 238 -298 297 -138 68 -288 88 -425 58z
m290 -177 c80 -27 133 -59 189 -116 125 -127 176 -289 142 -449 -49 -237 -221
-387 -467 -409 -62 -6 -69 -5 -69 11 0 10 34 141 75 291 41 150 75 275 75 278
0 3 -135 6 -300 6 -165 0 -300 1 -300 3 0 2 7 28 16 58 21 71 57 132 113 193
138 147 336 198 526 134z m-2986 -442 c113 -48 206 -87 207 -89 6 -6 54 -311
49 -315 -2 -3 -30 15 -61 39 -31 24 -92 71 -134 104 -342 264 -436 344 -447
379 -6 19 -9 37 -6 39 4 5 58 -16 392 -157z m2711 -130 c0 -7 -79 -301 -176
-652 -220 -804 -234 -853 -234 -859 0 -3 -375 -4 -832 -3 l-833 3 -86 515
c-111 658 -127 752 -150 880 -10 58 -19 112 -19 120 0 13 135 15 1165 12 979
-2 1165 -4 1165 -16z"/>
</g>
</svg>
