<?xml version="1.0" standalone="no"?>
<!DOCTYPE svg PUBLIC "-//W3C//DTD SVG 20010904//EN"
 "http://www.w3.org/TR/2001/REC-SVG-20010904/DTD/svg10.dtd">
<svg version="1.0" xmlns="http://www.w3.org/2000/svg"
 width="486.000000pt" height="600.000000pt" viewBox="0 0 486.000000 600.000000"
 preserveAspectRatio="xMidYMid meet">
<metadata>
Created by potrace 1.12, written by Peter Selinger 2001-2015
</metadata>
<g transform="translate(0.000000,600.000000) scale(0.100000,-0.100000)"
fill="#000000" stroke="none">
<path d="M770 5994 c-186 -29 -271 -61 -398 -147 -174 -119 -300 -305 -349
-515 -17 -73 -18 -169 -18 -1772 0 -1593 1 -1699 18 -1760 44 -162 110 -285
209 -391 131 -139 302 -230 490 -259 53 -8 529 -10 1753 -8 l1680 4 79 22
c252 73 473 270 560 499 66 175 61 21 61 1893 0 1603 -1 1699 -18 1772 -75
320 -305 555 -633 645 -54 15 -214 17 -1734 19 -921 1 -1686 0 -1700 -2z
m3387 -120 c152 -31 277 -100 384 -211 110 -114 175 -246 199 -399 7 -47 10
-605 8 -1739 -3 -1569 -4 -1674 -21 -1730 -35 -119 -97 -229 -182 -324 -62
-70 -200 -153 -320 -195 -60 -21 -68 -21 -1762 -24 -1893 -3 -1771 -7 -1925
66 -198 93 -326 240 -399 457 l-24 70 -3 1675 c-2 1138 1 1697 8 1744 37 240
193 451 410 554 58 27 141 53 210 65 14 2 771 5 1683 6 1471 1 1666 -1 1734
-15z"/>
<path d="M2350 5455 l0 -185 80 0 80 0 0 185 0 185 -80 0 -80 0 0 -185z"/>
<path d="M1386 5033 l-59 -55 129 -129 129 -129 52 52 c29 29 53 57 53 63 0 5
-56 65 -123 132 l-122 122 -59 -56z"/>
<path d="M2095 5073 c-46 -24 -76 -54 -96 -98 -17 -37 -19 -75 -20 -480 0
-242 -4 -451 -8 -465 -4 -14 -16 -27 -29 -30 -35 -8 -87 -65 -100 -108 -7 -24
-12 -115 -12 -234 0 -181 1 -197 23 -238 12 -25 36 -54 53 -65 l32 -20 3 -127
c4 -122 5 -128 34 -170 17 -23 45 -52 63 -63 17 -11 31 -27 32 -36 0 -9 10
-28 23 -43 23 -26 27 -27 285 -51 356 -33 357 -33 388 -4 22 20 25 30 21 66
-4 41 -3 42 43 71 72 45 90 92 94 237 3 108 5 119 24 129 30 16 70 73 82 116
16 58 13 368 -5 427 -15 52 -70 113 -100 113 -32 0 -35 38 -35 470 0 282 -4
446 -11 475 -13 51 -65 110 -115 131 -82 34 -193 1 -244 -73 l-25 -36 -5 -393
c-5 -367 -6 -393 -24 -413 -11 -12 -27 -21 -37 -21 -41 0 -44 28 -49 432 l-5
386 -30 44 c-42 59 -96 88 -165 87 -30 0 -68 -7 -85 -16z m150 -114 c19 -19
20 -36 25 -407 l5 -387 27 -46 c55 -93 144 -115 218 -52 65 54 64 49 70 475
l5 388 28 27 c35 35 97 37 130 4 22 -21 22 -27 27 -484 5 -426 6 -465 24 -500
19 -39 59 -77 82 -77 7 0 20 -10 28 -22 13 -18 16 -56 16 -205 0 -117 -4 -191
-12 -208 l-11 -25 -473 0 -473 0 -13 23 c-9 15 -14 76 -16 187 -4 191 6 239
52 251 39 11 56 28 80 79 20 43 21 63 24 485 1 242 4 450 7 463 13 56 104 75
150 31z m565 -1739 c0 -104 -1 -112 -25 -135 l-24 -25 -330 0 -329 0 -26 31
c-24 29 -26 37 -26 135 l0 104 380 0 380 0 0 -110z"/>
<path d="M2190 3845 l0 -55 242 2 242 3 1 50 0 50 -242 3 -243 2 0 -55z"/>
<path d="M3295 4960 l-130 -130 58 -57 57 -58 130 130 130 130 -58 58 -57 57
-130 -130z"/>
<path d="M1000 4255 l0 -85 180 0 180 0 0 85 0 85 -180 0 -180 0 0 -85z"/>
<path d="M3500 4255 l0 -85 185 0 185 0 0 85 0 85 -185 0 -185 0 0 -85z"/>
<path d="M1461 3666 c-68 -67 -124 -126 -124 -130 1 -11 93 -106 103 -106 9 0
250 240 250 249 0 4 -24 30 -53 59 l-52 52 -124 -124z"/>
<path d="M3225 3735 l-58 -57 129 -129 129 -129 58 58 57 57 -128 128 -129
128 -58 -56z"/>
<path d="M2096 2799 c-33 -39 -33 -61 2 -99 l27 -30 272 -25 c150 -14 290 -25
311 -25 75 0 110 83 57 135 -13 14 -30 25 -38 25 -8 0 -133 11 -278 25 -336
32 -321 32 -353 -6z"/>
<path d="M2109 2617 c-20 -15 -39 -51 -39 -72 0 -29 55 -75 89 -75 25 0 34 -6
42 -27 40 -107 227 -155 364 -94 26 12 58 32 71 46 17 19 33 25 64 25 79 0
121 87 67 138 -20 19 -50 24 -290 47 -301 28 -345 30 -368 12z"/>
<path d="M493 2178 l2 -63 -53 -5 c-41 -4 -58 -11 -73 -30 -42 -56 -4 -120 77
-129 40 -5 49 -9 49 -26 0 -17 -8 -20 -47 -23 -38 -2 -52 -9 -73 -33 -50 -61
-20 -120 67 -129 l53 -5 0 -60 0 -60 1938 -3 1937 -2 0 60 0 60 43 0 c74 0
114 58 83 119 -16 30 -32 38 -91 43 -22 2 -31 9 -33 26 -3 20 1 22 38 22 71 0
119 66 89 122 -12 23 -66 48 -104 48 -24 0 -25 2 -25 65 l0 65 -1939 0 -1939
0 1 -62z m287 -253 l0 -205 -90 0 -90 0 0 205 0 205 90 0 90 0 0 -205z m3140
0 l0 -205 -1486 2 -1485 3 0 198 c0 108 0 199 1 202 0 3 668 5 1485 5 l1485 0
0 -205z m342 0 l-1 -200 -90 -3 -91 -3 0 206 0 206 91 -3 91 -3 0 -200z"/>

</g>
</svg>
