<?xml version="1.0" standalone="no"?>
<!DOCTYPE svg PUBLIC "-//W3C//DTD SVG 20010904//EN"
 "http://www.w3.org/TR/2001/REC-SVG-20010904/DTD/svg10.dtd">
<svg version="1.0" xmlns="http://www.w3.org/2000/svg"
 width="488.000000pt" height="600.000000pt" viewBox="0 0 488.000000 600.000000"
 preserveAspectRatio="xMidYMid meet">
<metadata>
Created by potrace 1.12, written by Peter Selinger 2001-2015
</metadata>
<g transform="translate(0.000000,600.000000) scale(0.100000,-0.100000)"
fill="#000000" stroke="none">
<path d="M770 5993 c-96 -10 -252 -56 -310 -91 -237 -145 -363 -304 -432 -547
l-23 -80 -3 -1650 c-2 -1106 0 -1680 7 -1741 25 -214 110 -385 266 -533 119
-113 266 -188 425 -217 111 -20 3369 -20 3480 0 154 28 296 99 413 206 163
150 252 324 278 544 7 61 9 635 7 1741 l-3 1650 -23 80 c-98 348 -374 591
-722 634 -79 10 -3269 14 -3360 4z m3480 -137 c124 -41 213 -97 305 -190 87
-88 143 -181 187 -311 l23 -70 3 -1680 c2 -1160 -1 -1702 -8 -1750 -24 -153
-99 -301 -207 -407 -98 -97 -177 -145 -308 -189 l-70 -24 -1695 -3 c-1201 -2
-1714 0 -1759 8 -306 53 -553 305 -601 615 -7 48 -10 589 -8 1750 4 1890 -4
1706 84 1884 98 199 307 353 530 391 27 4 812 7 1744 6 l1695 -1 85 -29z"/>
<path d="M1085 5319 c-126 -18 -285 -128 -285 -199 0 -40 39 -80 79 -80 20 0
45 14 82 45 58 50 121 75 188 75 53 1 531 -148 531 -165 0 -6 -38 -120 -84
-255 -46 -135 -112 -329 -147 -432 l-63 -186 -64 24 c-36 13 -74 24 -86 24
-35 0 -63 -27 -81 -77 -9 -27 -83 -244 -165 -483 -81 -239 -164 -482 -184
-540 -20 -58 -50 -144 -66 -192 -52 -155 -109 -250 -229 -381 -77 -84 -87
-113 -51 -155 10 -13 35 -26 54 -29 30 -5 40 0 82 38 72 67 176 200 221 286
23 43 75 177 116 298 41 121 137 402 212 625 76 223 141 408 145 413 9 10 220
-64 220 -78 0 -6 -66 -204 -146 -441 -80 -236 -175 -514 -210 -617 -89 -261
-125 -328 -249 -458 -69 -73 -84 -95 -85 -127 0 -35 43 -72 85 -72 30 0 44 9
96 62 154 158 214 265 319 573 39 116 139 408 222 650 83 242 153 455 156 473
9 63 -11 81 -145 127 -8 3 29 126 116 382 145 426 169 494 174 499 2 2 30 -5
63 -15 32 -11 145 -47 249 -81 196 -63 220 -74 268 -119 32 -29 77 -110 77
-139 0 -42 22 -81 55 -97 32 -14 37 -14 65 0 45 23 55 53 41 122 -15 79 -56
158 -109 215 -87 93 -57 81 -877 347 -488 157 -478 155 -590 140z"/>
<path d="M2905 4845 c-47 -17 -65 -38 -65 -76 0 -57 50 -82 234 -119 77 -15
160 -31 184 -35 23 -4 42 -9 42 -11 0 -3 -57 -71 -126 -151 -69 -80 -131 -154
-137 -165 -11 -17 -42 -18 -663 -18 l-651 0 -23 -25 c-13 -14 -23 -37 -23 -52
0 -46 367 -1417 387 -1448 20 -31 61 -37 237 -34 82 1 151 0 154 -3 3 -2 12
-42 20 -87 40 -209 132 -380 285 -532 116 -115 273 -206 437 -251 66 -19 104
-22 253 -23 163 0 181 2 269 28 540 161 841 719 674 1252 -135 432 -548 716
-1004 691 l-116 -6 -17 62 c-8 35 -31 122 -51 193 -39 148 -41 161 -20 182 9
8 64 72 123 141 59 69 125 145 147 168 l40 44 120 -25 c152 -32 188 -31 253 1
69 34 96 74 96 139 0 64 -28 112 -86 145 l-43 25 -445 2 c-366 2 -452 0 -485
-12z m109 -743 c7 -12 96 -341 96 -356 0 -7 -35 -30 -77 -51 -113 -55 -178
-100 -267 -185 -92 -88 -148 -163 -205 -278 -42 -84 -91 -243 -91 -297 0 -54
-5 -56 -150 -53 l-133 3 -63 240 c-35 132 -107 400 -159 597 -52 196 -95 363
-95 372 0 14 56 16 569 16 314 0 572 -4 575 -8z m671 -512 c288 -92 490 -304
566 -590 30 -115 30 -289 0 -405 -75 -290 -300 -518 -588 -597 -115 -31 -317
-31 -428 0 -237 68 -418 218 -524 436 -44 89 -81 210 -81 263 0 17 22 18 426
18 l426 0 24 28 c13 15 24 37 24 49 0 11 -47 198 -105 416 -58 217 -105 399
-105 404 0 7 56 8 148 6 116 -4 162 -10 217 -28z m-512 -72 c24 -84 167 -627
167 -633 0 -3 -160 -5 -355 -5 l-355 0 0 23 c0 36 38 171 65 233 55 124 178
272 285 342 53 34 158 90 172 91 4 1 13 -23 21 -51z"/>

</g>
</svg>
