<?xml version="1.0" standalone="no"?>
<!DOCTYPE svg PUBLIC "-//W3C//DTD SVG 20010904//EN"
 "http://www.w3.org/TR/2001/REC-SVG-20010904/DTD/svg10.dtd">
<svg version="1.0" xmlns="http://www.w3.org/2000/svg"
 width="486.000000pt" height="600.000000pt" viewBox="0 0 486.000000 600.000000"
 preserveAspectRatio="xMidYMid meet">
<metadata>
Created by potrace 1.12, written by Peter Selinger 2001-2015
</metadata>
<g transform="translate(0.000000,600.000000) scale(0.100000,-0.100000)"
fill="#000000" stroke="none">
<path d="M770 5994 c-225 -35 -358 -96 -499 -228 -146 -138 -234 -312 -261
-516 -8 -60 -10 -573 -8 -1740 4 -1645 4 -1655 25 -1725 41 -139 77 -212 148
-305 126 -164 287 -269 485 -317 71 -17 168 -18 1765 -18 1846 0 1745 -3 1900
59 109 44 206 110 291 198 112 115 176 229 220 394 18 66 19 138 19 1769 0
1641 -1 1703 -19 1775 -81 319 -308 548 -632 637 -54 15 -214 17 -1734 19
-921 1 -1686 0 -1700 -2z m3387 -120 c152 -31 277 -100 384 -211 108 -112 174
-243 198 -394 7 -42 11 -614 11 -1707 0 -1458 -2 -1651 -16 -1720 -29 -143
-100 -276 -199 -375 -60 -61 -180 -140 -252 -167 -140 -52 -68 -51 -1888 -48
l-1690 3 -78 28 c-107 38 -164 68 -234 124 -119 95 -197 207 -250 358 l-28 80
-3 1675 c-2 1138 1 1697 8 1744 37 240 193 451 410 554 58 27 141 53 210 65
14 2 771 5 1683 6 1471 1 1666 -1 1734 -15z"/>
<path d="M1420 5028 c-85 -138 -187 -301 -226 -362 -38 -61 -97 -156 -131
-211 l-61 -100 34 -305 c18 -168 43 -393 54 -501 l22 -196 -34 -50 c-18 -28
-92 -135 -164 -239 -318 -459 -425 -616 -422 -618 4 -3 169 -38 498 -106 135
-28 274 -57 310 -65 36 -8 187 -40 335 -70 149 -31 376 -78 505 -105 129 -27
345 -72 480 -100 135 -28 339 -70 453 -94 l208 -43 25 36 c14 20 58 83 98 141
40 58 106 153 147 212 41 58 136 197 213 308 l138 201 -7 67 c-3 37 -26 249
-51 471 -24 222 -44 422 -44 445 0 37 30 91 281 491 154 248 282 452 284 456
2 3 -76 21 -173 41 -160 33 -1409 293 -1692 353 -63 13 -290 60 -505 105 -214
44 -397 83 -405 85 -11 3 -61 -70 -170 -247z m544 1 c160 -33 386 -80 501
-104 116 -24 527 -110 915 -190 388 -81 708 -150 713 -154 5 -5 -392 -659
-420 -691 -5 -5 -58 5 -683 136 -250 52 -529 110 -620 129 -91 19 -241 50
-335 70 -93 20 -314 65 -490 102 -176 36 -321 67 -323 68 -1 1 28 51 66 111
38 60 135 216 216 347 81 130 153 237 158 237 6 0 142 -27 302 -61z m461
-1052 l1210 -252 8 -75 c7 -68 74 -698 80 -745 1 -13 -3 -19 -13 -18 -8 2
-249 50 -535 108 -680 138 -1461 296 -1704 345 -106 21 -194 40 -196 42 -3 4
-15 110 -55 493 -17 154 -33 297 -36 318 -5 31 -3 37 13 37 10 -1 563 -114
1228 -253z m-720 -851 c231 -47 753 -153 1160 -235 407 -82 757 -153 778 -158
l37 -8 -191 -275 c-105 -151 -211 -305 -235 -342 -25 -37 -50 -65 -57 -63 -6
3 -109 25 -227 49 -339 70 -2194 456 -2203 459 -4 1 48 81 115 177 67 96 148
213 180 260 33 47 81 118 106 158 46 70 48 72 82 68 19 -3 224 -43 455 -90z"/>
<path d="M1887 4903 c-8 -10 -31 -40 -49 -68 -19 -27 -88 -126 -153 -220 -65
-93 -120 -178 -123 -188 -6 -24 25 -57 55 -57 18 0 37 19 81 79 106 147 271
387 278 404 9 25 -22 67 -50 67 -12 0 -30 -8 -39 -17z"/>
<path d="M2167 4853 c-37 -42 -327 -469 -327 -483 1 -30 27 -52 58 -48 27 3
48 28 196 242 91 132 166 246 166 253 0 19 -37 53 -58 53 -11 0 -26 -8 -35
-17z"/>
<path d="M2457 4808 c-17 -13 -76 -96 -246 -343 -84 -122 -93 -140 -85 -164 7
-19 17 -27 39 -29 36 -3 48 9 127 123 30 44 74 107 97 140 165 235 170 248
115 273 -30 15 -27 15 -47 0z"/>
<path d="M2748 4761 c-21 -8 -50 -47 -217 -288 -141 -205 -149 -225 -99 -252
24 -14 28 -14 48 4 17 16 265 365 324 457 14 21 15 31 6 47 -14 26 -40 40 -62
32z"/>
<path d="M2975 4658 c-20 -29 -95 -136 -166 -238 -71 -102 -129 -194 -129
-206 0 -34 30 -50 125 -68 50 -9 174 -32 277 -51 103 -19 198 -35 212 -35 20
0 42 25 127 148 56 81 123 176 149 212 72 101 84 124 76 153 -3 13 -13 27 -21
31 -27 10 -557 106 -586 106 -23 0 -35 -10 -64 -52z m241 -83 c76 -14 171 -32
211 -40 40 -8 75 -15 78 -15 3 0 -17 -30 -43 -67 -26 -38 -81 -116 -121 -175
-40 -60 -74 -108 -75 -108 -13 0 -430 80 -433 84 -4 4 31 56 187 284 23 34 46
62 50 62 4 0 69 -11 146 -25z"/>
<path d="M1466 4038 c-13 -20 -10 -56 23 -316 33 -256 41 -296 59 -314 18 -19
25 -20 47 -10 14 7 28 19 32 28 3 10 -4 94 -16 188 -12 94 -29 227 -38 294
-10 74 -22 130 -30 138 -22 21 -61 17 -77 -8z"/>
<path d="M1746 3994 c-9 -8 -16 -18 -16 -22 0 -9 58 -462 70 -541 12 -86 54
-117 95 -71 18 20 17 29 -20 318 -26 210 -42 302 -53 315 -19 21 -55 22 -76 1z"/>
<path d="M2025 3937 c-16 -25 -18 0 48 -516 11 -79 18 -107 32 -117 26 -19 49
-17 70 6 17 19 16 31 -20 312 -22 177 -42 302 -51 316 -19 29 -59 29 -79 -1z"/>
<path d="M2306 3891 c-17 -19 -16 -33 19 -313 22 -176 43 -302 51 -315 18 -28
55 -30 78 -4 17 19 16 33 -20 317 -31 238 -42 302 -56 316 -23 23 -51 23 -72
-1z"/>
<path d="M2590 3842 l-23 -18 32 -250 c46 -360 47 -365 62 -375 33 -21 90 1
89 34 0 7 -18 144 -39 305 -32 247 -41 295 -57 307 -25 19 -37 18 -64 -3z"/>
<path d="M2869 3791 l-23 -19 38 -298 c21 -164 40 -303 43 -310 2 -6 15 -16
28 -22 21 -10 29 -8 50 11 l26 22 -36 280 c-42 328 -41 319 -61 339 -20 21
-37 20 -65 -3z"/>
<path d="M3159 3747 c-14 -8 -25 -23 -27 -39 -3 -25 63 -557 74 -591 12 -39
83 -40 98 -1 6 15 -68 597 -78 613 -14 23 -42 30 -67 18z"/>
<path d="M1434 3092 c-10 -6 -53 -65 -209 -292 -32 -47 -74 -106 -92 -132 -50
-72 -40 -124 24 -116 24 3 50 36 190 238 90 129 163 244 163 256 0 37 -47 66
-76 46z"/>
<path d="M1718 3039 c-10 -5 -48 -54 -86 -107 -245 -350 -253 -362 -250 -388
4 -33 36 -55 64 -44 11 4 72 82 134 172 62 89 135 193 162 231 51 72 59 104
30 130 -21 19 -30 20 -54 6z"/>
<path d="M1945 2928 c-184 -258 -285 -411 -285 -433 0 -38 32 -51 194 -80
l149 -26 23 23 c47 49 324 461 324 483 0 12 -6 28 -14 34 -16 13 -261 61 -314
61 -29 0 -38 -8 -77 -62z m184 -60 c36 -6 68 -13 70 -14 4 -4 -126 -198 -215
-320 l-23 -31 -75 15 c-42 8 -76 19 -76 24 0 7 138 211 207 306 27 37 24 36
112 20z"/>
<path d="M2527 2858 c-13 -18 -79 -112 -145 -208 -66 -96 -131 -188 -143 -203
-37 -48 -23 -107 26 -107 29 0 44 19 224 279 77 112 141 212 141 222 0 25 -27
49 -55 49 -15 0 -33 -12 -48 -32z"/>
<path d="M2792 2788 c-20 -29 -45 -64 -54 -78 -9 -14 -39 -56 -67 -95 -27 -38
-80 -115 -117 -169 -65 -95 -67 -100 -53 -125 16 -29 52 -39 75 -21 8 7 46 58
85 114 202 290 249 360 249 376 0 9 -8 24 -18 33 -33 30 -59 21 -100 -35z"/>
<path d="M3113 2783 c-12 -4 -308 -424 -332 -471 -10 -19 -10 -28 4 -48 20
-30 55 -31 83 -1 33 35 304 429 315 459 17 43 -25 80 -70 61z"/>

</g>
</svg>
