<?xml version="1.0" standalone="no"?>
<!DOCTYPE svg PUBLIC "-//W3C//DTD SVG 20010904//EN"
 "http://www.w3.org/TR/2001/REC-SVG-20010904/DTD/svg10.dtd">
<svg version="1.0" xmlns="http://www.w3.org/2000/svg"
 width="486.000000pt" height="600.000000pt" viewBox="0 0 486.000000 600.000000"
 preserveAspectRatio="xMidYMid meet">
<metadata>
Created by potrace 1.12, written by Peter Selinger 2001-2015
</metadata>
<g transform="translate(0.000000,600.000000) scale(0.100000,-0.100000)"
fill="#000000" stroke="none">
<path d="M770 5994 c-179 -28 -269 -60 -385 -138 -172 -115 -286 -271 -352
-481 l-28 -90 0 -1710 c0 -1894 -5 -1734 62 -1905 94 -239 322 -436 578 -500
80 -20 103 -20 1810 -18 l1730 3 70 24 c301 101 503 319 582 627 17 65 18 179
18 1764 0 1637 -1 1698 -19 1770 -29 113 -59 181 -119 272 -122 184 -289 303
-513 365 -54 15 -214 17 -1734 19 -921 1 -1686 0 -1700 -2z m3388 -120 c303
-62 532 -301 581 -604 7 -43 11 -609 11 -1708 0 -1766 1 -1711 -50 -1841 -78
-198 -249 -359 -462 -434 l-93 -32 -1705 0 c-1355 0 -1715 3 -1755 13 -140 36
-254 100 -351 196 -84 85 -125 143 -164 233 -63 150 -60 59 -60 1865 0 1093 4
1665 11 1707 38 238 194 447 409 549 58 27 141 53 210 65 14 2 771 5 1683 6
1480 1 1666 -1 1735 -15z"/>
<path d="M2383 5218 c-11 -13 -52 -74 -92 -137 -40 -62 -169 -262 -288 -445
-118 -182 -234 -360 -257 -395 -36 -56 -57 -74 -172 -151 -174 -117 -312 -228
-457 -369 -308 -298 -443 -521 -500 -828 l-6 -33 205 0 205 0 14 -32 c23 -57
74 -118 122 -148 39 -25 58 -30 108 -30 38 0 72 6 93 18 51 27 109 90 133 143
l22 49 511 3 c281 2 522 6 535 8 20 3 26 -2 40 -40 22 -61 109 -154 160 -171
62 -20 143 -9 194 27 93 66 147 192 147 342 l0 87 34 17 c37 17 46 14 46 -17
0 -28 52 -136 81 -171 62 -72 174 -104 250 -72 113 47 191 187 192 346 1 42 0
256 -1 475 l-2 400 28 43 c15 24 86 133 157 243 72 110 150 231 175 269 25 39
104 162 177 273 73 112 135 211 139 221 8 22 -14 75 -37 87 -11 6 -382 10
-977 10 l-959 0 -20 -22z m1757 -142 c0 -5 -362 -565 -503 -778 l-70 -108
-824 0 c-486 0 -823 4 -823 9 0 10 23 45 370 581 l194 300 828 0 c455 0 828
-2 828 -4z m-871 -1049 c-2 -2 -44 -35 -94 -73 -366 -279 -613 -573 -715 -854
l-28 -75 -806 -3 c-547 -1 -806 1 -806 8 0 18 57 138 97 203 139 230 415 498
738 716 l120 81 749 0 c412 0 747 -2 745 -3z m261 -226 l0 -200 -31 11 c-72
25 -180 -10 -236 -76 -32 -37 -70 -113 -83 -167 -11 -43 -15 -47 -68 -70 -31
-13 -59 -25 -62 -27 -4 -1 -20 17 -37 41 -31 42 -118 97 -156 97 -9 0 -17 4
-17 10 0 19 247 257 365 352 117 94 302 227 318 228 4 0 7 -90 7 -199z m-62
-357 c12 -8 32 -34 45 -57 19 -36 22 -57 22 -147 0 -88 -3 -111 -21 -145 -50
-93 -96 -96 -149 -11 -28 47 -30 55 -30 155 0 98 2 110 28 153 39 67 65 80
105 52z m-607 -211 c47 -28 74 -102 74 -208 0 -75 -4 -98 -24 -138 -61 -125
-151 -85 -181 81 -18 101 16 227 72 266 27 19 24 20 59 -1z"/>
<path d="M1898 3855 c-295 -56 -465 -214 -389 -364 62 -120 229 -184 486 -184
276 0 496 73 591 198 35 46 45 135 21 181 -38 73 -116 124 -242 160 -83 23
-361 29 -467 9z m429 -168 c61 -18 133 -56 133 -72 0 -33 -89 -83 -207 -117
-67 -20 -101 -23 -248 -23 -148 0 -179 3 -240 22 -39 12 -81 32 -93 44 l-23
21 23 25 c42 47 148 86 318 117 49 9 286 -3 337 -17z"/>
<path d="M740 2400 l0 -160 50 0 50 0 0 160 0 160 -50 0 -50 0 0 -160z"/>
<path d="M1150 2400 l0 -160 55 0 55 0 0 160 0 160 -55 0 -55 0 0 -160z"/>
<path d="M1560 2400 l0 -160 55 0 55 0 0 160 0 160 -55 0 -55 0 0 -160z"/>
<path d="M1980 2400 l0 -160 50 0 50 0 0 160 0 160 -50 0 -50 0 0 -160z"/>
<path d="M2390 2400 l0 -160 55 0 55 0 0 160 0 160 -55 0 -55 0 0 -160z"/>
<path d="M510 2140 l0 -160 55 0 55 0 0 160 0 160 -55 0 -55 0 0 -160z"/>
<path d="M922 2143 l3 -158 53 -3 52 -3 0 160 0 161 -55 0 -56 0 3 -157z"/>
<path d="M1340 2141 l0 -161 50 0 50 0 0 150 c0 83 1 153 3 158 1 4 -22 8 -50
10 l-53 3 0 -160z"/>
<path d="M1750 2140 l0 -160 55 0 55 0 0 160 0 160 -55 0 -55 0 0 -160z"/>
<path d="M2160 2140 l0 -160 55 0 55 0 0 160 0 160 -55 0 -55 0 0 -160z"/>

</g>
</svg>
