<?xml version="1.0" standalone="no"?>
<!DOCTYPE svg PUBLIC "-//W3C//DTD SVG 20010904//EN"
 "http://www.w3.org/TR/2001/REC-SVG-20010904/DTD/svg10.dtd">
<svg version="1.0" xmlns="http://www.w3.org/2000/svg"
 width="417.000000pt" height="600.000000pt" viewBox="0 0 417.000000 600.000000"
 preserveAspectRatio="xMidYMid meet">
<metadata>
Created by potrace 1.12, written by Peter Selinger 2001-2015
</metadata>
<g transform="translate(0.000000,600.000000) scale(0.100000,-0.100000)"
fill="#000000" stroke="none">
<path d="M630 5990 c-84 -11 -137 -28 -230 -73 -71 -34 -101 -57 -180 -136
-78 -79 -103 -112 -137 -181 -84 -171 -77 -30 -81 -1625 -3 -1501 -2 -1527 43
-1657 77 -222 274 -401 509 -466 55 -15 189 -17 1466 -20 945 -2 1435 0 1497
7 84 10 197 43 255 74 173 94 298 242 361 428 36 107 38 186 35 1629 -4 1590
2 1461 -81 1629 -34 69 -59 103 -132 176 -131 132 -246 190 -418 214 -90 13
-2815 13 -2907 1z m2989 -108 c212 -65 373 -231 439 -450 15 -52 17 -175 20
-1462 2 -913 -1 -1432 -7 -1482 -30 -224 -153 -398 -353 -499 -134 -68 -39
-64 -1633 -64 -1378 0 -1443 1 -1510 19 -216 58 -397 233 -457 441 l-23 80 0
1450 c0 1613 -5 1493 67 1644 34 72 152 202 227 250 62 40 166 78 243 90 36 5
669 8 1488 7 l1425 -1 74 -23z"/>
<path d="M1725 5723 c-25 -4 -429 -130 -1062 -333 -181 -59 -258 -96 -302
-145 -57 -65 -63 -105 -32 -201 11 -32 56 -171 100 -309 43 -137 118 -371 166
-520 48 -148 97 -304 110 -345 13 -41 44 -139 69 -218 25 -79 46 -150 46 -158
0 -13 -138 -152 -385 -387 l-80 -76 50 -53 c28 -29 102 -107 166 -173 63 -66
225 -234 358 -372 134 -139 246 -253 250 -253 3 0 92 83 196 184 105 101 191
183 193 181 1 -1 4 -36 6 -76 4 -102 29 -145 118 -199 282 -173 1133 -230
1713 -114 232 46 400 132 436 222 5 13 9 206 9 438 0 469 3 447 -80 513 -151
119 -562 201 -1020 201 l-165 0 85 83 c47 45 200 192 340 327 260 250 431 415
645 622 66 64 135 131 153 148 l33 31 -73 75 c-40 41 -74 79 -76 83 -1 4 40
49 93 100 52 51 95 95 95 98 0 6 -68 78 -324 346 l-180 187 -86 -83 c-125
-123 -107 -120 -191 -32 -40 41 -77 75 -82 75 -5 0 -147 -134 -316 -297 -427
-415 -461 -448 -470 -451 -4 -1 -35 87 -70 195 -183 577 -193 607 -225 639
-43 43 -118 60 -211 47z m149 -115 c51 -72 -34 -176 -185 -227 -66 -22 -80
-21 -59 4 10 12 9 20 -5 41 -9 14 -15 27 -13 28 2 2 31 13 64 25 69 25 116 67
120 107 5 47 52 60 78 22z m-321 -117 c9 -16 17 -33 17 -38 0 -5 -54 -27 -121
-48 -66 -21 -127 -45 -135 -52 -27 -27 -10 -73 26 -73 9 0 73 18 144 41 71 22
132 37 136 32 11 -11 171 -515 166 -521 -3 -2 -65 -23 -138 -47 -119 -38 -134
-41 -140 -27 -15 34 -158 487 -158 500 0 17 1 17 -150 -33 -74 -25 -140 -45
-147 -45 -8 0 -13 12 -13 30 0 47 -31 47 -173 3 l-125 -40 -6 46 c-3 24 -3 48
1 52 5 3 60 23 123 44 63 21 120 40 126 42 7 3 14 -14 18 -41 4 -25 11 -46 16
-46 6 0 179 53 278 85 10 4 9 11 -3 34 -8 17 -15 36 -15 43 0 12 198 84 240
87 9 0 23 -12 33 -28z m1877 -118 c29 -32 100 -105 157 -163 l103 -106 -45
-47 c-26 -26 -50 -47 -55 -47 -10 0 -303 305 -309 321 -3 10 76 99 89 99 4 0
31 -26 60 -57z m-171 -228 c69 -72 183 -190 254 -262 70 -72 127 -135 127
-140 0 -5 -10 -17 -22 -27 -13 -10 -75 -69 -138 -130 -63 -61 -180 -174 -260
-251 -544 -526 -723 -698 -781 -753 l-65 -62 -120 -15 c-422 -55 -635 -144
-673 -282 -6 -22 -11 -133 -11 -258 l1 -220 -193 -188 -193 -187 -148 152
c-344 354 -472 490 -472 503 0 7 99 109 220 226 121 117 288 278 370 358 83
80 263 254 400 386 137 132 308 296 380 365 71 69 186 180 255 245 69 66 247
238 395 381 149 144 306 296 350 338 l80 76 59 -63 c32 -34 116 -121 185 -192z
m-2771 13 c19 -19 34 -23 80 -21 32 1 77 9 101 17 56 21 64 20 49 -3 -9 -15
-8 -24 5 -44 20 -30 18 -32 -59 -52 -107 -28 -207 -15 -244 32 -51 65 8 127
68 71z m631 -257 c44 -140 80 -255 78 -257 -11 -9 -259 -85 -268 -82 -9 3
-182 516 -175 519 34 15 273 84 278 80 3 -3 43 -120 87 -260z m2012 -1556
c163 -19 307 -47 400 -78 79 -27 149 -63 149 -77 0 -36 -185 -102 -374 -134
-423 -73 -967 -60 -1331 30 -98 25 -227 80 -229 99 -5 44 256 125 504 155 261
32 635 34 881 5z m-1336 -375 c134 -57 412 -104 719 -120 407 -22 918 33 1123
121 25 10 47 19 49 19 2 0 4 -99 4 -221 l0 -220 -64 -29 c-181 -83 -515 -130
-916 -130 -395 0 -711 44 -903 126 l-67 29 0 223 c0 122 2 222 4 222 2 0 25
-9 51 -20z m1 -494 c190 -91 699 -148 1117 -126 306 17 561 60 715 123 l62 26
0 -31 c0 -35 -15 -50 -80 -79 -166 -76 -431 -117 -795 -126 -447 -10 -818 38
-1005 130 -61 30 -65 34 -68 70 -2 20 -2 37 1 37 2 0 25 -11 53 -24z"/>
<path d="M2756 4908 l-47 -43 76 -75 75 -75 -77 -77 -76 -77 45 -47 45 -47 77
73 77 73 75 -74 74 -74 45 45 45 45 -70 72 c-39 40 -70 77 -70 82 0 5 34 40
75 78 l74 68 -47 48 -46 47 -77 -76 -76 -75 -70 75 c-39 42 -73 76 -75 76 -2
0 -26 -19 -52 -42z"/>
<path d="M890 3105 l-44 -45 104 -108 c58 -59 143 -147 189 -195 46 -48 87
-87 92 -87 5 0 28 18 51 39 l42 40 -121 128 c-67 70 -155 161 -195 201 l-74
72 -44 -45z"/>
<path d="M2667 3313 c-4 -3 -7 -17 -7 -30 0 -22 -2 -23 -95 -23 -83 0 -96 -2
-105 -19 -5 -11 -10 -22 -10 -25 0 -3 45 -6 101 -6 100 0 101 0 96 -22 -3 -13
-9 -44 -12 -70 l-7 -48 87 0 c85 0 87 0 82 23 -3 12 -9 43 -12 70 l-7 47 101
0 c55 0 101 3 101 8 0 4 -7 15 -14 25 -11 14 -29 17 -104 17 l-90 0 -7 30 c-6
28 -10 30 -49 30 -24 0 -46 -3 -49 -7z"/>
</g>
</svg>
