<?xml version="1.0" standalone="no"?>
<!DOCTYPE svg PUBLIC "-//W3C//DTD SVG 20010904//EN"
 "http://www.w3.org/TR/2001/REC-SVG-20010904/DTD/svg10.dtd">
<svg version="1.0" xmlns="http://www.w3.org/2000/svg"
 width="489.000000pt" height="600.000000pt" viewBox="0 0 489.000000 600.000000"
 preserveAspectRatio="xMidYMid meet">
<metadata>
Created by potrace 1.12, written by Peter Selinger 2001-2015
</metadata>
<g transform="translate(0.000000,600.000000) scale(0.100000,-0.100000)"
fill="#000000" stroke="none">
<path d="M690 5975 c-323 -67 -569 -297 -661 -620 l-23 -80 -4 -1655 c-2
-1165 0 -1684 8 -1752 18 -158 69 -285 166 -414 117 -157 265 -257 462 -312
l97 -27 1710 0 1710 0 85 23 c353 94 600 376 640 730 8 68 10 587 8 1752 l-4
1655 -23 80 c-83 294 -298 512 -597 608 l-69 22 -1720 2 c-1406 1 -1732 -1
-1785 -12z m826 -103 c-3 -5 -60 -48 -128 -95 -326 -229 -374 -265 -386 -290
-12 -24 -17 -26 -55 -21 -42 6 -45 5 -153 -86 -60 -50 -114 -98 -120 -106 -6
-8 -14 -44 -18 -81 -6 -55 -15 -82 -49 -138 l-42 -70 -3 -489 c-2 -431 -1
-492 13 -513 18 -27 142 -109 178 -118 18 -5 46 11 127 69 58 42 110 76 115
76 6 0 87 -36 180 -80 l170 -79 3 -89 c2 -71 6 -93 21 -106 18 -16 205 -96
225 -96 7 0 45 21 85 46 80 49 87 50 165 14 22 -10 93 -41 156 -69 l115 -49 5
-159 c3 -87 10 -165 15 -174 13 -21 178 -109 204 -109 24 0 48 13 199 109 63
39 120 71 127 71 7 0 50 -18 96 -41 45 -22 111 -54 145 -70 l63 -28 3 -170 c3
-155 5 -172 23 -190 18 -18 38 -21 220 -26 l200 -6 185 146 c338 268 454 360
490 387 19 14 76 58 125 98 50 39 122 96 162 126 81 62 97 93 91 175 -2 41 0
48 12 43 59 -23 71 -18 185 77 l110 92 3 -134 c1 -74 1 -530 0 -1014 l-3 -880
-24 -70 c-87 -259 -266 -433 -526 -511 -57 -17 -154 -19 -1745 -21 -1532 -3
-1693 -2 -1770 13 -270 52 -492 256 -571 524 -19 66 -22 105 -26 323 -3 137
-1 247 4 247 7 0 146 -62 363 -162 138 -64 188 -87 235 -108 28 -13 93 -43
145 -67 52 -25 169 -79 260 -122 l165 -76 177 0 c208 0 206 -1 238 109 11 38
21 70 22 71 2 1 82 35 178 75 96 41 185 83 198 94 22 19 22 24 22 234 l0 214
-35 81 c-31 71 -35 92 -34 152 2 65 -3 81 -57 215 l-59 145 -55 27 c-30 15
-215 97 -410 182 -195 85 -553 240 -795 346 -242 106 -468 204 -503 218 l-63
26 3 645 c4 628 4 648 25 714 68 213 205 376 392 465 139 67 170 70 604 71
214 1 386 -3 383 -7z m973 -12 c-15 -11 -163 -126 -330 -255 -204 -159 -310
-235 -326 -235 -14 0 -23 -5 -21 -11 4 -12 64 -40 478 -226 129 -58 285 -128
345 -155 307 -139 431 -195 543 -246 106 -48 126 -54 143 -44 11 7 70 52 132
100 62 49 182 142 267 208 85 66 236 183 334 260 98 76 211 164 251 194 152
117 142 106 121 129 -11 12 -23 21 -27 21 -5 0 -37 13 -71 28 -35 16 -179 78
-321 138 l-257 109 192 3 c153 2 208 -1 263 -14 81 -19 193 -68 260 -114 85
-58 187 -177 238 -275 19 -38 58 -157 53 -162 -2 -2 -64 -49 -137 -103 -74
-54 -179 -133 -234 -174 -55 -41 -147 -110 -204 -152 -90 -67 -101 -78 -85
-87 11 -6 21 -13 24 -17 3 -4 22 -18 42 -31 l37 -25 -121 -80 c-67 -43 -125
-80 -130 -82 -4 -2 -8 24 -8 57 0 34 -2 61 -5 61 -3 0 -43 -29 -88 -65 -45
-35 -141 -111 -213 -167 -134 -106 -160 -126 -251 -198 -29 -23 -53 -45 -52
-48 0 -4 27 -27 60 -51 33 -24 59 -47 57 -52 -2 -4 -35 -41 -73 -81 -104 -108
-98 -91 -66 -194 l29 -89 7 -447 7 -448 -65 0 c-35 0 -92 3 -126 6 l-62 7 3
167 3 167 -205 93 c-113 52 -239 110 -280 128 -41 19 -122 56 -179 83 -57 27
-105 49 -107 49 -2 0 -32 14 -66 31 -35 17 -151 70 -258 119 -238 107 -530
241 -665 305 -204 96 -540 247 -555 248 -12 2 -15 -16 -17 -103 -1 -58 -2
-111 -3 -117 0 -19 -18 -16 -51 8 l-29 20 0 441 0 440 45 82 c25 46 45 94 45
108 0 68 12 88 87 149 70 58 75 60 105 50 72 -25 109 -5 135 74 8 24 55 62
219 179 115 82 259 184 319 227 l110 79 380 0 380 -1 -26 -19z m1284 -66 c111
-48 288 -122 392 -166 105 -44 193 -83 197 -87 4 -3 -42 -45 -104 -91 -61 -47
-128 -98 -149 -115 -45 -35 -238 -184 -349 -270 -42 -33 -155 -121 -251 -195
-95 -74 -181 -141 -190 -148 -15 -10 -28 -8 -81 17 -35 16 -239 107 -453 204
-215 96 -419 188 -455 204 -36 17 -143 65 -238 108 -136 62 -170 81 -160 90
12 11 439 343 552 429 28 21 69 54 91 72 l40 34 478 0 478 0 202 -86z m967
-1204 c-5 -327 -10 -605 -10 -617 0 -18 -17 -32 -87 -68 -126 -64 -217 -117
-221 -126 -2 -5 -9 -9 -16 -9 -10 0 -14 98 -20 446 -5 332 -10 455 -20 478
-13 30 -55 73 -106 108 -25 16 -25 17 -5 32 226 174 482 361 487 356 4 -3 3
-273 -2 -600z m-446 58 c3 -13 8 -247 11 -521 l6 -497 -58 -61 c-86 -91 -216
-199 -423 -354 -102 -76 -232 -174 -290 -217 l-105 -79 -5 408 c-6 387 -7 412
-29 481 -12 40 -21 80 -19 87 2 8 47 59 101 114 l98 100 -61 48 c-48 37 -58
49 -48 58 48 35 345 272 357 283 7 7 18 9 22 5 5 -5 10 -120 11 -257 l3 -247
133 -70 c73 -38 134 -69 136 -69 1 0 6 145 9 322 5 269 4 327 -9 356 -8 19
-13 36 -12 37 21 18 146 94 155 95 7 0 15 -10 17 -22z m-240 -139 c9 -8 9
-499 0 -508 -2 -2 -26 7 -52 20 l-49 24 -6 110 c-4 61 -7 174 -7 252 l0 142
53 -15 c28 -9 56 -20 61 -25z m-2431 -674 l98 -45 -67 -46 -66 -45 -54 21 -54
22 0 75 c0 89 -7 88 143 18z m-1306 -81 c109 -48 232 -101 273 -119 41 -18
253 -110 470 -205 217 -95 480 -209 584 -255 l189 -82 43 -109 c37 -94 43
-119 44 -186 0 -66 5 -88 35 -154 l35 -76 0 -169 0 -169 -52 -24 c-29 -13 -56
-22 -59 -20 -4 2 -4 84 -1 182 l5 178 -26 40 c-14 21 -40 54 -56 73 -17 18
-31 35 -31 37 0 2 12 20 26 41 22 33 25 45 19 87 -5 43 -76 205 -108 246 -7 9
-34 26 -62 38 -27 11 -97 42 -155 68 -58 25 -139 61 -180 78 -41 18 -201 88
-355 156 -154 67 -363 158 -465 202 -102 44 -203 88 -225 98 -22 10 -66 30
-97 44 -52 22 -58 28 -58 55 0 17 2 31 4 31 2 0 93 -39 203 -86z m43 -117
c305 -134 825 -361 955 -418 229 -99 357 -157 365 -165 23 -23 100 -191 106
-229 5 -38 2 -49 -26 -90 l-32 -47 50 -52 c27 -28 55 -61 61 -73 10 -19 17
-213 7 -213 -7 0 -149 67 -360 169 -114 55 -210 101 -211 101 -2 0 -91 43
-200 95 -108 52 -198 95 -200 95 -1 0 -78 37 -171 81 -305 147 -438 210 -516
246 l-78 36 0 285 c0 266 1 284 18 279 9 -3 114 -48 232 -100z m2079 -178 c97
-45 177 -82 179 -84 2 -1 -61 -42 -139 -90 l-141 -88 -44 24 -44 24 0 147 c0
82 3 148 6 148 4 0 86 -36 183 -81z m-2114 -429 c167 -81 504 -242 680 -325
50 -24 162 -77 250 -119 88 -43 205 -98 260 -124 55 -26 143 -68 195 -93 92
-46 94 -47 68 -58 -27 -10 -28 -14 -29 -78 -1 -66 -4 -102 -11 -107 -10 -7
-77 -36 -84 -36 -12 0 -54 -42 -54 -55 0 -6 -7 -35 -15 -63 l-16 -52 -79 0
-80 0 0 80 c0 72 -2 81 -23 95 -13 8 -131 63 -262 123 -132 60 -276 125 -320
146 -44 20 -217 99 -385 175 l-305 139 -3 226 -2 226 22 -9 c13 -5 100 -46
193 -91z m-133 -430 c86 -40 631 -288 918 -418 129 -58 241 -110 248 -115 7
-6 12 -35 12 -78 0 -91 4 -92 -220 13 -36 17 -171 79 -300 138 -129 59 -325
149 -435 200 -110 51 -224 103 -252 116 l-53 24 0 75 c0 41 4 75 10 75 5 0 37
-13 72 -30z"/>
<path d="M1343 5119 c-4 -4 -55 -32 -113 -62 l-105 -54 -74 -114 -73 -114 6
-110 c3 -60 6 -171 6 -245 l0 -135 333 -154 c182 -85 521 -242 752 -348 231
-107 438 -203 460 -213 22 -10 92 -43 157 -73 l116 -55 4 232 c4 207 7 238 27
296 34 96 48 114 186 239 69 63 122 118 118 122 -4 4 -132 62 -283 129 -151
67 -288 127 -305 135 -76 34 -225 100 -385 170 -96 42 -188 84 -205 93 -16 9
-34 17 -40 18 -9 2 -123 51 -263 115 -35 16 -65 29 -67 29 -3 0 -28 11 -57 24
-29 13 -83 37 -120 54 -36 16 -70 26 -75 21z m222 -119 c88 -40 187 -83 220
-97 33 -14 72 -31 86 -39 l26 -13 -25 -51 c-22 -45 -25 -66 -31 -220 l-6 -169
-55 24 c-289 128 -424 184 -431 179 -5 -3 -9 103 -9 241 l0 245 33 -14 c17 -8
104 -46 192 -86z m479 -212 c85 -37 116 -58 86 -58 -16 0 -76 -63 -96 -100
-16 -31 -19 -69 -25 -335 -3 -165 -5 -301 -4 -303 1 -1 41 42 90 95 49 54 94
101 101 105 7 5 75 -23 160 -63 246 -118 357 -170 395 -185 l35 -15 -3 -202
c-2 -111 -5 -209 -6 -219 -2 -16 -41 2 -697 304 -47 21 -598 278 -707 329 -35
16 -131 61 -215 100 -84 39 -154 72 -156 74 -2 2 267 240 309 272 13 11 57 -5
258 -92 133 -58 249 -105 257 -105 11 0 14 -23 14 -125 0 -101 3 -125 14 -125
12 0 15 50 18 303 3 291 4 304 26 345 12 23 29 42 36 42 8 0 58 -19 110 -42z
m371 -163 c72 -31 189 -83 260 -115 72 -32 189 -84 260 -115 177 -78 172 -75
153 -89 -9 -6 -61 -54 -117 -106 -105 -97 -132 -132 -152 -200 -7 -22 -18 -40
-24 -40 -12 0 -102 41 -365 167 -74 35 -156 74 -182 85 l-48 20 0 244 0 243
43 -18 c23 -10 101 -44 172 -76z"/>

</g>
</svg>
