<?xml version="1.0" standalone="no"?>
<!DOCTYPE svg PUBLIC "-//W3C//DTD SVG 20010904//EN"
 "http://www.w3.org/TR/2001/REC-SVG-20010904/DTD/svg10.dtd">
<svg version="1.0" xmlns="http://www.w3.org/2000/svg"
 width="420.000000pt" height="600.000000pt" viewBox="0 0 420.000000 600.000000"
 preserveAspectRatio="xMidYMid meet">
<metadata>
Created by potrace 1.12, written by Peter Selinger 2001-2015
</metadata>
<g transform="translate(0.000000,600.000000) scale(0.100000,-0.100000)"
fill="#000000" stroke="none">
<path d="M625 5989 c-237 -35 -446 -192 -550 -412 -75 -158 -69 -29 -73 -1622
-2 -991 0 -1456 8 -1513 22 -171 98 -321 221 -436 120 -112 236 -171 389 -195
90 -15 2870 -15 2959 0 159 25 285 92 407 213 66 66 89 98 127 176 89 181 82
34 82 1700 l0 1475 -23 80 c-38 130 -95 227 -192 326 -72 72 -100 93 -180 132
-181 89 -30 82 -1665 83 -797 1 -1477 -2 -1510 -7z m2900 -89 c113 -12 184
-35 275 -90 134 -81 244 -230 287 -390 17 -61 18 -164 18 -1520 0 -1189 -2
-1465 -14 -1510 -59 -243 -268 -443 -506 -485 -67 -12 -313 -14 -1485 -14
-1553 0 -1499 -2 -1637 63 -179 85 -297 228 -349 421 -18 67 -19 132 -19 1525
0 1356 1 1459 18 1520 30 113 84 207 167 291 108 110 226 169 372 188 90 12
2763 13 2873 1z"/>
<path d="M667 5478 c-13 -13 -80 -133 -151 -268 -71 -135 -144 -274 -164 -310
-128 -241 -162 -309 -162 -328 0 -12 10 -30 22 -42 21 -19 34 -20 255 -20 128
0 233 -1 233 -3 0 -2 -10 -23 -22 -48 -33 -64 -32 -196 0 -257 101 -190 327
-235 489 -98 18 15 47 56 64 92 41 82 45 172 11 248 -12 27 -22 52 -22 57 0 5
105 9 234 9 l235 0 20 26 c12 15 21 32 21 39 0 19 -418 854 -447 893 l-24 32
-285 0 c-282 0 -285 0 -307 -22z m695 -470 l176 -353 -576 -3 c-316 -1 -577
-1 -579 1 -1 2 21 49 51 104 29 55 84 158 121 229 37 71 92 174 122 228 30 55
59 110 64 123 l9 23 218 0 218 0 176 -352z"/>
<path d="M2233 5201 c-149 -59 -283 -112 -297 -119 l-26 -12 0 -1290 0 -1290
78 0 77 1 200 159 200 159 468 1 467 0 0 -160 0 -160 74 0 c74 0 76 1 188 66
62 36 118 70 123 74 6 4 37 23 70 40 33 18 68 40 78 48 16 14 17 86 15 1301
l-3 1286 -720 1 -720 2 -272 -107z m1607 65 c0 -4 -126 -81 -237 -145 l-72
-41 -743 2 -743 3 85 32 c47 18 153 59 235 92 l150 59 663 1 c364 1 662 -1
662 -3z m-320 -1481 l0 -1255 -40 0 -40 0 0 1204 c0 1003 -2 1205 -14 1215 -9
8 -202 10 -702 9 l-689 -3 -3 -1211 -2 -1212 -40 -4 -40 -4 0 1258 0 1258 785
0 785 0 0 -1255z m-122 973 l3 -158 -426 0 -425 0 0 160 0 160 423 -2 422 -3
3 -157z m2 -293 l0 -95 -610 0 c-335 0 -610 2 -610 4 0 4 61 39 185 106 44 24
94 52 110 62 28 17 63 18 478 18 l447 0 0 -95z m0 -175 l0 -40 -647 0 -648 0
0 40 0 40 648 0 647 0 0 -40z m-2 -212 l-3 -133 -422 -3 -423 -2 0 135 0 135
425 0 426 0 -3 -132z m0 -270 l-3 -93 -610 -3 c-460 -2 -606 1 -598 9 7 7 79
49 160 95 l148 82 453 1 453 1 -3 -92z m2 -178 l0 -40 -644 0 -644 0 -4 40 -4
40 648 0 648 0 0 -40z m-2 -252 l-3 -173 -422 -3 -423 -2 0 175 0 175 425 0
425 0 -2 -172z m0 -310 l-3 -93 -607 -3 c-335 -1 -608 1 -608 6 0 4 24 20 53
35 28 15 99 53 157 86 l105 60 453 0 453 1 -3 -92z m2 -178 l0 -40 -645 0
-645 0 0 40 0 40 645 0 645 0 0 -40z"/>
<path d="M806 3709 c-49 -33 -80 -80 -91 -140 -7 -40 17 -123 46 -155 18 -19
18 -23 4 -57 -8 -21 -18 -64 -22 -96 l-6 -60 -38 26 c-80 53 -186 37 -253 -37
-96 -107 -52 -272 87 -323 14 -5 17 -16 16 -52 -2 -38 -9 -50 -48 -87 -133
-127 -115 -324 40 -428 43 -29 61 -35 119 -38 76 -5 129 9 176 43 29 22 32 22
84 9 30 -8 85 -14 123 -14 l70 0 46 -50 c59 -63 124 -92 205 -92 98 1 166 39
228 130 27 39 32 57 36 124 4 69 2 84 -22 132 -15 30 -42 68 -61 85 -29 25
-34 35 -29 59 6 28 8 30 45 25 82 -11 172 48 205 134 62 160 -118 321 -271
243 -22 -11 -43 -20 -47 -20 -4 0 0 19 9 43 8 23 16 70 17 104 1 56 4 65 34
94 18 18 39 44 47 59 61 118 -12 260 -148 285 -55 11 -101 -2 -151 -40 -41
-31 -49 -34 -95 -28 -46 5 -52 9 -71 46 -38 73 -97 107 -183 107 -43 0 -63 -6
-101 -31z m190 -83 c28 -28 34 -42 34 -75 l0 -41 64 0 c35 0 83 -7 106 -15 56
-20 52 -21 75 22 50 92 188 74 215 -28 15 -56 -10 -107 -66 -134 l-41 -20 5
-86 c4 -77 2 -92 -21 -142 -31 -68 -76 -112 -145 -144 -45 -21 -65 -25 -125
-21 -165 8 -271 119 -272 284 0 61 5 80 32 133 l32 62 -34 20 c-22 14 -39 35
-50 63 -15 40 -15 46 0 82 22 54 50 74 109 74 41 0 53 -5 82 -34z m-332 -471
l26 -17 -29 -33 c-16 -18 -43 -62 -61 -98 -25 -51 -36 -64 -50 -60 -30 8 -59
41 -71 82 -31 104 92 187 185 126z m119 -101 c27 -55 101 -128 164 -160 53
-26 67 -29 158 -29 87 0 107 3 155 26 30 14 73 42 95 62 l40 36 17 -32 c9 -18
22 -62 29 -98 42 -230 -133 -456 -369 -476 -175 -15 -329 75 -405 235 -30 62
-32 75 -32 172 0 93 3 111 27 163 28 59 83 137 97 137 4 0 15 -16 24 -36z
m858 -41 c58 -35 75 -127 32 -176 -26 -29 -80 -49 -113 -42 -25 6 -29 12 -35
58 -4 28 -14 69 -21 91 -19 51 -18 53 14 70 36 20 88 20 123 -1z m-1071 -366
c0 -7 14 -41 31 -77 21 -46 51 -85 104 -136 l74 -72 -29 -12 c-45 -19 -132 -8
-174 21 -87 59 -109 191 -45 273 20 25 39 27 39 3z m970 -151 c16 -43 12 -113
-10 -156 -32 -62 -81 -93 -155 -98 -68 -4 -99 7 -149 54 l-28 27 47 24 c99 50
181 127 224 211 l12 22 24 -28 c14 -16 29 -41 35 -56z"/>
<path d="M1179 3311 c-56 -56 -27 -145 52 -157 31 -5 42 -1 70 24 46 41 47 92
1 133 -43 39 -84 38 -123 0z"/>
</g>
</svg>
