<?xml version="1.0" standalone="no"?>
<!DOCTYPE svg PUBLIC "-//W3C//DTD SVG 20010904//EN"
 "http://www.w3.org/TR/2001/REC-SVG-20010904/DTD/svg10.dtd">
<svg version="1.0" xmlns="http://www.w3.org/2000/svg"
 width="495.000000pt" height="600.000000pt" viewBox="0 0 495.000000 600.000000"
 preserveAspectRatio="xMidYMid meet">
<metadata>
Created by potrace 1.12, written by Peter Selinger 2001-2015
</metadata>
<g transform="translate(0.000000,600.000000) scale(0.100000,-0.100000)"
fill="#000000" stroke="none">
<path d="M701 5979 c-120 -23 -219 -66 -329 -142 -134 -92 -241 -226 -303
-379 -69 -167 -64 -19 -64 -1933 0 -1918 -5 -1775 65 -1946 83 -205 270 -388
481 -472 154 -61 58 -58 1959 -55 l1735 3 70 24 c275 92 462 261 565 507 63
153 61 57 58 1969 -3 1967 5 1772 -88 1960 -27 55 -72 128 -101 163 -113 137
-283 244 -457 288 l-95 24 -1726 -1 c-949 -1 -1746 -5 -1770 -10z m3534 -108
c249 -60 426 -202 530 -426 69 -149 65 -16 65 -1925 0 -1558 -2 -1730 -16
-1789 -71 -286 -311 -512 -595 -561 -45 -8 -567 -10 -1789 -8 l-1725 3 -70 26
c-234 87 -380 222 -466 431 -62 150 -60 78 -56 1944 2 1605 4 1702 21 1759 77
256 261 449 501 526 102 32 204 34 1980 33 1192 0 1582 -4 1620 -13z"/>
<path d="M1490 5149 c-74 -4 -272 -14 -440 -23 -468 -24 -469 -24 -496 -52
l-24 -23 0 -511 c0 -556 1 -562 56 -576 14 -4 159 -1 322 5 163 6 326 11 362
11 l65 0 -3 -855 c-2 -929 -3 -911 52 -936 44 -21 72 -3 149 94 41 50 97 113
123 139 57 54 185 158 197 158 4 0 7 -76 7 -169 0 -93 4 -181 10 -196 5 -14
24 -32 41 -39 29 -12 44 -10 158 21 171 46 220 57 225 52 3 -2 -2 -58 -9 -124
-22 -181 -21 -200 14 -224 38 -28 56 -26 133 8 127 58 344 110 553 131 61 7
226 11 367 11 237 0 258 1 280 18 l23 19 3 948 2 947 193 -6 c105 -4 273 -10
372 -13 175 -6 181 -6 208 16 l27 22 -2 530 -3 531 -26 19 c-23 17 -76 22
-575 48 -527 28 -583 30 -1389 28 -462 0 -901 -4 -975 -9z m1630 -171 c0 -64
-51 -195 -106 -274 -100 -143 -252 -218 -465 -231 -289 -17 -504 88 -609 297
-39 77 -76 203 -65 220 4 6 229 10 626 10 l619 0 0 -22z m-1407 -41 c21 -202
169 -426 348 -526 227 -126 549 -144 787 -42 241 102 389 300 437 584 7 46
-47 44 550 12 253 -14 461 -25 463 -25 1 0 2 -182 2 -405 l0 -405 -37 0 c-21
0 -184 5 -363 12 -179 6 -338 8 -353 5 -59 -15 -57 22 -57 -995 l0 -929 -252
-6 c-317 -7 -524 -36 -731 -103 -27 -9 -50 -14 -53 -12 -2 3 3 66 11 142 16
143 13 165 -24 193 -26 20 -58 15 -233 -32 -92 -25 -169 -45 -172 -45 -3 0 -6
87 -6 193 0 164 -2 196 -17 217 -23 34 -33 40 -67 40 -60 0 -244 -121 -383
-251 -28 -27 -54 -49 -57 -49 -3 0 -6 358 -6 795 l0 796 -26 26 -26 26 -197
-6 c-108 -4 -277 -10 -376 -13 l-180 -7 3 406 2 405 83 6 c45 3 176 11 292 17
116 6 271 14 345 18 74 5 169 9 211 10 l76 1 6 -53z"/>
<path d="M3322 673 c-45 -22 -62 -60 -62 -135 0 -78 21 -125 95 -219 63 -81
67 -93 63 -174 -3 -56 -4 -60 -28 -60 -25 0 -25 2 -28 88 l-3 87 -49 0 -50 0
0 -79 c0 -43 5 -91 10 -107 16 -42 56 -67 109 -68 101 -2 141 43 141 157 0 86
-8 105 -91 213 l-69 91 0 70 c0 73 10 90 45 77 12 -5 15 -25 15 -90 l0 -84 50
0 50 0 0 75 c0 43 -6 90 -14 110 -26 60 -113 83 -184 48z"/>
<path d="M1418 669 c-2 -6 -2 -27 0 -45 4 -34 5 -35 43 -29 l39 6 0 -291 0
-290 50 0 50 0 0 285 0 285 40 0 40 0 0 45 0 45 -129 0 c-86 0 -131 -4 -133
-11z"/>
<path d="M1730 350 l0 -330 105 0 105 0 0 40 0 40 -60 0 -60 0 0 120 0 120 60
0 60 0 0 40 0 40 -60 0 -61 0 3 87 3 88 37 -3 c63 -6 78 4 78 49 l0 39 -105 0
-105 0 0 -330z"/>
<path d="M1970 671 c0 -3 16 -77 36 -163 l37 -158 -37 -147 c-20 -82 -39 -156
-42 -165 -5 -15 1 -18 40 -18 l45 0 21 93 c11 50 24 112 29 137 7 43 8 44 14
15 3 -16 16 -78 28 -137 l22 -108 49 0 c26 0 48 2 48 4 0 1 -18 81 -41 177
-40 171 -40 175 -25 229 8 30 24 91 36 135 11 44 23 88 26 98 5 16 0 18 -37
15 -39 -3 -43 -6 -56 -43 -7 -22 -22 -80 -33 -130 -10 -49 -19 -85 -19 -80 -2
25 -31 178 -41 215 -11 41 -11 41 -56 39 -24 -2 -44 -5 -44 -8z"/>
<path d="M2282 638 c3 -43 3 -43 43 -44 l40 0 3 -287 2 -287 45 0 45 0 0 289
0 289 39 -5 c34 -5 40 -2 46 17 4 12 4 32 1 46 -6 24 -7 24 -137 24 l-130 0 3
-42z"/>
<path d="M2590 350 l0 -330 45 0 45 0 0 330 0 330 -45 0 -45 0 0 -330z"/>
<path d="M2750 351 l0 -331 111 0 110 0 -3 37 -3 38 -62 3 -63 3 -2 287 -3
287 -42 3 -43 3 0 -330z"/>
<path d="M3010 350 l0 -330 105 0 105 0 0 40 0 40 -60 0 -60 0 0 120 0 120 60
0 60 0 0 40 0 40 -60 0 -60 0 0 88 0 87 60 -2 60 -2 0 45 0 44 -105 0 -105 0
0 -330z"/>
</g>
</svg>
