<?xml version="1.0" encoding="UTF-8" standalone="no"?>
<!-- Created with Inkscape (http://www.inkscape.org/) -->

<svg
   xmlns:dc="http://purl.org/dc/elements/1.1/"
   xmlns:cc="http://creativecommons.org/ns#"
   xmlns:rdf="http://www.w3.org/1999/02/22-rdf-syntax-ns#"
   xmlns:svg="http://www.w3.org/2000/svg"
   xmlns="http://www.w3.org/2000/svg"
   xmlns:sodipodi="http://sodipodi.sourceforge.net/DTD/sodipodi-0.dtd"
   xmlns:inkscape="http://www.inkscape.org/namespaces/inkscape"
   id="svg3039"
   version="1.1"
   inkscape:version="0.48.2 r9819"
   width="209"
   height="209"
   sodipodi:docname="ants.svg">
  <metadata
     id="metadata3045">
    <rdf:RDF>
      <cc:Work
         rdf:about="">
        <dc:format>image/svg+xml</dc:format>
        <dc:type
           rdf:resource="http://purl.org/dc/dcmitype/StillImage" />
        <dc:title />
      </cc:Work>
    </rdf:RDF>
  </metadata>
  <defs
     id="defs3043" />
  <sodipodi:namedview
     pagecolor="#ffffff"
     bordercolor="#666666"
     borderopacity="1"
     objecttolerance="10"
     gridtolerance="10"
     guidetolerance="10"
     inkscape:pageopacity="0"
     inkscape:pageshadow="2"
     inkscape:window-width="1092"
     inkscape:window-height="761"
     id="namedview3041"
     showgrid="false"
     inkscape:zoom="2.8284271"
     inkscape:cx="120.95186"
     inkscape:cy="105.94647"
     inkscape:window-x="0"
     inkscape:window-y="0"
     inkscape:window-maximized="0"
     inkscape:current-layer="svg3039" />
  <path
     style="fill:#4d4d4d"
     d="m 81.501137,188.39894 c -1.924783,-0.89305 -1.16807,-4.47415 2.267254,-10.72966 8.286839,-15.0898 8.320594,-15.22558 8.35523,-33.60806 0.02642,-14.02151 0.258037,-16.86866 1.54194,-18.9543 1.304676,-2.11938 11.362069,-10.31301 13.811019,-11.25164 0.49959,-0.19149 0.29533,-1.8484 -0.49653,-4.02757 -0.73992,-2.03624 -1.34531,-5.01211 -1.34531,-6.61305 0,-2.33982 -0.55318,-3.17427 -2.82008,-4.253946 -1.55104,-0.73874 -4.27282,-2.852301 -6.048399,-4.696806 -4.794989,-4.981127 -6.32848,-4.231784 -10.840675,5.297316 -2.083477,4.399996 -5.309146,9.594476 -7.168153,11.543286 -3.515416,3.68523 -23.801511,15.95671 -26.378188,15.95671 -1.729244,0 -3.46954,-3.24951 -2.805665,-5.23878 0.253972,-0.76102 4.039199,-3.38112 8.411616,-5.82244 13.303712,-7.4281 17.688364,-11.11559 20.321436,-17.090336 5.222344,-11.850115 8.719537,-15.84844 13.862065,-15.84844 2.821039,0 5.102319,1.359152 9.491613,5.654956 3.81466,3.733413 5.25206,4.116174 6.42296,1.710354 0.65363,-1.342991 -0.25886,-2.241265 -5.11366,-5.033965 C 99.719522,83.522967 98.220731,80.014154 95.8809,77.595207 91.452209,73.016768 93.545032,68.573562 89.076633,60.561224 85.804404,54.693753 80.972439,55.1056 71.827615,50.806326 64.910139,47.554199 63.575412,46.213737 64.499004,43.44623 c 1.188363,-3.560878 6.203311,-2.450034 15.974734,3.53851 6.291976,3.856121 6.378666,3.242113 10.56021,5.499795 3.627796,1.958704 5.349074,6.699058 5.914804,4.649506 1.061093,-3.844187 2.254458,-5.463172 6.221528,-9.21348 4.51045,-4.264006 5.94318,-5.849179 5.94318,-6.841713 0,-2.679703 -1.38916,-7.831342 -7.38189,-11.087058 -6.738418,-3.66083 -10.369692,-8.096018 -8.727424,-11.62445 1.334877,-2.867997 1.709494,-1.830471 3.918993,1.399366 1.017937,1.488016 4.853091,4.544327 8.522571,6.791802 5.93554,3.635394 6.07084,6.981102 8.02284,11.562394 2.5658,6.021861 6.81292,6.347006 8.46992,0.228448 1.46761,-5.419249 2.72949,-8.036598 9.13255,-11.776964 3.46792,-2.025788 7.35195,-5.10703 8.63121,-6.847206 1.93509,-2.632328 2.08698,-2.97877 3.40858,-2.061828 4.55678,3.161545 -0.33912,6.915802 -9.28503,11.998427 -4.53285,2.575348 -5.19773,7.58395 -6.06355,9.509147 l -1.2699,2.823702 5.81849,4.263795 c 0,0 3.09651,1.860944 5.56834,6.325614 l 3.76532,6.800988 6.74803,-5.033221 c 5.77022,-4.303894 7.30956,-4.408541 18.27174,-9.152994 3.62142,-1.542744 4.99702,-3.517695 7.60702,-0.516588 1.39247,1.601138 1.56425,2.424053 0.83365,3.993757 -0.50611,1.087395 -1.36705,1.977082 -1.91319,1.977082 -0.54614,0 -11.46565,3.065233 -15.19145,5.789308 -8.23799,6.023105 -2.81563,3.048763 -10.08619,7.542287 -7.80174,4.821811 -2.86331,14.945499 -14.39325,21.680742 -4.21017,2.459381 -5.89938,3.965586 -5.56639,4.963353 0.75482,2.261789 2.85162,1.689506 6.20166,-1.692623 8.97858,-9.064616 15.22608,-6.818905 21.92591,7.881438 1.56826,3.440984 3.82354,7.374174 5.01173,8.740414 1.18819,1.36624 7.2204,5.44262 13.40491,9.05863 6.1845,3.61601 11.48345,7.29041 11.77544,8.16534 0.32563,0.97573 -0.21482,2.2851 -1.3978,3.38657 -1.87895,1.74948 -2.09752,1.70731 -8.47661,-1.63535 -3.60135,-1.88712 -9.67677,-5.5712 -13.5009,-8.18683 -7.07791,-4.84114 -7.62572,-5.54996 -14.06665,-18.200856 -3.93381,-7.726568 -4.99395,-8.226197 -9.0202,-4.251121 -1.81696,1.793869 -4.76718,4.027768 -6.55603,4.964221 -2.79657,1.463986 -3.25369,2.165136 -3.2613,5.002296 -0.005,1.81481 -0.60057,4.61541 -1.3238,6.22355 -1.30576,2.90343 -1.29206,2.93744 1.95678,4.85888 6.11133,3.61438 10.78313,8.20181 12.1493,11.92991 1.09845,2.99749 1.25241,6.21563 0.82233,17.188 -0.49077,12.52108 -0.38626,13.89882 1.44125,19 1.08371,3.025 3.83571,8.8144 6.11554,12.86533 4.29127,7.62497 4.7762,10.6263 2.02492,12.53254 -1.33685,0.92625 -2.05306,0.49362 -4.48797,-2.71092 -1.59349,-2.09718 -5.00138,-8.55962 -7.32351,-13.79796 -5.26697,-8.43271 -4.42625,-16.32318 -4.42625,-26.28196 0,-14.51833 -0.17359,-16.47769 -1.59042,-17.95204 -2.49442,-2.5957 -2.29329,0.32356 -1.2899,5.41779 2.51918,12.78999 -0.48971,32.71069 -6.17395,39.76476 -6.47196,8.03161 -10.9272,8.30156 -16.72863,-0.12573 -5.47588,-7.95439 -12.19812,-27.238 -9.62384,-40.21181 0.65898,-3.32113 1.2443,-6.10775 1.132,-6.23944 -0.1123,-0.13169 -1.05625,0.67334 -2.09766,1.78896 -1.786953,1.91426 -1.893494,2.89719 -1.893494,17.4692 0,17.43859 -0.340296,19.0191 -6.841637,31.77594 -5.648691,11.08378 -7.040759,12.57128 -10.334532,11.04306 z m 42.964343,-24.41102 c 5.81699,-12.73987 3.16597,-23.63964 3.16597,-30.08355 0,-17.14387 -17.50119,-16.06931 -18.30067,0.0531 -0.54978,11.08681 -2.06828,17.92821 4.43187,30.23546 2.53264,4.79524 8.54264,4.52603 10.70283,-0.20503 z m -3.11068,-55.50726 c 4.22968,-5.17695 1.86189,-16.419436 -3.45811,-16.419436 -2.84182,0 -4.18156,1.497729 -5.28034,5.903082 -1.33801,5.364454 1.71857,13.096914 5.17709,13.096914 0.79914,0 2.40174,-1.16125 3.56136,-2.58056 z m 3.51519,-27.435468 c 6.93164,-2.213942 12.94289,-9.405377 12.94289,-15.483968 0,-6.078591 -6.01125,-13.270026 -12.94289,-15.483968 -9.88262,-3.156474 -21.17454,1.626639 -24.8467,10.524743 -2.110927,5.115038 -1.184812,9.644548 2.94221,14.390002 5.32966,6.128304 14.08989,8.549147 21.90449,6.053191 z"
     id="path3049"
     inkscape:connector-curvature="0"
     sodipodi:nodetypes="sssssssssssssssssssssssssssssssssssssssccscsccssssssssssssssssscssssssssccsssssssssssssssssssssssssss" />
  <path
     sodipodi:type="arc"
     style="fill:#ff5555"
     id="path3051-4"
     sodipodi:cx="105.71174"
     sodipodi:cy="69.262756"
     sodipodi:rx="3.7321429"
     sodipodi:ry="3.1505103"
     d="m 109.44388,69.262756 a 3.7321429,3.1505103 0 1 1 -7.46428,0 3.7321429,3.1505103 0 1 1 7.46428,0 z"
     transform="matrix(1.0588075,0,0,1.3610726,-1.7662599,-34.500383)" />
  <path
     transform="matrix(1.0588075,0,0,1.3610726,14.497197,-34.500383)"
     d="m 109.44388,69.262756 a 3.7321429,3.1505103 0 1 1 -7.46428,0 3.7321429,3.1505103 0 1 1 7.46428,0 z"
     sodipodi:ry="3.1505103"
     sodipodi:rx="3.7321429"
     sodipodi:cy="69.262756"
     sodipodi:cx="105.71174"
     id="path2984"
     style="fill:#ff5555"
     sodipodi:type="arc" />
</svg>
