<svg width="700" height="200" xmlns="http://www.w3.org/2000/svg" xmlns:svg="http://www.w3.org/2000/svg">
 <metadata id="metadata3045">image/svg+xml</metadata>
 <g>
  <title>Layer 1</title>
  <g id="svg_1">
   <path fill="#4d4d4d" id="path3049" d="m602.689941,162.793198c-1.46344,-0.662643 -0.888,-3.319778 1.723938,-7.961807c6.300659,-11.196991 6.326416,-11.29718 6.352722,-24.937592c0.020081,-10.403778 0.196228,-12.516296 1.172424,-14.064133c0.991943,-1.572311 8.639221,-7.652405 10.501221,-8.349121c0.379456,-0.141724 0.224365,-1.371246 -0.377808,-2.988098c-0.562683,-1.511475 -1.022705,-3.718964 -1.022705,-4.906937c0,-1.736313 -0.420471,-2.355881 -2.144165,-3.156754c-1.179199,-0.548126 -3.248962,-2.11644 -4.598999,-3.485077c-3.645752,-3.696045 -4.811707,-3.140076 -8.242493,3.930634c-1.584167,3.264725 -4.036743,7.119476 -5.450195,8.564911c-2.672913,2.735062 -18.097107,11.840317 -20.056213,11.840317c-1.314758,0 -2.638,-2.410782 -2.133179,-3.887405c0.193054,-0.564667 3.071167,-2.508743 6.39563,-4.320007c10.115173,-5.511673 13.449036,-8.248245 15.450989,-12.681229c3.970764,-8.793015 6.629822,-11.759796 10.539795,-11.759796c2.144897,0 3.879456,1.00853 7.216492,4.196075c2.900696,2.770248 3.993347,3.054276 4.883667,1.269089c0.497192,-0.996521 -0.19696,-1.66301 -3.887573,-3.735245c-2.471497,-1.387268 -3.611084,-3.990845 -5.390137,-5.785767c-3.367188,-3.397232 -1.776001,-6.694153 -5.173523,-12.639458c-2.487915,-4.353775 -6.161865,-4.048134 -13.114868,-7.238274c-5.259644,-2.413109 -6.274475,-3.407768 -5.572205,-5.461304c0.903564,-2.642242 4.716553,-1.817917 12.146057,2.625626c4.783997,2.861343 4.849915,2.405746 8.029297,4.080933c2.75824,1.453369 4.067078,4.970818 4.497253,3.449982c0.806702,-2.852371 1.71405,-4.053696 4.730164,-6.836456c3.429871,-3.163956 4.518616,-4.34021 4.518616,-5.076706c0,-1.988312 -1.056091,-5.810944 -5.612,-8.22673c-5.123718,-2.716354 -7.884644,-6.007324 -6.635986,-8.625526c1.014893,-2.12809 1.299805,-1.358177 2.979614,1.038376c0.774048,1.104118 3.68988,3.371941 6.480225,5.039604c4.512634,2.69751 4.616028,5.180069 6.100159,8.579468c1.950256,4.468323 5.179382,4.709549 6.43927,0.169464c1.11615,-4.021118 2.075684,-5.963257 6.944092,-8.738617c2.636841,-1.503174 5.589966,-3.789459 6.562439,-5.080711c1.471252,-1.953278 1.586792,-2.210312 2.59198,-1.529961c3.464844,2.345955 -0.257751,5.131683 -7.059692,8.903061c-3.446594,1.910873 -3.952148,5.627335 -4.610657,7.055878l-0.965576,2.095215l4.424377,3.163788c0,0 2.353882,1.380905 4.233459,4.69368l2.862671,5.046432l5.13147,-3.734711c4.387085,-3.193542 5.557312,-3.271149 13.892029,-6.791641c2.753967,-1.144684 3.799438,-2.610176 5.783813,-0.383316c1.059143,1.18811 1.189941,1.798721 0.634155,2.963455c-0.384705,0.806854 -1.039368,1.467026 -1.454468,1.467026c-0.415222,0 -8.718018,2.274429 -11.551025,4.295746c-6.26355,4.469223 -2.140259,2.262177 -7.668701,5.596481c-5.932068,3.57785 -2.176819,11.089767 -10.943481,16.087357c-3.200928,1.824936 -4.485901,2.942551 -4.232727,3.682938c0.574036,1.678177 2.168518,1.253616 4.715576,-1.256012c6.827026,-6.726074 11.576782,-5.059723 16.671021,5.848145c1.1922,2.553574 2.907532,5.471909 3.810791,6.485504c0.903259,1.013596 5.489563,4.038788 10.192261,6.721909c4.701904,2.683105 8.730835,5.409271 8.952881,6.058548c0.247925,0.724213 -0.163513,1.695496 -1.062927,2.513199c-1.42865,1.29776 -1.594421,1.266617 -6.44458,-1.213959c-2.738708,-1.400146 -7.357666,-4.133743 -10.265198,-6.07486c-5.381653,-3.592072 -5.79834,-4.118164 -10.695618,-13.50502c-2.991089,-5.733231 -3.797119,-6.103943 -6.858215,-3.154358c-1.38147,1.331024 -3.624451,2.988602 -4.984741,3.683517c-2.126648,1.086594 -2.47406,1.60675 -2.47937,3.711838c-0.003784,1.346741 -0.45697,3.424393 -1.006714,4.617554c-0.992981,2.154816 -0.982361,2.180008 1.488037,3.605423c4.646362,2.682373 8.198608,6.085999 9.237183,8.852234c0.8349,2.224548 0.951965,4.61235 0.625,12.753723c-0.373291,9.290741 -0.293457,10.313248 1.095703,14.098251c0.824097,2.244583 2.916626,6.540863 4.650085,9.546738c3.262634,5.657867 3.631409,7.884628 1.539734,9.29892c-1.016541,0.687103 -1.561035,0.366562 -3.412354,-2.011597c-1.211914,-1.556 -3.802429,-6.350891 -5.568665,-10.238281c-4.0047,-6.256668 -3.365234,-12.111908 -3.365234,-19.501617c0,-10.772552 -0.131531,-12.226166 -1.208984,-13.320618c-1.896973,-1.925522 -1.743408,0.240402 -0.980835,4.020218c1.915344,9.490356 -0.372498,24.272003 -4.694214,29.50618c-4.920898,5.959091 -8.308167,6.159439 -12.719666,-0.093506c-4.163513,-5.901978 -9.274353,-20.210968 -7.317383,-29.83783c0.501038,-2.464233 0.946655,-4.532227 0.860718,-4.62944c-0.085144,-0.097946 -0.802917,0.49939 -1.594482,1.327469c-1.358765,1.420212 -1.439819,2.149582 -1.439819,12.962234c0,12.939972 -0.258728,14.11235 -5.201843,23.578232c-4.294922,8.224457 -5.353333,9.327835 -7.857727,8.194046l0,0l0,0l0,0.000015l-0.000061,0.000046zm32.666809,-18.113312c4.422913,-9.453247 2.407227,-17.541183 2.407227,-22.322723c0,-12.721085 -13.30658,-11.923431 -13.914001,0.039307c-0.418213,8.22673 -1.573181,13.303574 3.369751,22.435516c1.92511,3.557953 6.494751,3.358353 8.137024,-0.152115l0,0l0,0.000015zm-2.364563,-41.186935c3.215393,-3.8414 1.41571,-12.183701 -2.629272,-12.183701c-2.160828,0 -3.179749,1.111313 -4.01532,4.380188c-1.017273,3.980667 1.307007,9.717911 3.936218,9.717911c0.608337,0 1.826355,-0.861496 2.708374,-1.914398l0,0zm2.672546,-20.357742c5.27063,-1.642807 9.840942,-6.97892 9.840942,-11.489319c0,-4.510414 -4.570313,-9.846519 -9.840942,-11.489273c-7.514343,-2.342163 -16.100037,1.20697 -18.891968,7.809479c-1.604736,3.795403 -0.900635,7.156334 2.237671,10.677559c4.051758,4.547295 10.712341,6.34362 16.654297,4.491554l0,0l0,0l0,0z"/>
   <path fill="#ff5555" d="m627.48645,67.349686a3.004542,3.181806 0 1 1 -6.009155,0a3.004542,3.181806 0 1 1 6.009155,0z" id="path3051-4"/>
   <path fill="#ff5555" id="path2984" d="m639.85199,67.349686a3.004542,3.181806 0 1 1 -6.009094,0a3.004542,3.181806 0 1 1 6.009094,0z"/>
  </g>
  <text xml:space="preserve" text-anchor="middle" font-family="Hiragino Kaku Gothic StdN" font-size="24" id="svg_2" y="153.271019" x="314.233364" stroke-width="0" fill="#3f3f3f" transform="matrix(6.327348308466069,0,0,5.987756883891109,-1718.2593958730145,-762.2711266570202) ">ANTS</text>
 </g>
</svg>